<?xml version="1.0"?>
<svg xmlns="http://www.w3.org/2000/svg" xmlns:xlink="http://www.w3.org/1999/xlink" viewBox="0 0 237.900000 104.000000" width="118.950000mm" height="52.000000mm" version="1.1">
<a xlink:href="grainN-0x7f06d5b886e0.svg">
<rect x="1.000000" y="1.000000" width="236.900000" height="103.000000" rx="0" ry="0" style="stroke:none;fill:#cccccc;"/>
<rect x="0.000000" y="0.000000" width="236.900000" height="103.000000" rx="0" ry="0" style="stroke:none;fill:#ffffff;"/>
</a>
<text x="10.000000" y="7.000000" font-family="Arial" font-size="7"></text>
<a xlink:href="hann-0x7f06d5b867c0.svg">
<rect x="31.450000" y="25.000000" width="129.000000" height="24.000000" rx="0" ry="0" style="stroke:none;fill:#cccccc;"/>
<rect x="30.450000" y="24.000000" width="129.000000" height="24.000000" rx="0" ry="0" style="stroke:none;fill:#003366;"/>
</a>
<a xlink:href="hann-0x7f06d5b867c0.svg">
<text x="94.950000" y="38.000000" font-family="Arial" font-size="7" text-anchor="middle" fill="#FFFFFF">hann(1.0f,((c...) : *) : min)</text>
</a>
<circle cx="32.450000" cy="26.000000" r="1"/>
<a xlink:href="buffer-0x7f06d5b86910.svg">
<rect x="25.000000" y="57.000000" width="141.900000" height="24.000000" rx="0" ry="0" style="stroke:none;fill:#cccccc;"/>
<rect x="24.000000" y="56.000000" width="141.900000" height="24.000000" rx="0" ry="0" style="stroke:none;fill:#003366;"/>
</a>
<a xlink:href="buffer-0x7f06d5b86910.svg">
<text x="94.950000" y="70.000000" font-family="Arial" font-size="7" text-anchor="middle" fill="#FFFFFF">buffer(588000... /) : *) : +)(x2)</text>
</a>
<circle cx="26.000000" cy="58.000000" r="1"/>
<rect x="182.900000" y="41.000000" width="24.000000" height="24.000000" rx="0" ry="0" style="stroke:none;fill:#cccccc;"/>
<rect x="181.900000" y="40.000000" width="24.000000" height="24.000000" rx="0" ry="0" style="stroke:none;fill:#4B71A1;"/>
<text x="193.900000" y="54.000000" font-family="Arial" font-size="7" text-anchor="middle" fill="#FFFFFF">*</text>
<circle cx="183.900000" cy="42.000000" r="1"/>
<line x1="178.900000" y1="47.000000" x2="181.900000" y2="48.000000"  transform="rotate(0.000000,181.900000,48.000000)" style="stroke: black; stroke-width:0.25;"/>
<line x1="178.900000" y1="49.000000" x2="181.900000" y2="48.000000"  transform="rotate(0.000000,181.900000,48.000000)" style="stroke: black; stroke-width:0.25;"/>
<line x1="178.900000" y1="55.000000" x2="181.900000" y2="56.000000"  transform="rotate(0.000000,181.900000,56.000000)" style="stroke: black; stroke-width:0.25;"/>
<line x1="178.900000" y1="57.000000" x2="181.900000" y2="56.000000"  transform="rotate(0.000000,181.900000,56.000000)" style="stroke: black; stroke-width:0.25;"/>
<line x1="15.000000" y1="15.000000" x2="15.000000" y2="89.000000"  style="stroke: black; stroke-linecap:round; stroke-width:0.25; stroke-dasharray:3,3;"/>
<line x1="15.000000" y1="89.000000" x2="222.900000" y2="89.000000"  style="stroke: black; stroke-linecap:round; stroke-width:0.25; stroke-dasharray:3,3;"/>
<line x1="222.900000" y1="89.000000" x2="222.900000" y2="15.000000"  style="stroke: black; stroke-linecap:round; stroke-width:0.25; stroke-dasharray:3,3;"/>
<line x1="15.000000" y1="15.000000" x2="20.000000" y2="15.000000"  style="stroke: black; stroke-linecap:round; stroke-width:0.25; stroke-dasharray:3,3;"/>
<line x1="132.875000" y1="15.000000" x2="222.900000" y2="15.000000"  style="stroke: black; stroke-linecap:round; stroke-width:0.25; stroke-dasharray:3,3;"/>
<text x="20.000000" y="17.000000" font-family="Arial" font-size="7">grain(0)(3)(h....0f, 0.001f))(x2)</text>
<line x1="224.900000" y1="51.000000" x2="227.900000" y2="52.000000"  transform="rotate(0.000000,227.900000,52.000000)" style="stroke: black; stroke-width:0.25;"/>
<line x1="224.900000" y1="53.000000" x2="227.900000" y2="52.000000"  transform="rotate(0.000000,227.900000,52.000000)" style="stroke: black; stroke-width:0.25;"/>
<line x1="159.450000" y1="36.000000" x2="163.450000" y2="36.000000"  style="stroke:black; stroke-linecap:round; stroke-width:0.25;"/>
<line x1="163.450000" y1="36.000000" x2="169.900000" y2="36.000000"  style="stroke:black; stroke-linecap:round; stroke-width:0.25;"/>
<line x1="165.900000" y1="68.000000" x2="169.900000" y2="68.000000"  style="stroke:black; stroke-linecap:round; stroke-width:0.25;"/>
<line x1="169.900000" y1="36.000000" x2="177.900000" y2="36.000000"  style="stroke:black; stroke-linecap:round; stroke-width:0.25;"/>
<line x1="169.900000" y1="56.000000" x2="177.900000" y2="56.000000"  style="stroke:black; stroke-linecap:round; stroke-width:0.25;"/>
<line x1="169.900000" y1="68.000000" x2="169.900000" y2="56.000000"  style="stroke:black; stroke-linecap:round; stroke-width:0.25;"/>
<line x1="169.900000" y1="68.000000" x2="169.900000" y2="68.000000"  style="stroke:black; stroke-linecap:round; stroke-width:0.25;"/>
<line x1="177.900000" y1="36.000000" x2="177.900000" y2="48.000000"  style="stroke:black; stroke-linecap:round; stroke-width:0.25;"/>
<line x1="177.900000" y1="48.000000" x2="177.900000" y2="48.000000"  style="stroke:black; stroke-linecap:round; stroke-width:0.25;"/>
<line x1="177.900000" y1="48.000000" x2="181.900000" y2="48.000000"  style="stroke:black; stroke-linecap:round; stroke-width:0.25;"/>
<line x1="177.900000" y1="56.000000" x2="181.900000" y2="56.000000"  style="stroke:black; stroke-linecap:round; stroke-width:0.25;"/>
<line x1="205.900000" y1="52.000000" x2="209.900000" y2="52.000000"  style="stroke:black; stroke-linecap:round; stroke-width:0.25;"/>
<line x1="209.900000" y1="52.000000" x2="209.900000" y2="52.000000"  style="stroke:black; stroke-linecap:round; stroke-width:0.25;"/>
<line x1="209.900000" y1="52.000000" x2="213.900000" y2="52.000000"  style="stroke:black; stroke-linecap:round; stroke-width:0.25;"/>
<line x1="213.900000" y1="52.000000" x2="217.900000" y2="52.000000"  style="stroke:black; stroke-linecap:round; stroke-width:0.25;"/>
<line x1="217.900000" y1="52.000000" x2="227.900000" y2="52.000000"  style="stroke:black; stroke-linecap:round; stroke-width:0.25;"/>
</svg>
