<?xml version="1.0"?>
<svg xmlns="http://www.w3.org/2000/svg" xmlns:xlink="http://www.w3.org/1999/xlink" viewBox="0 0 213.900000 168.000000" width="106.950000mm" height="84.000000mm" version="1.1">
<a xlink:href="granular-0x7f06d5b88980.svg">
<rect x="1.000000" y="1.000000" width="212.900000" height="167.000000" rx="0" ry="0" style="stroke:none;fill:#cccccc;"/>
<rect x="0.000000" y="0.000000" width="212.900000" height="167.000000" rx="0" ry="0" style="stroke:none;fill:#ffffff;"/>
</a>
<text x="10.000000" y="7.000000" font-family="Arial" font-size="7"></text>
<a xlink:href="grain-0x7f06d5b86b90.svg">
<rect x="25.000000" y="25.000000" width="141.900000" height="24.000000" rx="0" ry="0" style="stroke:none;fill:#cccccc;"/>
<rect x="24.000000" y="24.000000" width="141.900000" height="24.000000" rx="0" ry="0" style="stroke:none;fill:#003366;"/>
</a>
<a xlink:href="grain-0x7f06d5b86b90.svg">
<text x="94.950000" y="38.000000" font-family="Arial" font-size="7" text-anchor="middle" fill="#FFFFFF">grain(0)(3)(h....0f, 0.001f))(x2)</text>
</a>
<circle cx="26.000000" cy="26.000000" r="1"/>
<a xlink:href="grain-0x7f06d5b87390.svg">
<rect x="25.000000" y="57.000000" width="141.900000" height="24.000000" rx="0" ry="0" style="stroke:none;fill:#cccccc;"/>
<rect x="24.000000" y="56.000000" width="141.900000" height="24.000000" rx="0" ry="0" style="stroke:none;fill:#003366;"/>
</a>
<a xlink:href="grain-0x7f06d5b87390.svg">
<text x="94.950000" y="70.000000" font-family="Arial" font-size="7" text-anchor="middle" fill="#FFFFFF">grain(1)(3)(h....0f, 0.001f))(x2)</text>
</a>
<circle cx="26.000000" cy="58.000000" r="1"/>
<a xlink:href="grain-0x7f06d5b87b90.svg">
<rect x="25.000000" y="89.000000" width="141.900000" height="24.000000" rx="0" ry="0" style="stroke:none;fill:#cccccc;"/>
<rect x="24.000000" y="88.000000" width="141.900000" height="24.000000" rx="0" ry="0" style="stroke:none;fill:#003366;"/>
</a>
<a xlink:href="grain-0x7f06d5b87b90.svg">
<text x="94.950000" y="102.000000" font-family="Arial" font-size="7" text-anchor="middle" fill="#FFFFFF">grain(2)(3)(h....0f, 0.001f))(x2)</text>
</a>
<circle cx="26.000000" cy="90.000000" r="1"/>
<a xlink:href="grain-0x7f06d5b88370.svg">
<rect x="25.000000" y="121.000000" width="141.900000" height="24.000000" rx="0" ry="0" style="stroke:none;fill:#cccccc;"/>
<rect x="24.000000" y="120.000000" width="141.900000" height="24.000000" rx="0" ry="0" style="stroke:none;fill:#003366;"/>
</a>
<a xlink:href="grain-0x7f06d5b88370.svg">
<text x="94.950000" y="134.000000" font-family="Arial" font-size="7" text-anchor="middle" fill="#FFFFFF">grain(3)(3)(h....0f, 0.001f))(x2)</text>
</a>
<circle cx="26.000000" cy="122.000000" r="1"/>
<line x1="15.000000" y1="15.000000" x2="15.000000" y2="153.000000"  style="stroke: black; stroke-linecap:round; stroke-width:0.25; stroke-dasharray:3,3;"/>
<line x1="15.000000" y1="153.000000" x2="198.900000" y2="153.000000"  style="stroke: black; stroke-linecap:round; stroke-width:0.25; stroke-dasharray:3,3;"/>
<line x1="198.900000" y1="153.000000" x2="198.900000" y2="15.000000"  style="stroke: black; stroke-linecap:round; stroke-width:0.25; stroke-dasharray:3,3;"/>
<line x1="15.000000" y1="15.000000" x2="20.000000" y2="15.000000"  style="stroke: black; stroke-linecap:round; stroke-width:0.25; stroke-dasharray:3,3;"/>
<line x1="132.875000" y1="15.000000" x2="198.900000" y2="15.000000"  style="stroke: black; stroke-linecap:round; stroke-width:0.25; stroke-dasharray:3,3;"/>
<text x="20.000000" y="17.000000" font-family="Arial" font-size="7">grainN(4)(3)(....0f, 0.001f))(x2)</text>
<line x1="200.900000" y1="71.000000" x2="203.900000" y2="72.000000"  transform="rotate(0.000000,203.900000,72.000000)" style="stroke: black; stroke-width:0.25;"/>
<line x1="200.900000" y1="73.000000" x2="203.900000" y2="72.000000"  transform="rotate(0.000000,203.900000,72.000000)" style="stroke: black; stroke-width:0.25;"/>
<line x1="200.900000" y1="79.000000" x2="203.900000" y2="80.000000"  transform="rotate(0.000000,203.900000,80.000000)" style="stroke: black; stroke-width:0.25;"/>
<line x1="200.900000" y1="81.000000" x2="203.900000" y2="80.000000"  transform="rotate(0.000000,203.900000,80.000000)" style="stroke: black; stroke-width:0.25;"/>
<line x1="200.900000" y1="87.000000" x2="203.900000" y2="88.000000"  transform="rotate(0.000000,203.900000,88.000000)" style="stroke: black; stroke-width:0.25;"/>
<line x1="200.900000" y1="89.000000" x2="203.900000" y2="88.000000"  transform="rotate(0.000000,203.900000,88.000000)" style="stroke: black; stroke-width:0.25;"/>
<line x1="200.900000" y1="95.000000" x2="203.900000" y2="96.000000"  transform="rotate(0.000000,203.900000,96.000000)" style="stroke: black; stroke-width:0.25;"/>
<line x1="200.900000" y1="97.000000" x2="203.900000" y2="96.000000"  transform="rotate(0.000000,203.900000,96.000000)" style="stroke: black; stroke-width:0.25;"/>
<line x1="165.900000" y1="36.000000" x2="169.900000" y2="36.000000"  style="stroke:black; stroke-linecap:round; stroke-width:0.25;"/>
<line x1="165.900000" y1="68.000000" x2="169.900000" y2="68.000000"  style="stroke:black; stroke-linecap:round; stroke-width:0.25;"/>
<line x1="165.900000" y1="100.000000" x2="169.900000" y2="100.000000"  style="stroke:black; stroke-linecap:round; stroke-width:0.25;"/>
<line x1="165.900000" y1="132.000000" x2="169.900000" y2="132.000000"  style="stroke:black; stroke-linecap:round; stroke-width:0.25;"/>
<line x1="169.900000" y1="36.000000" x2="185.900000" y2="36.000000"  style="stroke:black; stroke-linecap:round; stroke-width:0.25;"/>
<line x1="169.900000" y1="68.000000" x2="177.900000" y2="68.000000"  style="stroke:black; stroke-linecap:round; stroke-width:0.25;"/>
<line x1="169.900000" y1="88.000000" x2="185.900000" y2="88.000000"  style="stroke:black; stroke-linecap:round; stroke-width:0.25;"/>
<line x1="169.900000" y1="100.000000" x2="169.900000" y2="88.000000"  style="stroke:black; stroke-linecap:round; stroke-width:0.25;"/>
<line x1="169.900000" y1="100.000000" x2="169.900000" y2="100.000000"  style="stroke:black; stroke-linecap:round; stroke-width:0.25;"/>
<line x1="169.900000" y1="132.000000" x2="177.900000" y2="132.000000"  style="stroke:black; stroke-linecap:round; stroke-width:0.25;"/>
<line x1="177.900000" y1="68.000000" x2="177.900000" y2="80.000000"  style="stroke:black; stroke-linecap:round; stroke-width:0.25;"/>
<line x1="177.900000" y1="80.000000" x2="185.900000" y2="80.000000"  style="stroke:black; stroke-linecap:round; stroke-width:0.25;"/>
<line x1="177.900000" y1="96.000000" x2="185.900000" y2="96.000000"  style="stroke:black; stroke-linecap:round; stroke-width:0.25;"/>
<line x1="177.900000" y1="132.000000" x2="177.900000" y2="96.000000"  style="stroke:black; stroke-linecap:round; stroke-width:0.25;"/>
<line x1="185.900000" y1="36.000000" x2="185.900000" y2="72.000000"  style="stroke:black; stroke-linecap:round; stroke-width:0.25;"/>
<line x1="185.900000" y1="72.000000" x2="185.900000" y2="72.000000"  style="stroke:black; stroke-linecap:round; stroke-width:0.25;"/>
<line x1="185.900000" y1="72.000000" x2="189.900000" y2="72.000000"  style="stroke:black; stroke-linecap:round; stroke-width:0.25;"/>
<line x1="185.900000" y1="80.000000" x2="189.900000" y2="80.000000"  style="stroke:black; stroke-linecap:round; stroke-width:0.25;"/>
<line x1="185.900000" y1="88.000000" x2="189.900000" y2="88.000000"  style="stroke:black; stroke-linecap:round; stroke-width:0.25;"/>
<line x1="185.900000" y1="96.000000" x2="189.900000" y2="96.000000"  style="stroke:black; stroke-linecap:round; stroke-width:0.25;"/>
<line x1="189.900000" y1="72.000000" x2="193.900000" y2="72.000000"  style="stroke:black; stroke-linecap:round; stroke-width:0.25;"/>
<line x1="189.900000" y1="80.000000" x2="193.900000" y2="80.000000"  style="stroke:black; stroke-linecap:round; stroke-width:0.25;"/>
<line x1="189.900000" y1="88.000000" x2="193.900000" y2="88.000000"  style="stroke:black; stroke-linecap:round; stroke-width:0.25;"/>
<line x1="189.900000" y1="96.000000" x2="193.900000" y2="96.000000"  style="stroke:black; stroke-linecap:round; stroke-width:0.25;"/>
<line x1="193.900000" y1="72.000000" x2="203.900000" y2="72.000000"  style="stroke:black; stroke-linecap:round; stroke-width:0.25;"/>
<line x1="193.900000" y1="80.000000" x2="203.900000" y2="80.000000"  style="stroke:black; stroke-linecap:round; stroke-width:0.25;"/>
<line x1="193.900000" y1="88.000000" x2="203.900000" y2="88.000000"  style="stroke:black; stroke-linecap:round; stroke-width:0.25;"/>
<line x1="193.900000" y1="96.000000" x2="203.900000" y2="96.000000"  style="stroke:black; stroke-linecap:round; stroke-width:0.25;"/>
</svg>
