<?xml version="1.0"?>
<svg xmlns="http://www.w3.org/2000/svg" xmlns:xlink="http://www.w3.org/1999/xlink" viewBox="0 0 303.900000 104.000000" width="151.950000mm" height="52.000000mm" version="1.1">
<a xlink:href="process.svg">
<rect x="1.000000" y="1.000000" width="302.900000" height="103.000000" rx="0" ry="0" style="stroke:none;fill:#cccccc;"/>
<rect x="0.000000" y="0.000000" width="302.900000" height="103.000000" rx="0" ry="0" style="stroke:none;fill:#ffffff;"/>
</a>
<text x="10.000000" y="7.000000" font-family="Arial" font-size="7"></text>
<rect x="33.000000" y="41.000000" width="24.000000" height="24.000000" rx="0" ry="0" style="stroke:none;fill:#cccccc;"/>
<rect x="32.000000" y="40.000000" width="24.000000" height="24.000000" rx="0" ry="0" style="stroke:none;fill:#47945E;"/>
<text x="44.000000" y="54.000000" font-family="Arial" font-size="7" text-anchor="middle" fill="#FFFFFF">x</text>
<circle cx="34.000000" cy="42.000000" r="1"/>
<line x1="29.000000" y1="51.000000" x2="32.000000" y2="52.000000"  transform="rotate(0.000000,32.000000,52.000000)" style="stroke: black; stroke-width:0.25;"/>
<line x1="29.000000" y1="53.000000" x2="32.000000" y2="52.000000"  transform="rotate(0.000000,32.000000,52.000000)" style="stroke: black; stroke-width:0.25;"/>
<a xlink:href="grainN-0x7f06d5b886e0.svg">
<rect x="65.000000" y="37.000000" width="141.900000" height="32.000000" rx="0" ry="0" style="stroke:none;fill:#cccccc;"/>
<rect x="64.000000" y="36.000000" width="141.900000" height="32.000000" rx="0" ry="0" style="stroke:none;fill:#003366;"/>
</a>
<a xlink:href="grainN-0x7f06d5b886e0.svg">
<text x="134.950000" y="54.000000" font-family="Arial" font-size="7" text-anchor="middle" fill="#FFFFFF">grainN(4)(3)(....0f, 0.001f))(x2)</text>
</a>
<circle cx="66.000000" cy="38.000000" r="1"/>
<rect x="240.900000" y="25.000000" width="24.000000" height="24.000000" rx="0" ry="0" style="stroke:none;fill:#cccccc;"/>
<rect x="239.900000" y="24.000000" width="24.000000" height="24.000000" rx="0" ry="0" style="stroke:none;fill:#4B71A1;"/>
<text x="251.900000" y="38.000000" font-family="Arial" font-size="7" text-anchor="middle" fill="#FFFFFF">+</text>
<circle cx="241.900000" cy="26.000000" r="1"/>
<line x1="236.900000" y1="31.000000" x2="239.900000" y2="32.000000"  transform="rotate(0.000000,239.900000,32.000000)" style="stroke: black; stroke-width:0.25;"/>
<line x1="236.900000" y1="33.000000" x2="239.900000" y2="32.000000"  transform="rotate(0.000000,239.900000,32.000000)" style="stroke: black; stroke-width:0.25;"/>
<line x1="236.900000" y1="39.000000" x2="239.900000" y2="40.000000"  transform="rotate(0.000000,239.900000,40.000000)" style="stroke: black; stroke-width:0.25;"/>
<line x1="236.900000" y1="41.000000" x2="239.900000" y2="40.000000"  transform="rotate(0.000000,239.900000,40.000000)" style="stroke: black; stroke-width:0.25;"/>
<rect x="240.900000" y="57.000000" width="24.000000" height="24.000000" rx="0" ry="0" style="stroke:none;fill:#cccccc;"/>
<rect x="239.900000" y="56.000000" width="24.000000" height="24.000000" rx="0" ry="0" style="stroke:none;fill:#4B71A1;"/>
<text x="251.900000" y="70.000000" font-family="Arial" font-size="7" text-anchor="middle" fill="#FFFFFF">+</text>
<circle cx="241.900000" cy="58.000000" r="1"/>
<line x1="236.900000" y1="63.000000" x2="239.900000" y2="64.000000"  transform="rotate(0.000000,239.900000,64.000000)" style="stroke: black; stroke-width:0.25;"/>
<line x1="236.900000" y1="65.000000" x2="239.900000" y2="64.000000"  transform="rotate(0.000000,239.900000,64.000000)" style="stroke: black; stroke-width:0.25;"/>
<line x1="236.900000" y1="71.000000" x2="239.900000" y2="72.000000"  transform="rotate(0.000000,239.900000,72.000000)" style="stroke: black; stroke-width:0.25;"/>
<line x1="236.900000" y1="73.000000" x2="239.900000" y2="72.000000"  transform="rotate(0.000000,239.900000,72.000000)" style="stroke: black; stroke-width:0.25;"/>
<line x1="15.000000" y1="15.000000" x2="15.000000" y2="89.000000"  style="stroke: black; stroke-linecap:round; stroke-width:0.25; stroke-dasharray:3,3;"/>
<line x1="15.000000" y1="89.000000" x2="288.900000" y2="89.000000"  style="stroke: black; stroke-linecap:round; stroke-width:0.25; stroke-dasharray:3,3;"/>
<line x1="288.900000" y1="89.000000" x2="288.900000" y2="15.000000"  style="stroke: black; stroke-linecap:round; stroke-width:0.25; stroke-dasharray:3,3;"/>
<line x1="15.000000" y1="15.000000" x2="20.000000" y2="15.000000"  style="stroke: black; stroke-linecap:round; stroke-width:0.25; stroke-dasharray:3,3;"/>
<line x1="81.275000" y1="15.000000" x2="288.900000" y2="15.000000"  style="stroke: black; stroke-linecap:round; stroke-width:0.25; stroke-dasharray:3,3;"/>
<text x="20.000000" y="17.000000" font-family="Arial" font-size="7">granular_sampling</text>
<line x1="290.900000" y1="47.000000" x2="293.900000" y2="48.000000"  transform="rotate(0.000000,293.900000,48.000000)" style="stroke: black; stroke-width:0.25;"/>
<line x1="290.900000" y1="49.000000" x2="293.900000" y2="48.000000"  transform="rotate(0.000000,293.900000,48.000000)" style="stroke: black; stroke-width:0.25;"/>
<line x1="290.900000" y1="55.000000" x2="293.900000" y2="56.000000"  transform="rotate(0.000000,293.900000,56.000000)" style="stroke: black; stroke-width:0.25;"/>
<line x1="290.900000" y1="57.000000" x2="293.900000" y2="56.000000"  transform="rotate(0.000000,293.900000,56.000000)" style="stroke: black; stroke-width:0.25;"/>
<line x1="10.000000" y1="52.000000" x2="20.000000" y2="52.000000"  style="stroke:black; stroke-linecap:round; stroke-width:0.25;"/>
<line x1="20.000000" y1="52.000000" x2="24.000000" y2="52.000000"  style="stroke:black; stroke-linecap:round; stroke-width:0.25;"/>
<line x1="24.000000" y1="52.000000" x2="28.000000" y2="52.000000"  style="stroke:black; stroke-linecap:round; stroke-width:0.25;"/>
<line x1="28.000000" y1="52.000000" x2="28.000000" y2="52.000000"  style="stroke:black; stroke-linecap:round; stroke-width:0.25;"/>
<line x1="28.000000" y1="52.000000" x2="32.000000" y2="52.000000"  style="stroke:black; stroke-linecap:round; stroke-width:0.25;"/>
<line x1="205.900000" y1="40.000000" x2="209.900000" y2="40.000000"  style="stroke:black; stroke-linecap:round; stroke-width:0.25;"/>
<line x1="205.900000" y1="48.000000" x2="209.900000" y2="48.000000"  style="stroke:black; stroke-linecap:round; stroke-width:0.25;"/>
<line x1="205.900000" y1="56.000000" x2="209.900000" y2="56.000000"  style="stroke:black; stroke-linecap:round; stroke-width:0.25;"/>
<line x1="205.900000" y1="64.000000" x2="209.900000" y2="64.000000"  style="stroke:black; stroke-linecap:round; stroke-width:0.25;"/>
<line x1="209.900000" y1="40.000000" x2="235.900000" y2="32.000000"  style="stroke:black; stroke-linecap:round; stroke-width:0.25;"/>
<line x1="209.900000" y1="48.000000" x2="235.900000" y2="40.000000"  style="stroke:black; stroke-linecap:round; stroke-width:0.25;"/>
<line x1="209.900000" y1="56.000000" x2="235.900000" y2="64.000000"  style="stroke:black; stroke-linecap:round; stroke-width:0.25;"/>
<line x1="209.900000" y1="64.000000" x2="235.900000" y2="72.000000"  style="stroke:black; stroke-linecap:round; stroke-width:0.25;"/>
<line x1="235.900000" y1="32.000000" x2="239.900000" y2="32.000000"  style="stroke:black; stroke-linecap:round; stroke-width:0.25;"/>
<line x1="235.900000" y1="40.000000" x2="239.900000" y2="40.000000"  style="stroke:black; stroke-linecap:round; stroke-width:0.25;"/>
<line x1="235.900000" y1="64.000000" x2="239.900000" y2="64.000000"  style="stroke:black; stroke-linecap:round; stroke-width:0.25;"/>
<line x1="235.900000" y1="72.000000" x2="239.900000" y2="72.000000"  style="stroke:black; stroke-linecap:round; stroke-width:0.25;"/>
<line x1="263.900000" y1="36.000000" x2="267.900000" y2="36.000000"  style="stroke:black; stroke-linecap:round; stroke-width:0.25;"/>
<line x1="263.900000" y1="68.000000" x2="267.900000" y2="68.000000"  style="stroke:black; stroke-linecap:round; stroke-width:0.25;"/>
<line x1="267.900000" y1="36.000000" x2="275.900000" y2="36.000000"  style="stroke:black; stroke-linecap:round; stroke-width:0.25;"/>
<line x1="267.900000" y1="56.000000" x2="275.900000" y2="56.000000"  style="stroke:black; stroke-linecap:round; stroke-width:0.25;"/>
<line x1="267.900000" y1="68.000000" x2="267.900000" y2="56.000000"  style="stroke:black; stroke-linecap:round; stroke-width:0.25;"/>
<line x1="267.900000" y1="68.000000" x2="267.900000" y2="68.000000"  style="stroke:black; stroke-linecap:round; stroke-width:0.25;"/>
<line x1="275.900000" y1="36.000000" x2="275.900000" y2="48.000000"  style="stroke:black; stroke-linecap:round; stroke-width:0.25;"/>
<line x1="275.900000" y1="48.000000" x2="275.900000" y2="48.000000"  style="stroke:black; stroke-linecap:round; stroke-width:0.25;"/>
<line x1="275.900000" y1="48.000000" x2="279.900000" y2="48.000000"  style="stroke:black; stroke-linecap:round; stroke-width:0.25;"/>
<line x1="275.900000" y1="56.000000" x2="279.900000" y2="56.000000"  style="stroke:black; stroke-linecap:round; stroke-width:0.25;"/>
<line x1="279.900000" y1="48.000000" x2="283.900000" y2="48.000000"  style="stroke:black; stroke-linecap:round; stroke-width:0.25;"/>
<line x1="279.900000" y1="56.000000" x2="283.900000" y2="56.000000"  style="stroke:black; stroke-linecap:round; stroke-width:0.25;"/>
<line x1="283.900000" y1="48.000000" x2="293.900000" y2="48.000000"  style="stroke:black; stroke-linecap:round; stroke-width:0.25;"/>
<line x1="283.900000" y1="56.000000" x2="293.900000" y2="56.000000"  style="stroke:black; stroke-linecap:round; stroke-width:0.25;"/>
</svg>
