<?xml version="1.0"?>
<svg xmlns="http://www.w3.org/2000/svg" xmlns:xlink="http://www.w3.org/1999/xlink" viewBox="0 0 213.400000 136.000000" width="106.700000mm" height="68.000000mm" version="1.1">
<a xlink:href="readingSegment-0x7f06d5b84950.svg">
<rect x="1.000000" y="1.000000" width="212.400000" height="135.000000" rx="0" ry="0" style="stroke:none;fill:#cccccc;"/>
<rect x="0.000000" y="0.000000" width="212.400000" height="135.000000" rx="0" ry="0" style="stroke:none;fill:#ffffff;"/>
</a>
<text x="10.000000" y="7.000000" font-family="Arial" font-size="7"></text>
<a xlink:href="maxGrainDuration-0x7f06d5b83ea0.svg">
<rect x="45.000000" y="25.000000" width="77.400000" height="24.000000" rx="0" ry="0" style="stroke:none;fill:#cccccc;"/>
<rect x="44.000000" y="24.000000" width="77.400000" height="24.000000" rx="0" ry="0" style="stroke:none;fill:#003366;"/>
</a>
<a xlink:href="maxGrainDuration-0x7f06d5b83ea0.svg">
<text x="82.700000" y="38.000000" font-family="Arial" font-size="7" text-anchor="middle" fill="#FFFFFF">maxGrainDuration</text>
</a>
<circle cx="46.000000" cy="26.000000" r="1"/>
<a xlink:href="maxGrainDuration-0x7f06d5b83ea0.svg">
<rect x="25.000000" y="57.000000" width="77.400000" height="24.000000" rx="0" ry="0" style="stroke:none;fill:#cccccc;"/>
<rect x="24.000000" y="56.000000" width="77.400000" height="24.000000" rx="0" ry="0" style="stroke:none;fill:#003366;"/>
</a>
<a xlink:href="maxGrainDuration-0x7f06d5b83ea0.svg">
<text x="62.700000" y="70.000000" font-family="Arial" font-size="7" text-anchor="middle" fill="#FFFFFF">maxGrainDuration</text>
</a>
<circle cx="26.000000" cy="58.000000" r="1"/>
<a xlink:href="grainDuration-0x7f06d5b84030.svg">
<rect x="31.450000" y="89.000000" width="64.500000" height="24.000000" rx="0" ry="0" style="stroke:none;fill:#cccccc;"/>
<rect x="30.450000" y="88.000000" width="64.500000" height="24.000000" rx="0" ry="0" style="stroke:none;fill:#003366;"/>
</a>
<a xlink:href="grainDuration-0x7f06d5b84030.svg">
<text x="62.700000" y="102.000000" font-family="Arial" font-size="7" text-anchor="middle" fill="#FFFFFF">grainDuration</text>
</a>
<circle cx="32.450000" cy="90.000000" r="1"/>
<rect x="118.400000" y="73.000000" width="24.000000" height="24.000000" rx="0" ry="0" style="stroke:none;fill:#cccccc;"/>
<rect x="117.400000" y="72.000000" width="24.000000" height="24.000000" rx="0" ry="0" style="stroke:none;fill:#4B71A1;"/>
<text x="129.400000" y="86.000000" font-family="Arial" font-size="7" text-anchor="middle" fill="#FFFFFF">min</text>
<circle cx="119.400000" cy="74.000000" r="1"/>
<line x1="114.400000" y1="79.000000" x2="117.400000" y2="80.000000"  transform="rotate(0.000000,117.400000,80.000000)" style="stroke: black; stroke-width:0.25;"/>
<line x1="114.400000" y1="81.000000" x2="117.400000" y2="80.000000"  transform="rotate(0.000000,117.400000,80.000000)" style="stroke: black; stroke-width:0.25;"/>
<line x1="114.400000" y1="87.000000" x2="117.400000" y2="88.000000"  transform="rotate(0.000000,117.400000,88.000000)" style="stroke: black; stroke-width:0.25;"/>
<line x1="114.400000" y1="89.000000" x2="117.400000" y2="88.000000"  transform="rotate(0.000000,117.400000,88.000000)" style="stroke: black; stroke-width:0.25;"/>
<rect x="158.400000" y="57.000000" width="24.000000" height="24.000000" rx="0" ry="0" style="stroke:none;fill:#cccccc;"/>
<rect x="157.400000" y="56.000000" width="24.000000" height="24.000000" rx="0" ry="0" style="stroke:none;fill:#4B71A1;"/>
<text x="169.400000" y="70.000000" font-family="Arial" font-size="7" text-anchor="middle" fill="#FFFFFF">/</text>
<circle cx="159.400000" cy="58.000000" r="1"/>
<line x1="154.400000" y1="63.000000" x2="157.400000" y2="64.000000"  transform="rotate(0.000000,157.400000,64.000000)" style="stroke: black; stroke-width:0.25;"/>
<line x1="154.400000" y1="65.000000" x2="157.400000" y2="64.000000"  transform="rotate(0.000000,157.400000,64.000000)" style="stroke: black; stroke-width:0.25;"/>
<line x1="154.400000" y1="71.000000" x2="157.400000" y2="72.000000"  transform="rotate(0.000000,157.400000,72.000000)" style="stroke: black; stroke-width:0.25;"/>
<line x1="154.400000" y1="73.000000" x2="157.400000" y2="72.000000"  transform="rotate(0.000000,157.400000,72.000000)" style="stroke: black; stroke-width:0.25;"/>
<line x1="15.000000" y1="15.000000" x2="15.000000" y2="121.000000"  style="stroke: black; stroke-linecap:round; stroke-width:0.25; stroke-dasharray:3,3;"/>
<line x1="15.000000" y1="121.000000" x2="198.400000" y2="121.000000"  style="stroke: black; stroke-linecap:round; stroke-width:0.25; stroke-dasharray:3,3;"/>
<line x1="198.400000" y1="121.000000" x2="198.400000" y2="15.000000"  style="stroke: black; stroke-linecap:round; stroke-width:0.25; stroke-dasharray:3,3;"/>
<line x1="15.000000" y1="15.000000" x2="20.000000" y2="15.000000"  style="stroke: black; stroke-linecap:round; stroke-width:0.25; stroke-dasharray:3,3;"/>
<line x1="81.275000" y1="15.000000" x2="198.400000" y2="15.000000"  style="stroke: black; stroke-linecap:round; stroke-width:0.25; stroke-dasharray:3,3;"/>
<text x="20.000000" y="17.000000" font-family="Arial" font-size="7">phasorSlopeFactor</text>
<line x1="200.400000" y1="67.000000" x2="203.400000" y2="68.000000"  transform="rotate(0.000000,203.400000,68.000000)" style="stroke: black; stroke-width:0.25;"/>
<line x1="200.400000" y1="69.000000" x2="203.400000" y2="68.000000"  transform="rotate(0.000000,203.400000,68.000000)" style="stroke: black; stroke-width:0.25;"/>
<line x1="94.950000" y1="100.000000" x2="98.950000" y2="100.000000"  style="stroke:black; stroke-linecap:round; stroke-width:0.25;"/>
<line x1="98.950000" y1="100.000000" x2="105.400000" y2="100.000000"  style="stroke:black; stroke-linecap:round; stroke-width:0.25;"/>
<line x1="101.400000" y1="68.000000" x2="105.400000" y2="68.000000"  style="stroke:black; stroke-linecap:round; stroke-width:0.25;"/>
<line x1="105.400000" y1="88.000000" x2="113.400000" y2="88.000000"  style="stroke:black; stroke-linecap:round; stroke-width:0.25;"/>
<line x1="105.400000" y1="100.000000" x2="105.400000" y2="88.000000"  style="stroke:black; stroke-linecap:round; stroke-width:0.25;"/>
<line x1="105.400000" y1="100.000000" x2="105.400000" y2="100.000000"  style="stroke:black; stroke-linecap:round; stroke-width:0.25;"/>
<line x1="105.400000" y1="68.000000" x2="113.400000" y2="68.000000"  style="stroke:black; stroke-linecap:round; stroke-width:0.25;"/>
<line x1="113.400000" y1="68.000000" x2="113.400000" y2="80.000000"  style="stroke:black; stroke-linecap:round; stroke-width:0.25;"/>
<line x1="113.400000" y1="80.000000" x2="113.400000" y2="80.000000"  style="stroke:black; stroke-linecap:round; stroke-width:0.25;"/>
<line x1="113.400000" y1="80.000000" x2="117.400000" y2="80.000000"  style="stroke:black; stroke-linecap:round; stroke-width:0.25;"/>
<line x1="113.400000" y1="88.000000" x2="117.400000" y2="88.000000"  style="stroke:black; stroke-linecap:round; stroke-width:0.25;"/>
<line x1="121.400000" y1="36.000000" x2="125.400000" y2="36.000000"  style="stroke:black; stroke-linecap:round; stroke-width:0.25;"/>
<line x1="125.400000" y1="36.000000" x2="145.400000" y2="36.000000"  style="stroke:black; stroke-linecap:round; stroke-width:0.25;"/>
<line x1="141.400000" y1="84.000000" x2="145.400000" y2="84.000000"  style="stroke:black; stroke-linecap:round; stroke-width:0.25;"/>
<line x1="145.400000" y1="36.000000" x2="153.400000" y2="36.000000"  style="stroke:black; stroke-linecap:round; stroke-width:0.25;"/>
<line x1="145.400000" y1="72.000000" x2="153.400000" y2="72.000000"  style="stroke:black; stroke-linecap:round; stroke-width:0.25;"/>
<line x1="145.400000" y1="84.000000" x2="145.400000" y2="72.000000"  style="stroke:black; stroke-linecap:round; stroke-width:0.25;"/>
<line x1="145.400000" y1="84.000000" x2="145.400000" y2="84.000000"  style="stroke:black; stroke-linecap:round; stroke-width:0.25;"/>
<line x1="153.400000" y1="36.000000" x2="153.400000" y2="64.000000"  style="stroke:black; stroke-linecap:round; stroke-width:0.25;"/>
<line x1="153.400000" y1="64.000000" x2="153.400000" y2="64.000000"  style="stroke:black; stroke-linecap:round; stroke-width:0.25;"/>
<line x1="153.400000" y1="64.000000" x2="157.400000" y2="64.000000"  style="stroke:black; stroke-linecap:round; stroke-width:0.25;"/>
<line x1="153.400000" y1="72.000000" x2="157.400000" y2="72.000000"  style="stroke:black; stroke-linecap:round; stroke-width:0.25;"/>
<line x1="181.400000" y1="68.000000" x2="185.400000" y2="68.000000"  style="stroke:black; stroke-linecap:round; stroke-width:0.25;"/>
<line x1="185.400000" y1="68.000000" x2="185.400000" y2="68.000000"  style="stroke:black; stroke-linecap:round; stroke-width:0.25;"/>
<line x1="185.400000" y1="68.000000" x2="189.400000" y2="68.000000"  style="stroke:black; stroke-linecap:round; stroke-width:0.25;"/>
<line x1="189.400000" y1="68.000000" x2="193.400000" y2="68.000000"  style="stroke:black; stroke-linecap:round; stroke-width:0.25;"/>
<line x1="193.400000" y1="68.000000" x2="203.400000" y2="68.000000"  style="stroke:black; stroke-linecap:round; stroke-width:0.25;"/>
</svg>
