<?xml version="1.0"?>
<svg xmlns="http://www.w3.org/2000/svg" xmlns:xlink="http://www.w3.org/1999/xlink" viewBox="0 0 318.400000 200.000000" width="159.200000mm" height="100.000000mm" version="1.1">
<a xlink:href="buffer-0x7f06d5b880f0.svg">
<rect x="1.000000" y="1.000000" width="317.400000" height="199.000000" rx="0" ry="0" style="stroke:none;fill:#cccccc;"/>
<rect x="0.000000" y="0.000000" width="317.400000" height="199.000000" rx="0" ry="0" style="stroke:none;fill:#ffffff;"/>
</a>
<text x="10.000000" y="7.000000" font-family="Arial" font-size="7"></text>
<rect x="105.500000" y="25.000000" width="38.700000" height="24.000000" rx="0" ry="0" style="stroke:none;fill:#cccccc;"/>
<rect x="104.500000" y="24.000000" width="38.700000" height="24.000000" rx="0" ry="0" style="stroke:none;fill:#f44800;"/>
<text x="123.850000" y="38.000000" font-family="Arial" font-size="7" text-anchor="middle" fill="#FFFFFF">1920000</text>
<circle cx="106.500000" cy="26.000000" r="1"/>
<rect x="112.850000" y="57.000000" width="24.000000" height="24.000000" rx="0" ry="0" style="stroke:none;fill:#cccccc;"/>
<rect x="111.850000" y="56.000000" width="24.000000" height="24.000000" rx="0" ry="0" style="stroke:none;fill:#f44800;"/>
<text x="123.850000" y="70.000000" font-family="Arial" font-size="7" text-anchor="middle" fill="#FFFFFF">0</text>
<circle cx="113.850000" cy="58.000000" r="1"/>
<a xlink:href="writePtr-0x7f06dd3a0f70.svg">
<rect x="105.500000" y="89.000000" width="38.700000" height="24.000000" rx="0" ry="0" style="stroke:none;fill:#cccccc;"/>
<rect x="104.500000" y="88.000000" width="38.700000" height="24.000000" rx="0" ry="0" style="stroke:none;fill:#003366;"/>
</a>
<a xlink:href="writePtr-0x7f06dd3a0f70.svg">
<text x="123.850000" y="102.000000" font-family="Arial" font-size="7" text-anchor="middle" fill="#FFFFFF">writePtr</text>
</a>
<circle cx="106.500000" cy="90.000000" r="1"/>
<rect x="112.850000" y="121.000000" width="24.000000" height="24.000000" rx="0" ry="0" style="stroke:none;fill:#cccccc;"/>
<rect x="111.850000" y="120.000000" width="24.000000" height="24.000000" rx="0" ry="0" style="stroke:none;fill:#47945E;"/>
<text x="123.850000" y="134.000000" font-family="Arial" font-size="7" text-anchor="middle" fill="#FFFFFF">x</text>
<circle cx="113.850000" cy="122.000000" r="1"/>
<a xlink:href="modulo-0x7f06dd5a99f0.svg">
<rect x="25.000000" y="153.000000" width="167.700000" height="24.000000" rx="0" ry="0" style="stroke:none;fill:#cccccc;"/>
<rect x="24.000000" y="152.000000" width="167.700000" height="24.000000" rx="0" ry="0" style="stroke:none;fill:#003366;"/>
</a>
<a xlink:href="modulo-0x7f06dd5a99f0.svg">
<text x="107.850000" y="166.000000" font-family="Arial" font-size="7" text-anchor="middle" fill="#FFFFFF">modulo(((((((...2 : -),1 : +)(1920000)</text>
</a>
<circle cx="26.000000" cy="154.000000" r="1"/>
<rect x="200.700000" y="153.000000" width="24.000000" height="24.000000" rx="0" ry="0" style="stroke:none;fill:#cccccc;"/>
<rect x="199.700000" y="152.000000" width="24.000000" height="24.000000" rx="0" ry="0" style="stroke:none;fill:#4B71A1;"/>
<text x="211.700000" y="166.000000" font-family="Arial" font-size="7" text-anchor="middle" fill="#FFFFFF">int</text>
<circle cx="201.700000" cy="154.000000" r="1"/>
<line x1="196.700000" y1="163.000000" x2="199.700000" y2="164.000000"  transform="rotate(0.000000,199.700000,164.000000)" style="stroke: black; stroke-width:0.25;"/>
<line x1="196.700000" y1="165.000000" x2="199.700000" y2="164.000000"  transform="rotate(0.000000,199.700000,164.000000)" style="stroke: black; stroke-width:0.25;"/>
<rect x="248.700000" y="81.000000" width="38.700000" height="40.000000" rx="0" ry="0" style="stroke:none;fill:#cccccc;"/>
<rect x="247.700000" y="80.000000" width="38.700000" height="40.000000" rx="0" ry="0" style="stroke:none;fill:#4B71A1;"/>
<text x="267.050000" y="102.000000" font-family="Arial" font-size="7" text-anchor="middle" fill="#FFFFFF">rwtable</text>
<circle cx="249.700000" cy="82.000000" r="1"/>
<line x1="244.700000" y1="83.000000" x2="247.700000" y2="84.000000"  transform="rotate(0.000000,247.700000,84.000000)" style="stroke: black; stroke-width:0.25;"/>
<line x1="244.700000" y1="85.000000" x2="247.700000" y2="84.000000"  transform="rotate(0.000000,247.700000,84.000000)" style="stroke: black; stroke-width:0.25;"/>
<line x1="244.700000" y1="91.000000" x2="247.700000" y2="92.000000"  transform="rotate(0.000000,247.700000,92.000000)" style="stroke: black; stroke-width:0.25;"/>
<line x1="244.700000" y1="93.000000" x2="247.700000" y2="92.000000"  transform="rotate(0.000000,247.700000,92.000000)" style="stroke: black; stroke-width:0.25;"/>
<line x1="244.700000" y1="99.000000" x2="247.700000" y2="100.000000"  transform="rotate(0.000000,247.700000,100.000000)" style="stroke: black; stroke-width:0.25;"/>
<line x1="244.700000" y1="101.000000" x2="247.700000" y2="100.000000"  transform="rotate(0.000000,247.700000,100.000000)" style="stroke: black; stroke-width:0.25;"/>
<line x1="244.700000" y1="107.000000" x2="247.700000" y2="108.000000"  transform="rotate(0.000000,247.700000,108.000000)" style="stroke: black; stroke-width:0.25;"/>
<line x1="244.700000" y1="109.000000" x2="247.700000" y2="108.000000"  transform="rotate(0.000000,247.700000,108.000000)" style="stroke: black; stroke-width:0.25;"/>
<line x1="244.700000" y1="115.000000" x2="247.700000" y2="116.000000"  transform="rotate(0.000000,247.700000,116.000000)" style="stroke: black; stroke-width:0.25;"/>
<line x1="244.700000" y1="117.000000" x2="247.700000" y2="116.000000"  transform="rotate(0.000000,247.700000,116.000000)" style="stroke: black; stroke-width:0.25;"/>
<line x1="15.000000" y1="15.000000" x2="15.000000" y2="185.000000"  style="stroke: black; stroke-linecap:round; stroke-width:0.25; stroke-dasharray:3,3;"/>
<line x1="15.000000" y1="185.000000" x2="303.400000" y2="185.000000"  style="stroke: black; stroke-linecap:round; stroke-width:0.25; stroke-dasharray:3,3;"/>
<line x1="303.400000" y1="185.000000" x2="303.400000" y2="15.000000"  style="stroke: black; stroke-linecap:round; stroke-width:0.25; stroke-dasharray:3,3;"/>
<line x1="15.000000" y1="15.000000" x2="20.000000" y2="15.000000"  style="stroke: black; stroke-linecap:round; stroke-width:0.25; stroke-dasharray:3,3;"/>
<line x1="119.975000" y1="15.000000" x2="303.400000" y2="15.000000"  style="stroke: black; stroke-linecap:round; stroke-width:0.25; stroke-dasharray:3,3;"/>
<text x="20.000000" y="17.000000" font-family="Arial" font-size="7">table(((((((h...2 : -),1 : +)</text>
<line x1="305.400000" y1="99.000000" x2="308.400000" y2="100.000000"  transform="rotate(0.000000,308.400000,100.000000)" style="stroke: black; stroke-width:0.25;"/>
<line x1="305.400000" y1="101.000000" x2="308.400000" y2="100.000000"  transform="rotate(0.000000,308.400000,100.000000)" style="stroke: black; stroke-width:0.25;"/>
<line x1="135.850000" y1="68.000000" x2="139.850000" y2="68.000000"  style="stroke:black; stroke-linecap:round; stroke-width:0.25;"/>
<line x1="135.850000" y1="132.000000" x2="139.850000" y2="132.000000"  style="stroke:black; stroke-linecap:round; stroke-width:0.25;"/>
<line x1="139.850000" y1="68.000000" x2="227.700000" y2="68.000000"  style="stroke:black; stroke-linecap:round; stroke-width:0.25;"/>
<line x1="139.850000" y1="132.000000" x2="227.700000" y2="132.000000"  style="stroke:black; stroke-linecap:round; stroke-width:0.25;"/>
<line x1="143.200000" y1="36.000000" x2="147.200000" y2="36.000000"  style="stroke:black; stroke-linecap:round; stroke-width:0.25;"/>
<line x1="143.200000" y1="100.000000" x2="147.200000" y2="100.000000"  style="stroke:black; stroke-linecap:round; stroke-width:0.25;"/>
<line x1="147.200000" y1="36.000000" x2="227.700000" y2="36.000000"  style="stroke:black; stroke-linecap:round; stroke-width:0.25;"/>
<line x1="147.200000" y1="100.000000" x2="227.700000" y2="100.000000"  style="stroke:black; stroke-linecap:round; stroke-width:0.25;"/>
<line x1="191.700000" y1="164.000000" x2="195.700000" y2="164.000000"  style="stroke:black; stroke-linecap:round; stroke-width:0.25;"/>
<line x1="195.700000" y1="164.000000" x2="195.700000" y2="164.000000"  style="stroke:black; stroke-linecap:round; stroke-width:0.25;"/>
<line x1="195.700000" y1="164.000000" x2="199.700000" y2="164.000000"  style="stroke:black; stroke-linecap:round; stroke-width:0.25;"/>
<line x1="223.700000" y1="164.000000" x2="227.700000" y2="164.000000"  style="stroke:black; stroke-linecap:round; stroke-width:0.25;"/>
<line x1="227.700000" y1="36.000000" x2="243.700000" y2="36.000000"  style="stroke:black; stroke-linecap:round; stroke-width:0.25;"/>
<line x1="227.700000" y1="68.000000" x2="235.700000" y2="68.000000"  style="stroke:black; stroke-linecap:round; stroke-width:0.25;"/>
<line x1="227.700000" y1="100.000000" x2="243.700000" y2="100.000000"  style="stroke:black; stroke-linecap:round; stroke-width:0.25;"/>
<line x1="227.700000" y1="108.000000" x2="243.700000" y2="108.000000"  style="stroke:black; stroke-linecap:round; stroke-width:0.25;"/>
<line x1="227.700000" y1="132.000000" x2="227.700000" y2="108.000000"  style="stroke:black; stroke-linecap:round; stroke-width:0.25;"/>
<line x1="227.700000" y1="132.000000" x2="227.700000" y2="132.000000"  style="stroke:black; stroke-linecap:round; stroke-width:0.25;"/>
<line x1="227.700000" y1="164.000000" x2="235.700000" y2="164.000000"  style="stroke:black; stroke-linecap:round; stroke-width:0.25;"/>
<line x1="235.700000" y1="68.000000" x2="235.700000" y2="92.000000"  style="stroke:black; stroke-linecap:round; stroke-width:0.25;"/>
<line x1="235.700000" y1="92.000000" x2="243.700000" y2="92.000000"  style="stroke:black; stroke-linecap:round; stroke-width:0.25;"/>
<line x1="235.700000" y1="116.000000" x2="243.700000" y2="116.000000"  style="stroke:black; stroke-linecap:round; stroke-width:0.25;"/>
<line x1="235.700000" y1="164.000000" x2="235.700000" y2="116.000000"  style="stroke:black; stroke-linecap:round; stroke-width:0.25;"/>
<line x1="243.700000" y1="36.000000" x2="243.700000" y2="84.000000"  style="stroke:black; stroke-linecap:round; stroke-width:0.25;"/>
<line x1="243.700000" y1="84.000000" x2="243.700000" y2="84.000000"  style="stroke:black; stroke-linecap:round; stroke-width:0.25;"/>
<line x1="243.700000" y1="84.000000" x2="247.700000" y2="84.000000"  style="stroke:black; stroke-linecap:round; stroke-width:0.25;"/>
<line x1="243.700000" y1="92.000000" x2="247.700000" y2="92.000000"  style="stroke:black; stroke-linecap:round; stroke-width:0.25;"/>
<line x1="243.700000" y1="100.000000" x2="247.700000" y2="100.000000"  style="stroke:black; stroke-linecap:round; stroke-width:0.25;"/>
<line x1="243.700000" y1="108.000000" x2="247.700000" y2="108.000000"  style="stroke:black; stroke-linecap:round; stroke-width:0.25;"/>
<line x1="243.700000" y1="116.000000" x2="247.700000" y2="116.000000"  style="stroke:black; stroke-linecap:round; stroke-width:0.25;"/>
<line x1="286.400000" y1="100.000000" x2="290.400000" y2="100.000000"  style="stroke:black; stroke-linecap:round; stroke-width:0.25;"/>
<line x1="290.400000" y1="100.000000" x2="290.400000" y2="100.000000"  style="stroke:black; stroke-linecap:round; stroke-width:0.25;"/>
<line x1="290.400000" y1="100.000000" x2="294.400000" y2="100.000000"  style="stroke:black; stroke-linecap:round; stroke-width:0.25;"/>
<line x1="294.400000" y1="100.000000" x2="298.400000" y2="100.000000"  style="stroke:black; stroke-linecap:round; stroke-width:0.25;"/>
<line x1="298.400000" y1="100.000000" x2="308.400000" y2="100.000000"  style="stroke:black; stroke-linecap:round; stroke-width:0.25;"/>
</svg>
