<?xml version="1.0"?>
<svg xmlns="http://www.w3.org/2000/svg" xmlns:xlink="http://www.w3.org/1999/xlink" viewBox="0 0 338.800000 252.000000" width="169.400000mm" height="126.000000mm" version="1.1">
<a xlink:href="lp1p-0x7fb5b4ad9f40.svg">
<rect x="1.000000" y="1.000000" width="337.800000" height="251.000000" rx="0" ry="0" style="stroke:none;fill:#cccccc;"/>
<rect x="0.000000" y="0.000000" width="337.800000" height="251.000000" rx="0" ry="0" style="stroke:none;fill:#ffffff;"/>
</a>
<text x="10.000000" y="7.000000" font-family="Arial" font-size="7"></text>
<a xlink:href="omega-0x7fb5b4acac50.svg">
<rect x="91.050000" y="25.000000" width="38.700000" height="24.000000" rx="0" ry="0" style="stroke:none;fill:#cccccc;"/>
<rect x="90.050000" y="24.000000" width="38.700000" height="24.000000" rx="0" ry="0" style="stroke:none;fill:#003366;"/>
</a>
<a xlink:href="omega-0x7fb5b4acac50.svg">
<text x="109.400000" y="38.000000" font-family="Arial" font-size="7" text-anchor="middle" fill="#FFFFFF">omega(50)</text>
</a>
<circle cx="92.050000" cy="26.000000" r="1"/>
<rect x="137.750000" y="25.000000" width="24.000000" height="24.000000" rx="0" ry="0" style="stroke:none;fill:#cccccc;"/>
<rect x="136.750000" y="24.000000" width="24.000000" height="24.000000" rx="0" ry="0" style="stroke:none;fill:#4B71A1;"/>
<text x="148.750000" y="38.000000" font-family="Arial" font-size="7" text-anchor="middle" fill="#FFFFFF">cos</text>
<circle cx="138.750000" cy="26.000000" r="1"/>
<line x1="133.750000" y1="35.000000" x2="136.750000" y2="36.000000"  transform="rotate(0.000000,136.750000,36.000000)" style="stroke: black; stroke-width:0.25;"/>
<line x1="133.750000" y1="37.000000" x2="136.750000" y2="36.000000"  transform="rotate(0.000000,136.750000,36.000000)" style="stroke: black; stroke-width:0.25;"/>
<rect x="114.400000" y="67.000000" width="24.000000" height="24.000000" rx="0" ry="0" style="stroke:none;fill:#cccccc;"/>
<rect x="113.400000" y="66.000000" width="24.000000" height="24.000000" rx="0" ry="0" style="stroke:none;fill:#f44800;"/>
<text x="125.400000" y="80.000000" font-family="Arial" font-size="7" text-anchor="middle" fill="#FFFFFF">1</text>
<circle cx="115.400000" cy="68.000000" r="1"/>
<line x1="104.400000" y1="57.000000" x2="104.400000" y2="99.000000"  style="stroke: black; stroke-linecap:round; stroke-width:0.25; stroke-dasharray:3,3;"/>
<line x1="104.400000" y1="99.000000" x2="146.400000" y2="99.000000"  style="stroke: black; stroke-linecap:round; stroke-width:0.25; stroke-dasharray:3,3;"/>
<line x1="146.400000" y1="99.000000" x2="146.400000" y2="57.000000"  style="stroke: black; stroke-linecap:round; stroke-width:0.25; stroke-dasharray:3,3;"/>
<line x1="104.400000" y1="57.000000" x2="109.400000" y2="57.000000"  style="stroke: black; stroke-linecap:round; stroke-width:0.25; stroke-dasharray:3,3;"/>
<line x1="119.075000" y1="57.000000" x2="146.400000" y2="57.000000"  style="stroke: black; stroke-linecap:round; stroke-width:0.25; stroke-dasharray:3,3;"/>
<text x="109.400000" y="59.000000" font-family="Arial" font-size="7">k</text>
<rect x="177.750000" y="51.000000" width="24.000000" height="24.000000" rx="0" ry="0" style="stroke:none;fill:#cccccc;"/>
<rect x="176.750000" y="50.000000" width="24.000000" height="24.000000" rx="0" ry="0" style="stroke:none;fill:#4B71A1;"/>
<text x="188.750000" y="64.000000" font-family="Arial" font-size="7" text-anchor="middle" fill="#FFFFFF">-</text>
<circle cx="178.750000" cy="52.000000" r="1"/>
<line x1="173.750000" y1="57.000000" x2="176.750000" y2="58.000000"  transform="rotate(0.000000,176.750000,58.000000)" style="stroke: black; stroke-width:0.25;"/>
<line x1="173.750000" y1="59.000000" x2="176.750000" y2="58.000000"  transform="rotate(0.000000,176.750000,58.000000)" style="stroke: black; stroke-width:0.25;"/>
<line x1="173.750000" y1="65.000000" x2="176.750000" y2="66.000000"  transform="rotate(0.000000,176.750000,66.000000)" style="stroke: black; stroke-width:0.25;"/>
<line x1="173.750000" y1="67.000000" x2="176.750000" y2="66.000000"  transform="rotate(0.000000,176.750000,66.000000)" style="stroke: black; stroke-width:0.25;"/>
<a xlink:href="cosq-0x7fb5b4acf090.svg">
<rect x="25.000000" y="109.000000" width="129.000000" height="24.000000" rx="0" ry="0" style="stroke:none;fill:#cccccc;"/>
<rect x="24.000000" y="108.000000" width="129.000000" height="24.000000" rx="0" ry="0" style="stroke:none;fill:#003366;"/>
</a>
<a xlink:href="cosq-0x7fb5b4acf090.svg">
<text x="88.500000" y="122.000000" font-family="Arial" font-size="7" text-anchor="middle" fill="#FFFFFF">cosq(314.1592...) : min) : /)</text>
</a>
<circle cx="26.000000" cy="110.000000" r="1"/>
<rect x="57.500000" y="141.000000" width="24.000000" height="24.000000" rx="0" ry="0" style="stroke:none;fill:#cccccc;"/>
<rect x="56.500000" y="140.000000" width="24.000000" height="24.000000" rx="0" ry="0" style="stroke:none;fill:#f44800;"/>
<text x="68.500000" y="154.000000" font-family="Arial" font-size="7" text-anchor="middle" fill="#FFFFFF">4</text>
<circle cx="58.500000" cy="142.000000" r="1"/>
<a xlink:href="omega-0x7fb5b4acac50.svg">
<rect x="34.150000" y="173.000000" width="38.700000" height="24.000000" rx="0" ry="0" style="stroke:none;fill:#cccccc;"/>
<rect x="33.150000" y="172.000000" width="38.700000" height="24.000000" rx="0" ry="0" style="stroke:none;fill:#003366;"/>
</a>
<a xlink:href="omega-0x7fb5b4acac50.svg">
<text x="52.500000" y="186.000000" font-family="Arial" font-size="7" text-anchor="middle" fill="#FFFFFF">omega(50)</text>
</a>
<circle cx="35.150000" cy="174.000000" r="1"/>
<rect x="80.850000" y="173.000000" width="24.000000" height="24.000000" rx="0" ry="0" style="stroke:none;fill:#cccccc;"/>
<rect x="79.850000" y="172.000000" width="24.000000" height="24.000000" rx="0" ry="0" style="stroke:none;fill:#4B71A1;"/>
<text x="91.850000" y="186.000000" font-family="Arial" font-size="7" text-anchor="middle" fill="#FFFFFF">cos</text>
<circle cx="81.850000" cy="174.000000" r="1"/>
<line x1="76.850000" y1="183.000000" x2="79.850000" y2="184.000000"  transform="rotate(0.000000,79.850000,184.000000)" style="stroke: black; stroke-width:0.25;"/>
<line x1="76.850000" y1="185.000000" x2="79.850000" y2="184.000000"  transform="rotate(0.000000,79.850000,184.000000)" style="stroke: black; stroke-width:0.25;"/>
<rect x="120.850000" y="157.000000" width="24.000000" height="24.000000" rx="0" ry="0" style="stroke:none;fill:#cccccc;"/>
<rect x="119.850000" y="156.000000" width="24.000000" height="24.000000" rx="0" ry="0" style="stroke:none;fill:#4B71A1;"/>
<text x="131.850000" y="170.000000" font-family="Arial" font-size="7" text-anchor="middle" fill="#FFFFFF">*</text>
<circle cx="121.850000" cy="158.000000" r="1"/>
<line x1="116.850000" y1="163.000000" x2="119.850000" y2="164.000000"  transform="rotate(0.000000,119.850000,164.000000)" style="stroke: black; stroke-width:0.25;"/>
<line x1="116.850000" y1="165.000000" x2="119.850000" y2="164.000000"  transform="rotate(0.000000,119.850000,164.000000)" style="stroke: black; stroke-width:0.25;"/>
<line x1="116.850000" y1="171.000000" x2="119.850000" y2="172.000000"  transform="rotate(0.000000,119.850000,172.000000)" style="stroke: black; stroke-width:0.25;"/>
<line x1="116.850000" y1="173.000000" x2="119.850000" y2="172.000000"  transform="rotate(0.000000,119.850000,172.000000)" style="stroke: black; stroke-width:0.25;"/>
<rect x="170.000000" y="141.000000" width="24.000000" height="24.000000" rx="0" ry="0" style="stroke:none;fill:#cccccc;"/>
<rect x="169.000000" y="140.000000" width="24.000000" height="24.000000" rx="0" ry="0" style="stroke:none;fill:#4B71A1;"/>
<text x="181.000000" y="154.000000" font-family="Arial" font-size="7" text-anchor="middle" fill="#FFFFFF">-</text>
<circle cx="171.000000" cy="142.000000" r="1"/>
<line x1="166.000000" y1="147.000000" x2="169.000000" y2="148.000000"  transform="rotate(0.000000,169.000000,148.000000)" style="stroke: black; stroke-width:0.25;"/>
<line x1="166.000000" y1="149.000000" x2="169.000000" y2="148.000000"  transform="rotate(0.000000,169.000000,148.000000)" style="stroke: black; stroke-width:0.25;"/>
<line x1="166.000000" y1="155.000000" x2="169.000000" y2="156.000000"  transform="rotate(0.000000,169.000000,156.000000)" style="stroke: black; stroke-width:0.25;"/>
<line x1="166.000000" y1="157.000000" x2="169.000000" y2="156.000000"  transform="rotate(0.000000,169.000000,156.000000)" style="stroke: black; stroke-width:0.25;"/>
<rect x="97.500000" y="205.000000" width="24.000000" height="24.000000" rx="0" ry="0" style="stroke:none;fill:#cccccc;"/>
<rect x="96.500000" y="204.000000" width="24.000000" height="24.000000" rx="0" ry="0" style="stroke:none;fill:#f44800;"/>
<text x="108.500000" y="218.000000" font-family="Arial" font-size="7" text-anchor="middle" fill="#FFFFFF">3</text>
<circle cx="98.500000" cy="206.000000" r="1"/>
<rect x="210.000000" y="157.000000" width="24.000000" height="24.000000" rx="0" ry="0" style="stroke:none;fill:#cccccc;"/>
<rect x="209.000000" y="156.000000" width="24.000000" height="24.000000" rx="0" ry="0" style="stroke:none;fill:#4B71A1;"/>
<text x="221.000000" y="170.000000" font-family="Arial" font-size="7" text-anchor="middle" fill="#FFFFFF">+</text>
<circle cx="211.000000" cy="158.000000" r="1"/>
<line x1="206.000000" y1="163.000000" x2="209.000000" y2="164.000000"  transform="rotate(0.000000,209.000000,164.000000)" style="stroke: black; stroke-width:0.25;"/>
<line x1="206.000000" y1="165.000000" x2="209.000000" y2="164.000000"  transform="rotate(0.000000,209.000000,164.000000)" style="stroke: black; stroke-width:0.25;"/>
<line x1="206.000000" y1="171.000000" x2="209.000000" y2="172.000000"  transform="rotate(0.000000,209.000000,172.000000)" style="stroke: black; stroke-width:0.25;"/>
<line x1="206.000000" y1="173.000000" x2="209.000000" y2="172.000000"  transform="rotate(0.000000,209.000000,172.000000)" style="stroke: black; stroke-width:0.25;"/>
<rect x="242.000000" y="157.000000" width="25.800000" height="24.000000" rx="0" ry="0" style="stroke:none;fill:#cccccc;"/>
<rect x="241.000000" y="156.000000" width="25.800000" height="24.000000" rx="0" ry="0" style="stroke:none;fill:#4B71A1;"/>
<text x="253.900000" y="170.000000" font-family="Arial" font-size="7" text-anchor="middle" fill="#FFFFFF">sqrt</text>
<circle cx="243.000000" cy="158.000000" r="1"/>
<line x1="238.000000" y1="167.000000" x2="241.000000" y2="168.000000"  transform="rotate(0.000000,241.000000,168.000000)" style="stroke: black; stroke-width:0.25;"/>
<line x1="238.000000" y1="169.000000" x2="241.000000" y2="168.000000"  transform="rotate(0.000000,241.000000,168.000000)" style="stroke: black; stroke-width:0.25;"/>
<rect x="283.800000" y="115.000000" width="24.000000" height="24.000000" rx="0" ry="0" style="stroke:none;fill:#cccccc;"/>
<rect x="282.800000" y="114.000000" width="24.000000" height="24.000000" rx="0" ry="0" style="stroke:none;fill:#4B71A1;"/>
<text x="294.800000" y="128.000000" font-family="Arial" font-size="7" text-anchor="middle" fill="#FFFFFF">+</text>
<circle cx="284.800000" cy="116.000000" r="1"/>
<line x1="279.800000" y1="121.000000" x2="282.800000" y2="122.000000"  transform="rotate(0.000000,282.800000,122.000000)" style="stroke: black; stroke-width:0.25;"/>
<line x1="279.800000" y1="123.000000" x2="282.800000" y2="122.000000"  transform="rotate(0.000000,282.800000,122.000000)" style="stroke: black; stroke-width:0.25;"/>
<line x1="279.800000" y1="129.000000" x2="282.800000" y2="130.000000"  transform="rotate(0.000000,282.800000,130.000000)" style="stroke: black; stroke-width:0.25;"/>
<line x1="279.800000" y1="131.000000" x2="282.800000" y2="130.000000"  transform="rotate(0.000000,282.800000,130.000000)" style="stroke: black; stroke-width:0.25;"/>
<line x1="15.000000" y1="15.000000" x2="15.000000" y2="237.000000"  style="stroke: black; stroke-linecap:round; stroke-width:0.25; stroke-dasharray:3,3;"/>
<line x1="15.000000" y1="237.000000" x2="323.800000" y2="237.000000"  style="stroke: black; stroke-linecap:round; stroke-width:0.25; stroke-dasharray:3,3;"/>
<line x1="323.800000" y1="237.000000" x2="323.800000" y2="15.000000"  style="stroke: black; stroke-linecap:round; stroke-width:0.25; stroke-dasharray:3,3;"/>
<line x1="15.000000" y1="15.000000" x2="20.000000" y2="15.000000"  style="stroke: black; stroke-linecap:round; stroke-width:0.25; stroke-dasharray:3,3;"/>
<line x1="52.250000" y1="15.000000" x2="323.800000" y2="15.000000"  style="stroke: black; stroke-linecap:round; stroke-width:0.25; stroke-dasharray:3,3;"/>
<text x="20.000000" y="17.000000" font-family="Arial" font-size="7">acor(50)</text>
<line x1="325.800000" y1="125.000000" x2="328.800000" y2="126.000000"  transform="rotate(0.000000,328.800000,126.000000)" style="stroke: black; stroke-width:0.25;"/>
<line x1="325.800000" y1="127.000000" x2="328.800000" y2="126.000000"  transform="rotate(0.000000,328.800000,126.000000)" style="stroke: black; stroke-width:0.25;"/>
<line x1="71.850000" y1="184.000000" x2="75.850000" y2="184.000000"  style="stroke:black; stroke-linecap:round; stroke-width:0.25;"/>
<line x1="75.850000" y1="184.000000" x2="75.850000" y2="184.000000"  style="stroke:black; stroke-linecap:round; stroke-width:0.25;"/>
<line x1="75.850000" y1="184.000000" x2="79.850000" y2="184.000000"  style="stroke:black; stroke-linecap:round; stroke-width:0.25;"/>
<line x1="80.500000" y1="152.000000" x2="84.500000" y2="152.000000"  style="stroke:black; stroke-linecap:round; stroke-width:0.25;"/>
<line x1="84.500000" y1="152.000000" x2="107.850000" y2="152.000000"  style="stroke:black; stroke-linecap:round; stroke-width:0.25;"/>
<line x1="103.850000" y1="184.000000" x2="107.850000" y2="184.000000"  style="stroke:black; stroke-linecap:round; stroke-width:0.25;"/>
<line x1="107.850000" y1="152.000000" x2="115.850000" y2="152.000000"  style="stroke:black; stroke-linecap:round; stroke-width:0.25;"/>
<line x1="107.850000" y1="172.000000" x2="115.850000" y2="172.000000"  style="stroke:black; stroke-linecap:round; stroke-width:0.25;"/>
<line x1="107.850000" y1="184.000000" x2="107.850000" y2="172.000000"  style="stroke:black; stroke-linecap:round; stroke-width:0.25;"/>
<line x1="107.850000" y1="184.000000" x2="107.850000" y2="184.000000"  style="stroke:black; stroke-linecap:round; stroke-width:0.25;"/>
<line x1="115.850000" y1="152.000000" x2="115.850000" y2="164.000000"  style="stroke:black; stroke-linecap:round; stroke-width:0.25;"/>
<line x1="115.850000" y1="164.000000" x2="115.850000" y2="164.000000"  style="stroke:black; stroke-linecap:round; stroke-width:0.25;"/>
<line x1="115.850000" y1="164.000000" x2="119.850000" y2="164.000000"  style="stroke:black; stroke-linecap:round; stroke-width:0.25;"/>
<line x1="115.850000" y1="172.000000" x2="119.850000" y2="172.000000"  style="stroke:black; stroke-linecap:round; stroke-width:0.25;"/>
<line x1="120.500000" y1="216.000000" x2="124.500000" y2="216.000000"  style="stroke:black; stroke-linecap:round; stroke-width:0.25;"/>
<line x1="124.500000" y1="216.000000" x2="197.000000" y2="216.000000"  style="stroke:black; stroke-linecap:round; stroke-width:0.25;"/>
<line x1="128.750000" y1="36.000000" x2="132.750000" y2="36.000000"  style="stroke:black; stroke-linecap:round; stroke-width:0.25;"/>
<line x1="132.750000" y1="36.000000" x2="132.750000" y2="36.000000"  style="stroke:black; stroke-linecap:round; stroke-width:0.25;"/>
<line x1="132.750000" y1="36.000000" x2="136.750000" y2="36.000000"  style="stroke:black; stroke-linecap:round; stroke-width:0.25;"/>
<line x1="137.400000" y1="78.000000" x2="141.400000" y2="78.000000"  style="stroke:black; stroke-linecap:round; stroke-width:0.25;"/>
<line x1="141.400000" y1="78.000000" x2="151.400000" y2="78.000000"  style="stroke:black; stroke-linecap:round; stroke-width:0.25;"/>
<line x1="143.850000" y1="168.000000" x2="147.850000" y2="168.000000"  style="stroke:black; stroke-linecap:round; stroke-width:0.25;"/>
<line x1="147.850000" y1="168.000000" x2="157.000000" y2="168.000000"  style="stroke:black; stroke-linecap:round; stroke-width:0.25;"/>
<line x1="151.400000" y1="78.000000" x2="164.750000" y2="78.000000"  style="stroke:black; stroke-linecap:round; stroke-width:0.25;"/>
<line x1="153.000000" y1="120.000000" x2="157.000000" y2="120.000000"  style="stroke:black; stroke-linecap:round; stroke-width:0.25;"/>
<line x1="157.000000" y1="120.000000" x2="165.000000" y2="120.000000"  style="stroke:black; stroke-linecap:round; stroke-width:0.25;"/>
<line x1="157.000000" y1="156.000000" x2="165.000000" y2="156.000000"  style="stroke:black; stroke-linecap:round; stroke-width:0.25;"/>
<line x1="157.000000" y1="168.000000" x2="157.000000" y2="156.000000"  style="stroke:black; stroke-linecap:round; stroke-width:0.25;"/>
<line x1="157.000000" y1="168.000000" x2="157.000000" y2="168.000000"  style="stroke:black; stroke-linecap:round; stroke-width:0.25;"/>
<line x1="160.750000" y1="36.000000" x2="164.750000" y2="36.000000"  style="stroke:black; stroke-linecap:round; stroke-width:0.25;"/>
<line x1="164.750000" y1="36.000000" x2="172.750000" y2="36.000000"  style="stroke:black; stroke-linecap:round; stroke-width:0.25;"/>
<line x1="164.750000" y1="66.000000" x2="172.750000" y2="66.000000"  style="stroke:black; stroke-linecap:round; stroke-width:0.25;"/>
<line x1="164.750000" y1="78.000000" x2="164.750000" y2="66.000000"  style="stroke:black; stroke-linecap:round; stroke-width:0.25;"/>
<line x1="164.750000" y1="78.000000" x2="164.750000" y2="78.000000"  style="stroke:black; stroke-linecap:round; stroke-width:0.25;"/>
<line x1="165.000000" y1="120.000000" x2="165.000000" y2="148.000000"  style="stroke:black; stroke-linecap:round; stroke-width:0.25;"/>
<line x1="165.000000" y1="148.000000" x2="165.000000" y2="148.000000"  style="stroke:black; stroke-linecap:round; stroke-width:0.25;"/>
<line x1="165.000000" y1="148.000000" x2="169.000000" y2="148.000000"  style="stroke:black; stroke-linecap:round; stroke-width:0.25;"/>
<line x1="165.000000" y1="156.000000" x2="169.000000" y2="156.000000"  style="stroke:black; stroke-linecap:round; stroke-width:0.25;"/>
<line x1="172.750000" y1="36.000000" x2="172.750000" y2="58.000000"  style="stroke:black; stroke-linecap:round; stroke-width:0.25;"/>
<line x1="172.750000" y1="58.000000" x2="172.750000" y2="58.000000"  style="stroke:black; stroke-linecap:round; stroke-width:0.25;"/>
<line x1="172.750000" y1="58.000000" x2="176.750000" y2="58.000000"  style="stroke:black; stroke-linecap:round; stroke-width:0.25;"/>
<line x1="172.750000" y1="66.000000" x2="176.750000" y2="66.000000"  style="stroke:black; stroke-linecap:round; stroke-width:0.25;"/>
<line x1="193.000000" y1="152.000000" x2="197.000000" y2="152.000000"  style="stroke:black; stroke-linecap:round; stroke-width:0.25;"/>
<line x1="197.000000" y1="152.000000" x2="205.000000" y2="152.000000"  style="stroke:black; stroke-linecap:round; stroke-width:0.25;"/>
<line x1="197.000000" y1="172.000000" x2="205.000000" y2="172.000000"  style="stroke:black; stroke-linecap:round; stroke-width:0.25;"/>
<line x1="197.000000" y1="216.000000" x2="197.000000" y2="172.000000"  style="stroke:black; stroke-linecap:round; stroke-width:0.25;"/>
<line x1="197.000000" y1="216.000000" x2="197.000000" y2="216.000000"  style="stroke:black; stroke-linecap:round; stroke-width:0.25;"/>
<line x1="200.750000" y1="62.000000" x2="204.750000" y2="62.000000"  style="stroke:black; stroke-linecap:round; stroke-width:0.25;"/>
<line x1="204.750000" y1="62.000000" x2="270.800000" y2="62.000000"  style="stroke:black; stroke-linecap:round; stroke-width:0.25;"/>
<line x1="205.000000" y1="152.000000" x2="205.000000" y2="164.000000"  style="stroke:black; stroke-linecap:round; stroke-width:0.25;"/>
<line x1="205.000000" y1="164.000000" x2="205.000000" y2="164.000000"  style="stroke:black; stroke-linecap:round; stroke-width:0.25;"/>
<line x1="205.000000" y1="164.000000" x2="209.000000" y2="164.000000"  style="stroke:black; stroke-linecap:round; stroke-width:0.25;"/>
<line x1="205.000000" y1="172.000000" x2="209.000000" y2="172.000000"  style="stroke:black; stroke-linecap:round; stroke-width:0.25;"/>
<line x1="233.000000" y1="168.000000" x2="237.000000" y2="168.000000"  style="stroke:black; stroke-linecap:round; stroke-width:0.25;"/>
<line x1="237.000000" y1="168.000000" x2="237.000000" y2="168.000000"  style="stroke:black; stroke-linecap:round; stroke-width:0.25;"/>
<line x1="237.000000" y1="168.000000" x2="241.000000" y2="168.000000"  style="stroke:black; stroke-linecap:round; stroke-width:0.25;"/>
<line x1="266.800000" y1="168.000000" x2="270.800000" y2="168.000000"  style="stroke:black; stroke-linecap:round; stroke-width:0.25;"/>
<line x1="270.800000" y1="62.000000" x2="278.800000" y2="62.000000"  style="stroke:black; stroke-linecap:round; stroke-width:0.25;"/>
<line x1="270.800000" y1="130.000000" x2="278.800000" y2="130.000000"  style="stroke:black; stroke-linecap:round; stroke-width:0.25;"/>
<line x1="270.800000" y1="168.000000" x2="270.800000" y2="130.000000"  style="stroke:black; stroke-linecap:round; stroke-width:0.25;"/>
<line x1="270.800000" y1="168.000000" x2="270.800000" y2="168.000000"  style="stroke:black; stroke-linecap:round; stroke-width:0.25;"/>
<line x1="278.800000" y1="62.000000" x2="278.800000" y2="122.000000"  style="stroke:black; stroke-linecap:round; stroke-width:0.25;"/>
<line x1="278.800000" y1="122.000000" x2="278.800000" y2="122.000000"  style="stroke:black; stroke-linecap:round; stroke-width:0.25;"/>
<line x1="278.800000" y1="122.000000" x2="282.800000" y2="122.000000"  style="stroke:black; stroke-linecap:round; stroke-width:0.25;"/>
<line x1="278.800000" y1="130.000000" x2="282.800000" y2="130.000000"  style="stroke:black; stroke-linecap:round; stroke-width:0.25;"/>
<line x1="306.800000" y1="126.000000" x2="310.800000" y2="126.000000"  style="stroke:black; stroke-linecap:round; stroke-width:0.25;"/>
<line x1="310.800000" y1="126.000000" x2="310.800000" y2="126.000000"  style="stroke:black; stroke-linecap:round; stroke-width:0.25;"/>
<line x1="310.800000" y1="126.000000" x2="314.800000" y2="126.000000"  style="stroke:black; stroke-linecap:round; stroke-width:0.25;"/>
<line x1="314.800000" y1="126.000000" x2="318.800000" y2="126.000000"  style="stroke:black; stroke-linecap:round; stroke-width:0.25;"/>
<line x1="318.800000" y1="126.000000" x2="328.800000" y2="126.000000"  style="stroke:black; stroke-linecap:round; stroke-width:0.25;"/>
</svg>
