<?xml version="1.0"?>
<svg xmlns="http://www.w3.org/2000/svg" xmlns:xlink="http://www.w3.org/1999/xlink" viewBox="0 0 346.000000 232.000000" width="173.000000mm" height="116.000000mm" version="1.1">
<a xlink:href="grain-0x7f0cfb160ca0.svg">
<rect x="1.000000" y="1.000000" width="345.000000" height="231.000000" rx="0" ry="0" style="stroke:none;fill:#cccccc;"/>
<rect x="0.000000" y="0.000000" width="345.000000" height="231.000000" rx="0" ry="0" style="stroke:none;fill:#ffffff;"/>
</a>
<text x="10.000000" y="7.000000" font-family="Arial" font-size="7"></text>
<a xlink:href="table-0x7f0cf8667b80.svg">
<rect x="25.000000" y="25.000000" width="129.000000" height="24.000000" rx="0" ry="0" style="stroke:none;fill:#cccccc;"/>
<rect x="24.000000" y="24.000000" width="129.000000" height="24.000000" rx="0" ry="0" style="stroke:none;fill:#003366;"/>
</a>
<a xlink:href="table-0x7f0cf8667b80.svg">
<text x="88.500000" y="38.000000" font-family="Arial" font-size="7" text-anchor="middle" fill="#FFFFFF">table(((((((x...2 : -),0 : +)</text>
</a>
<circle cx="26.000000" cy="26.000000" r="1"/>
<a xlink:href="table-0x7f0cf86681d0.svg">
<rect x="25.000000" y="57.000000" width="129.000000" height="24.000000" rx="0" ry="0" style="stroke:none;fill:#cccccc;"/>
<rect x="24.000000" y="56.000000" width="129.000000" height="24.000000" rx="0" ry="0" style="stroke:none;fill:#003366;"/>
</a>
<a xlink:href="table-0x7f0cf86681d0.svg">
<text x="88.500000" y="70.000000" font-family="Arial" font-size="7" text-anchor="middle" fill="#FFFFFF">table(((((((x...2 : -),1 : +)</text>
</a>
<circle cx="26.000000" cy="58.000000" r="1"/>
<a xlink:href="table-0x7f0cf8668860.svg">
<rect x="25.000000" y="89.000000" width="129.000000" height="24.000000" rx="0" ry="0" style="stroke:none;fill:#cccccc;"/>
<rect x="24.000000" y="88.000000" width="129.000000" height="24.000000" rx="0" ry="0" style="stroke:none;fill:#003366;"/>
</a>
<a xlink:href="table-0x7f0cf8668860.svg">
<text x="88.500000" y="102.000000" font-family="Arial" font-size="7" text-anchor="middle" fill="#FFFFFF">table(((((((x...2 : -),2 : +)</text>
</a>
<circle cx="26.000000" cy="90.000000" r="1"/>
<a xlink:href="table-0x7f0cf8668eb0.svg">
<rect x="25.000000" y="121.000000" width="129.000000" height="24.000000" rx="0" ry="0" style="stroke:none;fill:#cccccc;"/>
<rect x="24.000000" y="120.000000" width="129.000000" height="24.000000" rx="0" ry="0" style="stroke:none;fill:#003366;"/>
</a>
<a xlink:href="table-0x7f0cf8668eb0.svg">
<text x="88.500000" y="134.000000" font-family="Arial" font-size="7" text-anchor="middle" fill="#FFFFFF">table(((((((x...2 : -),3 : +)</text>
</a>
<circle cx="26.000000" cy="122.000000" r="1"/>
<a xlink:href="table-0x7f0cf8669500.svg">
<rect x="25.000000" y="153.000000" width="129.000000" height="24.000000" rx="0" ry="0" style="stroke:none;fill:#cccccc;"/>
<rect x="24.000000" y="152.000000" width="129.000000" height="24.000000" rx="0" ry="0" style="stroke:none;fill:#003366;"/>
</a>
<a xlink:href="table-0x7f0cf8669500.svg">
<text x="88.500000" y="166.000000" font-family="Arial" font-size="7" text-anchor="middle" fill="#FFFFFF">table(((((((x...2 : -),4 : +)</text>
</a>
<circle cx="26.000000" cy="154.000000" r="1"/>
<a xlink:href="table-0x7f0cf8669b30.svg">
<rect x="25.000000" y="185.000000" width="129.000000" height="24.000000" rx="0" ry="0" style="stroke:none;fill:#cccccc;"/>
<rect x="24.000000" y="184.000000" width="129.000000" height="24.000000" rx="0" ry="0" style="stroke:none;fill:#003366;"/>
</a>
<a xlink:href="table-0x7f0cf8669b30.svg">
<text x="88.500000" y="198.000000" font-family="Arial" font-size="7" text-anchor="middle" fill="#FFFFFF">table(((((((x...2 : -),5 : +)</text>
</a>
<circle cx="26.000000" cy="186.000000" r="1"/>
<a xlink:href="lagrangeN-0x7f0cf86674b0.svg">
<rect x="186.000000" y="93.000000" width="129.000000" height="48.000000" rx="0" ry="0" style="stroke:none;fill:#cccccc;"/>
<rect x="185.000000" y="92.000000" width="129.000000" height="48.000000" rx="0" ry="0" style="stroke:none;fill:#003366;"/>
</a>
<a xlink:href="lagrangeN-0x7f0cf86674b0.svg">
<text x="249.500000" y="118.000000" font-family="Arial" font-size="7" text-anchor="middle" fill="#FFFFFF">lagrangeN(5)(...) : -),2 : +)</text>
</a>
<circle cx="187.000000" cy="94.000000" r="1"/>
<line x1="182.000000" y1="95.000000" x2="185.000000" y2="96.000000"  transform="rotate(0.000000,185.000000,96.000000)" style="stroke: black; stroke-width:0.25;"/>
<line x1="182.000000" y1="97.000000" x2="185.000000" y2="96.000000"  transform="rotate(0.000000,185.000000,96.000000)" style="stroke: black; stroke-width:0.25;"/>
<line x1="182.000000" y1="103.000000" x2="185.000000" y2="104.000000"  transform="rotate(0.000000,185.000000,104.000000)" style="stroke: black; stroke-width:0.25;"/>
<line x1="182.000000" y1="105.000000" x2="185.000000" y2="104.000000"  transform="rotate(0.000000,185.000000,104.000000)" style="stroke: black; stroke-width:0.25;"/>
<line x1="182.000000" y1="111.000000" x2="185.000000" y2="112.000000"  transform="rotate(0.000000,185.000000,112.000000)" style="stroke: black; stroke-width:0.25;"/>
<line x1="182.000000" y1="113.000000" x2="185.000000" y2="112.000000"  transform="rotate(0.000000,185.000000,112.000000)" style="stroke: black; stroke-width:0.25;"/>
<line x1="182.000000" y1="119.000000" x2="185.000000" y2="120.000000"  transform="rotate(0.000000,185.000000,120.000000)" style="stroke: black; stroke-width:0.25;"/>
<line x1="182.000000" y1="121.000000" x2="185.000000" y2="120.000000"  transform="rotate(0.000000,185.000000,120.000000)" style="stroke: black; stroke-width:0.25;"/>
<line x1="182.000000" y1="127.000000" x2="185.000000" y2="128.000000"  transform="rotate(0.000000,185.000000,128.000000)" style="stroke: black; stroke-width:0.25;"/>
<line x1="182.000000" y1="129.000000" x2="185.000000" y2="128.000000"  transform="rotate(0.000000,185.000000,128.000000)" style="stroke: black; stroke-width:0.25;"/>
<line x1="182.000000" y1="135.000000" x2="185.000000" y2="136.000000"  transform="rotate(0.000000,185.000000,136.000000)" style="stroke: black; stroke-width:0.25;"/>
<line x1="182.000000" y1="137.000000" x2="185.000000" y2="136.000000"  transform="rotate(0.000000,185.000000,136.000000)" style="stroke: black; stroke-width:0.25;"/>
<line x1="15.000000" y1="15.000000" x2="15.000000" y2="217.000000"  style="stroke: black; stroke-linecap:round; stroke-width:0.25; stroke-dasharray:3,3;"/>
<line x1="15.000000" y1="217.000000" x2="331.000000" y2="217.000000"  style="stroke: black; stroke-linecap:round; stroke-width:0.25; stroke-dasharray:3,3;"/>
<line x1="331.000000" y1="217.000000" x2="331.000000" y2="15.000000"  style="stroke: black; stroke-linecap:round; stroke-width:0.25; stroke-dasharray:3,3;"/>
<line x1="15.000000" y1="15.000000" x2="20.000000" y2="15.000000"  style="stroke: black; stroke-linecap:round; stroke-width:0.25; stroke-dasharray:3,3;"/>
<line x1="119.975000" y1="15.000000" x2="331.000000" y2="15.000000"  style="stroke: black; stroke-linecap:round; stroke-width:0.25; stroke-dasharray:3,3;"/>
<text x="20.000000" y="17.000000" font-family="Arial" font-size="7">buffer(588000...table),8 : /)</text>
<line x1="333.000000" y1="115.000000" x2="336.000000" y2="116.000000"  transform="rotate(0.000000,336.000000,116.000000)" style="stroke: black; stroke-width:0.25;"/>
<line x1="333.000000" y1="117.000000" x2="336.000000" y2="116.000000"  transform="rotate(0.000000,336.000000,116.000000)" style="stroke: black; stroke-width:0.25;"/>
<line x1="153.000000" y1="36.000000" x2="157.000000" y2="36.000000"  style="stroke:black; stroke-linecap:round; stroke-width:0.25;"/>
<line x1="153.000000" y1="68.000000" x2="157.000000" y2="68.000000"  style="stroke:black; stroke-linecap:round; stroke-width:0.25;"/>
<line x1="153.000000" y1="100.000000" x2="157.000000" y2="100.000000"  style="stroke:black; stroke-linecap:round; stroke-width:0.25;"/>
<line x1="153.000000" y1="132.000000" x2="157.000000" y2="132.000000"  style="stroke:black; stroke-linecap:round; stroke-width:0.25;"/>
<line x1="153.000000" y1="164.000000" x2="157.000000" y2="164.000000"  style="stroke:black; stroke-linecap:round; stroke-width:0.25;"/>
<line x1="153.000000" y1="196.000000" x2="157.000000" y2="196.000000"  style="stroke:black; stroke-linecap:round; stroke-width:0.25;"/>
<line x1="157.000000" y1="36.000000" x2="181.000000" y2="36.000000"  style="stroke:black; stroke-linecap:round; stroke-width:0.25;"/>
<line x1="157.000000" y1="68.000000" x2="173.000000" y2="68.000000"  style="stroke:black; stroke-linecap:round; stroke-width:0.25;"/>
<line x1="157.000000" y1="100.000000" x2="165.000000" y2="100.000000"  style="stroke:black; stroke-linecap:round; stroke-width:0.25;"/>
<line x1="157.000000" y1="120.000000" x2="181.000000" y2="120.000000"  style="stroke:black; stroke-linecap:round; stroke-width:0.25;"/>
<line x1="157.000000" y1="132.000000" x2="157.000000" y2="120.000000"  style="stroke:black; stroke-linecap:round; stroke-width:0.25;"/>
<line x1="157.000000" y1="132.000000" x2="157.000000" y2="132.000000"  style="stroke:black; stroke-linecap:round; stroke-width:0.25;"/>
<line x1="157.000000" y1="164.000000" x2="165.000000" y2="164.000000"  style="stroke:black; stroke-linecap:round; stroke-width:0.25;"/>
<line x1="157.000000" y1="196.000000" x2="173.000000" y2="196.000000"  style="stroke:black; stroke-linecap:round; stroke-width:0.25;"/>
<line x1="165.000000" y1="100.000000" x2="165.000000" y2="112.000000"  style="stroke:black; stroke-linecap:round; stroke-width:0.25;"/>
<line x1="165.000000" y1="112.000000" x2="181.000000" y2="112.000000"  style="stroke:black; stroke-linecap:round; stroke-width:0.25;"/>
<line x1="165.000000" y1="128.000000" x2="181.000000" y2="128.000000"  style="stroke:black; stroke-linecap:round; stroke-width:0.25;"/>
<line x1="165.000000" y1="164.000000" x2="165.000000" y2="128.000000"  style="stroke:black; stroke-linecap:round; stroke-width:0.25;"/>
<line x1="173.000000" y1="68.000000" x2="173.000000" y2="104.000000"  style="stroke:black; stroke-linecap:round; stroke-width:0.25;"/>
<line x1="173.000000" y1="104.000000" x2="181.000000" y2="104.000000"  style="stroke:black; stroke-linecap:round; stroke-width:0.25;"/>
<line x1="173.000000" y1="136.000000" x2="181.000000" y2="136.000000"  style="stroke:black; stroke-linecap:round; stroke-width:0.25;"/>
<line x1="173.000000" y1="196.000000" x2="173.000000" y2="136.000000"  style="stroke:black; stroke-linecap:round; stroke-width:0.25;"/>
<line x1="181.000000" y1="36.000000" x2="181.000000" y2="96.000000"  style="stroke:black; stroke-linecap:round; stroke-width:0.25;"/>
<line x1="181.000000" y1="96.000000" x2="181.000000" y2="96.000000"  style="stroke:black; stroke-linecap:round; stroke-width:0.25;"/>
<line x1="181.000000" y1="96.000000" x2="185.000000" y2="96.000000"  style="stroke:black; stroke-linecap:round; stroke-width:0.25;"/>
<line x1="181.000000" y1="104.000000" x2="185.000000" y2="104.000000"  style="stroke:black; stroke-linecap:round; stroke-width:0.25;"/>
<line x1="181.000000" y1="112.000000" x2="185.000000" y2="112.000000"  style="stroke:black; stroke-linecap:round; stroke-width:0.25;"/>
<line x1="181.000000" y1="120.000000" x2="185.000000" y2="120.000000"  style="stroke:black; stroke-linecap:round; stroke-width:0.25;"/>
<line x1="181.000000" y1="128.000000" x2="185.000000" y2="128.000000"  style="stroke:black; stroke-linecap:round; stroke-width:0.25;"/>
<line x1="181.000000" y1="136.000000" x2="185.000000" y2="136.000000"  style="stroke:black; stroke-linecap:round; stroke-width:0.25;"/>
<line x1="314.000000" y1="116.000000" x2="318.000000" y2="116.000000"  style="stroke:black; stroke-linecap:round; stroke-width:0.25;"/>
<line x1="318.000000" y1="116.000000" x2="318.000000" y2="116.000000"  style="stroke:black; stroke-linecap:round; stroke-width:0.25;"/>
<line x1="318.000000" y1="116.000000" x2="322.000000" y2="116.000000"  style="stroke:black; stroke-linecap:round; stroke-width:0.25;"/>
<line x1="322.000000" y1="116.000000" x2="326.000000" y2="116.000000"  style="stroke:black; stroke-linecap:round; stroke-width:0.25;"/>
<line x1="326.000000" y1="116.000000" x2="336.000000" y2="116.000000"  style="stroke:black; stroke-linecap:round; stroke-width:0.25;"/>
</svg>
