<?xml version="1.0"?>
<svg xmlns="http://www.w3.org/2000/svg" xmlns:xlink="http://www.w3.org/1999/xlink" viewBox="0 0 267.600000 156.000000" width="133.800000mm" height="78.000000mm" version="1.1">
<a xlink:href="d-0x7fcef528b1f0.svg">
<rect x="1.000000" y="1.000000" width="266.600000" height="155.000000" rx="0" ry="0" style="stroke:none;fill:#cccccc;"/>
<rect x="0.000000" y="0.000000" width="266.600000" height="155.000000" rx="0" ry="0" style="stroke:none;fill:#ffffff;"/>
</a>
<text x="10.000000" y="7.000000" font-family="Arial" font-size="7"></text>
<rect x="35.000000" y="35.000000" width="25.800000" height="24.000000" rx="0" ry="0" style="stroke:none;fill:#cccccc;"/>
<rect x="34.000000" y="34.000000" width="25.800000" height="24.000000" rx="0" ry="0" style="stroke:none;fill:#f44800;"/>
<text x="46.900000" y="48.000000" font-family="Arial" font-size="7" text-anchor="middle" fill="#FFFFFF">65536</text>
<circle cx="36.000000" cy="36.000000" r="1"/>
<line x1="25.000000" y1="25.000000" x2="25.000000" y2="67.000000"  style="stroke: black; stroke-linecap:round; stroke-width:0.25; stroke-dasharray:3,3;"/>
<line x1="25.000000" y1="67.000000" x2="68.800000" y2="67.000000"  style="stroke: black; stroke-linecap:round; stroke-width:0.25; stroke-dasharray:3,3;"/>
<line x1="68.800000" y1="67.000000" x2="68.800000" y2="25.000000"  style="stroke: black; stroke-linecap:round; stroke-width:0.25; stroke-dasharray:3,3;"/>
<line x1="25.000000" y1="25.000000" x2="30.000000" y2="25.000000"  style="stroke: black; stroke-linecap:round; stroke-width:0.25; stroke-dasharray:3,3;"/>
<line x1="65.475000" y1="25.000000" x2="68.800000" y2="25.000000"  style="stroke: black; stroke-linecap:round; stroke-width:0.25; stroke-dasharray:3,3;"/>
<text x="30.000000" y="27.000000" font-family="Arial" font-size="7">tablesize</text>
<a xlink:href="l2s-0x7fcef500f460.svg">
<rect x="35.000000" y="77.000000" width="25.800000" height="24.000000" rx="0" ry="0" style="stroke:none;fill:#cccccc;"/>
<rect x="34.000000" y="76.000000" width="25.800000" height="24.000000" rx="0" ry="0" style="stroke:none;fill:#003366;"/>
</a>
<a xlink:href="l2s-0x7fcef500f460.svg">
<text x="46.900000" y="90.000000" font-family="Arial" font-size="7" text-anchor="middle" fill="#FFFFFF">l2s(4)</text>
</a>
<circle cx="36.000000" cy="78.000000" r="1"/>
<rect x="96.800000" y="51.000000" width="24.000000" height="24.000000" rx="0" ry="0" style="stroke:none;fill:#cccccc;"/>
<rect x="95.800000" y="50.000000" width="24.000000" height="24.000000" rx="0" ry="0" style="stroke:none;fill:#4B71A1;"/>
<text x="107.800000" y="64.000000" font-family="Arial" font-size="7" text-anchor="middle" fill="#FFFFFF">min</text>
<circle cx="97.800000" cy="52.000000" r="1"/>
<line x1="92.800000" y1="57.000000" x2="95.800000" y2="58.000000"  transform="rotate(0.000000,95.800000,58.000000)" style="stroke: black; stroke-width:0.25;"/>
<line x1="92.800000" y1="59.000000" x2="95.800000" y2="58.000000"  transform="rotate(0.000000,95.800000,58.000000)" style="stroke: black; stroke-width:0.25;"/>
<line x1="92.800000" y1="65.000000" x2="95.800000" y2="66.000000"  transform="rotate(0.000000,95.800000,66.000000)" style="stroke: black; stroke-width:0.25;"/>
<line x1="92.800000" y1="67.000000" x2="95.800000" y2="66.000000"  transform="rotate(0.000000,95.800000,66.000000)" style="stroke: black; stroke-width:0.25;"/>
<line x1="86.800000" y1="41.000000" x2="86.800000" y2="83.000000"  style="stroke: black; stroke-linecap:round; stroke-width:0.25; stroke-dasharray:3,3;"/>
<line x1="86.800000" y1="83.000000" x2="128.800000" y2="83.000000"  style="stroke: black; stroke-linecap:round; stroke-width:0.25; stroke-dasharray:3,3;"/>
<line x1="128.800000" y1="83.000000" x2="128.800000" y2="41.000000"  style="stroke: black; stroke-linecap:round; stroke-width:0.25; stroke-dasharray:3,3;"/>
<line x1="86.800000" y1="41.000000" x2="91.800000" y2="41.000000"  style="stroke: black; stroke-linecap:round; stroke-width:0.25; stroke-dasharray:3,3;"/>
<line x1="111.150000" y1="41.000000" x2="128.800000" y2="41.000000"  style="stroke: black; stroke-linecap:round; stroke-width:0.25; stroke-dasharray:3,3;"/>
<text x="91.800000" y="43.000000" font-family="Arial" font-size="7">fmin</text>
<a xlink:href="memchunk5-0x7fcef4befc60.svg">
<rect x="58.550000" y="109.000000" width="38.700000" height="24.000000" rx="0" ry="0" style="stroke:none;fill:#cccccc;"/>
<rect x="57.550000" y="108.000000" width="38.700000" height="24.000000" rx="0" ry="0" style="stroke:none;fill:#003366;"/>
</a>
<a xlink:href="memchunk5-0x7fcef4befc60.svg">
<text x="76.900000" y="122.000000" font-family="Arial" font-size="7" text-anchor="middle" fill="#FFFFFF">memchunk5</text>
</a>
<circle cx="59.550000" cy="110.000000" r="1"/>
<rect x="146.800000" y="67.000000" width="24.000000" height="24.000000" rx="0" ry="0" style="stroke:none;fill:#cccccc;"/>
<rect x="145.800000" y="66.000000" width="24.000000" height="24.000000" rx="0" ry="0" style="stroke:none;fill:#4B71A1;"/>
<text x="157.800000" y="80.000000" font-family="Arial" font-size="7" text-anchor="middle" fill="#FFFFFF">*</text>
<circle cx="147.800000" cy="68.000000" r="1"/>
<line x1="142.800000" y1="73.000000" x2="145.800000" y2="74.000000"  transform="rotate(0.000000,145.800000,74.000000)" style="stroke: black; stroke-width:0.25;"/>
<line x1="142.800000" y1="75.000000" x2="145.800000" y2="74.000000"  transform="rotate(0.000000,145.800000,74.000000)" style="stroke: black; stroke-width:0.25;"/>
<line x1="142.800000" y1="81.000000" x2="145.800000" y2="82.000000"  transform="rotate(0.000000,145.800000,82.000000)" style="stroke: black; stroke-width:0.25;"/>
<line x1="142.800000" y1="83.000000" x2="145.800000" y2="82.000000"  transform="rotate(0.000000,145.800000,82.000000)" style="stroke: black; stroke-width:0.25;"/>
<a xlink:href="smoo-0x7fcef5281cf0.svg">
<rect x="178.800000" y="67.000000" width="25.800000" height="24.000000" rx="0" ry="0" style="stroke:none;fill:#cccccc;"/>
<rect x="177.800000" y="66.000000" width="25.800000" height="24.000000" rx="0" ry="0" style="stroke:none;fill:#003366;"/>
</a>
<a xlink:href="smoo-0x7fcef5281cf0.svg">
<text x="190.700000" y="80.000000" font-family="Arial" font-size="7" text-anchor="middle" fill="#FFFFFF">smoo</text>
</a>
<circle cx="179.800000" cy="68.000000" r="1"/>
<line x1="174.800000" y1="77.000000" x2="177.800000" y2="78.000000"  transform="rotate(0.000000,177.800000,78.000000)" style="stroke: black; stroke-width:0.25;"/>
<line x1="174.800000" y1="79.000000" x2="177.800000" y2="78.000000"  transform="rotate(0.000000,177.800000,78.000000)" style="stroke: black; stroke-width:0.25;"/>
<rect x="212.600000" y="67.000000" width="24.000000" height="24.000000" rx="0" ry="0" style="stroke:none;fill:#cccccc;"/>
<rect x="211.600000" y="66.000000" width="24.000000" height="24.000000" rx="0" ry="0" style="stroke:none;fill:#4B71A1;"/>
<text x="223.600000" y="80.000000" font-family="Arial" font-size="7" text-anchor="middle" fill="#FFFFFF">int</text>
<circle cx="213.600000" cy="68.000000" r="1"/>
<line x1="208.600000" y1="77.000000" x2="211.600000" y2="78.000000"  transform="rotate(0.000000,211.600000,78.000000)" style="stroke: black; stroke-width:0.25;"/>
<line x1="208.600000" y1="79.000000" x2="211.600000" y2="78.000000"  transform="rotate(0.000000,211.600000,78.000000)" style="stroke: black; stroke-width:0.25;"/>
<line x1="15.000000" y1="15.000000" x2="15.000000" y2="141.000000"  style="stroke: black; stroke-linecap:round; stroke-width:0.25; stroke-dasharray:3,3;"/>
<line x1="15.000000" y1="141.000000" x2="252.600000" y2="141.000000"  style="stroke: black; stroke-linecap:round; stroke-width:0.25; stroke-dasharray:3,3;"/>
<line x1="252.600000" y1="141.000000" x2="252.600000" y2="15.000000"  style="stroke: black; stroke-linecap:round; stroke-width:0.25; stroke-dasharray:3,3;"/>
<line x1="15.000000" y1="15.000000" x2="20.000000" y2="15.000000"  style="stroke: black; stroke-linecap:round; stroke-width:0.25; stroke-dasharray:3,3;"/>
<line x1="49.025000" y1="15.000000" x2="252.600000" y2="15.000000"  style="stroke: black; stroke-linecap:round; stroke-width:0.25; stroke-dasharray:3,3;"/>
<text x="20.000000" y="17.000000" font-family="Arial" font-size="7">bufsize</text>
<line x1="254.600000" y1="77.000000" x2="257.600000" y2="78.000000"  transform="rotate(0.000000,257.600000,78.000000)" style="stroke: black; stroke-width:0.25;"/>
<line x1="254.600000" y1="79.000000" x2="257.600000" y2="78.000000"  transform="rotate(0.000000,257.600000,78.000000)" style="stroke: black; stroke-width:0.25;"/>
<line x1="59.800000" y1="46.000000" x2="63.800000" y2="46.000000"  style="stroke:black; stroke-linecap:round; stroke-width:0.25;"/>
<line x1="59.800000" y1="88.000000" x2="63.800000" y2="88.000000"  style="stroke:black; stroke-linecap:round; stroke-width:0.25;"/>
<line x1="63.800000" y1="46.000000" x2="73.800000" y2="46.000000"  style="stroke:black; stroke-linecap:round; stroke-width:0.25;"/>
<line x1="63.800000" y1="88.000000" x2="73.800000" y2="88.000000"  style="stroke:black; stroke-linecap:round; stroke-width:0.25;"/>
<line x1="73.800000" y1="46.000000" x2="81.800000" y2="46.000000"  style="stroke:black; stroke-linecap:round; stroke-width:0.25;"/>
<line x1="73.800000" y1="66.000000" x2="81.800000" y2="66.000000"  style="stroke:black; stroke-linecap:round; stroke-width:0.25;"/>
<line x1="73.800000" y1="88.000000" x2="73.800000" y2="66.000000"  style="stroke:black; stroke-linecap:round; stroke-width:0.25;"/>
<line x1="73.800000" y1="88.000000" x2="73.800000" y2="88.000000"  style="stroke:black; stroke-linecap:round; stroke-width:0.25;"/>
<line x1="81.800000" y1="46.000000" x2="81.800000" y2="58.000000"  style="stroke:black; stroke-linecap:round; stroke-width:0.25;"/>
<line x1="81.800000" y1="58.000000" x2="81.800000" y2="58.000000"  style="stroke:black; stroke-linecap:round; stroke-width:0.25;"/>
<line x1="81.800000" y1="58.000000" x2="91.800000" y2="58.000000"  style="stroke:black; stroke-linecap:round; stroke-width:0.25;"/>
<line x1="81.800000" y1="66.000000" x2="91.800000" y2="66.000000"  style="stroke:black; stroke-linecap:round; stroke-width:0.25;"/>
<line x1="91.800000" y1="58.000000" x2="95.800000" y2="58.000000"  style="stroke:black; stroke-linecap:round; stroke-width:0.25;"/>
<line x1="91.800000" y1="66.000000" x2="95.800000" y2="66.000000"  style="stroke:black; stroke-linecap:round; stroke-width:0.25;"/>
<line x1="96.250000" y1="120.000000" x2="100.250000" y2="120.000000"  style="stroke:black; stroke-linecap:round; stroke-width:0.25;"/>
<line x1="100.250000" y1="120.000000" x2="133.800000" y2="120.000000"  style="stroke:black; stroke-linecap:round; stroke-width:0.25;"/>
<line x1="119.800000" y1="62.000000" x2="123.800000" y2="62.000000"  style="stroke:black; stroke-linecap:round; stroke-width:0.25;"/>
<line x1="123.800000" y1="62.000000" x2="133.800000" y2="62.000000"  style="stroke:black; stroke-linecap:round; stroke-width:0.25;"/>
<line x1="133.800000" y1="62.000000" x2="141.800000" y2="62.000000"  style="stroke:black; stroke-linecap:round; stroke-width:0.25;"/>
<line x1="133.800000" y1="82.000000" x2="141.800000" y2="82.000000"  style="stroke:black; stroke-linecap:round; stroke-width:0.25;"/>
<line x1="133.800000" y1="120.000000" x2="133.800000" y2="82.000000"  style="stroke:black; stroke-linecap:round; stroke-width:0.25;"/>
<line x1="133.800000" y1="120.000000" x2="133.800000" y2="120.000000"  style="stroke:black; stroke-linecap:round; stroke-width:0.25;"/>
<line x1="141.800000" y1="62.000000" x2="141.800000" y2="74.000000"  style="stroke:black; stroke-linecap:round; stroke-width:0.25;"/>
<line x1="141.800000" y1="74.000000" x2="141.800000" y2="74.000000"  style="stroke:black; stroke-linecap:round; stroke-width:0.25;"/>
<line x1="141.800000" y1="74.000000" x2="145.800000" y2="74.000000"  style="stroke:black; stroke-linecap:round; stroke-width:0.25;"/>
<line x1="141.800000" y1="82.000000" x2="145.800000" y2="82.000000"  style="stroke:black; stroke-linecap:round; stroke-width:0.25;"/>
<line x1="169.800000" y1="78.000000" x2="173.800000" y2="78.000000"  style="stroke:black; stroke-linecap:round; stroke-width:0.25;"/>
<line x1="173.800000" y1="78.000000" x2="173.800000" y2="78.000000"  style="stroke:black; stroke-linecap:round; stroke-width:0.25;"/>
<line x1="173.800000" y1="78.000000" x2="177.800000" y2="78.000000"  style="stroke:black; stroke-linecap:round; stroke-width:0.25;"/>
<line x1="203.600000" y1="78.000000" x2="207.600000" y2="78.000000"  style="stroke:black; stroke-linecap:round; stroke-width:0.25;"/>
<line x1="207.600000" y1="78.000000" x2="207.600000" y2="78.000000"  style="stroke:black; stroke-linecap:round; stroke-width:0.25;"/>
<line x1="207.600000" y1="78.000000" x2="211.600000" y2="78.000000"  style="stroke:black; stroke-linecap:round; stroke-width:0.25;"/>
<line x1="235.600000" y1="78.000000" x2="239.600000" y2="78.000000"  style="stroke:black; stroke-linecap:round; stroke-width:0.25;"/>
<line x1="239.600000" y1="78.000000" x2="239.600000" y2="78.000000"  style="stroke:black; stroke-linecap:round; stroke-width:0.25;"/>
<line x1="239.600000" y1="78.000000" x2="243.600000" y2="78.000000"  style="stroke:black; stroke-linecap:round; stroke-width:0.25;"/>
<line x1="243.600000" y1="78.000000" x2="247.600000" y2="78.000000"  style="stroke:black; stroke-linecap:round; stroke-width:0.25;"/>
<line x1="247.600000" y1="78.000000" x2="257.600000" y2="78.000000"  style="stroke:black; stroke-linecap:round; stroke-width:0.25;"/>
</svg>
