<?xml version="1.0"?>
<svg xmlns="http://www.w3.org/2000/svg" xmlns:xlink="http://www.w3.org/1999/xlink" viewBox="0 0 429.000000 124.000000" width="214.500000mm" height="62.000000mm" version="1.1">
<a xlink:href="decimal-0x7f9d912e7f70.svg">
<rect x="1.000000" y="1.000000" width="428.000000" height="123.000000" rx="0" ry="0" style="stroke:none;fill:#cccccc;"/>
<rect x="0.000000" y="0.000000" width="428.000000" height="123.000000" rx="0" ry="0" style="stroke:none;fill:#ffffff;"/>
</a>
<text x="10.000000" y="7.000000" font-family="Arial" font-size="7"></text>
<rect x="35.000000" y="35.000000" width="24.000000" height="24.000000" rx="0" ry="0" style="stroke:none;fill:#cccccc;"/>
<rect x="34.000000" y="34.000000" width="24.000000" height="24.000000" rx="0" ry="0" style="stroke:none;fill:#f44800;"/>
<text x="46.000000" y="48.000000" font-family="Arial" font-size="7" text-anchor="middle" fill="#FFFFFF">1</text>
<circle cx="36.000000" cy="36.000000" r="1"/>
<line x1="25.000000" y1="25.000000" x2="25.000000" y2="67.000000"  style="stroke: black; stroke-linecap:round; stroke-width:0.25; stroke-dasharray:3,3;"/>
<line x1="25.000000" y1="67.000000" x2="67.000000" y2="67.000000"  style="stroke: black; stroke-linecap:round; stroke-width:0.25; stroke-dasharray:3,3;"/>
<line x1="67.000000" y1="67.000000" x2="67.000000" y2="25.000000"  style="stroke: black; stroke-linecap:round; stroke-width:0.25; stroke-dasharray:3,3;"/>
<line x1="25.000000" y1="25.000000" x2="30.000000" y2="25.000000"  style="stroke: black; stroke-linecap:round; stroke-width:0.25; stroke-dasharray:3,3;"/>
<line x1="62.250000" y1="25.000000" x2="67.000000" y2="25.000000"  style="stroke: black; stroke-linecap:round; stroke-width:0.25; stroke-dasharray:3,3;"/>
<text x="30.000000" y="27.000000" font-family="Arial" font-size="7">xVals(1)</text>
<a xlink:href="ratio5-0x7f9d90bb8190.svg">
<rect x="34.100000" y="77.000000" width="25.800000" height="24.000000" rx="0" ry="0" style="stroke:none;fill:#cccccc;"/>
<rect x="33.100000" y="76.000000" width="25.800000" height="24.000000" rx="0" ry="0" style="stroke:none;fill:#003366;"/>
</a>
<a xlink:href="ratio5-0x7f9d90bb8190.svg">
<text x="46.000000" y="90.000000" font-family="Arial" font-size="7" text-anchor="middle" fill="#FFFFFF">ratio5</text>
</a>
<circle cx="35.100000" cy="78.000000" r="1"/>
<rect x="85.000000" y="51.000000" width="24.000000" height="24.000000" rx="0" ry="0" style="stroke:none;fill:#cccccc;"/>
<rect x="84.000000" y="50.000000" width="24.000000" height="24.000000" rx="0" ry="0" style="stroke:none;fill:#4B71A1;"/>
<text x="96.000000" y="64.000000" font-family="Arial" font-size="7" text-anchor="middle" fill="#FFFFFF">-</text>
<circle cx="86.000000" cy="52.000000" r="1"/>
<line x1="81.000000" y1="57.000000" x2="84.000000" y2="58.000000"  transform="rotate(0.000000,84.000000,58.000000)" style="stroke: black; stroke-width:0.25;"/>
<line x1="81.000000" y1="59.000000" x2="84.000000" y2="58.000000"  transform="rotate(0.000000,84.000000,58.000000)" style="stroke: black; stroke-width:0.25;"/>
<line x1="81.000000" y1="65.000000" x2="84.000000" y2="66.000000"  transform="rotate(0.000000,84.000000,66.000000)" style="stroke: black; stroke-width:0.25;"/>
<line x1="81.000000" y1="67.000000" x2="84.000000" y2="66.000000"  transform="rotate(0.000000,84.000000,66.000000)" style="stroke: black; stroke-width:0.25;"/>
<a xlink:href="smoo-0x7f9d91294910.svg">
<rect x="117.000000" y="51.000000" width="25.800000" height="24.000000" rx="0" ry="0" style="stroke:none;fill:#cccccc;"/>
<rect x="116.000000" y="50.000000" width="25.800000" height="24.000000" rx="0" ry="0" style="stroke:none;fill:#003366;"/>
</a>
<a xlink:href="smoo-0x7f9d91294910.svg">
<text x="128.900000" y="64.000000" font-family="Arial" font-size="7" text-anchor="middle" fill="#FFFFFF">smoo</text>
</a>
<circle cx="118.000000" cy="52.000000" r="1"/>
<line x1="113.000000" y1="61.000000" x2="116.000000" y2="62.000000"  transform="rotate(0.000000,116.000000,62.000000)" style="stroke: black; stroke-width:0.25;"/>
<line x1="113.000000" y1="63.000000" x2="116.000000" y2="62.000000"  transform="rotate(0.000000,116.000000,62.000000)" style="stroke: black; stroke-width:0.25;"/>
<rect x="166.800000" y="55.000000" width="24.000000" height="24.000000" rx="0" ry="0" style="stroke:none;fill:#cccccc;"/>
<rect x="165.800000" y="54.000000" width="24.000000" height="24.000000" rx="0" ry="0" style="stroke:none;fill:#4B71A1;"/>
<text x="177.800000" y="68.000000" font-family="Arial" font-size="7" text-anchor="middle" fill="#FFFFFF">+</text>
<circle cx="167.800000" cy="56.000000" r="1"/>
<line x1="162.800000" y1="61.000000" x2="165.800000" y2="62.000000"  transform="rotate(0.000000,165.800000,62.000000)" style="stroke: black; stroke-width:0.25;"/>
<line x1="162.800000" y1="63.000000" x2="165.800000" y2="62.000000"  transform="rotate(0.000000,165.800000,62.000000)" style="stroke: black; stroke-width:0.25;"/>
<line x1="162.800000" y1="69.000000" x2="165.800000" y2="70.000000"  transform="rotate(0.000000,165.800000,70.000000)" style="stroke: black; stroke-width:0.25;"/>
<line x1="162.800000" y1="71.000000" x2="165.800000" y2="70.000000"  transform="rotate(0.000000,165.800000,70.000000)" style="stroke: black; stroke-width:0.25;"/>
<a xlink:href="bufsize-0x7f9d91294d60.svg">
<rect x="206.800000" y="59.000000" width="38.700000" height="24.000000" rx="0" ry="0" style="stroke:none;fill:#cccccc;"/>
<rect x="205.800000" y="58.000000" width="38.700000" height="24.000000" rx="0" ry="0" style="stroke:none;fill:#003366;"/>
</a>
<a xlink:href="bufsize-0x7f9d91294d60.svg">
<text x="225.150000" y="72.000000" font-family="Arial" font-size="7" text-anchor="middle" fill="#FFFFFF">bufsize</text>
</a>
<circle cx="207.800000" cy="60.000000" r="1"/>
<rect x="261.500000" y="55.000000" width="24.000000" height="24.000000" rx="0" ry="0" style="stroke:none;fill:#cccccc;"/>
<rect x="260.500000" y="54.000000" width="24.000000" height="24.000000" rx="0" ry="0" style="stroke:none;fill:#4B71A1;"/>
<text x="272.500000" y="68.000000" font-family="Arial" font-size="7" text-anchor="middle" fill="#FFFFFF">+</text>
<circle cx="262.500000" cy="56.000000" r="1"/>
<line x1="257.500000" y1="61.000000" x2="260.500000" y2="62.000000"  transform="rotate(0.000000,260.500000,62.000000)" style="stroke: black; stroke-width:0.25;"/>
<line x1="257.500000" y1="63.000000" x2="260.500000" y2="62.000000"  transform="rotate(0.000000,260.500000,62.000000)" style="stroke: black; stroke-width:0.25;"/>
<line x1="257.500000" y1="69.000000" x2="260.500000" y2="70.000000"  transform="rotate(0.000000,260.500000,70.000000)" style="stroke: black; stroke-width:0.25;"/>
<line x1="257.500000" y1="71.000000" x2="260.500000" y2="70.000000"  transform="rotate(0.000000,260.500000,70.000000)" style="stroke: black; stroke-width:0.25;"/>
<a xlink:href="bufsize-0x7f9d91294d60.svg">
<rect x="301.500000" y="59.000000" width="38.700000" height="24.000000" rx="0" ry="0" style="stroke:none;fill:#cccccc;"/>
<rect x="300.500000" y="58.000000" width="38.700000" height="24.000000" rx="0" ry="0" style="stroke:none;fill:#003366;"/>
</a>
<a xlink:href="bufsize-0x7f9d91294d60.svg">
<text x="319.850000" y="72.000000" font-family="Arial" font-size="7" text-anchor="middle" fill="#FFFFFF">bufsize</text>
</a>
<circle cx="302.500000" cy="60.000000" r="1"/>
<rect x="356.200000" y="55.000000" width="25.800000" height="24.000000" rx="0" ry="0" style="stroke:none;fill:#cccccc;"/>
<rect x="355.200000" y="54.000000" width="25.800000" height="24.000000" rx="0" ry="0" style="stroke:none;fill:#4B71A1;"/>
<text x="368.100000" y="68.000000" font-family="Arial" font-size="7" text-anchor="middle" fill="#FFFFFF">fmod</text>
<circle cx="357.200000" cy="56.000000" r="1"/>
<line x1="352.200000" y1="61.000000" x2="355.200000" y2="62.000000"  transform="rotate(0.000000,355.200000,62.000000)" style="stroke: black; stroke-width:0.25;"/>
<line x1="352.200000" y1="63.000000" x2="355.200000" y2="62.000000"  transform="rotate(0.000000,355.200000,62.000000)" style="stroke: black; stroke-width:0.25;"/>
<line x1="352.200000" y1="69.000000" x2="355.200000" y2="70.000000"  transform="rotate(0.000000,355.200000,70.000000)" style="stroke: black; stroke-width:0.25;"/>
<line x1="352.200000" y1="71.000000" x2="355.200000" y2="70.000000"  transform="rotate(0.000000,355.200000,70.000000)" style="stroke: black; stroke-width:0.25;"/>
<line x1="383.000000" y1="66.000000" x2="383.000000" y2="62.000000"  style="stroke:black; stroke-linecap:round; stroke-width:0.25;"/>
<line x1="383.000000" y1="62.000000" x2="387.000000" y2="62.000000"  style="stroke:black; stroke-linecap:round; stroke-width:0.25;"/>
<line x1="387.000000" y1="62.000000" x2="387.000000" y2="66.000000"  style="stroke:black; stroke-linecap:round; stroke-width:0.25;"/>
<line x1="15.000000" y1="15.000000" x2="15.000000" y2="109.000000"  style="stroke: black; stroke-linecap:round; stroke-width:0.25; stroke-dasharray:3,3;"/>
<line x1="15.000000" y1="109.000000" x2="414.000000" y2="109.000000"  style="stroke: black; stroke-linecap:round; stroke-width:0.25; stroke-dasharray:3,3;"/>
<line x1="414.000000" y1="109.000000" x2="414.000000" y2="15.000000"  style="stroke: black; stroke-linecap:round; stroke-width:0.25; stroke-dasharray:3,3;"/>
<line x1="15.000000" y1="15.000000" x2="20.000000" y2="15.000000"  style="stroke: black; stroke-linecap:round; stroke-width:0.25; stroke-dasharray:3,3;"/>
<line x1="29.675000" y1="15.000000" x2="414.000000" y2="15.000000"  style="stroke: black; stroke-linecap:round; stroke-width:0.25; stroke-dasharray:3,3;"/>
<text x="20.000000" y="17.000000" font-family="Arial" font-size="7">d</text>
<line x1="416.000000" y1="61.000000" x2="419.000000" y2="62.000000"  transform="rotate(0.000000,419.000000,62.000000)" style="stroke: black; stroke-width:0.25;"/>
<line x1="416.000000" y1="63.000000" x2="419.000000" y2="62.000000"  transform="rotate(0.000000,419.000000,62.000000)" style="stroke: black; stroke-width:0.25;"/>
<line x1="58.000000" y1="46.000000" x2="62.000000" y2="46.000000"  style="stroke:black; stroke-linecap:round; stroke-width:0.25;"/>
<line x1="58.900000" y1="88.000000" x2="62.900000" y2="88.000000"  style="stroke:black; stroke-linecap:round; stroke-width:0.25;"/>
<line x1="62.000000" y1="46.000000" x2="72.000000" y2="46.000000"  style="stroke:black; stroke-linecap:round; stroke-width:0.25;"/>
<line x1="62.900000" y1="88.000000" x2="72.000000" y2="88.000000"  style="stroke:black; stroke-linecap:round; stroke-width:0.25;"/>
<line x1="72.000000" y1="46.000000" x2="80.000000" y2="46.000000"  style="stroke:black; stroke-linecap:round; stroke-width:0.25;"/>
<line x1="72.000000" y1="66.000000" x2="80.000000" y2="66.000000"  style="stroke:black; stroke-linecap:round; stroke-width:0.25;"/>
<line x1="72.000000" y1="88.000000" x2="72.000000" y2="66.000000"  style="stroke:black; stroke-linecap:round; stroke-width:0.25;"/>
<line x1="72.000000" y1="88.000000" x2="72.000000" y2="88.000000"  style="stroke:black; stroke-linecap:round; stroke-width:0.25;"/>
<line x1="80.000000" y1="46.000000" x2="80.000000" y2="58.000000"  style="stroke:black; stroke-linecap:round; stroke-width:0.25;"/>
<line x1="80.000000" y1="58.000000" x2="80.000000" y2="58.000000"  style="stroke:black; stroke-linecap:round; stroke-width:0.25;"/>
<line x1="80.000000" y1="58.000000" x2="84.000000" y2="58.000000"  style="stroke:black; stroke-linecap:round; stroke-width:0.25;"/>
<line x1="80.000000" y1="66.000000" x2="84.000000" y2="66.000000"  style="stroke:black; stroke-linecap:round; stroke-width:0.25;"/>
<line x1="108.000000" y1="62.000000" x2="112.000000" y2="62.000000"  style="stroke:black; stroke-linecap:round; stroke-width:0.25;"/>
<line x1="112.000000" y1="62.000000" x2="112.000000" y2="62.000000"  style="stroke:black; stroke-linecap:round; stroke-width:0.25;"/>
<line x1="112.000000" y1="62.000000" x2="116.000000" y2="62.000000"  style="stroke:black; stroke-linecap:round; stroke-width:0.25;"/>
<line x1="141.800000" y1="62.000000" x2="145.800000" y2="62.000000"  style="stroke:black; stroke-linecap:round; stroke-width:0.25;"/>
<line x1="145.800000" y1="62.000000" x2="153.800000" y2="62.000000"  style="stroke:black; stroke-linecap:round; stroke-width:0.25;"/>
<line x1="153.800000" y1="62.000000" x2="153.800000" y2="70.000000"  style="stroke:black; stroke-linecap:round; stroke-width:0.25;"/>
<line x1="153.800000" y1="70.000000" x2="153.800000" y2="70.000000"  style="stroke:black; stroke-linecap:round; stroke-width:0.25;"/>
<line x1="153.800000" y1="70.000000" x2="161.800000" y2="70.000000"  style="stroke:black; stroke-linecap:round; stroke-width:0.25;"/>
<line x1="161.800000" y1="42.000000" x2="161.800000" y2="42.000000"  style="stroke:black; stroke-linecap:round; stroke-width:0.25;"/>
<line x1="161.800000" y1="42.000000" x2="161.800000" y2="62.000000"  style="stroke:black; stroke-linecap:round; stroke-width:0.25;"/>
<line x1="161.800000" y1="62.000000" x2="161.800000" y2="62.000000"  style="stroke:black; stroke-linecap:round; stroke-width:0.25;"/>
<line x1="161.800000" y1="62.000000" x2="165.800000" y2="62.000000"  style="stroke:black; stroke-linecap:round; stroke-width:0.25;"/>
<line x1="161.800000" y1="70.000000" x2="165.800000" y2="70.000000"  style="stroke:black; stroke-linecap:round; stroke-width:0.25;"/>
<line x1="189.800000" y1="66.000000" x2="193.800000" y2="66.000000"  style="stroke:black; stroke-linecap:round; stroke-width:0.25;"/>
<line x1="193.800000" y1="50.000000" x2="201.800000" y2="50.000000"  style="stroke:black; stroke-linecap:round; stroke-width:0.25;"/>
<line x1="193.800000" y1="66.000000" x2="193.800000" y2="50.000000"  style="stroke:black; stroke-linecap:round; stroke-width:0.25;"/>
<line x1="193.800000" y1="66.000000" x2="193.800000" y2="66.000000"  style="stroke:black; stroke-linecap:round; stroke-width:0.25;"/>
<line x1="201.800000" y1="50.000000" x2="225.150000" y2="50.000000"  style="stroke:black; stroke-linecap:round; stroke-width:0.25;"/>
<line x1="225.150000" y1="50.000000" x2="248.500000" y2="50.000000"  style="stroke:black; stroke-linecap:round; stroke-width:0.25;"/>
<line x1="244.500000" y1="70.000000" x2="248.500000" y2="70.000000"  style="stroke:black; stroke-linecap:round; stroke-width:0.25;"/>
<line x1="248.500000" y1="50.000000" x2="256.500000" y2="50.000000"  style="stroke:black; stroke-linecap:round; stroke-width:0.25;"/>
<line x1="248.500000" y1="70.000000" x2="256.500000" y2="70.000000"  style="stroke:black; stroke-linecap:round; stroke-width:0.25;"/>
<line x1="256.500000" y1="50.000000" x2="256.500000" y2="62.000000"  style="stroke:black; stroke-linecap:round; stroke-width:0.25;"/>
<line x1="256.500000" y1="62.000000" x2="256.500000" y2="62.000000"  style="stroke:black; stroke-linecap:round; stroke-width:0.25;"/>
<line x1="256.500000" y1="62.000000" x2="260.500000" y2="62.000000"  style="stroke:black; stroke-linecap:round; stroke-width:0.25;"/>
<line x1="256.500000" y1="70.000000" x2="260.500000" y2="70.000000"  style="stroke:black; stroke-linecap:round; stroke-width:0.25;"/>
<line x1="273.400000" y1="42.000000" x2="161.800000" y2="42.000000"  style="stroke:black; stroke-linecap:round; stroke-width:0.25;"/>
<line x1="284.500000" y1="66.000000" x2="288.500000" y2="66.000000"  style="stroke:black; stroke-linecap:round; stroke-width:0.25;"/>
<line x1="288.500000" y1="50.000000" x2="296.500000" y2="50.000000"  style="stroke:black; stroke-linecap:round; stroke-width:0.25;"/>
<line x1="288.500000" y1="66.000000" x2="288.500000" y2="50.000000"  style="stroke:black; stroke-linecap:round; stroke-width:0.25;"/>
<line x1="288.500000" y1="66.000000" x2="288.500000" y2="66.000000"  style="stroke:black; stroke-linecap:round; stroke-width:0.25;"/>
<line x1="296.500000" y1="50.000000" x2="319.850000" y2="50.000000"  style="stroke:black; stroke-linecap:round; stroke-width:0.25;"/>
<line x1="319.850000" y1="50.000000" x2="343.200000" y2="50.000000"  style="stroke:black; stroke-linecap:round; stroke-width:0.25;"/>
<line x1="339.200000" y1="70.000000" x2="343.200000" y2="70.000000"  style="stroke:black; stroke-linecap:round; stroke-width:0.25;"/>
<line x1="343.200000" y1="70.000000" x2="351.200000" y2="70.000000"  style="stroke:black; stroke-linecap:round; stroke-width:0.25;"/>
<line x1="343.200000" y1="50.000000" x2="351.200000" y2="50.000000"  style="stroke:black; stroke-linecap:round; stroke-width:0.25;"/>
<line x1="351.200000" y1="62.000000" x2="355.200000" y2="62.000000"  style="stroke:black; stroke-linecap:round; stroke-width:0.25;"/>
<line x1="351.200000" y1="70.000000" x2="355.200000" y2="70.000000"  style="stroke:black; stroke-linecap:round; stroke-width:0.25;"/>
<line x1="351.200000" y1="50.000000" x2="351.200000" y2="62.000000"  style="stroke:black; stroke-linecap:round; stroke-width:0.25;"/>
<line x1="351.200000" y1="62.000000" x2="351.200000" y2="62.000000"  style="stroke:black; stroke-linecap:round; stroke-width:0.25;"/>
<line x1="381.000000" y1="66.000000" x2="385.000000" y2="66.000000"  style="stroke:black; stroke-linecap:round; stroke-width:0.25;"/>
<line x1="385.000000" y1="42.000000" x2="273.400000" y2="42.000000"  style="stroke:black; stroke-linecap:round; stroke-width:0.25;"/>
<line x1="385.000000" y1="42.000000" x2="385.000000" y2="42.000000"  style="stroke:black; stroke-linecap:round; stroke-width:0.25;"/>
<line x1="385.000000" y1="62.000000" x2="385.000000" y2="42.000000"  style="stroke:black; stroke-linecap:round; stroke-width:0.25;"/>
<line x1="385.000000" y1="66.000000" x2="387.000000" y2="66.000000"  style="stroke:black; stroke-linecap:round; stroke-width:0.25;"/>
<line x1="387.000000" y1="66.000000" x2="393.000000" y2="66.000000"  style="stroke:black; stroke-linecap:round; stroke-width:0.25;"/>
<line x1="393.000000" y1="62.000000" x2="401.000000" y2="62.000000"  style="stroke:black; stroke-linecap:round; stroke-width:0.25;"/>
<line x1="393.000000" y1="66.000000" x2="393.000000" y2="62.000000"  style="stroke:black; stroke-linecap:round; stroke-width:0.25;"/>
<line x1="393.000000" y1="66.000000" x2="393.000000" y2="66.000000"  style="stroke:black; stroke-linecap:round; stroke-width:0.25;"/>
<line x1="401.000000" y1="62.000000" x2="405.000000" y2="62.000000"  style="stroke:black; stroke-linecap:round; stroke-width:0.25;"/>
<line x1="405.000000" y1="62.000000" x2="409.000000" y2="62.000000"  style="stroke:black; stroke-linecap:round; stroke-width:0.25;"/>
<line x1="409.000000" y1="62.000000" x2="419.000000" y2="62.000000"  style="stroke:black; stroke-linecap:round; stroke-width:0.25;"/>
</svg>
