<?xml version="1.0"?>
<svg xmlns="http://www.w3.org/2000/svg" xmlns:xlink="http://www.w3.org/1999/xlink" viewBox="0 0 282.800000 112.000000" width="141.400000mm" height="56.000000mm" version="1.1">
<a xlink:href="signal-0x7f37c08b0620.svg">
<rect x="1.000000" y="1.000000" width="281.800000" height="111.000000" rx="0" ry="0" style="stroke:none;fill:#cccccc;"/>
<rect x="0.000000" y="0.000000" width="281.800000" height="111.000000" rx="0" ry="0" style="stroke:none;fill:#ffffff;"/>
</a>
<text x="10.000000" y="7.000000" font-family="Arial" font-size="7"></text>
<rect x="49.000000" y="65.000000" width="24.000000" height="24.000000" rx="0" ry="0" style="stroke:none;fill:#cccccc;"/>
<rect x="48.000000" y="64.000000" width="24.000000" height="24.000000" rx="0" ry="0" style="stroke:none;fill:#4B71A1;"/>
<text x="60.000000" y="78.000000" font-family="Arial" font-size="7" text-anchor="middle" fill="#FFFFFF">+</text>
<circle cx="50.000000" cy="66.000000" r="1"/>
<line x1="45.000000" y1="71.000000" x2="48.000000" y2="72.000000"  transform="rotate(0.000000,48.000000,72.000000)" style="stroke: black; stroke-width:0.25;"/>
<line x1="45.000000" y1="73.000000" x2="48.000000" y2="72.000000"  transform="rotate(0.000000,48.000000,72.000000)" style="stroke: black; stroke-width:0.25;"/>
<line x1="45.000000" y1="79.000000" x2="48.000000" y2="80.000000"  transform="rotate(0.000000,48.000000,80.000000)" style="stroke: black; stroke-width:0.25;"/>
<line x1="45.000000" y1="81.000000" x2="48.000000" y2="80.000000"  transform="rotate(0.000000,48.000000,80.000000)" style="stroke: black; stroke-width:0.25;"/>
<a xlink:href="delay-0x7f37c08a4440.svg">
<rect x="81.000000" y="65.000000" width="154.800000" height="24.000000" rx="0" ry="0" style="stroke:none;fill:#cccccc;"/>
<rect x="80.000000" y="64.000000" width="154.800000" height="24.000000" rx="0" ry="0" style="stroke:none;fill:#003366;"/>
</a>
<a xlink:href="delay-0x7f37c08a4440.svg">
<text x="157.400000" y="78.000000" font-family="Arial" font-size="7" text-anchor="middle" fill="#FFFFFF">delay(192000....: max) : min)(0.0f)</text>
</a>
<circle cx="82.000000" cy="66.000000" r="1"/>
<line x1="77.000000" y1="75.000000" x2="80.000000" y2="76.000000"  transform="rotate(0.000000,80.000000,76.000000)" style="stroke: black; stroke-width:0.25;"/>
<line x1="77.000000" y1="77.000000" x2="80.000000" y2="76.000000"  transform="rotate(0.000000,80.000000,76.000000)" style="stroke: black; stroke-width:0.25;"/>
<rect x="150.400000" y="25.000000" width="24.000000" height="24.000000" rx="0" ry="0" style="stroke:none;fill:#cccccc;"/>
<rect x="149.400000" y="24.000000" width="24.000000" height="24.000000" rx="0" ry="0" style="stroke:none;fill:#f44800;"/>
<text x="161.400000" y="38.000000" font-family="Arial" font-size="7" text-anchor="middle" fill="#FFFFFF">0.9</text>
<circle cx="171.400000" cy="46.000000" r="1"/>
<rect x="110.400000" y="29.000000" width="24.000000" height="24.000000" rx="0" ry="0" style="stroke:none;fill:#cccccc;"/>
<rect x="109.400000" y="28.000000" width="24.000000" height="24.000000" rx="0" ry="0" style="stroke:none;fill:#4B71A1;"/>
<text x="121.400000" y="42.000000" font-family="Arial" font-size="7" text-anchor="middle" fill="#FFFFFF">*</text>
<circle cx="131.400000" cy="50.000000" r="1"/>
<line x1="136.400000" y1="43.000000" x2="133.400000" y2="44.000000"  transform="rotate(0.000000,133.400000,44.000000)" style="stroke: black; stroke-width:0.25;"/>
<line x1="136.400000" y1="45.000000" x2="133.400000" y2="44.000000"  transform="rotate(0.000000,133.400000,44.000000)" style="stroke: black; stroke-width:0.25;"/>
<line x1="136.400000" y1="35.000000" x2="133.400000" y2="36.000000"  transform="rotate(0.000000,133.400000,36.000000)" style="stroke: black; stroke-width:0.25;"/>
<line x1="136.400000" y1="37.000000" x2="133.400000" y2="36.000000"  transform="rotate(0.000000,133.400000,36.000000)" style="stroke: black; stroke-width:0.25;"/>
<line x1="236.800000" y1="76.000000" x2="236.800000" y2="72.000000"  style="stroke:black; stroke-linecap:round; stroke-width:0.25;"/>
<line x1="236.800000" y1="72.000000" x2="240.800000" y2="72.000000"  style="stroke:black; stroke-linecap:round; stroke-width:0.25;"/>
<line x1="240.800000" y1="72.000000" x2="240.800000" y2="76.000000"  style="stroke:black; stroke-linecap:round; stroke-width:0.25;"/>
<line x1="15.000000" y1="15.000000" x2="15.000000" y2="97.000000"  style="stroke: black; stroke-linecap:round; stroke-width:0.25; stroke-dasharray:3,3;"/>
<line x1="15.000000" y1="97.000000" x2="267.800000" y2="97.000000"  style="stroke: black; stroke-linecap:round; stroke-width:0.25; stroke-dasharray:3,3;"/>
<line x1="267.800000" y1="97.000000" x2="267.800000" y2="15.000000"  style="stroke: black; stroke-linecap:round; stroke-width:0.25; stroke-dasharray:3,3;"/>
<line x1="15.000000" y1="15.000000" x2="20.000000" y2="15.000000"  style="stroke: black; stroke-linecap:round; stroke-width:0.25; stroke-dasharray:3,3;"/>
<line x1="136.100000" y1="15.000000" x2="267.800000" y2="15.000000"  style="stroke: black; stroke-linecap:round; stroke-width:0.25; stroke-dasharray:3,3;"/>
<text x="20.000000" y="17.000000" font-family="Arial" font-size="7">delay(0.01f)(0.90000000000000002f)</text>
<line x1="269.800000" y1="55.000000" x2="272.800000" y2="56.000000"  transform="rotate(0.000000,272.800000,56.000000)" style="stroke: black; stroke-width:0.25;"/>
<line x1="269.800000" y1="57.000000" x2="272.800000" y2="56.000000"  transform="rotate(0.000000,272.800000,56.000000)" style="stroke: black; stroke-width:0.25;"/>
<line x1="10.000000" y1="56.000000" x2="20.000000" y2="56.000000"  style="stroke:black; stroke-linecap:round; stroke-width:0.25;"/>
<line x1="20.000000" y1="56.000000" x2="24.000000" y2="56.000000"  style="stroke:black; stroke-linecap:round; stroke-width:0.25;"/>
<line x1="24.000000" y1="56.000000" x2="28.000000" y2="56.000000"  style="stroke:black; stroke-linecap:round; stroke-width:0.25;"/>
<line x1="28.000000" y1="56.000000" x2="36.000000" y2="56.000000"  style="stroke:black; stroke-linecap:round; stroke-width:0.25;"/>
<line x1="36.000000" y1="56.000000" x2="36.000000" y2="80.000000"  style="stroke:black; stroke-linecap:round; stroke-width:0.25;"/>
<line x1="36.000000" y1="80.000000" x2="36.000000" y2="80.000000"  style="stroke:black; stroke-linecap:round; stroke-width:0.25;"/>
<line x1="36.000000" y1="80.000000" x2="44.000000" y2="80.000000"  style="stroke:black; stroke-linecap:round; stroke-width:0.25;"/>
<line x1="44.000000" y1="40.000000" x2="44.000000" y2="40.000000"  style="stroke:black; stroke-linecap:round; stroke-width:0.25;"/>
<line x1="44.000000" y1="40.000000" x2="44.000000" y2="72.000000"  style="stroke:black; stroke-linecap:round; stroke-width:0.25;"/>
<line x1="44.000000" y1="72.000000" x2="44.000000" y2="72.000000"  style="stroke:black; stroke-linecap:round; stroke-width:0.25;"/>
<line x1="44.000000" y1="72.000000" x2="48.000000" y2="72.000000"  style="stroke:black; stroke-linecap:round; stroke-width:0.25;"/>
<line x1="44.000000" y1="80.000000" x2="48.000000" y2="80.000000"  style="stroke:black; stroke-linecap:round; stroke-width:0.25;"/>
<line x1="72.000000" y1="76.000000" x2="76.000000" y2="76.000000"  style="stroke:black; stroke-linecap:round; stroke-width:0.25;"/>
<line x1="76.000000" y1="76.000000" x2="76.000000" y2="76.000000"  style="stroke:black; stroke-linecap:round; stroke-width:0.25;"/>
<line x1="76.000000" y1="76.000000" x2="80.000000" y2="76.000000"  style="stroke:black; stroke-linecap:round; stroke-width:0.25;"/>
<line x1="105.400000" y1="40.000000" x2="44.000000" y2="40.000000"  style="stroke:black; stroke-linecap:round; stroke-width:0.25;"/>
<line x1="109.400000" y1="40.000000" x2="105.400000" y2="40.000000"  style="stroke:black; stroke-linecap:round; stroke-width:0.25;"/>
<line x1="137.400000" y1="36.000000" x2="133.400000" y2="36.000000"  style="stroke:black; stroke-linecap:round; stroke-width:0.25;"/>
<line x1="137.400000" y1="44.000000" x2="133.400000" y2="44.000000"  style="stroke:black; stroke-linecap:round; stroke-width:0.25;"/>
<line x1="137.400000" y1="44.000000" x2="137.400000" y2="44.000000"  style="stroke:black; stroke-linecap:round; stroke-width:0.25;"/>
<line x1="137.400000" y1="56.000000" x2="137.400000" y2="44.000000"  style="stroke:black; stroke-linecap:round; stroke-width:0.25;"/>
<line x1="145.400000" y1="36.000000" x2="137.400000" y2="36.000000"  style="stroke:black; stroke-linecap:round; stroke-width:0.25;"/>
<line x1="145.400000" y1="56.000000" x2="137.400000" y2="56.000000"  style="stroke:black; stroke-linecap:round; stroke-width:0.25;"/>
<line x1="149.400000" y1="36.000000" x2="145.400000" y2="36.000000"  style="stroke:black; stroke-linecap:round; stroke-width:0.25;"/>
<line x1="161.400000" y1="56.000000" x2="145.400000" y2="56.000000"  style="stroke:black; stroke-linecap:round; stroke-width:0.25;"/>
<line x1="177.400000" y1="56.000000" x2="161.400000" y2="56.000000"  style="stroke:black; stroke-linecap:round; stroke-width:0.25;"/>
<line x1="234.800000" y1="76.000000" x2="238.800000" y2="76.000000"  style="stroke:black; stroke-linecap:round; stroke-width:0.25;"/>
<line x1="238.800000" y1="56.000000" x2="177.400000" y2="56.000000"  style="stroke:black; stroke-linecap:round; stroke-width:0.25;"/>
<line x1="238.800000" y1="56.000000" x2="238.800000" y2="56.000000"  style="stroke:black; stroke-linecap:round; stroke-width:0.25;"/>
<line x1="238.800000" y1="72.000000" x2="238.800000" y2="56.000000"  style="stroke:black; stroke-linecap:round; stroke-width:0.25;"/>
<line x1="238.800000" y1="76.000000" x2="240.800000" y2="76.000000"  style="stroke:black; stroke-linecap:round; stroke-width:0.25;"/>
<line x1="240.800000" y1="76.000000" x2="246.800000" y2="76.000000"  style="stroke:black; stroke-linecap:round; stroke-width:0.25;"/>
<line x1="246.800000" y1="56.000000" x2="254.800000" y2="56.000000"  style="stroke:black; stroke-linecap:round; stroke-width:0.25;"/>
<line x1="246.800000" y1="76.000000" x2="246.800000" y2="56.000000"  style="stroke:black; stroke-linecap:round; stroke-width:0.25;"/>
<line x1="246.800000" y1="76.000000" x2="246.800000" y2="76.000000"  style="stroke:black; stroke-linecap:round; stroke-width:0.25;"/>
<line x1="254.800000" y1="56.000000" x2="258.800000" y2="56.000000"  style="stroke:black; stroke-linecap:round; stroke-width:0.25;"/>
<line x1="258.800000" y1="56.000000" x2="262.800000" y2="56.000000"  style="stroke:black; stroke-linecap:round; stroke-width:0.25;"/>
<line x1="262.800000" y1="56.000000" x2="272.800000" y2="56.000000"  style="stroke:black; stroke-linecap:round; stroke-width:0.25;"/>
</svg>
