<?xml version="1.0"?>
<svg xmlns="http://www.w3.org/2000/svg" xmlns:xlink="http://www.w3.org/1999/xlink" viewBox="0 0 306.700000 220.000000" width="153.350000mm" height="110.000000mm" version="1.1">
<a xlink:href="fdelay-0x7f9d91365760.svg">
<rect x="1.000000" y="1.000000" width="305.700000" height="219.000000" rx="0" ry="0" style="stroke:none;fill:#cccccc;"/>
<rect x="0.000000" y="0.000000" width="305.700000" height="219.000000" rx="0" ry="0" style="stroke:none;fill:#ffffff;"/>
</a>
<text x="10.000000" y="7.000000" font-family="Arial" font-size="7"></text>
<rect x="118.350000" y="25.000000" width="24.000000" height="24.000000" rx="0" ry="0" style="stroke:none;fill:#cccccc;"/>
<rect x="117.350000" y="24.000000" width="24.000000" height="24.000000" rx="0" ry="0" style="stroke:none;fill:#47945E;"/>
<text x="129.350000" y="38.000000" font-family="Arial" font-size="7" text-anchor="middle" fill="#FFFFFF">sig</text>
<circle cx="119.350000" cy="26.000000" r="1"/>
<rect x="87.450000" y="57.000000" width="25.800000" height="24.000000" rx="0" ry="0" style="stroke:none;fill:#cccccc;"/>
<rect x="86.450000" y="56.000000" width="25.800000" height="24.000000" rx="0" ry="0" style="stroke:none;fill:#f44800;"/>
<text x="99.350000" y="70.000000" font-family="Arial" font-size="7" text-anchor="middle" fill="#FFFFFF">65537</text>
<circle cx="88.450000" cy="58.000000" r="1"/>
<rect x="68.350000" y="99.000000" width="24.000000" height="24.000000" rx="0" ry="0" style="stroke:none;fill:#cccccc;"/>
<rect x="67.350000" y="98.000000" width="24.000000" height="24.000000" rx="0" ry="0" style="stroke:none;fill:#f44800;"/>
<text x="79.350000" y="112.000000" font-family="Arial" font-size="7" text-anchor="middle" fill="#FFFFFF">0</text>
<circle cx="69.350000" cy="100.000000" r="1"/>
<line x1="58.350000" y1="89.000000" x2="58.350000" y2="131.000000"  style="stroke: black; stroke-linecap:round; stroke-width:0.25; stroke-dasharray:3,3;"/>
<line x1="58.350000" y1="131.000000" x2="100.350000" y2="131.000000"  style="stroke: black; stroke-linecap:round; stroke-width:0.25; stroke-dasharray:3,3;"/>
<line x1="100.350000" y1="131.000000" x2="100.350000" y2="89.000000"  style="stroke: black; stroke-linecap:round; stroke-width:0.25; stroke-dasharray:3,3;"/>
<line x1="58.350000" y1="89.000000" x2="63.350000" y2="89.000000"  style="stroke: black; stroke-linecap:round; stroke-width:0.25; stroke-dasharray:3,3;"/>
<line x1="95.600000" y1="89.000000" x2="100.350000" y2="89.000000"  style="stroke: black; stroke-linecap:round; stroke-width:0.25; stroke-dasharray:3,3;"/>
<text x="63.350000" y="91.000000" font-family="Arial" font-size="7">xVals(0)</text>
<a xlink:href="d-0x7f9d912be4e0.svg">
<rect x="32.350000" y="141.000000" width="24.000000" height="24.000000" rx="0" ry="0" style="stroke:none;fill:#cccccc;"/>
<rect x="31.350000" y="140.000000" width="24.000000" height="24.000000" rx="0" ry="0" style="stroke:none;fill:#003366;"/>
</a>
<a xlink:href="d-0x7f9d912be4e0.svg">
<text x="43.350000" y="154.000000" font-family="Arial" font-size="7" text-anchor="middle" fill="#FFFFFF">d</text>
</a>
<circle cx="33.350000" cy="142.000000" r="1"/>
<a xlink:href="bufsize-0x7f9d912bdd10.svg">
<rect x="25.000000" y="173.000000" width="38.700000" height="24.000000" rx="0" ry="0" style="stroke:none;fill:#cccccc;"/>
<rect x="24.000000" y="172.000000" width="38.700000" height="24.000000" rx="0" ry="0" style="stroke:none;fill:#003366;"/>
</a>
<a xlink:href="bufsize-0x7f9d912bdd10.svg">
<text x="43.350000" y="186.000000" font-family="Arial" font-size="7" text-anchor="middle" fill="#FFFFFF">bufsize</text>
</a>
<circle cx="26.000000" cy="174.000000" r="1"/>
<rect x="79.700000" y="157.000000" width="24.000000" height="24.000000" rx="0" ry="0" style="stroke:none;fill:#cccccc;"/>
<rect x="78.700000" y="156.000000" width="24.000000" height="24.000000" rx="0" ry="0" style="stroke:none;fill:#4B71A1;"/>
<text x="90.700000" y="170.000000" font-family="Arial" font-size="7" text-anchor="middle" fill="#FFFFFF">+</text>
<circle cx="80.700000" cy="158.000000" r="1"/>
<line x1="75.700000" y1="163.000000" x2="78.700000" y2="164.000000"  transform="rotate(0.000000,78.700000,164.000000)" style="stroke: black; stroke-width:0.25;"/>
<line x1="75.700000" y1="165.000000" x2="78.700000" y2="164.000000"  transform="rotate(0.000000,78.700000,164.000000)" style="stroke: black; stroke-width:0.25;"/>
<line x1="75.700000" y1="171.000000" x2="78.700000" y2="172.000000"  transform="rotate(0.000000,78.700000,172.000000)" style="stroke: black; stroke-width:0.25;"/>
<line x1="75.700000" y1="173.000000" x2="78.700000" y2="172.000000"  transform="rotate(0.000000,78.700000,172.000000)" style="stroke: black; stroke-width:0.25;"/>
<rect x="111.700000" y="157.000000" width="24.000000" height="24.000000" rx="0" ry="0" style="stroke:none;fill:#cccccc;"/>
<rect x="110.700000" y="156.000000" width="24.000000" height="24.000000" rx="0" ry="0" style="stroke:none;fill:#4B71A1;"/>
<text x="122.700000" y="170.000000" font-family="Arial" font-size="7" text-anchor="middle" fill="#FFFFFF">int</text>
<circle cx="112.700000" cy="158.000000" r="1"/>
<line x1="107.700000" y1="167.000000" x2="110.700000" y2="168.000000"  transform="rotate(0.000000,110.700000,168.000000)" style="stroke: black; stroke-width:0.25;"/>
<line x1="107.700000" y1="169.000000" x2="110.700000" y2="168.000000"  transform="rotate(0.000000,110.700000,168.000000)" style="stroke: black; stroke-width:0.25;"/>
<rect x="151.700000" y="131.000000" width="24.000000" height="24.000000" rx="0" ry="0" style="stroke:none;fill:#cccccc;"/>
<rect x="150.700000" y="130.000000" width="24.000000" height="24.000000" rx="0" ry="0" style="stroke:none;fill:#4B71A1;"/>
<text x="162.700000" y="144.000000" font-family="Arial" font-size="7" text-anchor="middle" fill="#FFFFFF">max</text>
<circle cx="152.700000" cy="132.000000" r="1"/>
<line x1="147.700000" y1="137.000000" x2="150.700000" y2="138.000000"  transform="rotate(0.000000,150.700000,138.000000)" style="stroke: black; stroke-width:0.25;"/>
<line x1="147.700000" y1="139.000000" x2="150.700000" y2="138.000000"  transform="rotate(0.000000,150.700000,138.000000)" style="stroke: black; stroke-width:0.25;"/>
<line x1="147.700000" y1="145.000000" x2="150.700000" y2="146.000000"  transform="rotate(0.000000,150.700000,146.000000)" style="stroke: black; stroke-width:0.25;"/>
<line x1="147.700000" y1="147.000000" x2="150.700000" y2="146.000000"  transform="rotate(0.000000,150.700000,146.000000)" style="stroke: black; stroke-width:0.25;"/>
<rect x="201.700000" y="115.000000" width="24.000000" height="24.000000" rx="0" ry="0" style="stroke:none;fill:#cccccc;"/>
<rect x="200.700000" y="114.000000" width="24.000000" height="24.000000" rx="0" ry="0" style="stroke:none;fill:#4B71A1;"/>
<text x="212.700000" y="128.000000" font-family="Arial" font-size="7" text-anchor="middle" fill="#FFFFFF">min</text>
<circle cx="202.700000" cy="116.000000" r="1"/>
<line x1="197.700000" y1="121.000000" x2="200.700000" y2="122.000000"  transform="rotate(0.000000,200.700000,122.000000)" style="stroke: black; stroke-width:0.25;"/>
<line x1="197.700000" y1="123.000000" x2="200.700000" y2="122.000000"  transform="rotate(0.000000,200.700000,122.000000)" style="stroke: black; stroke-width:0.25;"/>
<line x1="197.700000" y1="129.000000" x2="200.700000" y2="130.000000"  transform="rotate(0.000000,200.700000,130.000000)" style="stroke: black; stroke-width:0.25;"/>
<line x1="197.700000" y1="131.000000" x2="200.700000" y2="130.000000"  transform="rotate(0.000000,200.700000,130.000000)" style="stroke: black; stroke-width:0.25;"/>
<line x1="191.700000" y1="105.000000" x2="191.700000" y2="147.000000"  style="stroke: black; stroke-linecap:round; stroke-width:0.25; stroke-dasharray:3,3;"/>
<line x1="191.700000" y1="147.000000" x2="233.700000" y2="147.000000"  style="stroke: black; stroke-linecap:round; stroke-width:0.25; stroke-dasharray:3,3;"/>
<line x1="233.700000" y1="147.000000" x2="233.700000" y2="105.000000"  style="stroke: black; stroke-linecap:round; stroke-width:0.25; stroke-dasharray:3,3;"/>
<line x1="191.700000" y1="105.000000" x2="196.700000" y2="105.000000"  style="stroke: black; stroke-linecap:round; stroke-width:0.25; stroke-dasharray:3,3;"/>
<line x1="216.050000" y1="105.000000" x2="233.700000" y2="105.000000"  style="stroke: black; stroke-linecap:round; stroke-width:0.25; stroke-dasharray:3,3;"/>
<text x="196.700000" y="107.000000" font-family="Arial" font-size="7">fmin</text>
<rect x="251.700000" y="99.000000" width="24.000000" height="24.000000" rx="0" ry="0" style="stroke:none;fill:#cccccc;"/>
<rect x="250.700000" y="98.000000" width="24.000000" height="24.000000" rx="0" ry="0" style="stroke:none;fill:#4B71A1;"/>
<text x="262.700000" y="112.000000" font-family="Arial" font-size="7" text-anchor="middle" fill="#FFFFFF">@</text>
<circle cx="252.700000" cy="100.000000" r="1"/>
<line x1="247.700000" y1="105.000000" x2="250.700000" y2="106.000000"  transform="rotate(0.000000,250.700000,106.000000)" style="stroke: black; stroke-width:0.25;"/>
<line x1="247.700000" y1="107.000000" x2="250.700000" y2="106.000000"  transform="rotate(0.000000,250.700000,106.000000)" style="stroke: black; stroke-width:0.25;"/>
<line x1="247.700000" y1="113.000000" x2="250.700000" y2="114.000000"  transform="rotate(0.000000,250.700000,114.000000)" style="stroke: black; stroke-width:0.25;"/>
<line x1="247.700000" y1="115.000000" x2="250.700000" y2="114.000000"  transform="rotate(0.000000,250.700000,114.000000)" style="stroke: black; stroke-width:0.25;"/>
<line x1="15.000000" y1="15.000000" x2="15.000000" y2="205.000000"  style="stroke: black; stroke-linecap:round; stroke-width:0.25; stroke-dasharray:3,3;"/>
<line x1="15.000000" y1="205.000000" x2="291.700000" y2="205.000000"  style="stroke: black; stroke-linecap:round; stroke-width:0.25; stroke-dasharray:3,3;"/>
<line x1="291.700000" y1="205.000000" x2="291.700000" y2="15.000000"  style="stroke: black; stroke-linecap:round; stroke-width:0.25; stroke-dasharray:3,3;"/>
<line x1="15.000000" y1="15.000000" x2="20.000000" y2="15.000000"  style="stroke: black; stroke-linecap:round; stroke-width:0.25; stroke-dasharray:3,3;"/>
<line x1="136.100000" y1="15.000000" x2="291.700000" y2="15.000000"  style="stroke: black; stroke-linecap:round; stroke-width:0.25; stroke-dasharray:3,3;"/>
<text x="20.000000" y="17.000000" font-family="Arial" font-size="7">delay(65537)(...t) : + : int)(x60)</text>
<line x1="293.700000" y1="109.000000" x2="296.700000" y2="110.000000"  transform="rotate(0.000000,296.700000,110.000000)" style="stroke: black; stroke-width:0.25;"/>
<line x1="293.700000" y1="111.000000" x2="296.700000" y2="110.000000"  transform="rotate(0.000000,296.700000,110.000000)" style="stroke: black; stroke-width:0.25;"/>
<line x1="55.350000" y1="152.000000" x2="59.350000" y2="152.000000"  style="stroke:black; stroke-linecap:round; stroke-width:0.25;"/>
<line x1="59.350000" y1="152.000000" x2="66.700000" y2="152.000000"  style="stroke:black; stroke-linecap:round; stroke-width:0.25;"/>
<line x1="62.700000" y1="184.000000" x2="66.700000" y2="184.000000"  style="stroke:black; stroke-linecap:round; stroke-width:0.25;"/>
<line x1="66.700000" y1="152.000000" x2="74.700000" y2="152.000000"  style="stroke:black; stroke-linecap:round; stroke-width:0.25;"/>
<line x1="66.700000" y1="172.000000" x2="74.700000" y2="172.000000"  style="stroke:black; stroke-linecap:round; stroke-width:0.25;"/>
<line x1="66.700000" y1="184.000000" x2="66.700000" y2="172.000000"  style="stroke:black; stroke-linecap:round; stroke-width:0.25;"/>
<line x1="66.700000" y1="184.000000" x2="66.700000" y2="184.000000"  style="stroke:black; stroke-linecap:round; stroke-width:0.25;"/>
<line x1="74.700000" y1="152.000000" x2="74.700000" y2="164.000000"  style="stroke:black; stroke-linecap:round; stroke-width:0.25;"/>
<line x1="74.700000" y1="164.000000" x2="74.700000" y2="164.000000"  style="stroke:black; stroke-linecap:round; stroke-width:0.25;"/>
<line x1="74.700000" y1="164.000000" x2="78.700000" y2="164.000000"  style="stroke:black; stroke-linecap:round; stroke-width:0.25;"/>
<line x1="74.700000" y1="172.000000" x2="78.700000" y2="172.000000"  style="stroke:black; stroke-linecap:round; stroke-width:0.25;"/>
<line x1="91.350000" y1="110.000000" x2="95.350000" y2="110.000000"  style="stroke:black; stroke-linecap:round; stroke-width:0.25;"/>
<line x1="95.350000" y1="110.000000" x2="105.350000" y2="110.000000"  style="stroke:black; stroke-linecap:round; stroke-width:0.25;"/>
<line x1="102.700000" y1="168.000000" x2="106.700000" y2="168.000000"  style="stroke:black; stroke-linecap:round; stroke-width:0.25;"/>
<line x1="105.350000" y1="110.000000" x2="138.700000" y2="110.000000"  style="stroke:black; stroke-linecap:round; stroke-width:0.25;"/>
<line x1="106.700000" y1="168.000000" x2="106.700000" y2="168.000000"  style="stroke:black; stroke-linecap:round; stroke-width:0.25;"/>
<line x1="106.700000" y1="168.000000" x2="110.700000" y2="168.000000"  style="stroke:black; stroke-linecap:round; stroke-width:0.25;"/>
<line x1="112.250000" y1="68.000000" x2="116.250000" y2="68.000000"  style="stroke:black; stroke-linecap:round; stroke-width:0.25;"/>
<line x1="116.250000" y1="68.000000" x2="178.700000" y2="68.000000"  style="stroke:black; stroke-linecap:round; stroke-width:0.25;"/>
<line x1="134.700000" y1="168.000000" x2="138.700000" y2="168.000000"  style="stroke:black; stroke-linecap:round; stroke-width:0.25;"/>
<line x1="138.700000" y1="110.000000" x2="146.700000" y2="110.000000"  style="stroke:black; stroke-linecap:round; stroke-width:0.25;"/>
<line x1="138.700000" y1="146.000000" x2="146.700000" y2="146.000000"  style="stroke:black; stroke-linecap:round; stroke-width:0.25;"/>
<line x1="138.700000" y1="168.000000" x2="138.700000" y2="146.000000"  style="stroke:black; stroke-linecap:round; stroke-width:0.25;"/>
<line x1="138.700000" y1="168.000000" x2="138.700000" y2="168.000000"  style="stroke:black; stroke-linecap:round; stroke-width:0.25;"/>
<line x1="141.350000" y1="36.000000" x2="145.350000" y2="36.000000"  style="stroke:black; stroke-linecap:round; stroke-width:0.25;"/>
<line x1="145.350000" y1="36.000000" x2="238.700000" y2="36.000000"  style="stroke:black; stroke-linecap:round; stroke-width:0.25;"/>
<line x1="146.700000" y1="110.000000" x2="146.700000" y2="138.000000"  style="stroke:black; stroke-linecap:round; stroke-width:0.25;"/>
<line x1="146.700000" y1="138.000000" x2="146.700000" y2="138.000000"  style="stroke:black; stroke-linecap:round; stroke-width:0.25;"/>
<line x1="146.700000" y1="138.000000" x2="150.700000" y2="138.000000"  style="stroke:black; stroke-linecap:round; stroke-width:0.25;"/>
<line x1="146.700000" y1="146.000000" x2="150.700000" y2="146.000000"  style="stroke:black; stroke-linecap:round; stroke-width:0.25;"/>
<line x1="174.700000" y1="142.000000" x2="178.700000" y2="142.000000"  style="stroke:black; stroke-linecap:round; stroke-width:0.25;"/>
<line x1="178.700000" y1="68.000000" x2="186.700000" y2="68.000000"  style="stroke:black; stroke-linecap:round; stroke-width:0.25;"/>
<line x1="178.700000" y1="130.000000" x2="186.700000" y2="130.000000"  style="stroke:black; stroke-linecap:round; stroke-width:0.25;"/>
<line x1="178.700000" y1="142.000000" x2="178.700000" y2="130.000000"  style="stroke:black; stroke-linecap:round; stroke-width:0.25;"/>
<line x1="178.700000" y1="142.000000" x2="178.700000" y2="142.000000"  style="stroke:black; stroke-linecap:round; stroke-width:0.25;"/>
<line x1="186.700000" y1="68.000000" x2="186.700000" y2="122.000000"  style="stroke:black; stroke-linecap:round; stroke-width:0.25;"/>
<line x1="186.700000" y1="122.000000" x2="186.700000" y2="122.000000"  style="stroke:black; stroke-linecap:round; stroke-width:0.25;"/>
<line x1="186.700000" y1="122.000000" x2="196.700000" y2="122.000000"  style="stroke:black; stroke-linecap:round; stroke-width:0.25;"/>
<line x1="186.700000" y1="130.000000" x2="196.700000" y2="130.000000"  style="stroke:black; stroke-linecap:round; stroke-width:0.25;"/>
<line x1="196.700000" y1="122.000000" x2="200.700000" y2="122.000000"  style="stroke:black; stroke-linecap:round; stroke-width:0.25;"/>
<line x1="196.700000" y1="130.000000" x2="200.700000" y2="130.000000"  style="stroke:black; stroke-linecap:round; stroke-width:0.25;"/>
<line x1="224.700000" y1="126.000000" x2="228.700000" y2="126.000000"  style="stroke:black; stroke-linecap:round; stroke-width:0.25;"/>
<line x1="228.700000" y1="126.000000" x2="238.700000" y2="126.000000"  style="stroke:black; stroke-linecap:round; stroke-width:0.25;"/>
<line x1="238.700000" y1="36.000000" x2="246.700000" y2="36.000000"  style="stroke:black; stroke-linecap:round; stroke-width:0.25;"/>
<line x1="238.700000" y1="114.000000" x2="246.700000" y2="114.000000"  style="stroke:black; stroke-linecap:round; stroke-width:0.25;"/>
<line x1="238.700000" y1="126.000000" x2="238.700000" y2="114.000000"  style="stroke:black; stroke-linecap:round; stroke-width:0.25;"/>
<line x1="238.700000" y1="126.000000" x2="238.700000" y2="126.000000"  style="stroke:black; stroke-linecap:round; stroke-width:0.25;"/>
<line x1="246.700000" y1="36.000000" x2="246.700000" y2="106.000000"  style="stroke:black; stroke-linecap:round; stroke-width:0.25;"/>
<line x1="246.700000" y1="106.000000" x2="246.700000" y2="106.000000"  style="stroke:black; stroke-linecap:round; stroke-width:0.25;"/>
<line x1="246.700000" y1="106.000000" x2="250.700000" y2="106.000000"  style="stroke:black; stroke-linecap:round; stroke-width:0.25;"/>
<line x1="246.700000" y1="114.000000" x2="250.700000" y2="114.000000"  style="stroke:black; stroke-linecap:round; stroke-width:0.25;"/>
<line x1="274.700000" y1="110.000000" x2="278.700000" y2="110.000000"  style="stroke:black; stroke-linecap:round; stroke-width:0.25;"/>
<line x1="278.700000" y1="110.000000" x2="278.700000" y2="110.000000"  style="stroke:black; stroke-linecap:round; stroke-width:0.25;"/>
<line x1="278.700000" y1="110.000000" x2="282.700000" y2="110.000000"  style="stroke:black; stroke-linecap:round; stroke-width:0.25;"/>
<line x1="282.700000" y1="110.000000" x2="286.700000" y2="110.000000"  style="stroke:black; stroke-linecap:round; stroke-width:0.25;"/>
<line x1="286.700000" y1="110.000000" x2="296.700000" y2="110.000000"  style="stroke:black; stroke-linecap:round; stroke-width:0.25;"/>
</svg>
