<?xml version="1.0"?>
<svg xmlns="http://www.w3.org/2000/svg" xmlns:xlink="http://www.w3.org/1999/xlink" viewBox="0 0 377.900000 208.000000" width="188.950000mm" height="104.000000mm" version="1.1">
<a xlink:href="signal-0x7f8dc30eeb30.svg">
<rect x="1.000000" y="1.000000" width="376.900000" height="207.000000" rx="0" ry="0" style="stroke:none;fill:#cccccc;"/>
<rect x="0.000000" y="0.000000" width="376.900000" height="207.000000" rx="0" ry="0" style="stroke:none;fill:#ffffff;"/>
</a>
<text x="10.000000" y="7.000000" font-family="Arial" font-size="7"></text>
<rect x="33.000000" y="93.000000" width="24.000000" height="24.000000" rx="0" ry="0" style="stroke:none;fill:#cccccc;"/>
<rect x="32.000000" y="92.000000" width="24.000000" height="24.000000" rx="0" ry="0" style="stroke:none;fill:#47945E;"/>
<text x="44.000000" y="106.000000" font-family="Arial" font-size="7" text-anchor="middle" fill="#FFFFFF">x</text>
<circle cx="34.000000" cy="94.000000" r="1"/>
<line x1="29.000000" y1="103.000000" x2="32.000000" y2="104.000000"  transform="rotate(0.000000,32.000000,104.000000)" style="stroke: black; stroke-width:0.25;"/>
<line x1="29.000000" y1="105.000000" x2="32.000000" y2="104.000000"  transform="rotate(0.000000,32.000000,104.000000)" style="stroke: black; stroke-width:0.25;"/>
<rect x="173.950000" y="25.000000" width="24.000000" height="24.000000" rx="0" ry="0" style="stroke:none;fill:#cccccc;"/>
<rect x="172.950000" y="24.000000" width="24.000000" height="24.000000" rx="0" ry="0" style="stroke:none;fill:#47945E;"/>
<text x="184.950000" y="38.000000" font-family="Arial" font-size="7" text-anchor="middle" fill="#FFFFFF">x</text>
<circle cx="174.950000" cy="26.000000" r="1"/>
<rect x="143.050000" y="67.000000" width="25.800000" height="24.000000" rx="0" ry="0" style="stroke:none;fill:#cccccc;"/>
<rect x="142.050000" y="66.000000" width="25.800000" height="24.000000" rx="0" ry="0" style="stroke:none;fill:#f44800;"/>
<text x="154.950000" y="80.000000" font-family="Arial" font-size="7" text-anchor="middle" fill="#FFFFFF">65536</text>
<circle cx="144.050000" cy="68.000000" r="1"/>
<line x1="133.050000" y1="57.000000" x2="133.050000" y2="99.000000"  style="stroke: black; stroke-linecap:round; stroke-width:0.25; stroke-dasharray:3,3;"/>
<line x1="133.050000" y1="99.000000" x2="176.850000" y2="99.000000"  style="stroke: black; stroke-linecap:round; stroke-width:0.25; stroke-dasharray:3,3;"/>
<line x1="176.850000" y1="99.000000" x2="176.850000" y2="57.000000"  style="stroke: black; stroke-linecap:round; stroke-width:0.25; stroke-dasharray:3,3;"/>
<line x1="133.050000" y1="57.000000" x2="138.050000" y2="57.000000"  style="stroke: black; stroke-linecap:round; stroke-width:0.25; stroke-dasharray:3,3;"/>
<line x1="173.525000" y1="57.000000" x2="176.850000" y2="57.000000"  style="stroke: black; stroke-linecap:round; stroke-width:0.25; stroke-dasharray:3,3;"/>
<text x="138.050000" y="59.000000" font-family="Arial" font-size="7">tablesize</text>
<rect x="123.950000" y="119.000000" width="24.000000" height="24.000000" rx="0" ry="0" style="stroke:none;fill:#cccccc;"/>
<rect x="122.950000" y="118.000000" width="24.000000" height="24.000000" rx="0" ry="0" style="stroke:none;fill:#f44800;"/>
<text x="134.950000" y="132.000000" font-family="Arial" font-size="7" text-anchor="middle" fill="#FFFFFF">0</text>
<circle cx="124.950000" cy="120.000000" r="1"/>
<line x1="113.950000" y1="109.000000" x2="113.950000" y2="151.000000"  style="stroke: black; stroke-linecap:round; stroke-width:0.25; stroke-dasharray:3,3;"/>
<line x1="113.950000" y1="151.000000" x2="155.950000" y2="151.000000"  style="stroke: black; stroke-linecap:round; stroke-width:0.25; stroke-dasharray:3,3;"/>
<line x1="155.950000" y1="151.000000" x2="155.950000" y2="109.000000"  style="stroke: black; stroke-linecap:round; stroke-width:0.25; stroke-dasharray:3,3;"/>
<line x1="113.950000" y1="109.000000" x2="118.950000" y2="109.000000"  style="stroke: black; stroke-linecap:round; stroke-width:0.25; stroke-dasharray:3,3;"/>
<line x1="151.200000" y1="109.000000" x2="155.950000" y2="109.000000"  style="stroke: black; stroke-linecap:round; stroke-width:0.25; stroke-dasharray:3,3;"/>
<text x="118.950000" y="111.000000" font-family="Arial" font-size="7">xVals(0)</text>
<a xlink:href="sec2samp-0x7f8dd947a610.svg">
<rect x="65.000000" y="161.000000" width="141.900000" height="24.000000" rx="0" ry="0" style="stroke:none;fill:#cccccc;"/>
<rect x="64.000000" y="160.000000" width="141.900000" height="24.000000" rx="0" ry="0" style="stroke:none;fill:#003366;"/>
</a>
<a xlink:href="sec2samp-0x7f8dd947a610.svg">
<text x="134.950000" y="174.000000" font-family="Arial" font-size="7" text-anchor="middle" fill="#FFFFFF">sec2samp(0.035999999999999997f)</text>
</a>
<circle cx="66.000000" cy="162.000000" r="1"/>
<rect x="222.900000" y="135.000000" width="24.000000" height="24.000000" rx="0" ry="0" style="stroke:none;fill:#cccccc;"/>
<rect x="221.900000" y="134.000000" width="24.000000" height="24.000000" rx="0" ry="0" style="stroke:none;fill:#4B71A1;"/>
<text x="233.900000" y="148.000000" font-family="Arial" font-size="7" text-anchor="middle" fill="#FFFFFF">max</text>
<circle cx="223.900000" cy="136.000000" r="1"/>
<line x1="218.900000" y1="141.000000" x2="221.900000" y2="142.000000"  transform="rotate(0.000000,221.900000,142.000000)" style="stroke: black; stroke-width:0.25;"/>
<line x1="218.900000" y1="143.000000" x2="221.900000" y2="142.000000"  transform="rotate(0.000000,221.900000,142.000000)" style="stroke: black; stroke-width:0.25;"/>
<line x1="218.900000" y1="149.000000" x2="221.900000" y2="150.000000"  transform="rotate(0.000000,221.900000,150.000000)" style="stroke: black; stroke-width:0.25;"/>
<line x1="218.900000" y1="151.000000" x2="221.900000" y2="150.000000"  transform="rotate(0.000000,221.900000,150.000000)" style="stroke: black; stroke-width:0.25;"/>
<rect x="272.900000" y="109.000000" width="24.000000" height="24.000000" rx="0" ry="0" style="stroke:none;fill:#cccccc;"/>
<rect x="271.900000" y="108.000000" width="24.000000" height="24.000000" rx="0" ry="0" style="stroke:none;fill:#4B71A1;"/>
<text x="283.900000" y="122.000000" font-family="Arial" font-size="7" text-anchor="middle" fill="#FFFFFF">min</text>
<circle cx="273.900000" cy="110.000000" r="1"/>
<line x1="268.900000" y1="115.000000" x2="271.900000" y2="116.000000"  transform="rotate(0.000000,271.900000,116.000000)" style="stroke: black; stroke-width:0.25;"/>
<line x1="268.900000" y1="117.000000" x2="271.900000" y2="116.000000"  transform="rotate(0.000000,271.900000,116.000000)" style="stroke: black; stroke-width:0.25;"/>
<line x1="268.900000" y1="123.000000" x2="271.900000" y2="124.000000"  transform="rotate(0.000000,271.900000,124.000000)" style="stroke: black; stroke-width:0.25;"/>
<line x1="268.900000" y1="125.000000" x2="271.900000" y2="124.000000"  transform="rotate(0.000000,271.900000,124.000000)" style="stroke: black; stroke-width:0.25;"/>
<line x1="262.900000" y1="99.000000" x2="262.900000" y2="141.000000"  style="stroke: black; stroke-linecap:round; stroke-width:0.25; stroke-dasharray:3,3;"/>
<line x1="262.900000" y1="141.000000" x2="304.900000" y2="141.000000"  style="stroke: black; stroke-linecap:round; stroke-width:0.25; stroke-dasharray:3,3;"/>
<line x1="304.900000" y1="141.000000" x2="304.900000" y2="99.000000"  style="stroke: black; stroke-linecap:round; stroke-width:0.25; stroke-dasharray:3,3;"/>
<line x1="262.900000" y1="99.000000" x2="267.900000" y2="99.000000"  style="stroke: black; stroke-linecap:round; stroke-width:0.25; stroke-dasharray:3,3;"/>
<line x1="287.250000" y1="99.000000" x2="304.900000" y2="99.000000"  style="stroke: black; stroke-linecap:round; stroke-width:0.25; stroke-dasharray:3,3;"/>
<text x="267.900000" y="101.000000" font-family="Arial" font-size="7">fmin</text>
<rect x="322.900000" y="93.000000" width="24.000000" height="24.000000" rx="0" ry="0" style="stroke:none;fill:#cccccc;"/>
<rect x="321.900000" y="92.000000" width="24.000000" height="24.000000" rx="0" ry="0" style="stroke:none;fill:#4B71A1;"/>
<text x="333.900000" y="106.000000" font-family="Arial" font-size="7" text-anchor="middle" fill="#FFFFFF">@</text>
<circle cx="323.900000" cy="94.000000" r="1"/>
<line x1="318.900000" y1="99.000000" x2="321.900000" y2="100.000000"  transform="rotate(0.000000,321.900000,100.000000)" style="stroke: black; stroke-width:0.25;"/>
<line x1="318.900000" y1="101.000000" x2="321.900000" y2="100.000000"  transform="rotate(0.000000,321.900000,100.000000)" style="stroke: black; stroke-width:0.25;"/>
<line x1="318.900000" y1="107.000000" x2="321.900000" y2="108.000000"  transform="rotate(0.000000,321.900000,108.000000)" style="stroke: black; stroke-width:0.25;"/>
<line x1="318.900000" y1="109.000000" x2="321.900000" y2="108.000000"  transform="rotate(0.000000,321.900000,108.000000)" style="stroke: black; stroke-width:0.25;"/>
<line x1="15.000000" y1="15.000000" x2="15.000000" y2="193.000000"  style="stroke: black; stroke-linecap:round; stroke-width:0.25; stroke-dasharray:3,3;"/>
<line x1="15.000000" y1="193.000000" x2="362.900000" y2="193.000000"  style="stroke: black; stroke-linecap:round; stroke-width:0.25; stroke-dasharray:3,3;"/>
<line x1="362.900000" y1="193.000000" x2="362.900000" y2="15.000000"  style="stroke: black; stroke-linecap:round; stroke-width:0.25; stroke-dasharray:3,3;"/>
<line x1="15.000000" y1="15.000000" x2="20.000000" y2="15.000000"  style="stroke: black; stroke-linecap:round; stroke-width:0.25; stroke-dasharray:3,3;"/>
<line x1="119.975000" y1="15.000000" x2="362.900000" y2="15.000000"  style="stroke: black; stroke-linecap:round; stroke-width:0.25; stroke-dasharray:3,3;"/>
<text x="20.000000" y="17.000000" font-family="Arial" font-size="7">delay(65536)(...) : min) : *)</text>
<line x1="364.900000" y1="103.000000" x2="367.900000" y2="104.000000"  transform="rotate(0.000000,367.900000,104.000000)" style="stroke: black; stroke-width:0.25;"/>
<line x1="364.900000" y1="105.000000" x2="367.900000" y2="104.000000"  transform="rotate(0.000000,367.900000,104.000000)" style="stroke: black; stroke-width:0.25;"/>
<line x1="10.000000" y1="104.000000" x2="20.000000" y2="104.000000"  style="stroke:black; stroke-linecap:round; stroke-width:0.25;"/>
<line x1="20.000000" y1="104.000000" x2="24.000000" y2="104.000000"  style="stroke:black; stroke-linecap:round; stroke-width:0.25;"/>
<line x1="24.000000" y1="104.000000" x2="28.000000" y2="104.000000"  style="stroke:black; stroke-linecap:round; stroke-width:0.25;"/>
<line x1="28.000000" y1="104.000000" x2="28.000000" y2="104.000000"  style="stroke:black; stroke-linecap:round; stroke-width:0.25;"/>
<line x1="28.000000" y1="104.000000" x2="32.000000" y2="104.000000"  style="stroke:black; stroke-linecap:round; stroke-width:0.25;"/>
<line x1="146.950000" y1="130.000000" x2="150.950000" y2="130.000000"  style="stroke:black; stroke-linecap:round; stroke-width:0.25;"/>
<line x1="150.950000" y1="130.000000" x2="160.950000" y2="130.000000"  style="stroke:black; stroke-linecap:round; stroke-width:0.25;"/>
<line x1="160.950000" y1="130.000000" x2="209.900000" y2="130.000000"  style="stroke:black; stroke-linecap:round; stroke-width:0.25;"/>
<line x1="167.850000" y1="78.000000" x2="171.850000" y2="78.000000"  style="stroke:black; stroke-linecap:round; stroke-width:0.25;"/>
<line x1="171.850000" y1="78.000000" x2="181.850000" y2="78.000000"  style="stroke:black; stroke-linecap:round; stroke-width:0.25;"/>
<line x1="181.850000" y1="78.000000" x2="249.900000" y2="78.000000"  style="stroke:black; stroke-linecap:round; stroke-width:0.25;"/>
<line x1="196.950000" y1="36.000000" x2="200.950000" y2="36.000000"  style="stroke:black; stroke-linecap:round; stroke-width:0.25;"/>
<line x1="200.950000" y1="36.000000" x2="309.900000" y2="36.000000"  style="stroke:black; stroke-linecap:round; stroke-width:0.25;"/>
<line x1="205.900000" y1="172.000000" x2="209.900000" y2="172.000000"  style="stroke:black; stroke-linecap:round; stroke-width:0.25;"/>
<line x1="209.900000" y1="130.000000" x2="217.900000" y2="130.000000"  style="stroke:black; stroke-linecap:round; stroke-width:0.25;"/>
<line x1="209.900000" y1="150.000000" x2="217.900000" y2="150.000000"  style="stroke:black; stroke-linecap:round; stroke-width:0.25;"/>
<line x1="209.900000" y1="172.000000" x2="209.900000" y2="150.000000"  style="stroke:black; stroke-linecap:round; stroke-width:0.25;"/>
<line x1="209.900000" y1="172.000000" x2="209.900000" y2="172.000000"  style="stroke:black; stroke-linecap:round; stroke-width:0.25;"/>
<line x1="217.900000" y1="130.000000" x2="217.900000" y2="142.000000"  style="stroke:black; stroke-linecap:round; stroke-width:0.25;"/>
<line x1="217.900000" y1="142.000000" x2="217.900000" y2="142.000000"  style="stroke:black; stroke-linecap:round; stroke-width:0.25;"/>
<line x1="217.900000" y1="142.000000" x2="221.900000" y2="142.000000"  style="stroke:black; stroke-linecap:round; stroke-width:0.25;"/>
<line x1="217.900000" y1="150.000000" x2="221.900000" y2="150.000000"  style="stroke:black; stroke-linecap:round; stroke-width:0.25;"/>
<line x1="245.900000" y1="146.000000" x2="249.900000" y2="146.000000"  style="stroke:black; stroke-linecap:round; stroke-width:0.25;"/>
<line x1="249.900000" y1="124.000000" x2="257.900000" y2="124.000000"  style="stroke:black; stroke-linecap:round; stroke-width:0.25;"/>
<line x1="249.900000" y1="146.000000" x2="249.900000" y2="124.000000"  style="stroke:black; stroke-linecap:round; stroke-width:0.25;"/>
<line x1="249.900000" y1="146.000000" x2="249.900000" y2="146.000000"  style="stroke:black; stroke-linecap:round; stroke-width:0.25;"/>
<line x1="249.900000" y1="78.000000" x2="257.900000" y2="78.000000"  style="stroke:black; stroke-linecap:round; stroke-width:0.25;"/>
<line x1="257.900000" y1="116.000000" x2="267.900000" y2="116.000000"  style="stroke:black; stroke-linecap:round; stroke-width:0.25;"/>
<line x1="257.900000" y1="124.000000" x2="267.900000" y2="124.000000"  style="stroke:black; stroke-linecap:round; stroke-width:0.25;"/>
<line x1="257.900000" y1="78.000000" x2="257.900000" y2="116.000000"  style="stroke:black; stroke-linecap:round; stroke-width:0.25;"/>
<line x1="257.900000" y1="116.000000" x2="257.900000" y2="116.000000"  style="stroke:black; stroke-linecap:round; stroke-width:0.25;"/>
<line x1="267.900000" y1="116.000000" x2="271.900000" y2="116.000000"  style="stroke:black; stroke-linecap:round; stroke-width:0.25;"/>
<line x1="267.900000" y1="124.000000" x2="271.900000" y2="124.000000"  style="stroke:black; stroke-linecap:round; stroke-width:0.25;"/>
<line x1="295.900000" y1="120.000000" x2="299.900000" y2="120.000000"  style="stroke:black; stroke-linecap:round; stroke-width:0.25;"/>
<line x1="299.900000" y1="120.000000" x2="309.900000" y2="120.000000"  style="stroke:black; stroke-linecap:round; stroke-width:0.25;"/>
<line x1="309.900000" y1="36.000000" x2="317.900000" y2="36.000000"  style="stroke:black; stroke-linecap:round; stroke-width:0.25;"/>
<line x1="309.900000" y1="108.000000" x2="317.900000" y2="108.000000"  style="stroke:black; stroke-linecap:round; stroke-width:0.25;"/>
<line x1="309.900000" y1="120.000000" x2="309.900000" y2="108.000000"  style="stroke:black; stroke-linecap:round; stroke-width:0.25;"/>
<line x1="309.900000" y1="120.000000" x2="309.900000" y2="120.000000"  style="stroke:black; stroke-linecap:round; stroke-width:0.25;"/>
<line x1="317.900000" y1="36.000000" x2="317.900000" y2="100.000000"  style="stroke:black; stroke-linecap:round; stroke-width:0.25;"/>
<line x1="317.900000" y1="100.000000" x2="317.900000" y2="100.000000"  style="stroke:black; stroke-linecap:round; stroke-width:0.25;"/>
<line x1="317.900000" y1="100.000000" x2="321.900000" y2="100.000000"  style="stroke:black; stroke-linecap:round; stroke-width:0.25;"/>
<line x1="317.900000" y1="108.000000" x2="321.900000" y2="108.000000"  style="stroke:black; stroke-linecap:round; stroke-width:0.25;"/>
<line x1="345.900000" y1="104.000000" x2="349.900000" y2="104.000000"  style="stroke:black; stroke-linecap:round; stroke-width:0.25;"/>
<line x1="349.900000" y1="104.000000" x2="349.900000" y2="104.000000"  style="stroke:black; stroke-linecap:round; stroke-width:0.25;"/>
<line x1="349.900000" y1="104.000000" x2="353.900000" y2="104.000000"  style="stroke:black; stroke-linecap:round; stroke-width:0.25;"/>
<line x1="353.900000" y1="104.000000" x2="357.900000" y2="104.000000"  style="stroke:black; stroke-linecap:round; stroke-width:0.25;"/>
<line x1="357.900000" y1="104.000000" x2="367.900000" y2="104.000000"  style="stroke:black; stroke-linecap:round; stroke-width:0.25;"/>
</svg>
