<?xml version="1.0"?>
<svg xmlns="http://www.w3.org/2000/svg" xmlns:xlink="http://www.w3.org/1999/xlink" viewBox="0 0 346.700000 272.000000" width="173.350000mm" height="136.000000mm" version="1.1">
<a xlink:href="fdelay-0x7ff56d38c410.svg">
<rect x="1.000000" y="1.000000" width="345.700000" height="271.000000" rx="0" ry="0" style="stroke:none;fill:#cccccc;"/>
<rect x="0.000000" y="0.000000" width="345.700000" height="271.000000" rx="0" ry="0" style="stroke:none;fill:#ffffff;"/>
</a>
<text x="10.000000" y="7.000000" font-family="Arial" font-size="7"></text>
<rect x="138.350000" y="25.000000" width="24.000000" height="24.000000" rx="0" ry="0" style="stroke:none;fill:#cccccc;"/>
<rect x="137.350000" y="24.000000" width="24.000000" height="24.000000" rx="0" ry="0" style="stroke:none;fill:#47945E;"/>
<text x="149.350000" y="38.000000" font-family="Arial" font-size="7" text-anchor="middle" fill="#FFFFFF">sig</text>
<circle cx="139.350000" cy="26.000000" r="1"/>
<rect x="107.450000" y="57.000000" width="25.800000" height="24.000000" rx="0" ry="0" style="stroke:none;fill:#cccccc;"/>
<rect x="106.450000" y="56.000000" width="25.800000" height="24.000000" rx="0" ry="0" style="stroke:none;fill:#f44800;"/>
<text x="119.350000" y="70.000000" font-family="Arial" font-size="7" text-anchor="middle" fill="#FFFFFF">65537</text>
<circle cx="108.450000" cy="58.000000" r="1"/>
<rect x="88.350000" y="99.000000" width="24.000000" height="24.000000" rx="0" ry="0" style="stroke:none;fill:#cccccc;"/>
<rect x="87.350000" y="98.000000" width="24.000000" height="24.000000" rx="0" ry="0" style="stroke:none;fill:#f44800;"/>
<text x="99.350000" y="112.000000" font-family="Arial" font-size="7" text-anchor="middle" fill="#FFFFFF">0</text>
<circle cx="89.350000" cy="100.000000" r="1"/>
<line x1="78.350000" y1="89.000000" x2="78.350000" y2="131.000000"  style="stroke: black; stroke-linecap:round; stroke-width:0.25; stroke-dasharray:3,3;"/>
<line x1="78.350000" y1="131.000000" x2="120.350000" y2="131.000000"  style="stroke: black; stroke-linecap:round; stroke-width:0.25; stroke-dasharray:3,3;"/>
<line x1="120.350000" y1="131.000000" x2="120.350000" y2="89.000000"  style="stroke: black; stroke-linecap:round; stroke-width:0.25; stroke-dasharray:3,3;"/>
<line x1="78.350000" y1="89.000000" x2="83.350000" y2="89.000000"  style="stroke: black; stroke-linecap:round; stroke-width:0.25; stroke-dasharray:3,3;"/>
<line x1="115.600000" y1="89.000000" x2="120.350000" y2="89.000000"  style="stroke: black; stroke-linecap:round; stroke-width:0.25; stroke-dasharray:3,3;"/>
<text x="83.350000" y="91.000000" font-family="Arial" font-size="7">xVals(0)</text>
<a xlink:href="d-0x7ff56d22e4d0.svg">
<rect x="32.350000" y="141.000000" width="24.000000" height="24.000000" rx="0" ry="0" style="stroke:none;fill:#cccccc;"/>
<rect x="31.350000" y="140.000000" width="24.000000" height="24.000000" rx="0" ry="0" style="stroke:none;fill:#003366;"/>
</a>
<a xlink:href="d-0x7ff56d22e4d0.svg">
<text x="43.350000" y="154.000000" font-family="Arial" font-size="7" text-anchor="middle" fill="#FFFFFF">d</text>
</a>
<circle cx="33.350000" cy="142.000000" r="1"/>
<a xlink:href="bufsize-0x7ff56d22dd00.svg">
<rect x="25.000000" y="173.000000" width="38.700000" height="24.000000" rx="0" ry="0" style="stroke:none;fill:#cccccc;"/>
<rect x="24.000000" y="172.000000" width="38.700000" height="24.000000" rx="0" ry="0" style="stroke:none;fill:#003366;"/>
</a>
<a xlink:href="bufsize-0x7ff56d22dd00.svg">
<text x="43.350000" y="186.000000" font-family="Arial" font-size="7" text-anchor="middle" fill="#FFFFFF">bufsize</text>
</a>
<circle cx="26.000000" cy="174.000000" r="1"/>
<rect x="79.700000" y="157.000000" width="24.000000" height="24.000000" rx="0" ry="0" style="stroke:none;fill:#cccccc;"/>
<rect x="78.700000" y="156.000000" width="24.000000" height="24.000000" rx="0" ry="0" style="stroke:none;fill:#4B71A1;"/>
<text x="90.700000" y="170.000000" font-family="Arial" font-size="7" text-anchor="middle" fill="#FFFFFF">+</text>
<circle cx="80.700000" cy="158.000000" r="1"/>
<line x1="75.700000" y1="163.000000" x2="78.700000" y2="164.000000"  transform="rotate(0.000000,78.700000,164.000000)" style="stroke: black; stroke-width:0.25;"/>
<line x1="75.700000" y1="165.000000" x2="78.700000" y2="164.000000"  transform="rotate(0.000000,78.700000,164.000000)" style="stroke: black; stroke-width:0.25;"/>
<line x1="75.700000" y1="171.000000" x2="78.700000" y2="172.000000"  transform="rotate(0.000000,78.700000,172.000000)" style="stroke: black; stroke-width:0.25;"/>
<line x1="75.700000" y1="173.000000" x2="78.700000" y2="172.000000"  transform="rotate(0.000000,78.700000,172.000000)" style="stroke: black; stroke-width:0.25;"/>
<rect x="111.700000" y="157.000000" width="24.000000" height="24.000000" rx="0" ry="0" style="stroke:none;fill:#cccccc;"/>
<rect x="110.700000" y="156.000000" width="24.000000" height="24.000000" rx="0" ry="0" style="stroke:none;fill:#4B71A1;"/>
<text x="122.700000" y="170.000000" font-family="Arial" font-size="7" text-anchor="middle" fill="#FFFFFF">int</text>
<circle cx="112.700000" cy="158.000000" r="1"/>
<line x1="107.700000" y1="167.000000" x2="110.700000" y2="168.000000"  transform="rotate(0.000000,110.700000,168.000000)" style="stroke: black; stroke-width:0.25;"/>
<line x1="107.700000" y1="169.000000" x2="110.700000" y2="168.000000"  transform="rotate(0.000000,110.700000,168.000000)" style="stroke: black; stroke-width:0.25;"/>
<rect x="68.350000" y="215.000000" width="24.000000" height="24.000000" rx="0" ry="0" style="stroke:none;fill:#cccccc;"/>
<rect x="67.350000" y="214.000000" width="24.000000" height="24.000000" rx="0" ry="0" style="stroke:none;fill:#f44800;"/>
<text x="79.350000" y="228.000000" font-family="Arial" font-size="7" text-anchor="middle" fill="#FFFFFF">1</text>
<circle cx="69.350000" cy="216.000000" r="1"/>
<line x1="58.350000" y1="205.000000" x2="58.350000" y2="247.000000"  style="stroke: black; stroke-linecap:round; stroke-width:0.25; stroke-dasharray:3,3;"/>
<line x1="58.350000" y1="247.000000" x2="100.350000" y2="247.000000"  style="stroke: black; stroke-linecap:round; stroke-width:0.25; stroke-dasharray:3,3;"/>
<line x1="100.350000" y1="247.000000" x2="100.350000" y2="205.000000"  style="stroke: black; stroke-linecap:round; stroke-width:0.25; stroke-dasharray:3,3;"/>
<line x1="58.350000" y1="205.000000" x2="63.350000" y2="205.000000"  style="stroke: black; stroke-linecap:round; stroke-width:0.25; stroke-dasharray:3,3;"/>
<line x1="95.600000" y1="205.000000" x2="100.350000" y2="205.000000"  style="stroke: black; stroke-linecap:round; stroke-width:0.25; stroke-dasharray:3,3;"/>
<text x="63.350000" y="207.000000" font-family="Arial" font-size="7">xVals(1)</text>
<rect x="151.700000" y="183.000000" width="24.000000" height="24.000000" rx="0" ry="0" style="stroke:none;fill:#cccccc;"/>
<rect x="150.700000" y="182.000000" width="24.000000" height="24.000000" rx="0" ry="0" style="stroke:none;fill:#4B71A1;"/>
<text x="162.700000" y="196.000000" font-family="Arial" font-size="7" text-anchor="middle" fill="#FFFFFF">+</text>
<circle cx="152.700000" cy="184.000000" r="1"/>
<line x1="147.700000" y1="189.000000" x2="150.700000" y2="190.000000"  transform="rotate(0.000000,150.700000,190.000000)" style="stroke: black; stroke-width:0.25;"/>
<line x1="147.700000" y1="191.000000" x2="150.700000" y2="190.000000"  transform="rotate(0.000000,150.700000,190.000000)" style="stroke: black; stroke-width:0.25;"/>
<line x1="147.700000" y1="197.000000" x2="150.700000" y2="198.000000"  transform="rotate(0.000000,150.700000,198.000000)" style="stroke: black; stroke-width:0.25;"/>
<line x1="147.700000" y1="199.000000" x2="150.700000" y2="198.000000"  transform="rotate(0.000000,150.700000,198.000000)" style="stroke: black; stroke-width:0.25;"/>
<rect x="191.700000" y="157.000000" width="24.000000" height="24.000000" rx="0" ry="0" style="stroke:none;fill:#cccccc;"/>
<rect x="190.700000" y="156.000000" width="24.000000" height="24.000000" rx="0" ry="0" style="stroke:none;fill:#4B71A1;"/>
<text x="202.700000" y="170.000000" font-family="Arial" font-size="7" text-anchor="middle" fill="#FFFFFF">max</text>
<circle cx="192.700000" cy="158.000000" r="1"/>
<line x1="187.700000" y1="163.000000" x2="190.700000" y2="164.000000"  transform="rotate(0.000000,190.700000,164.000000)" style="stroke: black; stroke-width:0.25;"/>
<line x1="187.700000" y1="165.000000" x2="190.700000" y2="164.000000"  transform="rotate(0.000000,190.700000,164.000000)" style="stroke: black; stroke-width:0.25;"/>
<line x1="187.700000" y1="171.000000" x2="190.700000" y2="172.000000"  transform="rotate(0.000000,190.700000,172.000000)" style="stroke: black; stroke-width:0.25;"/>
<line x1="187.700000" y1="173.000000" x2="190.700000" y2="172.000000"  transform="rotate(0.000000,190.700000,172.000000)" style="stroke: black; stroke-width:0.25;"/>
<rect x="241.700000" y="141.000000" width="24.000000" height="24.000000" rx="0" ry="0" style="stroke:none;fill:#cccccc;"/>
<rect x="240.700000" y="140.000000" width="24.000000" height="24.000000" rx="0" ry="0" style="stroke:none;fill:#4B71A1;"/>
<text x="252.700000" y="154.000000" font-family="Arial" font-size="7" text-anchor="middle" fill="#FFFFFF">min</text>
<circle cx="242.700000" cy="142.000000" r="1"/>
<line x1="237.700000" y1="147.000000" x2="240.700000" y2="148.000000"  transform="rotate(0.000000,240.700000,148.000000)" style="stroke: black; stroke-width:0.25;"/>
<line x1="237.700000" y1="149.000000" x2="240.700000" y2="148.000000"  transform="rotate(0.000000,240.700000,148.000000)" style="stroke: black; stroke-width:0.25;"/>
<line x1="237.700000" y1="155.000000" x2="240.700000" y2="156.000000"  transform="rotate(0.000000,240.700000,156.000000)" style="stroke: black; stroke-width:0.25;"/>
<line x1="237.700000" y1="157.000000" x2="240.700000" y2="156.000000"  transform="rotate(0.000000,240.700000,156.000000)" style="stroke: black; stroke-width:0.25;"/>
<line x1="231.700000" y1="131.000000" x2="231.700000" y2="173.000000"  style="stroke: black; stroke-linecap:round; stroke-width:0.25; stroke-dasharray:3,3;"/>
<line x1="231.700000" y1="173.000000" x2="273.700000" y2="173.000000"  style="stroke: black; stroke-linecap:round; stroke-width:0.25; stroke-dasharray:3,3;"/>
<line x1="273.700000" y1="173.000000" x2="273.700000" y2="131.000000"  style="stroke: black; stroke-linecap:round; stroke-width:0.25; stroke-dasharray:3,3;"/>
<line x1="231.700000" y1="131.000000" x2="236.700000" y2="131.000000"  style="stroke: black; stroke-linecap:round; stroke-width:0.25; stroke-dasharray:3,3;"/>
<line x1="256.050000" y1="131.000000" x2="273.700000" y2="131.000000"  style="stroke: black; stroke-linecap:round; stroke-width:0.25; stroke-dasharray:3,3;"/>
<text x="236.700000" y="133.000000" font-family="Arial" font-size="7">fmin</text>
<rect x="291.700000" y="125.000000" width="24.000000" height="24.000000" rx="0" ry="0" style="stroke:none;fill:#cccccc;"/>
<rect x="290.700000" y="124.000000" width="24.000000" height="24.000000" rx="0" ry="0" style="stroke:none;fill:#4B71A1;"/>
<text x="302.700000" y="138.000000" font-family="Arial" font-size="7" text-anchor="middle" fill="#FFFFFF">@</text>
<circle cx="292.700000" cy="126.000000" r="1"/>
<line x1="287.700000" y1="131.000000" x2="290.700000" y2="132.000000"  transform="rotate(0.000000,290.700000,132.000000)" style="stroke: black; stroke-width:0.25;"/>
<line x1="287.700000" y1="133.000000" x2="290.700000" y2="132.000000"  transform="rotate(0.000000,290.700000,132.000000)" style="stroke: black; stroke-width:0.25;"/>
<line x1="287.700000" y1="139.000000" x2="290.700000" y2="140.000000"  transform="rotate(0.000000,290.700000,140.000000)" style="stroke: black; stroke-width:0.25;"/>
<line x1="287.700000" y1="141.000000" x2="290.700000" y2="140.000000"  transform="rotate(0.000000,290.700000,140.000000)" style="stroke: black; stroke-width:0.25;"/>
<line x1="15.000000" y1="15.000000" x2="15.000000" y2="257.000000"  style="stroke: black; stroke-linecap:round; stroke-width:0.25; stroke-dasharray:3,3;"/>
<line x1="15.000000" y1="257.000000" x2="331.700000" y2="257.000000"  style="stroke: black; stroke-linecap:round; stroke-width:0.25; stroke-dasharray:3,3;"/>
<line x1="331.700000" y1="257.000000" x2="331.700000" y2="15.000000"  style="stroke: black; stroke-linecap:round; stroke-width:0.25; stroke-dasharray:3,3;"/>
<line x1="15.000000" y1="15.000000" x2="20.000000" y2="15.000000"  style="stroke: black; stroke-linecap:round; stroke-width:0.25; stroke-dasharray:3,3;"/>
<line x1="136.100000" y1="15.000000" x2="331.700000" y2="15.000000"  style="stroke: black; stroke-linecap:round; stroke-width:0.25; stroke-dasharray:3,3;"/>
<text x="20.000000" y="17.000000" font-family="Arial" font-size="7">delay(65537)(...: int),1 : +)(x75)</text>
<line x1="333.700000" y1="135.000000" x2="336.700000" y2="136.000000"  transform="rotate(0.000000,336.700000,136.000000)" style="stroke: black; stroke-width:0.25;"/>
<line x1="333.700000" y1="137.000000" x2="336.700000" y2="136.000000"  transform="rotate(0.000000,336.700000,136.000000)" style="stroke: black; stroke-width:0.25;"/>
<line x1="55.350000" y1="152.000000" x2="59.350000" y2="152.000000"  style="stroke:black; stroke-linecap:round; stroke-width:0.25;"/>
<line x1="59.350000" y1="152.000000" x2="66.700000" y2="152.000000"  style="stroke:black; stroke-linecap:round; stroke-width:0.25;"/>
<line x1="62.700000" y1="184.000000" x2="66.700000" y2="184.000000"  style="stroke:black; stroke-linecap:round; stroke-width:0.25;"/>
<line x1="66.700000" y1="152.000000" x2="74.700000" y2="152.000000"  style="stroke:black; stroke-linecap:round; stroke-width:0.25;"/>
<line x1="66.700000" y1="172.000000" x2="74.700000" y2="172.000000"  style="stroke:black; stroke-linecap:round; stroke-width:0.25;"/>
<line x1="66.700000" y1="184.000000" x2="66.700000" y2="172.000000"  style="stroke:black; stroke-linecap:round; stroke-width:0.25;"/>
<line x1="66.700000" y1="184.000000" x2="66.700000" y2="184.000000"  style="stroke:black; stroke-linecap:round; stroke-width:0.25;"/>
<line x1="74.700000" y1="152.000000" x2="74.700000" y2="164.000000"  style="stroke:black; stroke-linecap:round; stroke-width:0.25;"/>
<line x1="74.700000" y1="164.000000" x2="74.700000" y2="164.000000"  style="stroke:black; stroke-linecap:round; stroke-width:0.25;"/>
<line x1="74.700000" y1="164.000000" x2="78.700000" y2="164.000000"  style="stroke:black; stroke-linecap:round; stroke-width:0.25;"/>
<line x1="74.700000" y1="172.000000" x2="78.700000" y2="172.000000"  style="stroke:black; stroke-linecap:round; stroke-width:0.25;"/>
<line x1="91.350000" y1="226.000000" x2="95.350000" y2="226.000000"  style="stroke:black; stroke-linecap:round; stroke-width:0.25;"/>
<line x1="95.350000" y1="226.000000" x2="105.350000" y2="226.000000"  style="stroke:black; stroke-linecap:round; stroke-width:0.25;"/>
<line x1="102.700000" y1="168.000000" x2="106.700000" y2="168.000000"  style="stroke:black; stroke-linecap:round; stroke-width:0.25;"/>
<line x1="105.350000" y1="226.000000" x2="138.700000" y2="226.000000"  style="stroke:black; stroke-linecap:round; stroke-width:0.25;"/>
<line x1="106.700000" y1="168.000000" x2="106.700000" y2="168.000000"  style="stroke:black; stroke-linecap:round; stroke-width:0.25;"/>
<line x1="106.700000" y1="168.000000" x2="110.700000" y2="168.000000"  style="stroke:black; stroke-linecap:round; stroke-width:0.25;"/>
<line x1="111.350000" y1="110.000000" x2="115.350000" y2="110.000000"  style="stroke:black; stroke-linecap:round; stroke-width:0.25;"/>
<line x1="115.350000" y1="110.000000" x2="125.350000" y2="110.000000"  style="stroke:black; stroke-linecap:round; stroke-width:0.25;"/>
<line x1="125.350000" y1="110.000000" x2="178.700000" y2="110.000000"  style="stroke:black; stroke-linecap:round; stroke-width:0.25;"/>
<line x1="132.250000" y1="68.000000" x2="136.250000" y2="68.000000"  style="stroke:black; stroke-linecap:round; stroke-width:0.25;"/>
<line x1="134.700000" y1="168.000000" x2="138.700000" y2="168.000000"  style="stroke:black; stroke-linecap:round; stroke-width:0.25;"/>
<line x1="136.250000" y1="68.000000" x2="218.700000" y2="68.000000"  style="stroke:black; stroke-linecap:round; stroke-width:0.25;"/>
<line x1="138.700000" y1="168.000000" x2="146.700000" y2="168.000000"  style="stroke:black; stroke-linecap:round; stroke-width:0.25;"/>
<line x1="138.700000" y1="198.000000" x2="146.700000" y2="198.000000"  style="stroke:black; stroke-linecap:round; stroke-width:0.25;"/>
<line x1="138.700000" y1="226.000000" x2="138.700000" y2="198.000000"  style="stroke:black; stroke-linecap:round; stroke-width:0.25;"/>
<line x1="138.700000" y1="226.000000" x2="138.700000" y2="226.000000"  style="stroke:black; stroke-linecap:round; stroke-width:0.25;"/>
<line x1="146.700000" y1="168.000000" x2="146.700000" y2="190.000000"  style="stroke:black; stroke-linecap:round; stroke-width:0.25;"/>
<line x1="146.700000" y1="190.000000" x2="146.700000" y2="190.000000"  style="stroke:black; stroke-linecap:round; stroke-width:0.25;"/>
<line x1="146.700000" y1="190.000000" x2="150.700000" y2="190.000000"  style="stroke:black; stroke-linecap:round; stroke-width:0.25;"/>
<line x1="146.700000" y1="198.000000" x2="150.700000" y2="198.000000"  style="stroke:black; stroke-linecap:round; stroke-width:0.25;"/>
<line x1="161.350000" y1="36.000000" x2="165.350000" y2="36.000000"  style="stroke:black; stroke-linecap:round; stroke-width:0.25;"/>
<line x1="165.350000" y1="36.000000" x2="278.700000" y2="36.000000"  style="stroke:black; stroke-linecap:round; stroke-width:0.25;"/>
<line x1="174.700000" y1="194.000000" x2="178.700000" y2="194.000000"  style="stroke:black; stroke-linecap:round; stroke-width:0.25;"/>
<line x1="178.700000" y1="110.000000" x2="186.700000" y2="110.000000"  style="stroke:black; stroke-linecap:round; stroke-width:0.25;"/>
<line x1="178.700000" y1="172.000000" x2="186.700000" y2="172.000000"  style="stroke:black; stroke-linecap:round; stroke-width:0.25;"/>
<line x1="178.700000" y1="194.000000" x2="178.700000" y2="172.000000"  style="stroke:black; stroke-linecap:round; stroke-width:0.25;"/>
<line x1="178.700000" y1="194.000000" x2="178.700000" y2="194.000000"  style="stroke:black; stroke-linecap:round; stroke-width:0.25;"/>
<line x1="186.700000" y1="110.000000" x2="186.700000" y2="164.000000"  style="stroke:black; stroke-linecap:round; stroke-width:0.25;"/>
<line x1="186.700000" y1="164.000000" x2="186.700000" y2="164.000000"  style="stroke:black; stroke-linecap:round; stroke-width:0.25;"/>
<line x1="186.700000" y1="164.000000" x2="190.700000" y2="164.000000"  style="stroke:black; stroke-linecap:round; stroke-width:0.25;"/>
<line x1="186.700000" y1="172.000000" x2="190.700000" y2="172.000000"  style="stroke:black; stroke-linecap:round; stroke-width:0.25;"/>
<line x1="214.700000" y1="168.000000" x2="218.700000" y2="168.000000"  style="stroke:black; stroke-linecap:round; stroke-width:0.25;"/>
<line x1="218.700000" y1="68.000000" x2="226.700000" y2="68.000000"  style="stroke:black; stroke-linecap:round; stroke-width:0.25;"/>
<line x1="218.700000" y1="156.000000" x2="226.700000" y2="156.000000"  style="stroke:black; stroke-linecap:round; stroke-width:0.25;"/>
<line x1="218.700000" y1="168.000000" x2="218.700000" y2="156.000000"  style="stroke:black; stroke-linecap:round; stroke-width:0.25;"/>
<line x1="218.700000" y1="168.000000" x2="218.700000" y2="168.000000"  style="stroke:black; stroke-linecap:round; stroke-width:0.25;"/>
<line x1="226.700000" y1="68.000000" x2="226.700000" y2="148.000000"  style="stroke:black; stroke-linecap:round; stroke-width:0.25;"/>
<line x1="226.700000" y1="148.000000" x2="226.700000" y2="148.000000"  style="stroke:black; stroke-linecap:round; stroke-width:0.25;"/>
<line x1="226.700000" y1="148.000000" x2="236.700000" y2="148.000000"  style="stroke:black; stroke-linecap:round; stroke-width:0.25;"/>
<line x1="226.700000" y1="156.000000" x2="236.700000" y2="156.000000"  style="stroke:black; stroke-linecap:round; stroke-width:0.25;"/>
<line x1="236.700000" y1="148.000000" x2="240.700000" y2="148.000000"  style="stroke:black; stroke-linecap:round; stroke-width:0.25;"/>
<line x1="236.700000" y1="156.000000" x2="240.700000" y2="156.000000"  style="stroke:black; stroke-linecap:round; stroke-width:0.25;"/>
<line x1="264.700000" y1="152.000000" x2="268.700000" y2="152.000000"  style="stroke:black; stroke-linecap:round; stroke-width:0.25;"/>
<line x1="268.700000" y1="152.000000" x2="278.700000" y2="152.000000"  style="stroke:black; stroke-linecap:round; stroke-width:0.25;"/>
<line x1="278.700000" y1="36.000000" x2="286.700000" y2="36.000000"  style="stroke:black; stroke-linecap:round; stroke-width:0.25;"/>
<line x1="278.700000" y1="140.000000" x2="286.700000" y2="140.000000"  style="stroke:black; stroke-linecap:round; stroke-width:0.25;"/>
<line x1="278.700000" y1="152.000000" x2="278.700000" y2="140.000000"  style="stroke:black; stroke-linecap:round; stroke-width:0.25;"/>
<line x1="278.700000" y1="152.000000" x2="278.700000" y2="152.000000"  style="stroke:black; stroke-linecap:round; stroke-width:0.25;"/>
<line x1="286.700000" y1="36.000000" x2="286.700000" y2="132.000000"  style="stroke:black; stroke-linecap:round; stroke-width:0.25;"/>
<line x1="286.700000" y1="132.000000" x2="286.700000" y2="132.000000"  style="stroke:black; stroke-linecap:round; stroke-width:0.25;"/>
<line x1="286.700000" y1="132.000000" x2="290.700000" y2="132.000000"  style="stroke:black; stroke-linecap:round; stroke-width:0.25;"/>
<line x1="286.700000" y1="140.000000" x2="290.700000" y2="140.000000"  style="stroke:black; stroke-linecap:round; stroke-width:0.25;"/>
<line x1="314.700000" y1="136.000000" x2="318.700000" y2="136.000000"  style="stroke:black; stroke-linecap:round; stroke-width:0.25;"/>
<line x1="318.700000" y1="136.000000" x2="318.700000" y2="136.000000"  style="stroke:black; stroke-linecap:round; stroke-width:0.25;"/>
<line x1="318.700000" y1="136.000000" x2="322.700000" y2="136.000000"  style="stroke:black; stroke-linecap:round; stroke-width:0.25;"/>
<line x1="322.700000" y1="136.000000" x2="326.700000" y2="136.000000"  style="stroke:black; stroke-linecap:round; stroke-width:0.25;"/>
<line x1="326.700000" y1="136.000000" x2="336.700000" y2="136.000000"  style="stroke:black; stroke-linecap:round; stroke-width:0.25;"/>
</svg>
