<?xml version="1.0"?>
<svg xmlns="http://www.w3.org/2000/svg" xmlns:xlink="http://www.w3.org/1999/xlink" viewBox="0 0 314.700000 240.000000" width="157.350000mm" height="120.000000mm" version="1.1">
<a xlink:href="signal-0x7fb5b5395580.svg">
<rect x="1.000000" y="1.000000" width="313.700000" height="239.000000" rx="0" ry="0" style="stroke:none;fill:#cccccc;"/>
<rect x="0.000000" y="0.000000" width="313.700000" height="239.000000" rx="0" ry="0" style="stroke:none;fill:#ffffff;"/>
</a>
<text x="10.000000" y="7.000000" font-family="Arial" font-size="7"></text>
<rect x="33.000000" y="109.000000" width="24.000000" height="24.000000" rx="0" ry="0" style="stroke:none;fill:#cccccc;"/>
<rect x="32.000000" y="108.000000" width="24.000000" height="24.000000" rx="0" ry="0" style="stroke:none;fill:#47945E;"/>
<text x="44.000000" y="122.000000" font-family="Arial" font-size="7" text-anchor="middle" fill="#FFFFFF">x</text>
<circle cx="34.000000" cy="110.000000" r="1"/>
<line x1="29.000000" y1="119.000000" x2="32.000000" y2="120.000000"  transform="rotate(0.000000,32.000000,120.000000)" style="stroke: black; stroke-width:0.25;"/>
<line x1="29.000000" y1="121.000000" x2="32.000000" y2="120.000000"  transform="rotate(0.000000,32.000000,120.000000)" style="stroke: black; stroke-width:0.25;"/>
<rect x="142.350000" y="25.000000" width="24.000000" height="24.000000" rx="0" ry="0" style="stroke:none;fill:#cccccc;"/>
<rect x="141.350000" y="24.000000" width="24.000000" height="24.000000" rx="0" ry="0" style="stroke:none;fill:#47945E;"/>
<text x="153.350000" y="38.000000" font-family="Arial" font-size="7" text-anchor="middle" fill="#FFFFFF">x</text>
<circle cx="143.350000" cy="26.000000" r="1"/>
<rect x="111.450000" y="67.000000" width="25.800000" height="24.000000" rx="0" ry="0" style="stroke:none;fill:#cccccc;"/>
<rect x="110.450000" y="66.000000" width="25.800000" height="24.000000" rx="0" ry="0" style="stroke:none;fill:#f44800;"/>
<text x="123.350000" y="80.000000" font-family="Arial" font-size="7" text-anchor="middle" fill="#FFFFFF">65536</text>
<circle cx="112.450000" cy="68.000000" r="1"/>
<line x1="101.450000" y1="57.000000" x2="101.450000" y2="99.000000"  style="stroke: black; stroke-linecap:round; stroke-width:0.25; stroke-dasharray:3,3;"/>
<line x1="101.450000" y1="99.000000" x2="145.250000" y2="99.000000"  style="stroke: black; stroke-linecap:round; stroke-width:0.25; stroke-dasharray:3,3;"/>
<line x1="145.250000" y1="99.000000" x2="145.250000" y2="57.000000"  style="stroke: black; stroke-linecap:round; stroke-width:0.25; stroke-dasharray:3,3;"/>
<line x1="101.450000" y1="57.000000" x2="106.450000" y2="57.000000"  style="stroke: black; stroke-linecap:round; stroke-width:0.25; stroke-dasharray:3,3;"/>
<line x1="132.250000" y1="57.000000" x2="145.250000" y2="57.000000"  style="stroke: black; stroke-linecap:round; stroke-width:0.25; stroke-dasharray:3,3;"/>
<text x="106.450000" y="59.000000" font-family="Arial" font-size="7">delMax</text>
<rect x="92.350000" y="119.000000" width="24.000000" height="24.000000" rx="0" ry="0" style="stroke:none;fill:#cccccc;"/>
<rect x="91.350000" y="118.000000" width="24.000000" height="24.000000" rx="0" ry="0" style="stroke:none;fill:#f44800;"/>
<text x="103.350000" y="132.000000" font-family="Arial" font-size="7" text-anchor="middle" fill="#FFFFFF">0</text>
<circle cx="93.350000" cy="120.000000" r="1"/>
<line x1="82.350000" y1="109.000000" x2="82.350000" y2="151.000000"  style="stroke: black; stroke-linecap:round; stroke-width:0.25; stroke-dasharray:3,3;"/>
<line x1="82.350000" y1="151.000000" x2="124.350000" y2="151.000000"  style="stroke: black; stroke-linecap:round; stroke-width:0.25; stroke-dasharray:3,3;"/>
<line x1="124.350000" y1="151.000000" x2="124.350000" y2="109.000000"  style="stroke: black; stroke-linecap:round; stroke-width:0.25; stroke-dasharray:3,3;"/>
<line x1="82.350000" y1="109.000000" x2="87.350000" y2="109.000000"  style="stroke: black; stroke-linecap:round; stroke-width:0.25; stroke-dasharray:3,3;"/>
<line x1="113.150000" y1="109.000000" x2="124.350000" y2="109.000000"  style="stroke: black; stroke-linecap:round; stroke-width:0.25; stroke-dasharray:3,3;"/>
<text x="87.350000" y="111.000000" font-family="Arial" font-size="7">parity</text>
<a xlink:href="l2s-0x7fb5b4f5ccf0.svg">
<rect x="65.000000" y="161.000000" width="38.700000" height="24.000000" rx="0" ry="0" style="stroke:none;fill:#cccccc;"/>
<rect x="64.000000" y="160.000000" width="38.700000" height="24.000000" rx="0" ry="0" style="stroke:none;fill:#003366;"/>
</a>
<a xlink:href="l2s-0x7fb5b4f5ccf0.svg">
<text x="83.350000" y="174.000000" font-family="Arial" font-size="7" text-anchor="middle" fill="#FFFFFF">l2s(40)</text>
</a>
<circle cx="66.000000" cy="162.000000" r="1"/>
<rect x="72.350000" y="193.000000" width="24.000000" height="24.000000" rx="0" ry="0" style="stroke:none;fill:#cccccc;"/>
<rect x="71.350000" y="192.000000" width="24.000000" height="24.000000" rx="0" ry="0" style="stroke:none;fill:#f44800;"/>
<text x="83.350000" y="206.000000" font-family="Arial" font-size="7" text-anchor="middle" fill="#FFFFFF">3</text>
<circle cx="73.350000" cy="194.000000" r="1"/>
<rect x="119.700000" y="177.000000" width="24.000000" height="24.000000" rx="0" ry="0" style="stroke:none;fill:#cccccc;"/>
<rect x="118.700000" y="176.000000" width="24.000000" height="24.000000" rx="0" ry="0" style="stroke:none;fill:#4B71A1;"/>
<text x="130.700000" y="190.000000" font-family="Arial" font-size="7" text-anchor="middle" fill="#FFFFFF">/</text>
<circle cx="120.700000" cy="178.000000" r="1"/>
<line x1="115.700000" y1="183.000000" x2="118.700000" y2="184.000000"  transform="rotate(0.000000,118.700000,184.000000)" style="stroke: black; stroke-width:0.25;"/>
<line x1="115.700000" y1="185.000000" x2="118.700000" y2="184.000000"  transform="rotate(0.000000,118.700000,184.000000)" style="stroke: black; stroke-width:0.25;"/>
<line x1="115.700000" y1="191.000000" x2="118.700000" y2="192.000000"  transform="rotate(0.000000,118.700000,192.000000)" style="stroke: black; stroke-width:0.25;"/>
<line x1="115.700000" y1="193.000000" x2="118.700000" y2="192.000000"  transform="rotate(0.000000,118.700000,192.000000)" style="stroke: black; stroke-width:0.25;"/>
<rect x="159.700000" y="151.000000" width="24.000000" height="24.000000" rx="0" ry="0" style="stroke:none;fill:#cccccc;"/>
<rect x="158.700000" y="150.000000" width="24.000000" height="24.000000" rx="0" ry="0" style="stroke:none;fill:#4B71A1;"/>
<text x="170.700000" y="164.000000" font-family="Arial" font-size="7" text-anchor="middle" fill="#FFFFFF">max</text>
<circle cx="160.700000" cy="152.000000" r="1"/>
<line x1="155.700000" y1="157.000000" x2="158.700000" y2="158.000000"  transform="rotate(0.000000,158.700000,158.000000)" style="stroke: black; stroke-width:0.25;"/>
<line x1="155.700000" y1="159.000000" x2="158.700000" y2="158.000000"  transform="rotate(0.000000,158.700000,158.000000)" style="stroke: black; stroke-width:0.25;"/>
<line x1="155.700000" y1="165.000000" x2="158.700000" y2="166.000000"  transform="rotate(0.000000,158.700000,166.000000)" style="stroke: black; stroke-width:0.25;"/>
<line x1="155.700000" y1="167.000000" x2="158.700000" y2="166.000000"  transform="rotate(0.000000,158.700000,166.000000)" style="stroke: black; stroke-width:0.25;"/>
<rect x="209.700000" y="125.000000" width="24.000000" height="24.000000" rx="0" ry="0" style="stroke:none;fill:#cccccc;"/>
<rect x="208.700000" y="124.000000" width="24.000000" height="24.000000" rx="0" ry="0" style="stroke:none;fill:#4B71A1;"/>
<text x="220.700000" y="138.000000" font-family="Arial" font-size="7" text-anchor="middle" fill="#FFFFFF">min</text>
<circle cx="210.700000" cy="126.000000" r="1"/>
<line x1="205.700000" y1="131.000000" x2="208.700000" y2="132.000000"  transform="rotate(0.000000,208.700000,132.000000)" style="stroke: black; stroke-width:0.25;"/>
<line x1="205.700000" y1="133.000000" x2="208.700000" y2="132.000000"  transform="rotate(0.000000,208.700000,132.000000)" style="stroke: black; stroke-width:0.25;"/>
<line x1="205.700000" y1="139.000000" x2="208.700000" y2="140.000000"  transform="rotate(0.000000,208.700000,140.000000)" style="stroke: black; stroke-width:0.25;"/>
<line x1="205.700000" y1="141.000000" x2="208.700000" y2="140.000000"  transform="rotate(0.000000,208.700000,140.000000)" style="stroke: black; stroke-width:0.25;"/>
<line x1="199.700000" y1="115.000000" x2="199.700000" y2="157.000000"  style="stroke: black; stroke-linecap:round; stroke-width:0.25; stroke-dasharray:3,3;"/>
<line x1="199.700000" y1="157.000000" x2="241.700000" y2="157.000000"  style="stroke: black; stroke-linecap:round; stroke-width:0.25; stroke-dasharray:3,3;"/>
<line x1="241.700000" y1="157.000000" x2="241.700000" y2="115.000000"  style="stroke: black; stroke-linecap:round; stroke-width:0.25; stroke-dasharray:3,3;"/>
<line x1="199.700000" y1="115.000000" x2="204.700000" y2="115.000000"  style="stroke: black; stroke-linecap:round; stroke-width:0.25; stroke-dasharray:3,3;"/>
<line x1="224.050000" y1="115.000000" x2="241.700000" y2="115.000000"  style="stroke: black; stroke-linecap:round; stroke-width:0.25; stroke-dasharray:3,3;"/>
<text x="204.700000" y="117.000000" font-family="Arial" font-size="7">fmin</text>
<rect x="259.700000" y="109.000000" width="24.000000" height="24.000000" rx="0" ry="0" style="stroke:none;fill:#cccccc;"/>
<rect x="258.700000" y="108.000000" width="24.000000" height="24.000000" rx="0" ry="0" style="stroke:none;fill:#4B71A1;"/>
<text x="270.700000" y="122.000000" font-family="Arial" font-size="7" text-anchor="middle" fill="#FFFFFF">@</text>
<circle cx="260.700000" cy="110.000000" r="1"/>
<line x1="255.700000" y1="115.000000" x2="258.700000" y2="116.000000"  transform="rotate(0.000000,258.700000,116.000000)" style="stroke: black; stroke-width:0.25;"/>
<line x1="255.700000" y1="117.000000" x2="258.700000" y2="116.000000"  transform="rotate(0.000000,258.700000,116.000000)" style="stroke: black; stroke-width:0.25;"/>
<line x1="255.700000" y1="123.000000" x2="258.700000" y2="124.000000"  transform="rotate(0.000000,258.700000,124.000000)" style="stroke: black; stroke-width:0.25;"/>
<line x1="255.700000" y1="125.000000" x2="258.700000" y2="124.000000"  transform="rotate(0.000000,258.700000,124.000000)" style="stroke: black; stroke-width:0.25;"/>
<line x1="15.000000" y1="15.000000" x2="15.000000" y2="225.000000"  style="stroke: black; stroke-linecap:round; stroke-width:0.25; stroke-dasharray:3,3;"/>
<line x1="15.000000" y1="225.000000" x2="299.700000" y2="225.000000"  style="stroke: black; stroke-linecap:round; stroke-width:0.25; stroke-dasharray:3,3;"/>
<line x1="299.700000" y1="225.000000" x2="299.700000" y2="15.000000"  style="stroke: black; stroke-linecap:round; stroke-width:0.25; stroke-dasharray:3,3;"/>
<line x1="15.000000" y1="15.000000" x2="20.000000" y2="15.000000"  style="stroke: black; stroke-linecap:round; stroke-width:0.25; stroke-dasharray:3,3;"/>
<line x1="119.975000" y1="15.000000" x2="299.700000" y2="15.000000"  style="stroke: black; stroke-linecap:round; stroke-width:0.25; stroke-dasharray:3,3;"/>
<text x="20.000000" y="17.000000" font-family="Arial" font-size="7">delay(65536)(...0 : /),3 : /)</text>
<line x1="301.700000" y1="119.000000" x2="304.700000" y2="120.000000"  transform="rotate(0.000000,304.700000,120.000000)" style="stroke: black; stroke-width:0.25;"/>
<line x1="301.700000" y1="121.000000" x2="304.700000" y2="120.000000"  transform="rotate(0.000000,304.700000,120.000000)" style="stroke: black; stroke-width:0.25;"/>
<line x1="10.000000" y1="120.000000" x2="20.000000" y2="120.000000"  style="stroke:black; stroke-linecap:round; stroke-width:0.25;"/>
<line x1="20.000000" y1="120.000000" x2="24.000000" y2="120.000000"  style="stroke:black; stroke-linecap:round; stroke-width:0.25;"/>
<line x1="24.000000" y1="120.000000" x2="28.000000" y2="120.000000"  style="stroke:black; stroke-linecap:round; stroke-width:0.25;"/>
<line x1="28.000000" y1="120.000000" x2="28.000000" y2="120.000000"  style="stroke:black; stroke-linecap:round; stroke-width:0.25;"/>
<line x1="28.000000" y1="120.000000" x2="32.000000" y2="120.000000"  style="stroke:black; stroke-linecap:round; stroke-width:0.25;"/>
<line x1="95.350000" y1="204.000000" x2="99.350000" y2="204.000000"  style="stroke:black; stroke-linecap:round; stroke-width:0.25;"/>
<line x1="99.350000" y1="204.000000" x2="106.700000" y2="204.000000"  style="stroke:black; stroke-linecap:round; stroke-width:0.25;"/>
<line x1="102.700000" y1="172.000000" x2="106.700000" y2="172.000000"  style="stroke:black; stroke-linecap:round; stroke-width:0.25;"/>
<line x1="106.700000" y1="172.000000" x2="114.700000" y2="172.000000"  style="stroke:black; stroke-linecap:round; stroke-width:0.25;"/>
<line x1="106.700000" y1="192.000000" x2="114.700000" y2="192.000000"  style="stroke:black; stroke-linecap:round; stroke-width:0.25;"/>
<line x1="106.700000" y1="204.000000" x2="106.700000" y2="192.000000"  style="stroke:black; stroke-linecap:round; stroke-width:0.25;"/>
<line x1="106.700000" y1="204.000000" x2="106.700000" y2="204.000000"  style="stroke:black; stroke-linecap:round; stroke-width:0.25;"/>
<line x1="114.700000" y1="172.000000" x2="114.700000" y2="184.000000"  style="stroke:black; stroke-linecap:round; stroke-width:0.25;"/>
<line x1="114.700000" y1="184.000000" x2="114.700000" y2="184.000000"  style="stroke:black; stroke-linecap:round; stroke-width:0.25;"/>
<line x1="114.700000" y1="184.000000" x2="118.700000" y2="184.000000"  style="stroke:black; stroke-linecap:round; stroke-width:0.25;"/>
<line x1="114.700000" y1="192.000000" x2="118.700000" y2="192.000000"  style="stroke:black; stroke-linecap:round; stroke-width:0.25;"/>
<line x1="115.350000" y1="130.000000" x2="119.350000" y2="130.000000"  style="stroke:black; stroke-linecap:round; stroke-width:0.25;"/>
<line x1="119.350000" y1="130.000000" x2="129.350000" y2="130.000000"  style="stroke:black; stroke-linecap:round; stroke-width:0.25;"/>
<line x1="129.350000" y1="130.000000" x2="146.700000" y2="130.000000"  style="stroke:black; stroke-linecap:round; stroke-width:0.25;"/>
<line x1="136.250000" y1="78.000000" x2="140.250000" y2="78.000000"  style="stroke:black; stroke-linecap:round; stroke-width:0.25;"/>
<line x1="140.250000" y1="78.000000" x2="150.250000" y2="78.000000"  style="stroke:black; stroke-linecap:round; stroke-width:0.25;"/>
<line x1="142.700000" y1="188.000000" x2="146.700000" y2="188.000000"  style="stroke:black; stroke-linecap:round; stroke-width:0.25;"/>
<line x1="146.700000" y1="130.000000" x2="154.700000" y2="130.000000"  style="stroke:black; stroke-linecap:round; stroke-width:0.25;"/>
<line x1="146.700000" y1="166.000000" x2="154.700000" y2="166.000000"  style="stroke:black; stroke-linecap:round; stroke-width:0.25;"/>
<line x1="146.700000" y1="188.000000" x2="146.700000" y2="166.000000"  style="stroke:black; stroke-linecap:round; stroke-width:0.25;"/>
<line x1="146.700000" y1="188.000000" x2="146.700000" y2="188.000000"  style="stroke:black; stroke-linecap:round; stroke-width:0.25;"/>
<line x1="150.250000" y1="78.000000" x2="186.700000" y2="78.000000"  style="stroke:black; stroke-linecap:round; stroke-width:0.25;"/>
<line x1="154.700000" y1="130.000000" x2="154.700000" y2="158.000000"  style="stroke:black; stroke-linecap:round; stroke-width:0.25;"/>
<line x1="154.700000" y1="158.000000" x2="154.700000" y2="158.000000"  style="stroke:black; stroke-linecap:round; stroke-width:0.25;"/>
<line x1="154.700000" y1="158.000000" x2="158.700000" y2="158.000000"  style="stroke:black; stroke-linecap:round; stroke-width:0.25;"/>
<line x1="154.700000" y1="166.000000" x2="158.700000" y2="166.000000"  style="stroke:black; stroke-linecap:round; stroke-width:0.25;"/>
<line x1="165.350000" y1="36.000000" x2="169.350000" y2="36.000000"  style="stroke:black; stroke-linecap:round; stroke-width:0.25;"/>
<line x1="169.350000" y1="36.000000" x2="246.700000" y2="36.000000"  style="stroke:black; stroke-linecap:round; stroke-width:0.25;"/>
<line x1="182.700000" y1="162.000000" x2="186.700000" y2="162.000000"  style="stroke:black; stroke-linecap:round; stroke-width:0.25;"/>
<line x1="186.700000" y1="78.000000" x2="194.700000" y2="78.000000"  style="stroke:black; stroke-linecap:round; stroke-width:0.25;"/>
<line x1="186.700000" y1="140.000000" x2="194.700000" y2="140.000000"  style="stroke:black; stroke-linecap:round; stroke-width:0.25;"/>
<line x1="186.700000" y1="162.000000" x2="186.700000" y2="140.000000"  style="stroke:black; stroke-linecap:round; stroke-width:0.25;"/>
<line x1="186.700000" y1="162.000000" x2="186.700000" y2="162.000000"  style="stroke:black; stroke-linecap:round; stroke-width:0.25;"/>
<line x1="194.700000" y1="78.000000" x2="194.700000" y2="132.000000"  style="stroke:black; stroke-linecap:round; stroke-width:0.25;"/>
<line x1="194.700000" y1="132.000000" x2="194.700000" y2="132.000000"  style="stroke:black; stroke-linecap:round; stroke-width:0.25;"/>
<line x1="194.700000" y1="132.000000" x2="204.700000" y2="132.000000"  style="stroke:black; stroke-linecap:round; stroke-width:0.25;"/>
<line x1="194.700000" y1="140.000000" x2="204.700000" y2="140.000000"  style="stroke:black; stroke-linecap:round; stroke-width:0.25;"/>
<line x1="204.700000" y1="132.000000" x2="208.700000" y2="132.000000"  style="stroke:black; stroke-linecap:round; stroke-width:0.25;"/>
<line x1="204.700000" y1="140.000000" x2="208.700000" y2="140.000000"  style="stroke:black; stroke-linecap:round; stroke-width:0.25;"/>
<line x1="232.700000" y1="136.000000" x2="236.700000" y2="136.000000"  style="stroke:black; stroke-linecap:round; stroke-width:0.25;"/>
<line x1="236.700000" y1="136.000000" x2="246.700000" y2="136.000000"  style="stroke:black; stroke-linecap:round; stroke-width:0.25;"/>
<line x1="246.700000" y1="36.000000" x2="254.700000" y2="36.000000"  style="stroke:black; stroke-linecap:round; stroke-width:0.25;"/>
<line x1="246.700000" y1="124.000000" x2="254.700000" y2="124.000000"  style="stroke:black; stroke-linecap:round; stroke-width:0.25;"/>
<line x1="246.700000" y1="136.000000" x2="246.700000" y2="124.000000"  style="stroke:black; stroke-linecap:round; stroke-width:0.25;"/>
<line x1="246.700000" y1="136.000000" x2="246.700000" y2="136.000000"  style="stroke:black; stroke-linecap:round; stroke-width:0.25;"/>
<line x1="254.700000" y1="36.000000" x2="254.700000" y2="116.000000"  style="stroke:black; stroke-linecap:round; stroke-width:0.25;"/>
<line x1="254.700000" y1="116.000000" x2="254.700000" y2="116.000000"  style="stroke:black; stroke-linecap:round; stroke-width:0.25;"/>
<line x1="254.700000" y1="116.000000" x2="258.700000" y2="116.000000"  style="stroke:black; stroke-linecap:round; stroke-width:0.25;"/>
<line x1="254.700000" y1="124.000000" x2="258.700000" y2="124.000000"  style="stroke:black; stroke-linecap:round; stroke-width:0.25;"/>
<line x1="282.700000" y1="120.000000" x2="286.700000" y2="120.000000"  style="stroke:black; stroke-linecap:round; stroke-width:0.25;"/>
<line x1="286.700000" y1="120.000000" x2="286.700000" y2="120.000000"  style="stroke:black; stroke-linecap:round; stroke-width:0.25;"/>
<line x1="286.700000" y1="120.000000" x2="290.700000" y2="120.000000"  style="stroke:black; stroke-linecap:round; stroke-width:0.25;"/>
<line x1="290.700000" y1="120.000000" x2="294.700000" y2="120.000000"  style="stroke:black; stroke-linecap:round; stroke-width:0.25;"/>
<line x1="294.700000" y1="120.000000" x2="304.700000" y2="120.000000"  style="stroke:black; stroke-linecap:round; stroke-width:0.25;"/>
</svg>
