<?xml version="1.0"?>
<svg xmlns="http://www.w3.org/2000/svg" xmlns:xlink="http://www.w3.org/1999/xlink" viewBox="0 0 301.800000 240.000000" width="150.900000mm" height="120.000000mm" version="1.1">
<a xlink:href="signal-0x7f541145a410.svg">
<rect x="1.000000" y="1.000000" width="300.800000" height="239.000000" rx="0" ry="0" style="stroke:none;fill:#cccccc;"/>
<rect x="0.000000" y="0.000000" width="300.800000" height="239.000000" rx="0" ry="0" style="stroke:none;fill:#ffffff;"/>
</a>
<text x="10.000000" y="7.000000" font-family="Arial" font-size="7"></text>
<rect x="33.000000" y="109.000000" width="24.000000" height="24.000000" rx="0" ry="0" style="stroke:none;fill:#cccccc;"/>
<rect x="32.000000" y="108.000000" width="24.000000" height="24.000000" rx="0" ry="0" style="stroke:none;fill:#47945E;"/>
<text x="44.000000" y="122.000000" font-family="Arial" font-size="7" text-anchor="middle" fill="#FFFFFF">x</text>
<circle cx="34.000000" cy="110.000000" r="1"/>
<line x1="29.000000" y1="119.000000" x2="32.000000" y2="120.000000"  transform="rotate(0.000000,32.000000,120.000000)" style="stroke: black; stroke-width:0.25;"/>
<line x1="29.000000" y1="121.000000" x2="32.000000" y2="120.000000"  transform="rotate(0.000000,32.000000,120.000000)" style="stroke: black; stroke-width:0.25;"/>
<rect x="135.900000" y="25.000000" width="24.000000" height="24.000000" rx="0" ry="0" style="stroke:none;fill:#cccccc;"/>
<rect x="134.900000" y="24.000000" width="24.000000" height="24.000000" rx="0" ry="0" style="stroke:none;fill:#47945E;"/>
<text x="146.900000" y="38.000000" font-family="Arial" font-size="7" text-anchor="middle" fill="#FFFFFF">x</text>
<circle cx="136.900000" cy="26.000000" r="1"/>
<rect x="105.000000" y="67.000000" width="25.800000" height="24.000000" rx="0" ry="0" style="stroke:none;fill:#cccccc;"/>
<rect x="104.000000" y="66.000000" width="25.800000" height="24.000000" rx="0" ry="0" style="stroke:none;fill:#f44800;"/>
<text x="116.900000" y="80.000000" font-family="Arial" font-size="7" text-anchor="middle" fill="#FFFFFF">65536</text>
<circle cx="106.000000" cy="68.000000" r="1"/>
<line x1="95.000000" y1="57.000000" x2="95.000000" y2="99.000000"  style="stroke: black; stroke-linecap:round; stroke-width:0.25; stroke-dasharray:3,3;"/>
<line x1="95.000000" y1="99.000000" x2="138.800000" y2="99.000000"  style="stroke: black; stroke-linecap:round; stroke-width:0.25; stroke-dasharray:3,3;"/>
<line x1="138.800000" y1="99.000000" x2="138.800000" y2="57.000000"  style="stroke: black; stroke-linecap:round; stroke-width:0.25; stroke-dasharray:3,3;"/>
<line x1="95.000000" y1="57.000000" x2="100.000000" y2="57.000000"  style="stroke: black; stroke-linecap:round; stroke-width:0.25; stroke-dasharray:3,3;"/>
<line x1="135.475000" y1="57.000000" x2="138.800000" y2="57.000000"  style="stroke: black; stroke-linecap:round; stroke-width:0.25; stroke-dasharray:3,3;"/>
<text x="100.000000" y="59.000000" font-family="Arial" font-size="7">tablesize</text>
<rect x="85.900000" y="119.000000" width="24.000000" height="24.000000" rx="0" ry="0" style="stroke:none;fill:#cccccc;"/>
<rect x="84.900000" y="118.000000" width="24.000000" height="24.000000" rx="0" ry="0" style="stroke:none;fill:#f44800;"/>
<text x="96.900000" y="132.000000" font-family="Arial" font-size="7" text-anchor="middle" fill="#FFFFFF">0</text>
<circle cx="86.900000" cy="120.000000" r="1"/>
<line x1="75.900000" y1="109.000000" x2="75.900000" y2="151.000000"  style="stroke: black; stroke-linecap:round; stroke-width:0.25; stroke-dasharray:3,3;"/>
<line x1="75.900000" y1="151.000000" x2="117.900000" y2="151.000000"  style="stroke: black; stroke-linecap:round; stroke-width:0.25; stroke-dasharray:3,3;"/>
<line x1="117.900000" y1="151.000000" x2="117.900000" y2="109.000000"  style="stroke: black; stroke-linecap:round; stroke-width:0.25; stroke-dasharray:3,3;"/>
<line x1="75.900000" y1="109.000000" x2="80.900000" y2="109.000000"  style="stroke: black; stroke-linecap:round; stroke-width:0.25; stroke-dasharray:3,3;"/>
<line x1="113.150000" y1="109.000000" x2="117.900000" y2="109.000000"  style="stroke: black; stroke-linecap:round; stroke-width:0.25; stroke-dasharray:3,3;"/>
<text x="80.900000" y="111.000000" font-family="Arial" font-size="7">xVals(0)</text>
<a xlink:href="l2s-0x7f541100e470.svg">
<rect x="65.000000" y="161.000000" width="25.800000" height="24.000000" rx="0" ry="0" style="stroke:none;fill:#cccccc;"/>
<rect x="64.000000" y="160.000000" width="25.800000" height="24.000000" rx="0" ry="0" style="stroke:none;fill:#003366;"/>
</a>
<a xlink:href="l2s-0x7f541100e470.svg">
<text x="76.900000" y="174.000000" font-family="Arial" font-size="7" text-anchor="middle" fill="#FFFFFF">l2s(4)</text>
</a>
<circle cx="66.000000" cy="162.000000" r="1"/>
<rect x="65.900000" y="193.000000" width="24.000000" height="24.000000" rx="0" ry="0" style="stroke:none;fill:#cccccc;"/>
<rect x="64.900000" y="192.000000" width="24.000000" height="24.000000" rx="0" ry="0" style="stroke:none;fill:#f44800;"/>
<text x="76.900000" y="206.000000" font-family="Arial" font-size="7" text-anchor="middle" fill="#FFFFFF">2.5</text>
<circle cx="66.900000" cy="194.000000" r="1"/>
<rect x="106.800000" y="177.000000" width="24.000000" height="24.000000" rx="0" ry="0" style="stroke:none;fill:#cccccc;"/>
<rect x="105.800000" y="176.000000" width="24.000000" height="24.000000" rx="0" ry="0" style="stroke:none;fill:#4B71A1;"/>
<text x="117.800000" y="190.000000" font-family="Arial" font-size="7" text-anchor="middle" fill="#FFFFFF">/</text>
<circle cx="107.800000" cy="178.000000" r="1"/>
<line x1="102.800000" y1="183.000000" x2="105.800000" y2="184.000000"  transform="rotate(0.000000,105.800000,184.000000)" style="stroke: black; stroke-width:0.25;"/>
<line x1="102.800000" y1="185.000000" x2="105.800000" y2="184.000000"  transform="rotate(0.000000,105.800000,184.000000)" style="stroke: black; stroke-width:0.25;"/>
<line x1="102.800000" y1="191.000000" x2="105.800000" y2="192.000000"  transform="rotate(0.000000,105.800000,192.000000)" style="stroke: black; stroke-width:0.25;"/>
<line x1="102.800000" y1="193.000000" x2="105.800000" y2="192.000000"  transform="rotate(0.000000,105.800000,192.000000)" style="stroke: black; stroke-width:0.25;"/>
<rect x="146.800000" y="151.000000" width="24.000000" height="24.000000" rx="0" ry="0" style="stroke:none;fill:#cccccc;"/>
<rect x="145.800000" y="150.000000" width="24.000000" height="24.000000" rx="0" ry="0" style="stroke:none;fill:#4B71A1;"/>
<text x="157.800000" y="164.000000" font-family="Arial" font-size="7" text-anchor="middle" fill="#FFFFFF">max</text>
<circle cx="147.800000" cy="152.000000" r="1"/>
<line x1="142.800000" y1="157.000000" x2="145.800000" y2="158.000000"  transform="rotate(0.000000,145.800000,158.000000)" style="stroke: black; stroke-width:0.25;"/>
<line x1="142.800000" y1="159.000000" x2="145.800000" y2="158.000000"  transform="rotate(0.000000,145.800000,158.000000)" style="stroke: black; stroke-width:0.25;"/>
<line x1="142.800000" y1="165.000000" x2="145.800000" y2="166.000000"  transform="rotate(0.000000,145.800000,166.000000)" style="stroke: black; stroke-width:0.25;"/>
<line x1="142.800000" y1="167.000000" x2="145.800000" y2="166.000000"  transform="rotate(0.000000,145.800000,166.000000)" style="stroke: black; stroke-width:0.25;"/>
<rect x="196.800000" y="125.000000" width="24.000000" height="24.000000" rx="0" ry="0" style="stroke:none;fill:#cccccc;"/>
<rect x="195.800000" y="124.000000" width="24.000000" height="24.000000" rx="0" ry="0" style="stroke:none;fill:#4B71A1;"/>
<text x="207.800000" y="138.000000" font-family="Arial" font-size="7" text-anchor="middle" fill="#FFFFFF">min</text>
<circle cx="197.800000" cy="126.000000" r="1"/>
<line x1="192.800000" y1="131.000000" x2="195.800000" y2="132.000000"  transform="rotate(0.000000,195.800000,132.000000)" style="stroke: black; stroke-width:0.25;"/>
<line x1="192.800000" y1="133.000000" x2="195.800000" y2="132.000000"  transform="rotate(0.000000,195.800000,132.000000)" style="stroke: black; stroke-width:0.25;"/>
<line x1="192.800000" y1="139.000000" x2="195.800000" y2="140.000000"  transform="rotate(0.000000,195.800000,140.000000)" style="stroke: black; stroke-width:0.25;"/>
<line x1="192.800000" y1="141.000000" x2="195.800000" y2="140.000000"  transform="rotate(0.000000,195.800000,140.000000)" style="stroke: black; stroke-width:0.25;"/>
<line x1="186.800000" y1="115.000000" x2="186.800000" y2="157.000000"  style="stroke: black; stroke-linecap:round; stroke-width:0.25; stroke-dasharray:3,3;"/>
<line x1="186.800000" y1="157.000000" x2="228.800000" y2="157.000000"  style="stroke: black; stroke-linecap:round; stroke-width:0.25; stroke-dasharray:3,3;"/>
<line x1="228.800000" y1="157.000000" x2="228.800000" y2="115.000000"  style="stroke: black; stroke-linecap:round; stroke-width:0.25; stroke-dasharray:3,3;"/>
<line x1="186.800000" y1="115.000000" x2="191.800000" y2="115.000000"  style="stroke: black; stroke-linecap:round; stroke-width:0.25; stroke-dasharray:3,3;"/>
<line x1="211.150000" y1="115.000000" x2="228.800000" y2="115.000000"  style="stroke: black; stroke-linecap:round; stroke-width:0.25; stroke-dasharray:3,3;"/>
<text x="191.800000" y="117.000000" font-family="Arial" font-size="7">fmin</text>
<rect x="246.800000" y="109.000000" width="24.000000" height="24.000000" rx="0" ry="0" style="stroke:none;fill:#cccccc;"/>
<rect x="245.800000" y="108.000000" width="24.000000" height="24.000000" rx="0" ry="0" style="stroke:none;fill:#4B71A1;"/>
<text x="257.800000" y="122.000000" font-family="Arial" font-size="7" text-anchor="middle" fill="#FFFFFF">@</text>
<circle cx="247.800000" cy="110.000000" r="1"/>
<line x1="242.800000" y1="115.000000" x2="245.800000" y2="116.000000"  transform="rotate(0.000000,245.800000,116.000000)" style="stroke: black; stroke-width:0.25;"/>
<line x1="242.800000" y1="117.000000" x2="245.800000" y2="116.000000"  transform="rotate(0.000000,245.800000,116.000000)" style="stroke: black; stroke-width:0.25;"/>
<line x1="242.800000" y1="123.000000" x2="245.800000" y2="124.000000"  transform="rotate(0.000000,245.800000,124.000000)" style="stroke: black; stroke-width:0.25;"/>
<line x1="242.800000" y1="125.000000" x2="245.800000" y2="124.000000"  transform="rotate(0.000000,245.800000,124.000000)" style="stroke: black; stroke-width:0.25;"/>
<line x1="15.000000" y1="15.000000" x2="15.000000" y2="225.000000"  style="stroke: black; stroke-linecap:round; stroke-width:0.25; stroke-dasharray:3,3;"/>
<line x1="15.000000" y1="225.000000" x2="286.800000" y2="225.000000"  style="stroke: black; stroke-linecap:round; stroke-width:0.25; stroke-dasharray:3,3;"/>
<line x1="286.800000" y1="225.000000" x2="286.800000" y2="15.000000"  style="stroke: black; stroke-linecap:round; stroke-width:0.25; stroke-dasharray:3,3;"/>
<line x1="15.000000" y1="15.000000" x2="20.000000" y2="15.000000"  style="stroke: black; stroke-linecap:round; stroke-width:0.25; stroke-dasharray:3,3;"/>
<line x1="119.975000" y1="15.000000" x2="286.800000" y2="15.000000"  style="stroke: black; stroke-linecap:round; stroke-width:0.25; stroke-dasharray:3,3;"/>
<text x="20.000000" y="17.000000" font-family="Arial" font-size="7">delay(65536)(... /),2.5f : /)</text>
<line x1="288.800000" y1="119.000000" x2="291.800000" y2="120.000000"  transform="rotate(0.000000,291.800000,120.000000)" style="stroke: black; stroke-width:0.25;"/>
<line x1="288.800000" y1="121.000000" x2="291.800000" y2="120.000000"  transform="rotate(0.000000,291.800000,120.000000)" style="stroke: black; stroke-width:0.25;"/>
<line x1="10.000000" y1="120.000000" x2="20.000000" y2="120.000000"  style="stroke:black; stroke-linecap:round; stroke-width:0.25;"/>
<line x1="20.000000" y1="120.000000" x2="24.000000" y2="120.000000"  style="stroke:black; stroke-linecap:round; stroke-width:0.25;"/>
<line x1="24.000000" y1="120.000000" x2="28.000000" y2="120.000000"  style="stroke:black; stroke-linecap:round; stroke-width:0.25;"/>
<line x1="28.000000" y1="120.000000" x2="28.000000" y2="120.000000"  style="stroke:black; stroke-linecap:round; stroke-width:0.25;"/>
<line x1="28.000000" y1="120.000000" x2="32.000000" y2="120.000000"  style="stroke:black; stroke-linecap:round; stroke-width:0.25;"/>
<line x1="88.900000" y1="204.000000" x2="92.900000" y2="204.000000"  style="stroke:black; stroke-linecap:round; stroke-width:0.25;"/>
<line x1="89.800000" y1="172.000000" x2="93.800000" y2="172.000000"  style="stroke:black; stroke-linecap:round; stroke-width:0.25;"/>
<line x1="92.900000" y1="204.000000" x2="93.800000" y2="204.000000"  style="stroke:black; stroke-linecap:round; stroke-width:0.25;"/>
<line x1="93.800000" y1="172.000000" x2="101.800000" y2="172.000000"  style="stroke:black; stroke-linecap:round; stroke-width:0.25;"/>
<line x1="93.800000" y1="192.000000" x2="101.800000" y2="192.000000"  style="stroke:black; stroke-linecap:round; stroke-width:0.25;"/>
<line x1="93.800000" y1="204.000000" x2="93.800000" y2="192.000000"  style="stroke:black; stroke-linecap:round; stroke-width:0.25;"/>
<line x1="93.800000" y1="204.000000" x2="93.800000" y2="204.000000"  style="stroke:black; stroke-linecap:round; stroke-width:0.25;"/>
<line x1="101.800000" y1="172.000000" x2="101.800000" y2="184.000000"  style="stroke:black; stroke-linecap:round; stroke-width:0.25;"/>
<line x1="101.800000" y1="184.000000" x2="101.800000" y2="184.000000"  style="stroke:black; stroke-linecap:round; stroke-width:0.25;"/>
<line x1="101.800000" y1="184.000000" x2="105.800000" y2="184.000000"  style="stroke:black; stroke-linecap:round; stroke-width:0.25;"/>
<line x1="101.800000" y1="192.000000" x2="105.800000" y2="192.000000"  style="stroke:black; stroke-linecap:round; stroke-width:0.25;"/>
<line x1="108.900000" y1="130.000000" x2="112.900000" y2="130.000000"  style="stroke:black; stroke-linecap:round; stroke-width:0.25;"/>
<line x1="112.900000" y1="130.000000" x2="122.900000" y2="130.000000"  style="stroke:black; stroke-linecap:round; stroke-width:0.25;"/>
<line x1="122.900000" y1="130.000000" x2="133.800000" y2="130.000000"  style="stroke:black; stroke-linecap:round; stroke-width:0.25;"/>
<line x1="129.800000" y1="78.000000" x2="133.800000" y2="78.000000"  style="stroke:black; stroke-linecap:round; stroke-width:0.25;"/>
<line x1="129.800000" y1="188.000000" x2="133.800000" y2="188.000000"  style="stroke:black; stroke-linecap:round; stroke-width:0.25;"/>
<line x1="133.800000" y1="78.000000" x2="143.800000" y2="78.000000"  style="stroke:black; stroke-linecap:round; stroke-width:0.25;"/>
<line x1="133.800000" y1="130.000000" x2="141.800000" y2="130.000000"  style="stroke:black; stroke-linecap:round; stroke-width:0.25;"/>
<line x1="133.800000" y1="166.000000" x2="141.800000" y2="166.000000"  style="stroke:black; stroke-linecap:round; stroke-width:0.25;"/>
<line x1="133.800000" y1="188.000000" x2="133.800000" y2="166.000000"  style="stroke:black; stroke-linecap:round; stroke-width:0.25;"/>
<line x1="133.800000" y1="188.000000" x2="133.800000" y2="188.000000"  style="stroke:black; stroke-linecap:round; stroke-width:0.25;"/>
<line x1="141.800000" y1="130.000000" x2="141.800000" y2="158.000000"  style="stroke:black; stroke-linecap:round; stroke-width:0.25;"/>
<line x1="141.800000" y1="158.000000" x2="141.800000" y2="158.000000"  style="stroke:black; stroke-linecap:round; stroke-width:0.25;"/>
<line x1="141.800000" y1="158.000000" x2="145.800000" y2="158.000000"  style="stroke:black; stroke-linecap:round; stroke-width:0.25;"/>
<line x1="141.800000" y1="166.000000" x2="145.800000" y2="166.000000"  style="stroke:black; stroke-linecap:round; stroke-width:0.25;"/>
<line x1="143.800000" y1="78.000000" x2="173.800000" y2="78.000000"  style="stroke:black; stroke-linecap:round; stroke-width:0.25;"/>
<line x1="158.900000" y1="36.000000" x2="162.900000" y2="36.000000"  style="stroke:black; stroke-linecap:round; stroke-width:0.25;"/>
<line x1="162.900000" y1="36.000000" x2="233.800000" y2="36.000000"  style="stroke:black; stroke-linecap:round; stroke-width:0.25;"/>
<line x1="169.800000" y1="162.000000" x2="173.800000" y2="162.000000"  style="stroke:black; stroke-linecap:round; stroke-width:0.25;"/>
<line x1="173.800000" y1="78.000000" x2="181.800000" y2="78.000000"  style="stroke:black; stroke-linecap:round; stroke-width:0.25;"/>
<line x1="173.800000" y1="140.000000" x2="181.800000" y2="140.000000"  style="stroke:black; stroke-linecap:round; stroke-width:0.25;"/>
<line x1="173.800000" y1="162.000000" x2="173.800000" y2="140.000000"  style="stroke:black; stroke-linecap:round; stroke-width:0.25;"/>
<line x1="173.800000" y1="162.000000" x2="173.800000" y2="162.000000"  style="stroke:black; stroke-linecap:round; stroke-width:0.25;"/>
<line x1="181.800000" y1="78.000000" x2="181.800000" y2="132.000000"  style="stroke:black; stroke-linecap:round; stroke-width:0.25;"/>
<line x1="181.800000" y1="132.000000" x2="181.800000" y2="132.000000"  style="stroke:black; stroke-linecap:round; stroke-width:0.25;"/>
<line x1="181.800000" y1="132.000000" x2="191.800000" y2="132.000000"  style="stroke:black; stroke-linecap:round; stroke-width:0.25;"/>
<line x1="181.800000" y1="140.000000" x2="191.800000" y2="140.000000"  style="stroke:black; stroke-linecap:round; stroke-width:0.25;"/>
<line x1="191.800000" y1="132.000000" x2="195.800000" y2="132.000000"  style="stroke:black; stroke-linecap:round; stroke-width:0.25;"/>
<line x1="191.800000" y1="140.000000" x2="195.800000" y2="140.000000"  style="stroke:black; stroke-linecap:round; stroke-width:0.25;"/>
<line x1="219.800000" y1="136.000000" x2="223.800000" y2="136.000000"  style="stroke:black; stroke-linecap:round; stroke-width:0.25;"/>
<line x1="223.800000" y1="136.000000" x2="233.800000" y2="136.000000"  style="stroke:black; stroke-linecap:round; stroke-width:0.25;"/>
<line x1="233.800000" y1="36.000000" x2="241.800000" y2="36.000000"  style="stroke:black; stroke-linecap:round; stroke-width:0.25;"/>
<line x1="233.800000" y1="124.000000" x2="241.800000" y2="124.000000"  style="stroke:black; stroke-linecap:round; stroke-width:0.25;"/>
<line x1="233.800000" y1="136.000000" x2="233.800000" y2="124.000000"  style="stroke:black; stroke-linecap:round; stroke-width:0.25;"/>
<line x1="233.800000" y1="136.000000" x2="233.800000" y2="136.000000"  style="stroke:black; stroke-linecap:round; stroke-width:0.25;"/>
<line x1="241.800000" y1="36.000000" x2="241.800000" y2="116.000000"  style="stroke:black; stroke-linecap:round; stroke-width:0.25;"/>
<line x1="241.800000" y1="116.000000" x2="241.800000" y2="116.000000"  style="stroke:black; stroke-linecap:round; stroke-width:0.25;"/>
<line x1="241.800000" y1="116.000000" x2="245.800000" y2="116.000000"  style="stroke:black; stroke-linecap:round; stroke-width:0.25;"/>
<line x1="241.800000" y1="124.000000" x2="245.800000" y2="124.000000"  style="stroke:black; stroke-linecap:round; stroke-width:0.25;"/>
<line x1="269.800000" y1="120.000000" x2="273.800000" y2="120.000000"  style="stroke:black; stroke-linecap:round; stroke-width:0.25;"/>
<line x1="273.800000" y1="120.000000" x2="273.800000" y2="120.000000"  style="stroke:black; stroke-linecap:round; stroke-width:0.25;"/>
<line x1="273.800000" y1="120.000000" x2="277.800000" y2="120.000000"  style="stroke:black; stroke-linecap:round; stroke-width:0.25;"/>
<line x1="277.800000" y1="120.000000" x2="281.800000" y2="120.000000"  style="stroke:black; stroke-linecap:round; stroke-width:0.25;"/>
<line x1="281.800000" y1="120.000000" x2="291.800000" y2="120.000000"  style="stroke:black; stroke-linecap:round; stroke-width:0.25;"/>
</svg>
