<?xml version="1.0"?>
<svg xmlns="http://www.w3.org/2000/svg" xmlns:xlink="http://www.w3.org/1999/xlink" viewBox="0 0 340.500000 240.000000" width="170.250000mm" height="120.000000mm" version="1.1">
<a xlink:href="signal-0x7fb01d392100.svg">
<rect x="1.000000" y="1.000000" width="339.500000" height="239.000000" rx="0" ry="0" style="stroke:none;fill:#cccccc;"/>
<rect x="0.000000" y="0.000000" width="339.500000" height="239.000000" rx="0" ry="0" style="stroke:none;fill:#ffffff;"/>
</a>
<text x="10.000000" y="7.000000" font-family="Arial" font-size="7"></text>
<rect x="33.000000" y="109.000000" width="24.000000" height="24.000000" rx="0" ry="0" style="stroke:none;fill:#cccccc;"/>
<rect x="32.000000" y="108.000000" width="24.000000" height="24.000000" rx="0" ry="0" style="stroke:none;fill:#47945E;"/>
<text x="44.000000" y="122.000000" font-family="Arial" font-size="7" text-anchor="middle" fill="#FFFFFF">x</text>
<circle cx="34.000000" cy="110.000000" r="1"/>
<line x1="29.000000" y1="119.000000" x2="32.000000" y2="120.000000"  transform="rotate(0.000000,32.000000,120.000000)" style="stroke: black; stroke-width:0.25;"/>
<line x1="29.000000" y1="121.000000" x2="32.000000" y2="120.000000"  transform="rotate(0.000000,32.000000,120.000000)" style="stroke: black; stroke-width:0.25;"/>
<rect x="155.250000" y="25.000000" width="24.000000" height="24.000000" rx="0" ry="0" style="stroke:none;fill:#cccccc;"/>
<rect x="154.250000" y="24.000000" width="24.000000" height="24.000000" rx="0" ry="0" style="stroke:none;fill:#47945E;"/>
<text x="166.250000" y="38.000000" font-family="Arial" font-size="7" text-anchor="middle" fill="#FFFFFF">x</text>
<circle cx="156.250000" cy="26.000000" r="1"/>
<rect x="124.350000" y="67.000000" width="25.800000" height="24.000000" rx="0" ry="0" style="stroke:none;fill:#cccccc;"/>
<rect x="123.350000" y="66.000000" width="25.800000" height="24.000000" rx="0" ry="0" style="stroke:none;fill:#f44800;"/>
<text x="136.250000" y="80.000000" font-family="Arial" font-size="7" text-anchor="middle" fill="#FFFFFF">65536</text>
<circle cx="125.350000" cy="68.000000" r="1"/>
<line x1="114.350000" y1="57.000000" x2="114.350000" y2="99.000000"  style="stroke: black; stroke-linecap:round; stroke-width:0.25; stroke-dasharray:3,3;"/>
<line x1="114.350000" y1="99.000000" x2="158.150000" y2="99.000000"  style="stroke: black; stroke-linecap:round; stroke-width:0.25; stroke-dasharray:3,3;"/>
<line x1="158.150000" y1="99.000000" x2="158.150000" y2="57.000000"  style="stroke: black; stroke-linecap:round; stroke-width:0.25; stroke-dasharray:3,3;"/>
<line x1="114.350000" y1="57.000000" x2="119.350000" y2="57.000000"  style="stroke: black; stroke-linecap:round; stroke-width:0.25; stroke-dasharray:3,3;"/>
<line x1="154.825000" y1="57.000000" x2="158.150000" y2="57.000000"  style="stroke: black; stroke-linecap:round; stroke-width:0.25; stroke-dasharray:3,3;"/>
<text x="119.350000" y="59.000000" font-family="Arial" font-size="7">tablesize</text>
<rect x="105.250000" y="119.000000" width="24.000000" height="24.000000" rx="0" ry="0" style="stroke:none;fill:#cccccc;"/>
<rect x="104.250000" y="118.000000" width="24.000000" height="24.000000" rx="0" ry="0" style="stroke:none;fill:#f44800;"/>
<text x="116.250000" y="132.000000" font-family="Arial" font-size="7" text-anchor="middle" fill="#FFFFFF">0</text>
<circle cx="106.250000" cy="120.000000" r="1"/>
<line x1="95.250000" y1="109.000000" x2="95.250000" y2="151.000000"  style="stroke: black; stroke-linecap:round; stroke-width:0.25; stroke-dasharray:3,3;"/>
<line x1="95.250000" y1="151.000000" x2="137.250000" y2="151.000000"  style="stroke: black; stroke-linecap:round; stroke-width:0.25; stroke-dasharray:3,3;"/>
<line x1="137.250000" y1="151.000000" x2="137.250000" y2="109.000000"  style="stroke: black; stroke-linecap:round; stroke-width:0.25; stroke-dasharray:3,3;"/>
<line x1="95.250000" y1="109.000000" x2="100.250000" y2="109.000000"  style="stroke: black; stroke-linecap:round; stroke-width:0.25; stroke-dasharray:3,3;"/>
<line x1="132.500000" y1="109.000000" x2="137.250000" y2="109.000000"  style="stroke: black; stroke-linecap:round; stroke-width:0.25; stroke-dasharray:3,3;"/>
<text x="100.250000" y="111.000000" font-family="Arial" font-size="7">xVals(0)</text>
<rect x="84.350000" y="161.000000" width="25.800000" height="24.000000" rx="0" ry="0" style="stroke:none;fill:#cccccc;"/>
<rect x="83.350000" y="160.000000" width="25.800000" height="24.000000" rx="0" ry="0" style="stroke:none;fill:#f44800;"/>
<text x="96.250000" y="174.000000" font-family="Arial" font-size="7" text-anchor="middle" fill="#FFFFFF">0.05</text>
<circle cx="85.350000" cy="162.000000" r="1"/>
<a xlink:href="sec2samp-0x7fb01cf80bf0.svg">
<rect x="65.000000" y="193.000000" width="64.500000" height="24.000000" rx="0" ry="0" style="stroke:none;fill:#cccccc;"/>
<rect x="64.000000" y="192.000000" width="64.500000" height="24.000000" rx="0" ry="0" style="stroke:none;fill:#003366;"/>
</a>
<a xlink:href="sec2samp-0x7fb01cf80bf0.svg">
<text x="96.250000" y="206.000000" font-family="Arial" font-size="7" text-anchor="middle" fill="#FFFFFF">sec2samp(x43)</text>
</a>
<circle cx="66.000000" cy="194.000000" r="1"/>
<rect x="145.500000" y="177.000000" width="24.000000" height="24.000000" rx="0" ry="0" style="stroke:none;fill:#cccccc;"/>
<rect x="144.500000" y="176.000000" width="24.000000" height="24.000000" rx="0" ry="0" style="stroke:none;fill:#4B71A1;"/>
<text x="156.500000" y="190.000000" font-family="Arial" font-size="7" text-anchor="middle" fill="#FFFFFF">*</text>
<circle cx="146.500000" cy="178.000000" r="1"/>
<line x1="141.500000" y1="183.000000" x2="144.500000" y2="184.000000"  transform="rotate(0.000000,144.500000,184.000000)" style="stroke: black; stroke-width:0.25;"/>
<line x1="141.500000" y1="185.000000" x2="144.500000" y2="184.000000"  transform="rotate(0.000000,144.500000,184.000000)" style="stroke: black; stroke-width:0.25;"/>
<line x1="141.500000" y1="191.000000" x2="144.500000" y2="192.000000"  transform="rotate(0.000000,144.500000,192.000000)" style="stroke: black; stroke-width:0.25;"/>
<line x1="141.500000" y1="193.000000" x2="144.500000" y2="192.000000"  transform="rotate(0.000000,144.500000,192.000000)" style="stroke: black; stroke-width:0.25;"/>
<rect x="185.500000" y="151.000000" width="24.000000" height="24.000000" rx="0" ry="0" style="stroke:none;fill:#cccccc;"/>
<rect x="184.500000" y="150.000000" width="24.000000" height="24.000000" rx="0" ry="0" style="stroke:none;fill:#4B71A1;"/>
<text x="196.500000" y="164.000000" font-family="Arial" font-size="7" text-anchor="middle" fill="#FFFFFF">max</text>
<circle cx="186.500000" cy="152.000000" r="1"/>
<line x1="181.500000" y1="157.000000" x2="184.500000" y2="158.000000"  transform="rotate(0.000000,184.500000,158.000000)" style="stroke: black; stroke-width:0.25;"/>
<line x1="181.500000" y1="159.000000" x2="184.500000" y2="158.000000"  transform="rotate(0.000000,184.500000,158.000000)" style="stroke: black; stroke-width:0.25;"/>
<line x1="181.500000" y1="165.000000" x2="184.500000" y2="166.000000"  transform="rotate(0.000000,184.500000,166.000000)" style="stroke: black; stroke-width:0.25;"/>
<line x1="181.500000" y1="167.000000" x2="184.500000" y2="166.000000"  transform="rotate(0.000000,184.500000,166.000000)" style="stroke: black; stroke-width:0.25;"/>
<rect x="235.500000" y="125.000000" width="24.000000" height="24.000000" rx="0" ry="0" style="stroke:none;fill:#cccccc;"/>
<rect x="234.500000" y="124.000000" width="24.000000" height="24.000000" rx="0" ry="0" style="stroke:none;fill:#4B71A1;"/>
<text x="246.500000" y="138.000000" font-family="Arial" font-size="7" text-anchor="middle" fill="#FFFFFF">min</text>
<circle cx="236.500000" cy="126.000000" r="1"/>
<line x1="231.500000" y1="131.000000" x2="234.500000" y2="132.000000"  transform="rotate(0.000000,234.500000,132.000000)" style="stroke: black; stroke-width:0.25;"/>
<line x1="231.500000" y1="133.000000" x2="234.500000" y2="132.000000"  transform="rotate(0.000000,234.500000,132.000000)" style="stroke: black; stroke-width:0.25;"/>
<line x1="231.500000" y1="139.000000" x2="234.500000" y2="140.000000"  transform="rotate(0.000000,234.500000,140.000000)" style="stroke: black; stroke-width:0.25;"/>
<line x1="231.500000" y1="141.000000" x2="234.500000" y2="140.000000"  transform="rotate(0.000000,234.500000,140.000000)" style="stroke: black; stroke-width:0.25;"/>
<line x1="225.500000" y1="115.000000" x2="225.500000" y2="157.000000"  style="stroke: black; stroke-linecap:round; stroke-width:0.25; stroke-dasharray:3,3;"/>
<line x1="225.500000" y1="157.000000" x2="267.500000" y2="157.000000"  style="stroke: black; stroke-linecap:round; stroke-width:0.25; stroke-dasharray:3,3;"/>
<line x1="267.500000" y1="157.000000" x2="267.500000" y2="115.000000"  style="stroke: black; stroke-linecap:round; stroke-width:0.25; stroke-dasharray:3,3;"/>
<line x1="225.500000" y1="115.000000" x2="230.500000" y2="115.000000"  style="stroke: black; stroke-linecap:round; stroke-width:0.25; stroke-dasharray:3,3;"/>
<line x1="249.850000" y1="115.000000" x2="267.500000" y2="115.000000"  style="stroke: black; stroke-linecap:round; stroke-width:0.25; stroke-dasharray:3,3;"/>
<text x="230.500000" y="117.000000" font-family="Arial" font-size="7">fmin</text>
<rect x="285.500000" y="109.000000" width="24.000000" height="24.000000" rx="0" ry="0" style="stroke:none;fill:#cccccc;"/>
<rect x="284.500000" y="108.000000" width="24.000000" height="24.000000" rx="0" ry="0" style="stroke:none;fill:#4B71A1;"/>
<text x="296.500000" y="122.000000" font-family="Arial" font-size="7" text-anchor="middle" fill="#FFFFFF">@</text>
<circle cx="286.500000" cy="110.000000" r="1"/>
<line x1="281.500000" y1="115.000000" x2="284.500000" y2="116.000000"  transform="rotate(0.000000,284.500000,116.000000)" style="stroke: black; stroke-width:0.25;"/>
<line x1="281.500000" y1="117.000000" x2="284.500000" y2="116.000000"  transform="rotate(0.000000,284.500000,116.000000)" style="stroke: black; stroke-width:0.25;"/>
<line x1="281.500000" y1="123.000000" x2="284.500000" y2="124.000000"  transform="rotate(0.000000,284.500000,124.000000)" style="stroke: black; stroke-width:0.25;"/>
<line x1="281.500000" y1="125.000000" x2="284.500000" y2="124.000000"  transform="rotate(0.000000,284.500000,124.000000)" style="stroke: black; stroke-width:0.25;"/>
<line x1="15.000000" y1="15.000000" x2="15.000000" y2="225.000000"  style="stroke: black; stroke-linecap:round; stroke-width:0.25; stroke-dasharray:3,3;"/>
<line x1="15.000000" y1="225.000000" x2="325.500000" y2="225.000000"  style="stroke: black; stroke-linecap:round; stroke-width:0.25; stroke-dasharray:3,3;"/>
<line x1="325.500000" y1="225.000000" x2="325.500000" y2="15.000000"  style="stroke: black; stroke-linecap:round; stroke-width:0.25; stroke-dasharray:3,3;"/>
<line x1="15.000000" y1="15.000000" x2="20.000000" y2="15.000000"  style="stroke: black; stroke-linecap:round; stroke-width:0.25; stroke-dasharray:3,3;"/>
<line x1="119.975000" y1="15.000000" x2="325.500000" y2="15.000000"  style="stroke: black; stroke-linecap:round; stroke-width:0.25; stroke-dasharray:3,3;"/>
<text x="20.000000" y="17.000000" font-family="Arial" font-size="7">delay(65536)(...in) : *) : *)</text>
<line x1="327.500000" y1="119.000000" x2="330.500000" y2="120.000000"  transform="rotate(0.000000,330.500000,120.000000)" style="stroke: black; stroke-width:0.25;"/>
<line x1="327.500000" y1="121.000000" x2="330.500000" y2="120.000000"  transform="rotate(0.000000,330.500000,120.000000)" style="stroke: black; stroke-width:0.25;"/>
<line x1="10.000000" y1="120.000000" x2="20.000000" y2="120.000000"  style="stroke:black; stroke-linecap:round; stroke-width:0.25;"/>
<line x1="20.000000" y1="120.000000" x2="24.000000" y2="120.000000"  style="stroke:black; stroke-linecap:round; stroke-width:0.25;"/>
<line x1="24.000000" y1="120.000000" x2="28.000000" y2="120.000000"  style="stroke:black; stroke-linecap:round; stroke-width:0.25;"/>
<line x1="28.000000" y1="120.000000" x2="28.000000" y2="120.000000"  style="stroke:black; stroke-linecap:round; stroke-width:0.25;"/>
<line x1="28.000000" y1="120.000000" x2="32.000000" y2="120.000000"  style="stroke:black; stroke-linecap:round; stroke-width:0.25;"/>
<line x1="109.150000" y1="172.000000" x2="113.150000" y2="172.000000"  style="stroke:black; stroke-linecap:round; stroke-width:0.25;"/>
<line x1="113.150000" y1="172.000000" x2="132.500000" y2="172.000000"  style="stroke:black; stroke-linecap:round; stroke-width:0.25;"/>
<line x1="128.250000" y1="130.000000" x2="132.250000" y2="130.000000"  style="stroke:black; stroke-linecap:round; stroke-width:0.25;"/>
<line x1="128.500000" y1="204.000000" x2="132.500000" y2="204.000000"  style="stroke:black; stroke-linecap:round; stroke-width:0.25;"/>
<line x1="132.250000" y1="130.000000" x2="142.250000" y2="130.000000"  style="stroke:black; stroke-linecap:round; stroke-width:0.25;"/>
<line x1="132.500000" y1="172.000000" x2="140.500000" y2="172.000000"  style="stroke:black; stroke-linecap:round; stroke-width:0.25;"/>
<line x1="132.500000" y1="192.000000" x2="140.500000" y2="192.000000"  style="stroke:black; stroke-linecap:round; stroke-width:0.25;"/>
<line x1="132.500000" y1="204.000000" x2="132.500000" y2="192.000000"  style="stroke:black; stroke-linecap:round; stroke-width:0.25;"/>
<line x1="132.500000" y1="204.000000" x2="132.500000" y2="204.000000"  style="stroke:black; stroke-linecap:round; stroke-width:0.25;"/>
<line x1="140.500000" y1="172.000000" x2="140.500000" y2="184.000000"  style="stroke:black; stroke-linecap:round; stroke-width:0.25;"/>
<line x1="140.500000" y1="184.000000" x2="140.500000" y2="184.000000"  style="stroke:black; stroke-linecap:round; stroke-width:0.25;"/>
<line x1="140.500000" y1="184.000000" x2="144.500000" y2="184.000000"  style="stroke:black; stroke-linecap:round; stroke-width:0.25;"/>
<line x1="140.500000" y1="192.000000" x2="144.500000" y2="192.000000"  style="stroke:black; stroke-linecap:round; stroke-width:0.25;"/>
<line x1="142.250000" y1="130.000000" x2="172.500000" y2="130.000000"  style="stroke:black; stroke-linecap:round; stroke-width:0.25;"/>
<line x1="149.150000" y1="78.000000" x2="153.150000" y2="78.000000"  style="stroke:black; stroke-linecap:round; stroke-width:0.25;"/>
<line x1="153.150000" y1="78.000000" x2="163.150000" y2="78.000000"  style="stroke:black; stroke-linecap:round; stroke-width:0.25;"/>
<line x1="163.150000" y1="78.000000" x2="212.500000" y2="78.000000"  style="stroke:black; stroke-linecap:round; stroke-width:0.25;"/>
<line x1="168.500000" y1="188.000000" x2="172.500000" y2="188.000000"  style="stroke:black; stroke-linecap:round; stroke-width:0.25;"/>
<line x1="172.500000" y1="130.000000" x2="180.500000" y2="130.000000"  style="stroke:black; stroke-linecap:round; stroke-width:0.25;"/>
<line x1="172.500000" y1="166.000000" x2="180.500000" y2="166.000000"  style="stroke:black; stroke-linecap:round; stroke-width:0.25;"/>
<line x1="172.500000" y1="188.000000" x2="172.500000" y2="166.000000"  style="stroke:black; stroke-linecap:round; stroke-width:0.25;"/>
<line x1="172.500000" y1="188.000000" x2="172.500000" y2="188.000000"  style="stroke:black; stroke-linecap:round; stroke-width:0.25;"/>
<line x1="178.250000" y1="36.000000" x2="182.250000" y2="36.000000"  style="stroke:black; stroke-linecap:round; stroke-width:0.25;"/>
<line x1="180.500000" y1="130.000000" x2="180.500000" y2="158.000000"  style="stroke:black; stroke-linecap:round; stroke-width:0.25;"/>
<line x1="180.500000" y1="158.000000" x2="180.500000" y2="158.000000"  style="stroke:black; stroke-linecap:round; stroke-width:0.25;"/>
<line x1="180.500000" y1="158.000000" x2="184.500000" y2="158.000000"  style="stroke:black; stroke-linecap:round; stroke-width:0.25;"/>
<line x1="180.500000" y1="166.000000" x2="184.500000" y2="166.000000"  style="stroke:black; stroke-linecap:round; stroke-width:0.25;"/>
<line x1="182.250000" y1="36.000000" x2="272.500000" y2="36.000000"  style="stroke:black; stroke-linecap:round; stroke-width:0.25;"/>
<line x1="208.500000" y1="162.000000" x2="212.500000" y2="162.000000"  style="stroke:black; stroke-linecap:round; stroke-width:0.25;"/>
<line x1="212.500000" y1="78.000000" x2="220.500000" y2="78.000000"  style="stroke:black; stroke-linecap:round; stroke-width:0.25;"/>
<line x1="212.500000" y1="140.000000" x2="220.500000" y2="140.000000"  style="stroke:black; stroke-linecap:round; stroke-width:0.25;"/>
<line x1="212.500000" y1="162.000000" x2="212.500000" y2="140.000000"  style="stroke:black; stroke-linecap:round; stroke-width:0.25;"/>
<line x1="212.500000" y1="162.000000" x2="212.500000" y2="162.000000"  style="stroke:black; stroke-linecap:round; stroke-width:0.25;"/>
<line x1="220.500000" y1="78.000000" x2="220.500000" y2="132.000000"  style="stroke:black; stroke-linecap:round; stroke-width:0.25;"/>
<line x1="220.500000" y1="132.000000" x2="220.500000" y2="132.000000"  style="stroke:black; stroke-linecap:round; stroke-width:0.25;"/>
<line x1="220.500000" y1="132.000000" x2="230.500000" y2="132.000000"  style="stroke:black; stroke-linecap:round; stroke-width:0.25;"/>
<line x1="220.500000" y1="140.000000" x2="230.500000" y2="140.000000"  style="stroke:black; stroke-linecap:round; stroke-width:0.25;"/>
<line x1="230.500000" y1="132.000000" x2="234.500000" y2="132.000000"  style="stroke:black; stroke-linecap:round; stroke-width:0.25;"/>
<line x1="230.500000" y1="140.000000" x2="234.500000" y2="140.000000"  style="stroke:black; stroke-linecap:round; stroke-width:0.25;"/>
<line x1="258.500000" y1="136.000000" x2="262.500000" y2="136.000000"  style="stroke:black; stroke-linecap:round; stroke-width:0.25;"/>
<line x1="262.500000" y1="136.000000" x2="272.500000" y2="136.000000"  style="stroke:black; stroke-linecap:round; stroke-width:0.25;"/>
<line x1="272.500000" y1="36.000000" x2="280.500000" y2="36.000000"  style="stroke:black; stroke-linecap:round; stroke-width:0.25;"/>
<line x1="272.500000" y1="124.000000" x2="280.500000" y2="124.000000"  style="stroke:black; stroke-linecap:round; stroke-width:0.25;"/>
<line x1="272.500000" y1="136.000000" x2="272.500000" y2="124.000000"  style="stroke:black; stroke-linecap:round; stroke-width:0.25;"/>
<line x1="272.500000" y1="136.000000" x2="272.500000" y2="136.000000"  style="stroke:black; stroke-linecap:round; stroke-width:0.25;"/>
<line x1="280.500000" y1="36.000000" x2="280.500000" y2="116.000000"  style="stroke:black; stroke-linecap:round; stroke-width:0.25;"/>
<line x1="280.500000" y1="116.000000" x2="280.500000" y2="116.000000"  style="stroke:black; stroke-linecap:round; stroke-width:0.25;"/>
<line x1="280.500000" y1="116.000000" x2="284.500000" y2="116.000000"  style="stroke:black; stroke-linecap:round; stroke-width:0.25;"/>
<line x1="280.500000" y1="124.000000" x2="284.500000" y2="124.000000"  style="stroke:black; stroke-linecap:round; stroke-width:0.25;"/>
<line x1="308.500000" y1="120.000000" x2="312.500000" y2="120.000000"  style="stroke:black; stroke-linecap:round; stroke-width:0.25;"/>
<line x1="312.500000" y1="120.000000" x2="312.500000" y2="120.000000"  style="stroke:black; stroke-linecap:round; stroke-width:0.25;"/>
<line x1="312.500000" y1="120.000000" x2="316.500000" y2="120.000000"  style="stroke:black; stroke-linecap:round; stroke-width:0.25;"/>
<line x1="316.500000" y1="120.000000" x2="320.500000" y2="120.000000"  style="stroke:black; stroke-linecap:round; stroke-width:0.25;"/>
<line x1="320.500000" y1="120.000000" x2="330.500000" y2="120.000000"  style="stroke:black; stroke-linecap:round; stroke-width:0.25;"/>
</svg>
