<?xml version="1.0"?>
<svg xmlns="http://www.w3.org/2000/svg" xmlns:xlink="http://www.w3.org/1999/xlink" viewBox="0 0 217.000000 296.000000" width="108.500000mm" height="148.000000mm" version="1.1">
<a xlink:href="granular-0x7f0cfb168680.svg">
<rect x="1.000000" y="1.000000" width="216.000000" height="295.000000" rx="0" ry="0" style="stroke:none;fill:#cccccc;"/>
<rect x="0.000000" y="0.000000" width="216.000000" height="295.000000" rx="0" ry="0" style="stroke:none;fill:#ffffff;"/>
</a>
<text x="10.000000" y="7.000000" font-family="Arial" font-size="7"></text>
<a xlink:href="grain-0x7f0cfb1645a0.svg">
<rect x="25.000000" y="25.000000" width="129.000000" height="24.000000" rx="0" ry="0" style="stroke:none;fill:#cccccc;"/>
<rect x="24.000000" y="24.000000" width="129.000000" height="24.000000" rx="0" ry="0" style="stroke:none;fill:#003366;"/>
</a>
<a xlink:href="grain-0x7f0cfb1645a0.svg">
<text x="88.500000" y="38.000000" font-family="Arial" font-size="7" text-anchor="middle" fill="#FFFFFF">grain(0)(3)(x...table),8 : /)</text>
</a>
<circle cx="26.000000" cy="26.000000" r="1"/>
<a xlink:href="grain-0x7f0cfb164da0.svg">
<rect x="25.000000" y="57.000000" width="129.000000" height="24.000000" rx="0" ry="0" style="stroke:none;fill:#cccccc;"/>
<rect x="24.000000" y="56.000000" width="129.000000" height="24.000000" rx="0" ry="0" style="stroke:none;fill:#003366;"/>
</a>
<a xlink:href="grain-0x7f0cfb164da0.svg">
<text x="88.500000" y="70.000000" font-family="Arial" font-size="7" text-anchor="middle" fill="#FFFFFF">grain(1)(3)(x...table),8 : /)</text>
</a>
<circle cx="26.000000" cy="58.000000" r="1"/>
<a xlink:href="grain-0x7f0cfb1655a0.svg">
<rect x="25.000000" y="89.000000" width="129.000000" height="24.000000" rx="0" ry="0" style="stroke:none;fill:#cccccc;"/>
<rect x="24.000000" y="88.000000" width="129.000000" height="24.000000" rx="0" ry="0" style="stroke:none;fill:#003366;"/>
</a>
<a xlink:href="grain-0x7f0cfb1655a0.svg">
<text x="88.500000" y="102.000000" font-family="Arial" font-size="7" text-anchor="middle" fill="#FFFFFF">grain(2)(3)(x...table),8 : /)</text>
</a>
<circle cx="26.000000" cy="90.000000" r="1"/>
<a xlink:href="grain-0x7f0cfb165da0.svg">
<rect x="25.000000" y="121.000000" width="129.000000" height="24.000000" rx="0" ry="0" style="stroke:none;fill:#cccccc;"/>
<rect x="24.000000" y="120.000000" width="129.000000" height="24.000000" rx="0" ry="0" style="stroke:none;fill:#003366;"/>
</a>
<a xlink:href="grain-0x7f0cfb165da0.svg">
<text x="88.500000" y="134.000000" font-family="Arial" font-size="7" text-anchor="middle" fill="#FFFFFF">grain(3)(3)(x...table),8 : /)</text>
</a>
<circle cx="26.000000" cy="122.000000" r="1"/>
<a xlink:href="grain-0x7f0cfb1665a0.svg">
<rect x="25.000000" y="153.000000" width="129.000000" height="24.000000" rx="0" ry="0" style="stroke:none;fill:#cccccc;"/>
<rect x="24.000000" y="152.000000" width="129.000000" height="24.000000" rx="0" ry="0" style="stroke:none;fill:#003366;"/>
</a>
<a xlink:href="grain-0x7f0cfb1665a0.svg">
<text x="88.500000" y="166.000000" font-family="Arial" font-size="7" text-anchor="middle" fill="#FFFFFF">grain(4)(3)(x...table),8 : /)</text>
</a>
<circle cx="26.000000" cy="154.000000" r="1"/>
<a xlink:href="grain-0x7f0cfb166da0.svg">
<rect x="25.000000" y="185.000000" width="129.000000" height="24.000000" rx="0" ry="0" style="stroke:none;fill:#cccccc;"/>
<rect x="24.000000" y="184.000000" width="129.000000" height="24.000000" rx="0" ry="0" style="stroke:none;fill:#003366;"/>
</a>
<a xlink:href="grain-0x7f0cfb166da0.svg">
<text x="88.500000" y="198.000000" font-family="Arial" font-size="7" text-anchor="middle" fill="#FFFFFF">grain(5)(3)(x...table),8 : /)</text>
</a>
<circle cx="26.000000" cy="186.000000" r="1"/>
<a xlink:href="grain-0x7f0cfb1675a0.svg">
<rect x="25.000000" y="217.000000" width="129.000000" height="24.000000" rx="0" ry="0" style="stroke:none;fill:#cccccc;"/>
<rect x="24.000000" y="216.000000" width="129.000000" height="24.000000" rx="0" ry="0" style="stroke:none;fill:#003366;"/>
</a>
<a xlink:href="grain-0x7f0cfb1675a0.svg">
<text x="88.500000" y="230.000000" font-family="Arial" font-size="7" text-anchor="middle" fill="#FFFFFF">grain(6)(3)(x...table),8 : /)</text>
</a>
<circle cx="26.000000" cy="218.000000" r="1"/>
<a xlink:href="grain-0x7f0cfb167d80.svg">
<rect x="25.000000" y="249.000000" width="129.000000" height="24.000000" rx="0" ry="0" style="stroke:none;fill:#cccccc;"/>
<rect x="24.000000" y="248.000000" width="129.000000" height="24.000000" rx="0" ry="0" style="stroke:none;fill:#003366;"/>
</a>
<a xlink:href="grain-0x7f0cfb167d80.svg">
<text x="88.500000" y="262.000000" font-family="Arial" font-size="7" text-anchor="middle" fill="#FFFFFF">grain(7)(3)(x...table),8 : /)</text>
</a>
<circle cx="26.000000" cy="250.000000" r="1"/>
<line x1="15.000000" y1="15.000000" x2="15.000000" y2="281.000000"  style="stroke: black; stroke-linecap:round; stroke-width:0.25; stroke-dasharray:3,3;"/>
<line x1="15.000000" y1="281.000000" x2="202.000000" y2="281.000000"  style="stroke: black; stroke-linecap:round; stroke-width:0.25; stroke-dasharray:3,3;"/>
<line x1="202.000000" y1="281.000000" x2="202.000000" y2="15.000000"  style="stroke: black; stroke-linecap:round; stroke-width:0.25; stroke-dasharray:3,3;"/>
<line x1="15.000000" y1="15.000000" x2="20.000000" y2="15.000000"  style="stroke: black; stroke-linecap:round; stroke-width:0.25; stroke-dasharray:3,3;"/>
<line x1="119.975000" y1="15.000000" x2="202.000000" y2="15.000000"  style="stroke: black; stroke-linecap:round; stroke-width:0.25; stroke-dasharray:3,3;"/>
<text x="20.000000" y="17.000000" font-family="Arial" font-size="7">grainN(8)(x78...t) : rdtable)</text>
<line x1="204.000000" y1="119.000000" x2="207.000000" y2="120.000000"  transform="rotate(0.000000,207.000000,120.000000)" style="stroke: black; stroke-width:0.25;"/>
<line x1="204.000000" y1="121.000000" x2="207.000000" y2="120.000000"  transform="rotate(0.000000,207.000000,120.000000)" style="stroke: black; stroke-width:0.25;"/>
<line x1="204.000000" y1="127.000000" x2="207.000000" y2="128.000000"  transform="rotate(0.000000,207.000000,128.000000)" style="stroke: black; stroke-width:0.25;"/>
<line x1="204.000000" y1="129.000000" x2="207.000000" y2="128.000000"  transform="rotate(0.000000,207.000000,128.000000)" style="stroke: black; stroke-width:0.25;"/>
<line x1="204.000000" y1="135.000000" x2="207.000000" y2="136.000000"  transform="rotate(0.000000,207.000000,136.000000)" style="stroke: black; stroke-width:0.25;"/>
<line x1="204.000000" y1="137.000000" x2="207.000000" y2="136.000000"  transform="rotate(0.000000,207.000000,136.000000)" style="stroke: black; stroke-width:0.25;"/>
<line x1="204.000000" y1="143.000000" x2="207.000000" y2="144.000000"  transform="rotate(0.000000,207.000000,144.000000)" style="stroke: black; stroke-width:0.25;"/>
<line x1="204.000000" y1="145.000000" x2="207.000000" y2="144.000000"  transform="rotate(0.000000,207.000000,144.000000)" style="stroke: black; stroke-width:0.25;"/>
<line x1="204.000000" y1="151.000000" x2="207.000000" y2="152.000000"  transform="rotate(0.000000,207.000000,152.000000)" style="stroke: black; stroke-width:0.25;"/>
<line x1="204.000000" y1="153.000000" x2="207.000000" y2="152.000000"  transform="rotate(0.000000,207.000000,152.000000)" style="stroke: black; stroke-width:0.25;"/>
<line x1="204.000000" y1="159.000000" x2="207.000000" y2="160.000000"  transform="rotate(0.000000,207.000000,160.000000)" style="stroke: black; stroke-width:0.25;"/>
<line x1="204.000000" y1="161.000000" x2="207.000000" y2="160.000000"  transform="rotate(0.000000,207.000000,160.000000)" style="stroke: black; stroke-width:0.25;"/>
<line x1="204.000000" y1="167.000000" x2="207.000000" y2="168.000000"  transform="rotate(0.000000,207.000000,168.000000)" style="stroke: black; stroke-width:0.25;"/>
<line x1="204.000000" y1="169.000000" x2="207.000000" y2="168.000000"  transform="rotate(0.000000,207.000000,168.000000)" style="stroke: black; stroke-width:0.25;"/>
<line x1="204.000000" y1="175.000000" x2="207.000000" y2="176.000000"  transform="rotate(0.000000,207.000000,176.000000)" style="stroke: black; stroke-width:0.25;"/>
<line x1="204.000000" y1="177.000000" x2="207.000000" y2="176.000000"  transform="rotate(0.000000,207.000000,176.000000)" style="stroke: black; stroke-width:0.25;"/>
<line x1="153.000000" y1="36.000000" x2="157.000000" y2="36.000000"  style="stroke:black; stroke-linecap:round; stroke-width:0.25;"/>
<line x1="153.000000" y1="68.000000" x2="157.000000" y2="68.000000"  style="stroke:black; stroke-linecap:round; stroke-width:0.25;"/>
<line x1="153.000000" y1="100.000000" x2="157.000000" y2="100.000000"  style="stroke:black; stroke-linecap:round; stroke-width:0.25;"/>
<line x1="153.000000" y1="132.000000" x2="157.000000" y2="132.000000"  style="stroke:black; stroke-linecap:round; stroke-width:0.25;"/>
<line x1="153.000000" y1="164.000000" x2="157.000000" y2="164.000000"  style="stroke:black; stroke-linecap:round; stroke-width:0.25;"/>
<line x1="153.000000" y1="196.000000" x2="157.000000" y2="196.000000"  style="stroke:black; stroke-linecap:round; stroke-width:0.25;"/>
<line x1="153.000000" y1="228.000000" x2="157.000000" y2="228.000000"  style="stroke:black; stroke-linecap:round; stroke-width:0.25;"/>
<line x1="153.000000" y1="260.000000" x2="157.000000" y2="260.000000"  style="stroke:black; stroke-linecap:round; stroke-width:0.25;"/>
<line x1="157.000000" y1="36.000000" x2="189.000000" y2="36.000000"  style="stroke:black; stroke-linecap:round; stroke-width:0.25;"/>
<line x1="157.000000" y1="68.000000" x2="181.000000" y2="68.000000"  style="stroke:black; stroke-linecap:round; stroke-width:0.25;"/>
<line x1="157.000000" y1="100.000000" x2="173.000000" y2="100.000000"  style="stroke:black; stroke-linecap:round; stroke-width:0.25;"/>
<line x1="157.000000" y1="132.000000" x2="165.000000" y2="132.000000"  style="stroke:black; stroke-linecap:round; stroke-width:0.25;"/>
<line x1="157.000000" y1="152.000000" x2="189.000000" y2="152.000000"  style="stroke:black; stroke-linecap:round; stroke-width:0.25;"/>
<line x1="157.000000" y1="164.000000" x2="157.000000" y2="152.000000"  style="stroke:black; stroke-linecap:round; stroke-width:0.25;"/>
<line x1="157.000000" y1="164.000000" x2="157.000000" y2="164.000000"  style="stroke:black; stroke-linecap:round; stroke-width:0.25;"/>
<line x1="157.000000" y1="196.000000" x2="165.000000" y2="196.000000"  style="stroke:black; stroke-linecap:round; stroke-width:0.25;"/>
<line x1="157.000000" y1="228.000000" x2="173.000000" y2="228.000000"  style="stroke:black; stroke-linecap:round; stroke-width:0.25;"/>
<line x1="157.000000" y1="260.000000" x2="181.000000" y2="260.000000"  style="stroke:black; stroke-linecap:round; stroke-width:0.25;"/>
<line x1="165.000000" y1="132.000000" x2="165.000000" y2="144.000000"  style="stroke:black; stroke-linecap:round; stroke-width:0.25;"/>
<line x1="165.000000" y1="144.000000" x2="189.000000" y2="144.000000"  style="stroke:black; stroke-linecap:round; stroke-width:0.25;"/>
<line x1="165.000000" y1="160.000000" x2="189.000000" y2="160.000000"  style="stroke:black; stroke-linecap:round; stroke-width:0.25;"/>
<line x1="165.000000" y1="196.000000" x2="165.000000" y2="160.000000"  style="stroke:black; stroke-linecap:round; stroke-width:0.25;"/>
<line x1="173.000000" y1="100.000000" x2="173.000000" y2="136.000000"  style="stroke:black; stroke-linecap:round; stroke-width:0.25;"/>
<line x1="173.000000" y1="136.000000" x2="189.000000" y2="136.000000"  style="stroke:black; stroke-linecap:round; stroke-width:0.25;"/>
<line x1="173.000000" y1="168.000000" x2="189.000000" y2="168.000000"  style="stroke:black; stroke-linecap:round; stroke-width:0.25;"/>
<line x1="173.000000" y1="228.000000" x2="173.000000" y2="168.000000"  style="stroke:black; stroke-linecap:round; stroke-width:0.25;"/>
<line x1="181.000000" y1="68.000000" x2="181.000000" y2="128.000000"  style="stroke:black; stroke-linecap:round; stroke-width:0.25;"/>
<line x1="181.000000" y1="128.000000" x2="189.000000" y2="128.000000"  style="stroke:black; stroke-linecap:round; stroke-width:0.25;"/>
<line x1="181.000000" y1="176.000000" x2="189.000000" y2="176.000000"  style="stroke:black; stroke-linecap:round; stroke-width:0.25;"/>
<line x1="181.000000" y1="260.000000" x2="181.000000" y2="176.000000"  style="stroke:black; stroke-linecap:round; stroke-width:0.25;"/>
<line x1="189.000000" y1="36.000000" x2="189.000000" y2="120.000000"  style="stroke:black; stroke-linecap:round; stroke-width:0.25;"/>
<line x1="189.000000" y1="120.000000" x2="189.000000" y2="120.000000"  style="stroke:black; stroke-linecap:round; stroke-width:0.25;"/>
<line x1="189.000000" y1="120.000000" x2="193.000000" y2="120.000000"  style="stroke:black; stroke-linecap:round; stroke-width:0.25;"/>
<line x1="189.000000" y1="128.000000" x2="193.000000" y2="128.000000"  style="stroke:black; stroke-linecap:round; stroke-width:0.25;"/>
<line x1="189.000000" y1="136.000000" x2="193.000000" y2="136.000000"  style="stroke:black; stroke-linecap:round; stroke-width:0.25;"/>
<line x1="189.000000" y1="144.000000" x2="193.000000" y2="144.000000"  style="stroke:black; stroke-linecap:round; stroke-width:0.25;"/>
<line x1="189.000000" y1="152.000000" x2="193.000000" y2="152.000000"  style="stroke:black; stroke-linecap:round; stroke-width:0.25;"/>
<line x1="189.000000" y1="160.000000" x2="193.000000" y2="160.000000"  style="stroke:black; stroke-linecap:round; stroke-width:0.25;"/>
<line x1="189.000000" y1="168.000000" x2="193.000000" y2="168.000000"  style="stroke:black; stroke-linecap:round; stroke-width:0.25;"/>
<line x1="189.000000" y1="176.000000" x2="193.000000" y2="176.000000"  style="stroke:black; stroke-linecap:round; stroke-width:0.25;"/>
<line x1="193.000000" y1="120.000000" x2="197.000000" y2="120.000000"  style="stroke:black; stroke-linecap:round; stroke-width:0.25;"/>
<line x1="193.000000" y1="128.000000" x2="197.000000" y2="128.000000"  style="stroke:black; stroke-linecap:round; stroke-width:0.25;"/>
<line x1="193.000000" y1="136.000000" x2="197.000000" y2="136.000000"  style="stroke:black; stroke-linecap:round; stroke-width:0.25;"/>
<line x1="193.000000" y1="144.000000" x2="197.000000" y2="144.000000"  style="stroke:black; stroke-linecap:round; stroke-width:0.25;"/>
<line x1="193.000000" y1="152.000000" x2="197.000000" y2="152.000000"  style="stroke:black; stroke-linecap:round; stroke-width:0.25;"/>
<line x1="193.000000" y1="160.000000" x2="197.000000" y2="160.000000"  style="stroke:black; stroke-linecap:round; stroke-width:0.25;"/>
<line x1="193.000000" y1="168.000000" x2="197.000000" y2="168.000000"  style="stroke:black; stroke-linecap:round; stroke-width:0.25;"/>
<line x1="193.000000" y1="176.000000" x2="197.000000" y2="176.000000"  style="stroke:black; stroke-linecap:round; stroke-width:0.25;"/>
<line x1="197.000000" y1="120.000000" x2="207.000000" y2="120.000000"  style="stroke:black; stroke-linecap:round; stroke-width:0.25;"/>
<line x1="197.000000" y1="128.000000" x2="207.000000" y2="128.000000"  style="stroke:black; stroke-linecap:round; stroke-width:0.25;"/>
<line x1="197.000000" y1="136.000000" x2="207.000000" y2="136.000000"  style="stroke:black; stroke-linecap:round; stroke-width:0.25;"/>
<line x1="197.000000" y1="144.000000" x2="207.000000" y2="144.000000"  style="stroke:black; stroke-linecap:round; stroke-width:0.25;"/>
<line x1="197.000000" y1="152.000000" x2="207.000000" y2="152.000000"  style="stroke:black; stroke-linecap:round; stroke-width:0.25;"/>
<line x1="197.000000" y1="160.000000" x2="207.000000" y2="160.000000"  style="stroke:black; stroke-linecap:round; stroke-width:0.25;"/>
<line x1="197.000000" y1="168.000000" x2="207.000000" y2="168.000000"  style="stroke:black; stroke-linecap:round; stroke-width:0.25;"/>
<line x1="197.000000" y1="176.000000" x2="207.000000" y2="176.000000"  style="stroke:black; stroke-linecap:round; stroke-width:0.25;"/>
</svg>
