<?xml version="1.0"?>
<svg xmlns="http://www.w3.org/2000/svg" xmlns:xlink="http://www.w3.org/1999/xlink" viewBox="0 0 297.500000 104.000000" width="148.750000mm" height="52.000000mm" version="1.1">
<a xlink:href="phasorSlopeFacto-0x7f540c750a80.svg">
<rect x="1.000000" y="1.000000" width="296.500000" height="103.000000" rx="0" ry="0" style="stroke:none;fill:#cccccc;"/>
<rect x="0.000000" y="0.000000" width="296.500000" height="103.000000" rx="0" ry="0" style="stroke:none;fill:#ffffff;"/>
</a>
<text x="10.000000" y="7.000000" font-family="Arial" font-size="7"></text>
<a xlink:href="-0x7f5411f353a0.svg">
<rect x="25.000000" y="25.000000" width="64.500000" height="24.000000" rx="0" ry="0" style="stroke:none;fill:#cccccc;"/>
<rect x="24.000000" y="24.000000" width="64.500000" height="24.000000" rx="0" ry="0" style="stroke:none;fill:#003366;"/>
</a>
<a xlink:href="-0x7f5411f353a0.svg">
<text x="56.250000" y="38.000000" font-family="Arial" font-size="7" text-anchor="middle" fill="#FFFFFF">_grainDuration</text>
</a>
<circle cx="26.000000" cy="26.000000" r="1"/>
<a xlink:href="durationJitter-0x7f540b8ac820.svg">
<rect x="25.000000" y="57.000000" width="64.500000" height="24.000000" rx="0" ry="0" style="stroke:none;fill:#cccccc;"/>
<rect x="24.000000" y="56.000000" width="64.500000" height="24.000000" rx="0" ry="0" style="stroke:none;fill:#003366;"/>
</a>
<a xlink:href="durationJitter-0x7f540b8ac820.svg">
<text x="56.250000" y="70.000000" font-family="Arial" font-size="7" text-anchor="middle" fill="#FFFFFF">durationJitter</text>
</a>
<circle cx="26.000000" cy="58.000000" r="1"/>
<rect x="105.500000" y="41.000000" width="24.000000" height="24.000000" rx="0" ry="0" style="stroke:none;fill:#cccccc;"/>
<rect x="104.500000" y="40.000000" width="24.000000" height="24.000000" rx="0" ry="0" style="stroke:none;fill:#4B71A1;"/>
<text x="116.500000" y="54.000000" font-family="Arial" font-size="7" text-anchor="middle" fill="#FFFFFF">*</text>
<circle cx="106.500000" cy="42.000000" r="1"/>
<line x1="101.500000" y1="47.000000" x2="104.500000" y2="48.000000"  transform="rotate(0.000000,104.500000,48.000000)" style="stroke: black; stroke-width:0.25;"/>
<line x1="101.500000" y1="49.000000" x2="104.500000" y2="48.000000"  transform="rotate(0.000000,104.500000,48.000000)" style="stroke: black; stroke-width:0.25;"/>
<line x1="101.500000" y1="55.000000" x2="104.500000" y2="56.000000"  transform="rotate(0.000000,104.500000,56.000000)" style="stroke: black; stroke-width:0.25;"/>
<line x1="101.500000" y1="57.000000" x2="104.500000" y2="56.000000"  transform="rotate(0.000000,104.500000,56.000000)" style="stroke: black; stroke-width:0.25;"/>
<a xlink:href="sAndH-0x7f540c7500a0.svg">
<rect x="137.500000" y="41.000000" width="129.000000" height="24.000000" rx="0" ry="0" style="stroke:none;fill:#cccccc;"/>
<rect x="136.500000" y="40.000000" width="129.000000" height="24.000000" rx="0" ry="0" style="stroke:none;fill:#003366;"/>
</a>
<a xlink:href="sAndH-0x7f540c7500a0.svg">
<text x="201.000000" y="54.000000" font-family="Arial" font-size="7" text-anchor="middle" fill="#FFFFFF">sAndH(closure... {}]~_ : !,_)</text>
</a>
<circle cx="138.500000" cy="42.000000" r="1"/>
<line x1="133.500000" y1="51.000000" x2="136.500000" y2="52.000000"  transform="rotate(0.000000,136.500000,52.000000)" style="stroke: black; stroke-width:0.25;"/>
<line x1="133.500000" y1="53.000000" x2="136.500000" y2="52.000000"  transform="rotate(0.000000,136.500000,52.000000)" style="stroke: black; stroke-width:0.25;"/>
<line x1="15.000000" y1="15.000000" x2="15.000000" y2="89.000000"  style="stroke: black; stroke-linecap:round; stroke-width:0.25; stroke-dasharray:3,3;"/>
<line x1="15.000000" y1="89.000000" x2="282.500000" y2="89.000000"  style="stroke: black; stroke-linecap:round; stroke-width:0.25; stroke-dasharray:3,3;"/>
<line x1="282.500000" y1="89.000000" x2="282.500000" y2="15.000000"  style="stroke: black; stroke-linecap:round; stroke-width:0.25; stroke-dasharray:3,3;"/>
<line x1="15.000000" y1="15.000000" x2="20.000000" y2="15.000000"  style="stroke: black; stroke-linecap:round; stroke-width:0.25; stroke-dasharray:3,3;"/>
<line x1="68.375000" y1="15.000000" x2="282.500000" y2="15.000000"  style="stroke: black; stroke-linecap:round; stroke-width:0.25; stroke-dasharray:3,3;"/>
<text x="20.000000" y="17.000000" font-family="Arial" font-size="7">grainDuration</text>
<line x1="284.500000" y1="51.000000" x2="287.500000" y2="52.000000"  transform="rotate(0.000000,287.500000,52.000000)" style="stroke: black; stroke-width:0.25;"/>
<line x1="284.500000" y1="53.000000" x2="287.500000" y2="52.000000"  transform="rotate(0.000000,287.500000,52.000000)" style="stroke: black; stroke-width:0.25;"/>
<line x1="88.500000" y1="36.000000" x2="92.500000" y2="36.000000"  style="stroke:black; stroke-linecap:round; stroke-width:0.25;"/>
<line x1="88.500000" y1="68.000000" x2="92.500000" y2="68.000000"  style="stroke:black; stroke-linecap:round; stroke-width:0.25;"/>
<line x1="92.500000" y1="36.000000" x2="100.500000" y2="36.000000"  style="stroke:black; stroke-linecap:round; stroke-width:0.25;"/>
<line x1="92.500000" y1="56.000000" x2="100.500000" y2="56.000000"  style="stroke:black; stroke-linecap:round; stroke-width:0.25;"/>
<line x1="92.500000" y1="68.000000" x2="92.500000" y2="56.000000"  style="stroke:black; stroke-linecap:round; stroke-width:0.25;"/>
<line x1="92.500000" y1="68.000000" x2="92.500000" y2="68.000000"  style="stroke:black; stroke-linecap:round; stroke-width:0.25;"/>
<line x1="100.500000" y1="36.000000" x2="100.500000" y2="48.000000"  style="stroke:black; stroke-linecap:round; stroke-width:0.25;"/>
<line x1="100.500000" y1="48.000000" x2="100.500000" y2="48.000000"  style="stroke:black; stroke-linecap:round; stroke-width:0.25;"/>
<line x1="100.500000" y1="48.000000" x2="104.500000" y2="48.000000"  style="stroke:black; stroke-linecap:round; stroke-width:0.25;"/>
<line x1="100.500000" y1="56.000000" x2="104.500000" y2="56.000000"  style="stroke:black; stroke-linecap:round; stroke-width:0.25;"/>
<line x1="128.500000" y1="52.000000" x2="132.500000" y2="52.000000"  style="stroke:black; stroke-linecap:round; stroke-width:0.25;"/>
<line x1="132.500000" y1="52.000000" x2="132.500000" y2="52.000000"  style="stroke:black; stroke-linecap:round; stroke-width:0.25;"/>
<line x1="132.500000" y1="52.000000" x2="136.500000" y2="52.000000"  style="stroke:black; stroke-linecap:round; stroke-width:0.25;"/>
<line x1="265.500000" y1="52.000000" x2="269.500000" y2="52.000000"  style="stroke:black; stroke-linecap:round; stroke-width:0.25;"/>
<line x1="269.500000" y1="52.000000" x2="269.500000" y2="52.000000"  style="stroke:black; stroke-linecap:round; stroke-width:0.25;"/>
<line x1="269.500000" y1="52.000000" x2="273.500000" y2="52.000000"  style="stroke:black; stroke-linecap:round; stroke-width:0.25;"/>
<line x1="273.500000" y1="52.000000" x2="277.500000" y2="52.000000"  style="stroke:black; stroke-linecap:round; stroke-width:0.25;"/>
<line x1="277.500000" y1="52.000000" x2="287.500000" y2="52.000000"  style="stroke:black; stroke-linecap:round; stroke-width:0.25;"/>
</svg>
