<?xml version="1.0"?>
<svg xmlns="http://www.w3.org/2000/svg" xmlns:xlink="http://www.w3.org/1999/xlink" viewBox="0 0 232.500000 156.000000" width="116.250000mm" height="78.000000mm" version="1.1">
<a xlink:href="grain-0x7fac1f0568f0.svg">
<rect x="1.000000" y="1.000000" width="231.500000" height="155.000000" rx="0" ry="0" style="stroke:none;fill:#cccccc;"/>
<rect x="0.000000" y="0.000000" width="231.500000" height="155.000000" rx="0" ry="0" style="stroke:none;fill:#ffffff;"/>
</a>
<text x="10.000000" y="7.000000" font-family="Arial" font-size="7"></text>
<rect x="37.900000" y="35.000000" width="38.700000" height="24.000000" rx="0" ry="0" style="stroke:none;fill:#cccccc;"/>
<rect x="36.900000" y="34.000000" width="38.700000" height="24.000000" rx="0" ry="0" style="stroke:none;fill:#f44800;"/>
<text x="56.250000" y="48.000000" font-family="Arial" font-size="7" text-anchor="middle" fill="#FFFFFF">3.14159</text>
<circle cx="38.900000" cy="36.000000" r="1"/>
<line x1="27.900000" y1="25.000000" x2="27.900000" y2="67.000000"  style="stroke: black; stroke-linecap:round; stroke-width:0.25; stroke-dasharray:3,3;"/>
<line x1="27.900000" y1="67.000000" x2="84.600000" y2="67.000000"  style="stroke: black; stroke-linecap:round; stroke-width:0.25; stroke-dasharray:3,3;"/>
<line x1="84.600000" y1="67.000000" x2="84.600000" y2="25.000000"  style="stroke: black; stroke-linecap:round; stroke-width:0.25; stroke-dasharray:3,3;"/>
<line x1="27.900000" y1="25.000000" x2="32.900000" y2="25.000000"  style="stroke: black; stroke-linecap:round; stroke-width:0.25; stroke-dasharray:3,3;"/>
<line x1="45.800000" y1="25.000000" x2="84.600000" y2="25.000000"  style="stroke: black; stroke-linecap:round; stroke-width:0.25; stroke-dasharray:3,3;"/>
<text x="32.900000" y="27.000000" font-family="Arial" font-size="7">PI</text>
<a xlink:href="readingSegment-0x7fac370617b0.svg">
<rect x="25.000000" y="77.000000" width="64.500000" height="24.000000" rx="0" ry="0" style="stroke:none;fill:#cccccc;"/>
<rect x="24.000000" y="76.000000" width="64.500000" height="24.000000" rx="0" ry="0" style="stroke:none;fill:#003366;"/>
</a>
<a xlink:href="readingSegment-0x7fac370617b0.svg">
<text x="56.250000" y="90.000000" font-family="Arial" font-size="7" text-anchor="middle" fill="#FFFFFF">readingSegment</text>
</a>
<circle cx="26.000000" cy="78.000000" r="1"/>
<rect x="105.500000" y="51.000000" width="24.000000" height="24.000000" rx="0" ry="0" style="stroke:none;fill:#cccccc;"/>
<rect x="104.500000" y="50.000000" width="24.000000" height="24.000000" rx="0" ry="0" style="stroke:none;fill:#4B71A1;"/>
<text x="116.500000" y="64.000000" font-family="Arial" font-size="7" text-anchor="middle" fill="#FFFFFF">*</text>
<circle cx="106.500000" cy="52.000000" r="1"/>
<line x1="101.500000" y1="57.000000" x2="104.500000" y2="58.000000"  transform="rotate(0.000000,104.500000,58.000000)" style="stroke: black; stroke-width:0.25;"/>
<line x1="101.500000" y1="59.000000" x2="104.500000" y2="58.000000"  transform="rotate(0.000000,104.500000,58.000000)" style="stroke: black; stroke-width:0.25;"/>
<line x1="101.500000" y1="65.000000" x2="104.500000" y2="66.000000"  transform="rotate(0.000000,104.500000,66.000000)" style="stroke: black; stroke-width:0.25;"/>
<line x1="101.500000" y1="67.000000" x2="104.500000" y2="66.000000"  transform="rotate(0.000000,104.500000,66.000000)" style="stroke: black; stroke-width:0.25;"/>
<rect x="137.500000" y="51.000000" width="24.000000" height="24.000000" rx="0" ry="0" style="stroke:none;fill:#cccccc;"/>
<rect x="136.500000" y="50.000000" width="24.000000" height="24.000000" rx="0" ry="0" style="stroke:none;fill:#4B71A1;"/>
<text x="148.500000" y="64.000000" font-family="Arial" font-size="7" text-anchor="middle" fill="#FFFFFF">sin</text>
<circle cx="138.500000" cy="52.000000" r="1"/>
<line x1="133.500000" y1="61.000000" x2="136.500000" y2="62.000000"  transform="rotate(0.000000,136.500000,62.000000)" style="stroke: black; stroke-width:0.25;"/>
<line x1="133.500000" y1="63.000000" x2="136.500000" y2="62.000000"  transform="rotate(0.000000,136.500000,62.000000)" style="stroke: black; stroke-width:0.25;"/>
<rect x="81.250000" y="109.000000" width="24.000000" height="24.000000" rx="0" ry="0" style="stroke:none;fill:#cccccc;"/>
<rect x="80.250000" y="108.000000" width="24.000000" height="24.000000" rx="0" ry="0" style="stroke:none;fill:#f44800;"/>
<text x="92.250000" y="122.000000" font-family="Arial" font-size="7" text-anchor="middle" fill="#FFFFFF">2</text>
<circle cx="82.250000" cy="110.000000" r="1"/>
<rect x="177.500000" y="67.000000" width="24.000000" height="24.000000" rx="0" ry="0" style="stroke:none;fill:#cccccc;"/>
<rect x="176.500000" y="66.000000" width="24.000000" height="24.000000" rx="0" ry="0" style="stroke:none;fill:#4B71A1;"/>
<text x="188.500000" y="80.000000" font-family="Arial" font-size="7" text-anchor="middle" fill="#FFFFFF">pow</text>
<circle cx="178.500000" cy="68.000000" r="1"/>
<line x1="173.500000" y1="73.000000" x2="176.500000" y2="74.000000"  transform="rotate(0.000000,176.500000,74.000000)" style="stroke: black; stroke-width:0.25;"/>
<line x1="173.500000" y1="75.000000" x2="176.500000" y2="74.000000"  transform="rotate(0.000000,176.500000,74.000000)" style="stroke: black; stroke-width:0.25;"/>
<line x1="173.500000" y1="81.000000" x2="176.500000" y2="82.000000"  transform="rotate(0.000000,176.500000,82.000000)" style="stroke: black; stroke-width:0.25;"/>
<line x1="173.500000" y1="83.000000" x2="176.500000" y2="82.000000"  transform="rotate(0.000000,176.500000,82.000000)" style="stroke: black; stroke-width:0.25;"/>
<line x1="15.000000" y1="15.000000" x2="15.000000" y2="141.000000"  style="stroke: black; stroke-linecap:round; stroke-width:0.25; stroke-dasharray:3,3;"/>
<line x1="15.000000" y1="141.000000" x2="217.500000" y2="141.000000"  style="stroke: black; stroke-linecap:round; stroke-width:0.25; stroke-dasharray:3,3;"/>
<line x1="217.500000" y1="141.000000" x2="217.500000" y2="15.000000"  style="stroke: black; stroke-linecap:round; stroke-width:0.25; stroke-dasharray:3,3;"/>
<line x1="15.000000" y1="15.000000" x2="20.000000" y2="15.000000"  style="stroke: black; stroke-linecap:round; stroke-width:0.25; stroke-dasharray:3,3;"/>
<line x1="119.975000" y1="15.000000" x2="217.500000" y2="15.000000"  style="stroke: black; stroke-linecap:round; stroke-width:0.25; stroke-dasharray:3,3;"/>
<text x="20.000000" y="17.000000" font-family="Arial" font-size="7">hann(1.0f,((c...) : *) : min)</text>
<line x1="219.500000" y1="77.000000" x2="222.500000" y2="78.000000"  transform="rotate(0.000000,222.500000,78.000000)" style="stroke: black; stroke-width:0.25;"/>
<line x1="219.500000" y1="79.000000" x2="222.500000" y2="78.000000"  transform="rotate(0.000000,222.500000,78.000000)" style="stroke: black; stroke-width:0.25;"/>
<line x1="75.600000" y1="46.000000" x2="79.600000" y2="46.000000"  style="stroke:black; stroke-linecap:round; stroke-width:0.25;"/>
<line x1="79.600000" y1="46.000000" x2="89.600000" y2="46.000000"  style="stroke:black; stroke-linecap:round; stroke-width:0.25;"/>
<line x1="88.500000" y1="88.000000" x2="92.500000" y2="88.000000"  style="stroke:black; stroke-linecap:round; stroke-width:0.25;"/>
<line x1="89.600000" y1="46.000000" x2="92.500000" y2="46.000000"  style="stroke:black; stroke-linecap:round; stroke-width:0.25;"/>
<line x1="92.500000" y1="46.000000" x2="100.500000" y2="46.000000"  style="stroke:black; stroke-linecap:round; stroke-width:0.25;"/>
<line x1="92.500000" y1="66.000000" x2="100.500000" y2="66.000000"  style="stroke:black; stroke-linecap:round; stroke-width:0.25;"/>
<line x1="92.500000" y1="88.000000" x2="92.500000" y2="66.000000"  style="stroke:black; stroke-linecap:round; stroke-width:0.25;"/>
<line x1="92.500000" y1="88.000000" x2="92.500000" y2="88.000000"  style="stroke:black; stroke-linecap:round; stroke-width:0.25;"/>
<line x1="100.500000" y1="46.000000" x2="100.500000" y2="58.000000"  style="stroke:black; stroke-linecap:round; stroke-width:0.25;"/>
<line x1="100.500000" y1="58.000000" x2="100.500000" y2="58.000000"  style="stroke:black; stroke-linecap:round; stroke-width:0.25;"/>
<line x1="100.500000" y1="58.000000" x2="104.500000" y2="58.000000"  style="stroke:black; stroke-linecap:round; stroke-width:0.25;"/>
<line x1="100.500000" y1="66.000000" x2="104.500000" y2="66.000000"  style="stroke:black; stroke-linecap:round; stroke-width:0.25;"/>
<line x1="104.250000" y1="120.000000" x2="108.250000" y2="120.000000"  style="stroke:black; stroke-linecap:round; stroke-width:0.25;"/>
<line x1="108.250000" y1="120.000000" x2="164.500000" y2="120.000000"  style="stroke:black; stroke-linecap:round; stroke-width:0.25;"/>
<line x1="128.500000" y1="62.000000" x2="132.500000" y2="62.000000"  style="stroke:black; stroke-linecap:round; stroke-width:0.25;"/>
<line x1="132.500000" y1="62.000000" x2="132.500000" y2="62.000000"  style="stroke:black; stroke-linecap:round; stroke-width:0.25;"/>
<line x1="132.500000" y1="62.000000" x2="136.500000" y2="62.000000"  style="stroke:black; stroke-linecap:round; stroke-width:0.25;"/>
<line x1="160.500000" y1="62.000000" x2="164.500000" y2="62.000000"  style="stroke:black; stroke-linecap:round; stroke-width:0.25;"/>
<line x1="164.500000" y1="62.000000" x2="172.500000" y2="62.000000"  style="stroke:black; stroke-linecap:round; stroke-width:0.25;"/>
<line x1="164.500000" y1="82.000000" x2="172.500000" y2="82.000000"  style="stroke:black; stroke-linecap:round; stroke-width:0.25;"/>
<line x1="164.500000" y1="120.000000" x2="164.500000" y2="82.000000"  style="stroke:black; stroke-linecap:round; stroke-width:0.25;"/>
<line x1="164.500000" y1="120.000000" x2="164.500000" y2="120.000000"  style="stroke:black; stroke-linecap:round; stroke-width:0.25;"/>
<line x1="172.500000" y1="62.000000" x2="172.500000" y2="74.000000"  style="stroke:black; stroke-linecap:round; stroke-width:0.25;"/>
<line x1="172.500000" y1="74.000000" x2="172.500000" y2="74.000000"  style="stroke:black; stroke-linecap:round; stroke-width:0.25;"/>
<line x1="172.500000" y1="74.000000" x2="176.500000" y2="74.000000"  style="stroke:black; stroke-linecap:round; stroke-width:0.25;"/>
<line x1="172.500000" y1="82.000000" x2="176.500000" y2="82.000000"  style="stroke:black; stroke-linecap:round; stroke-width:0.25;"/>
<line x1="200.500000" y1="78.000000" x2="204.500000" y2="78.000000"  style="stroke:black; stroke-linecap:round; stroke-width:0.25;"/>
<line x1="204.500000" y1="78.000000" x2="204.500000" y2="78.000000"  style="stroke:black; stroke-linecap:round; stroke-width:0.25;"/>
<line x1="204.500000" y1="78.000000" x2="208.500000" y2="78.000000"  style="stroke:black; stroke-linecap:round; stroke-width:0.25;"/>
<line x1="208.500000" y1="78.000000" x2="212.500000" y2="78.000000"  style="stroke:black; stroke-linecap:round; stroke-width:0.25;"/>
<line x1="212.500000" y1="78.000000" x2="222.500000" y2="78.000000"  style="stroke:black; stroke-linecap:round; stroke-width:0.25;"/>
</svg>
