<?xml version="1.0"?>
<svg xmlns="http://www.w3.org/2000/svg" xmlns:xlink="http://www.w3.org/1999/xlink" viewBox="0 0 322.800000 144.000000" width="161.400000mm" height="72.000000mm" version="1.1">
<a xlink:href="buffer-0x7fb007052620.svg">
<rect x="1.000000" y="1.000000" width="321.800000" height="143.000000" rx="0" ry="0" style="stroke:none;fill:#cccccc;"/>
<rect x="0.000000" y="0.000000" width="321.800000" height="143.000000" rx="0" ry="0" style="stroke:none;fill:#ffffff;"/>
</a>
<text x="10.000000" y="7.000000" font-family="Arial" font-size="7"></text>
<a xlink:href="lagrange-0x7fb0105f1370.svg">
<rect x="81.000000" y="25.000000" width="129.000000" height="48.000000" rx="0" ry="0" style="stroke:none;fill:#cccccc;"/>
<rect x="80.000000" y="24.000000" width="129.000000" height="48.000000" rx="0" ry="0" style="stroke:none;fill:#003366;"/>
</a>
<a xlink:href="lagrange-0x7fb0105f1370.svg">
<text x="144.500000" y="50.000000" font-family="Arial" font-size="7" text-anchor="middle" fill="#FFFFFF">lagrange_h(5)...) : -),2 : +)</text>
</a>
<circle cx="82.000000" cy="26.000000" r="1"/>
<a xlink:href="dot-0x7fb01ef2a2f0.svg">
<rect x="266.000000" y="25.000000" width="25.800000" height="96.000000" rx="0" ry="0" style="stroke:none;fill:#cccccc;"/>
<rect x="265.000000" y="24.000000" width="25.800000" height="96.000000" rx="0" ry="0" style="stroke:none;fill:#003366;"/>
</a>
<a xlink:href="dot-0x7fb01ef2a2f0.svg">
<text x="277.900000" y="74.000000" font-family="Arial" font-size="7" text-anchor="middle" fill="#FFFFFF">dot(6)</text>
</a>
<circle cx="267.000000" cy="26.000000" r="1"/>
<line x1="262.000000" y1="27.000000" x2="265.000000" y2="28.000000"  transform="rotate(0.000000,265.000000,28.000000)" style="stroke: black; stroke-width:0.25;"/>
<line x1="262.000000" y1="29.000000" x2="265.000000" y2="28.000000"  transform="rotate(0.000000,265.000000,28.000000)" style="stroke: black; stroke-width:0.25;"/>
<line x1="262.000000" y1="35.000000" x2="265.000000" y2="36.000000"  transform="rotate(0.000000,265.000000,36.000000)" style="stroke: black; stroke-width:0.25;"/>
<line x1="262.000000" y1="37.000000" x2="265.000000" y2="36.000000"  transform="rotate(0.000000,265.000000,36.000000)" style="stroke: black; stroke-width:0.25;"/>
<line x1="262.000000" y1="43.000000" x2="265.000000" y2="44.000000"  transform="rotate(0.000000,265.000000,44.000000)" style="stroke: black; stroke-width:0.25;"/>
<line x1="262.000000" y1="45.000000" x2="265.000000" y2="44.000000"  transform="rotate(0.000000,265.000000,44.000000)" style="stroke: black; stroke-width:0.25;"/>
<line x1="262.000000" y1="51.000000" x2="265.000000" y2="52.000000"  transform="rotate(0.000000,265.000000,52.000000)" style="stroke: black; stroke-width:0.25;"/>
<line x1="262.000000" y1="53.000000" x2="265.000000" y2="52.000000"  transform="rotate(0.000000,265.000000,52.000000)" style="stroke: black; stroke-width:0.25;"/>
<line x1="262.000000" y1="59.000000" x2="265.000000" y2="60.000000"  transform="rotate(0.000000,265.000000,60.000000)" style="stroke: black; stroke-width:0.25;"/>
<line x1="262.000000" y1="61.000000" x2="265.000000" y2="60.000000"  transform="rotate(0.000000,265.000000,60.000000)" style="stroke: black; stroke-width:0.25;"/>
<line x1="262.000000" y1="67.000000" x2="265.000000" y2="68.000000"  transform="rotate(0.000000,265.000000,68.000000)" style="stroke: black; stroke-width:0.25;"/>
<line x1="262.000000" y1="69.000000" x2="265.000000" y2="68.000000"  transform="rotate(0.000000,265.000000,68.000000)" style="stroke: black; stroke-width:0.25;"/>
<line x1="262.000000" y1="75.000000" x2="265.000000" y2="76.000000"  transform="rotate(0.000000,265.000000,76.000000)" style="stroke: black; stroke-width:0.25;"/>
<line x1="262.000000" y1="77.000000" x2="265.000000" y2="76.000000"  transform="rotate(0.000000,265.000000,76.000000)" style="stroke: black; stroke-width:0.25;"/>
<line x1="262.000000" y1="83.000000" x2="265.000000" y2="84.000000"  transform="rotate(0.000000,265.000000,84.000000)" style="stroke: black; stroke-width:0.25;"/>
<line x1="262.000000" y1="85.000000" x2="265.000000" y2="84.000000"  transform="rotate(0.000000,265.000000,84.000000)" style="stroke: black; stroke-width:0.25;"/>
<line x1="262.000000" y1="91.000000" x2="265.000000" y2="92.000000"  transform="rotate(0.000000,265.000000,92.000000)" style="stroke: black; stroke-width:0.25;"/>
<line x1="262.000000" y1="93.000000" x2="265.000000" y2="92.000000"  transform="rotate(0.000000,265.000000,92.000000)" style="stroke: black; stroke-width:0.25;"/>
<line x1="262.000000" y1="99.000000" x2="265.000000" y2="100.000000"  transform="rotate(0.000000,265.000000,100.000000)" style="stroke: black; stroke-width:0.25;"/>
<line x1="262.000000" y1="101.000000" x2="265.000000" y2="100.000000"  transform="rotate(0.000000,265.000000,100.000000)" style="stroke: black; stroke-width:0.25;"/>
<line x1="262.000000" y1="107.000000" x2="265.000000" y2="108.000000"  transform="rotate(0.000000,265.000000,108.000000)" style="stroke: black; stroke-width:0.25;"/>
<line x1="262.000000" y1="109.000000" x2="265.000000" y2="108.000000"  transform="rotate(0.000000,265.000000,108.000000)" style="stroke: black; stroke-width:0.25;"/>
<line x1="262.000000" y1="115.000000" x2="265.000000" y2="116.000000"  transform="rotate(0.000000,265.000000,116.000000)" style="stroke: black; stroke-width:0.25;"/>
<line x1="262.000000" y1="117.000000" x2="265.000000" y2="116.000000"  transform="rotate(0.000000,265.000000,116.000000)" style="stroke: black; stroke-width:0.25;"/>
<line x1="15.000000" y1="15.000000" x2="15.000000" y2="129.000000"  style="stroke: black; stroke-linecap:round; stroke-width:0.25; stroke-dasharray:3,3;"/>
<line x1="15.000000" y1="129.000000" x2="307.800000" y2="129.000000"  style="stroke: black; stroke-linecap:round; stroke-width:0.25; stroke-dasharray:3,3;"/>
<line x1="307.800000" y1="129.000000" x2="307.800000" y2="15.000000"  style="stroke: black; stroke-linecap:round; stroke-width:0.25; stroke-dasharray:3,3;"/>
<line x1="15.000000" y1="15.000000" x2="20.000000" y2="15.000000"  style="stroke: black; stroke-linecap:round; stroke-width:0.25; stroke-dasharray:3,3;"/>
<line x1="119.975000" y1="15.000000" x2="307.800000" y2="15.000000"  style="stroke: black; stroke-linecap:round; stroke-width:0.25; stroke-dasharray:3,3;"/>
<text x="20.000000" y="17.000000" font-family="Arial" font-size="7">lagrangeN(5)(...) : -),2 : +)</text>
<line x1="309.800000" y1="71.000000" x2="312.800000" y2="72.000000"  transform="rotate(0.000000,312.800000,72.000000)" style="stroke: black; stroke-width:0.25;"/>
<line x1="309.800000" y1="73.000000" x2="312.800000" y2="72.000000"  transform="rotate(0.000000,312.800000,72.000000)" style="stroke: black; stroke-width:0.25;"/>
<line x1="10.000000" y1="52.000000" x2="20.000000" y2="52.000000"  style="stroke:black; stroke-linecap:round; stroke-width:0.25;"/>
<line x1="10.000000" y1="60.000000" x2="20.000000" y2="60.000000"  style="stroke:black; stroke-linecap:round; stroke-width:0.25;"/>
<line x1="10.000000" y1="68.000000" x2="20.000000" y2="68.000000"  style="stroke:black; stroke-linecap:round; stroke-width:0.25;"/>
<line x1="10.000000" y1="76.000000" x2="20.000000" y2="76.000000"  style="stroke:black; stroke-linecap:round; stroke-width:0.25;"/>
<line x1="10.000000" y1="84.000000" x2="20.000000" y2="84.000000"  style="stroke:black; stroke-linecap:round; stroke-width:0.25;"/>
<line x1="10.000000" y1="92.000000" x2="20.000000" y2="92.000000"  style="stroke:black; stroke-linecap:round; stroke-width:0.25;"/>
<line x1="20.000000" y1="52.000000" x2="24.000000" y2="52.000000"  style="stroke:black; stroke-linecap:round; stroke-width:0.25;"/>
<line x1="20.000000" y1="60.000000" x2="24.000000" y2="60.000000"  style="stroke:black; stroke-linecap:round; stroke-width:0.25;"/>
<line x1="20.000000" y1="68.000000" x2="24.000000" y2="68.000000"  style="stroke:black; stroke-linecap:round; stroke-width:0.25;"/>
<line x1="20.000000" y1="76.000000" x2="24.000000" y2="76.000000"  style="stroke:black; stroke-linecap:round; stroke-width:0.25;"/>
<line x1="20.000000" y1="84.000000" x2="24.000000" y2="84.000000"  style="stroke:black; stroke-linecap:round; stroke-width:0.25;"/>
<line x1="20.000000" y1="92.000000" x2="24.000000" y2="92.000000"  style="stroke:black; stroke-linecap:round; stroke-width:0.25;"/>
<line x1="24.000000" y1="52.000000" x2="28.000000" y2="52.000000"  style="stroke:black; stroke-linecap:round; stroke-width:0.25;"/>
<line x1="24.000000" y1="60.000000" x2="28.000000" y2="60.000000"  style="stroke:black; stroke-linecap:round; stroke-width:0.25;"/>
<line x1="24.000000" y1="68.000000" x2="28.000000" y2="68.000000"  style="stroke:black; stroke-linecap:round; stroke-width:0.25;"/>
<line x1="24.000000" y1="76.000000" x2="28.000000" y2="76.000000"  style="stroke:black; stroke-linecap:round; stroke-width:0.25;"/>
<line x1="24.000000" y1="84.000000" x2="28.000000" y2="84.000000"  style="stroke:black; stroke-linecap:round; stroke-width:0.25;"/>
<line x1="24.000000" y1="92.000000" x2="28.000000" y2="92.000000"  style="stroke:black; stroke-linecap:round; stroke-width:0.25;"/>
<line x1="28.000000" y1="52.000000" x2="76.000000" y2="52.000000"  style="stroke:black; stroke-linecap:round; stroke-width:0.25;"/>
<line x1="28.000000" y1="60.000000" x2="68.000000" y2="60.000000"  style="stroke:black; stroke-linecap:round; stroke-width:0.25;"/>
<line x1="28.000000" y1="68.000000" x2="60.000000" y2="68.000000"  style="stroke:black; stroke-linecap:round; stroke-width:0.25;"/>
<line x1="28.000000" y1="76.000000" x2="52.000000" y2="76.000000"  style="stroke:black; stroke-linecap:round; stroke-width:0.25;"/>
<line x1="28.000000" y1="84.000000" x2="44.000000" y2="84.000000"  style="stroke:black; stroke-linecap:round; stroke-width:0.25;"/>
<line x1="28.000000" y1="92.000000" x2="36.000000" y2="92.000000"  style="stroke:black; stroke-linecap:round; stroke-width:0.25;"/>
<line x1="36.000000" y1="92.000000" x2="36.000000" y2="120.000000"  style="stroke:black; stroke-linecap:round; stroke-width:0.25;"/>
<line x1="36.000000" y1="120.000000" x2="76.000000" y2="120.000000"  style="stroke:black; stroke-linecap:round; stroke-width:0.25;"/>
<line x1="44.000000" y1="84.000000" x2="44.000000" y2="112.000000"  style="stroke:black; stroke-linecap:round; stroke-width:0.25;"/>
<line x1="44.000000" y1="112.000000" x2="76.000000" y2="112.000000"  style="stroke:black; stroke-linecap:round; stroke-width:0.25;"/>
<line x1="52.000000" y1="76.000000" x2="52.000000" y2="104.000000"  style="stroke:black; stroke-linecap:round; stroke-width:0.25;"/>
<line x1="52.000000" y1="104.000000" x2="76.000000" y2="104.000000"  style="stroke:black; stroke-linecap:round; stroke-width:0.25;"/>
<line x1="60.000000" y1="68.000000" x2="60.000000" y2="96.000000"  style="stroke:black; stroke-linecap:round; stroke-width:0.25;"/>
<line x1="60.000000" y1="96.000000" x2="76.000000" y2="96.000000"  style="stroke:black; stroke-linecap:round; stroke-width:0.25;"/>
<line x1="68.000000" y1="60.000000" x2="68.000000" y2="88.000000"  style="stroke:black; stroke-linecap:round; stroke-width:0.25;"/>
<line x1="68.000000" y1="88.000000" x2="76.000000" y2="88.000000"  style="stroke:black; stroke-linecap:round; stroke-width:0.25;"/>
<line x1="76.000000" y1="52.000000" x2="76.000000" y2="80.000000"  style="stroke:black; stroke-linecap:round; stroke-width:0.25;"/>
<line x1="76.000000" y1="80.000000" x2="76.000000" y2="80.000000"  style="stroke:black; stroke-linecap:round; stroke-width:0.25;"/>
<line x1="76.000000" y1="80.000000" x2="144.500000" y2="80.000000"  style="stroke:black; stroke-linecap:round; stroke-width:0.25;"/>
<line x1="76.000000" y1="88.000000" x2="144.500000" y2="88.000000"  style="stroke:black; stroke-linecap:round; stroke-width:0.25;"/>
<line x1="76.000000" y1="96.000000" x2="144.500000" y2="96.000000"  style="stroke:black; stroke-linecap:round; stroke-width:0.25;"/>
<line x1="76.000000" y1="104.000000" x2="144.500000" y2="104.000000"  style="stroke:black; stroke-linecap:round; stroke-width:0.25;"/>
<line x1="76.000000" y1="112.000000" x2="144.500000" y2="112.000000"  style="stroke:black; stroke-linecap:round; stroke-width:0.25;"/>
<line x1="76.000000" y1="120.000000" x2="144.500000" y2="120.000000"  style="stroke:black; stroke-linecap:round; stroke-width:0.25;"/>
<line x1="144.500000" y1="80.000000" x2="213.000000" y2="80.000000"  style="stroke:black; stroke-linecap:round; stroke-width:0.25;"/>
<line x1="144.500000" y1="88.000000" x2="213.000000" y2="88.000000"  style="stroke:black; stroke-linecap:round; stroke-width:0.25;"/>
<line x1="144.500000" y1="96.000000" x2="213.000000" y2="96.000000"  style="stroke:black; stroke-linecap:round; stroke-width:0.25;"/>
<line x1="144.500000" y1="104.000000" x2="213.000000" y2="104.000000"  style="stroke:black; stroke-linecap:round; stroke-width:0.25;"/>
<line x1="144.500000" y1="112.000000" x2="213.000000" y2="112.000000"  style="stroke:black; stroke-linecap:round; stroke-width:0.25;"/>
<line x1="144.500000" y1="120.000000" x2="213.000000" y2="120.000000"  style="stroke:black; stroke-linecap:round; stroke-width:0.25;"/>
<line x1="209.000000" y1="28.000000" x2="213.000000" y2="28.000000"  style="stroke:black; stroke-linecap:round; stroke-width:0.25;"/>
<line x1="209.000000" y1="36.000000" x2="213.000000" y2="36.000000"  style="stroke:black; stroke-linecap:round; stroke-width:0.25;"/>
<line x1="209.000000" y1="44.000000" x2="213.000000" y2="44.000000"  style="stroke:black; stroke-linecap:round; stroke-width:0.25;"/>
<line x1="209.000000" y1="52.000000" x2="213.000000" y2="52.000000"  style="stroke:black; stroke-linecap:round; stroke-width:0.25;"/>
<line x1="209.000000" y1="60.000000" x2="213.000000" y2="60.000000"  style="stroke:black; stroke-linecap:round; stroke-width:0.25;"/>
<line x1="209.000000" y1="68.000000" x2="213.000000" y2="68.000000"  style="stroke:black; stroke-linecap:round; stroke-width:0.25;"/>
<line x1="213.000000" y1="28.000000" x2="261.000000" y2="28.000000"  style="stroke:black; stroke-linecap:round; stroke-width:0.25;"/>
<line x1="213.000000" y1="36.000000" x2="261.000000" y2="36.000000"  style="stroke:black; stroke-linecap:round; stroke-width:0.25;"/>
<line x1="213.000000" y1="44.000000" x2="261.000000" y2="44.000000"  style="stroke:black; stroke-linecap:round; stroke-width:0.25;"/>
<line x1="213.000000" y1="52.000000" x2="261.000000" y2="52.000000"  style="stroke:black; stroke-linecap:round; stroke-width:0.25;"/>
<line x1="213.000000" y1="60.000000" x2="261.000000" y2="60.000000"  style="stroke:black; stroke-linecap:round; stroke-width:0.25;"/>
<line x1="213.000000" y1="68.000000" x2="261.000000" y2="68.000000"  style="stroke:black; stroke-linecap:round; stroke-width:0.25;"/>
<line x1="213.000000" y1="76.000000" x2="261.000000" y2="76.000000"  style="stroke:black; stroke-linecap:round; stroke-width:0.25;"/>
<line x1="213.000000" y1="80.000000" x2="213.000000" y2="76.000000"  style="stroke:black; stroke-linecap:round; stroke-width:0.25;"/>
<line x1="213.000000" y1="80.000000" x2="213.000000" y2="80.000000"  style="stroke:black; stroke-linecap:round; stroke-width:0.25;"/>
<line x1="213.000000" y1="88.000000" x2="221.000000" y2="88.000000"  style="stroke:black; stroke-linecap:round; stroke-width:0.25;"/>
<line x1="213.000000" y1="96.000000" x2="229.000000" y2="96.000000"  style="stroke:black; stroke-linecap:round; stroke-width:0.25;"/>
<line x1="213.000000" y1="104.000000" x2="237.000000" y2="104.000000"  style="stroke:black; stroke-linecap:round; stroke-width:0.25;"/>
<line x1="213.000000" y1="112.000000" x2="245.000000" y2="112.000000"  style="stroke:black; stroke-linecap:round; stroke-width:0.25;"/>
<line x1="213.000000" y1="120.000000" x2="253.000000" y2="120.000000"  style="stroke:black; stroke-linecap:round; stroke-width:0.25;"/>
<line x1="221.000000" y1="84.000000" x2="261.000000" y2="84.000000"  style="stroke:black; stroke-linecap:round; stroke-width:0.25;"/>
<line x1="221.000000" y1="88.000000" x2="221.000000" y2="84.000000"  style="stroke:black; stroke-linecap:round; stroke-width:0.25;"/>
<line x1="229.000000" y1="92.000000" x2="261.000000" y2="92.000000"  style="stroke:black; stroke-linecap:round; stroke-width:0.25;"/>
<line x1="229.000000" y1="96.000000" x2="229.000000" y2="92.000000"  style="stroke:black; stroke-linecap:round; stroke-width:0.25;"/>
<line x1="237.000000" y1="100.000000" x2="261.000000" y2="100.000000"  style="stroke:black; stroke-linecap:round; stroke-width:0.25;"/>
<line x1="237.000000" y1="104.000000" x2="237.000000" y2="100.000000"  style="stroke:black; stroke-linecap:round; stroke-width:0.25;"/>
<line x1="245.000000" y1="108.000000" x2="261.000000" y2="108.000000"  style="stroke:black; stroke-linecap:round; stroke-width:0.25;"/>
<line x1="245.000000" y1="112.000000" x2="245.000000" y2="108.000000"  style="stroke:black; stroke-linecap:round; stroke-width:0.25;"/>
<line x1="253.000000" y1="116.000000" x2="261.000000" y2="116.000000"  style="stroke:black; stroke-linecap:round; stroke-width:0.25;"/>
<line x1="253.000000" y1="120.000000" x2="253.000000" y2="116.000000"  style="stroke:black; stroke-linecap:round; stroke-width:0.25;"/>
<line x1="261.000000" y1="28.000000" x2="265.000000" y2="28.000000"  style="stroke:black; stroke-linecap:round; stroke-width:0.25;"/>
<line x1="261.000000" y1="36.000000" x2="265.000000" y2="36.000000"  style="stroke:black; stroke-linecap:round; stroke-width:0.25;"/>
<line x1="261.000000" y1="44.000000" x2="265.000000" y2="44.000000"  style="stroke:black; stroke-linecap:round; stroke-width:0.25;"/>
<line x1="261.000000" y1="52.000000" x2="265.000000" y2="52.000000"  style="stroke:black; stroke-linecap:round; stroke-width:0.25;"/>
<line x1="261.000000" y1="60.000000" x2="265.000000" y2="60.000000"  style="stroke:black; stroke-linecap:round; stroke-width:0.25;"/>
<line x1="261.000000" y1="68.000000" x2="265.000000" y2="68.000000"  style="stroke:black; stroke-linecap:round; stroke-width:0.25;"/>
<line x1="261.000000" y1="76.000000" x2="265.000000" y2="76.000000"  style="stroke:black; stroke-linecap:round; stroke-width:0.25;"/>
<line x1="261.000000" y1="84.000000" x2="265.000000" y2="84.000000"  style="stroke:black; stroke-linecap:round; stroke-width:0.25;"/>
<line x1="261.000000" y1="92.000000" x2="265.000000" y2="92.000000"  style="stroke:black; stroke-linecap:round; stroke-width:0.25;"/>
<line x1="261.000000" y1="100.000000" x2="265.000000" y2="100.000000"  style="stroke:black; stroke-linecap:round; stroke-width:0.25;"/>
<line x1="261.000000" y1="108.000000" x2="265.000000" y2="108.000000"  style="stroke:black; stroke-linecap:round; stroke-width:0.25;"/>
<line x1="261.000000" y1="116.000000" x2="265.000000" y2="116.000000"  style="stroke:black; stroke-linecap:round; stroke-width:0.25;"/>
<line x1="290.800000" y1="72.000000" x2="294.800000" y2="72.000000"  style="stroke:black; stroke-linecap:round; stroke-width:0.25;"/>
<line x1="294.800000" y1="72.000000" x2="294.800000" y2="72.000000"  style="stroke:black; stroke-linecap:round; stroke-width:0.25;"/>
<line x1="294.800000" y1="72.000000" x2="298.800000" y2="72.000000"  style="stroke:black; stroke-linecap:round; stroke-width:0.25;"/>
<line x1="298.800000" y1="72.000000" x2="302.800000" y2="72.000000"  style="stroke:black; stroke-linecap:round; stroke-width:0.25;"/>
<line x1="302.800000" y1="72.000000" x2="312.800000" y2="72.000000"  style="stroke:black; stroke-linecap:round; stroke-width:0.25;"/>
</svg>
