<?xml version="1.0"?>
<svg xmlns="http://www.w3.org/2000/svg" xmlns:xlink="http://www.w3.org/1999/xlink" viewBox="0 0 385.400000 328.000000" width="192.700000mm" height="164.000000mm" version="1.1">
<a xlink:href="saw1-0x7f993c981140.svg">
<rect x="1.000000" y="1.000000" width="384.400000" height="327.000000" rx="0" ry="0" style="stroke:none;fill:#cccccc;"/>
<rect x="0.000000" y="0.000000" width="384.400000" height="327.000000" rx="0" ry="0" style="stroke:none;fill:#ffffff;"/>
</a>
<text x="10.000000" y="7.000000" font-family="Arial" font-size="7"></text>
<rect x="123.000000" y="43.000000" width="24.000000" height="24.000000" rx="0" ry="0" style="stroke:none;fill:#cccccc;"/>
<rect x="122.000000" y="42.000000" width="24.000000" height="24.000000" rx="0" ry="0" style="stroke:none;fill:#f44800;"/>
<text x="134.000000" y="56.000000" font-family="Arial" font-size="7" text-anchor="middle" fill="#FFFFFF">0</text>
<circle cx="124.000000" cy="44.000000" r="1"/>
<line x1="113.000000" y1="33.000000" x2="113.000000" y2="75.000000"  style="stroke: black; stroke-linecap:round; stroke-width:0.25; stroke-dasharray:3,3;"/>
<line x1="113.000000" y1="75.000000" x2="155.000000" y2="75.000000"  style="stroke: black; stroke-linecap:round; stroke-width:0.25; stroke-dasharray:3,3;"/>
<line x1="155.000000" y1="75.000000" x2="155.000000" y2="33.000000"  style="stroke: black; stroke-linecap:round; stroke-width:0.25; stroke-dasharray:3,3;"/>
<line x1="113.000000" y1="33.000000" x2="118.000000" y2="33.000000"  style="stroke: black; stroke-linecap:round; stroke-width:0.25; stroke-dasharray:3,3;"/>
<line x1="143.800000" y1="33.000000" x2="155.000000" y2="33.000000"  style="stroke: black; stroke-linecap:round; stroke-width:0.25; stroke-dasharray:3,3;"/>
<text x="118.000000" y="35.000000" font-family="Arial" font-size="7">parity</text>
<rect x="63.000000" y="103.000000" width="24.000000" height="24.000000" rx="0" ry="0" style="stroke:none;fill:#cccccc;"/>
<rect x="62.000000" y="102.000000" width="24.000000" height="24.000000" rx="0" ry="0" style="stroke:none;fill:#f44800;"/>
<text x="74.000000" y="116.000000" font-family="Arial" font-size="7" text-anchor="middle" fill="#FFFFFF">40</text>
<circle cx="64.000000" cy="104.000000" r="1"/>
<line x1="53.000000" y1="93.000000" x2="53.000000" y2="135.000000"  style="stroke: black; stroke-linecap:round; stroke-width:0.25; stroke-dasharray:3,3;"/>
<line x1="53.000000" y1="135.000000" x2="95.000000" y2="135.000000"  style="stroke: black; stroke-linecap:round; stroke-width:0.25; stroke-dasharray:3,3;"/>
<line x1="95.000000" y1="135.000000" x2="95.000000" y2="93.000000"  style="stroke: black; stroke-linecap:round; stroke-width:0.25; stroke-dasharray:3,3;"/>
<line x1="53.000000" y1="93.000000" x2="58.000000" y2="93.000000"  style="stroke: black; stroke-linecap:round; stroke-width:0.25; stroke-dasharray:3,3;"/>
<line x1="77.350000" y1="93.000000" x2="95.000000" y2="93.000000"  style="stroke: black; stroke-linecap:round; stroke-width:0.25; stroke-dasharray:3,3;"/>
<text x="58.000000" y="95.000000" font-family="Arial" font-size="7">var1</text>
<rect x="43.000000" y="155.000000" width="24.000000" height="24.000000" rx="0" ry="0" style="stroke:none;fill:#cccccc;"/>
<rect x="42.000000" y="154.000000" width="24.000000" height="24.000000" rx="0" ry="0" style="stroke:none;fill:#f44800;"/>
<text x="54.000000" y="168.000000" font-family="Arial" font-size="7" text-anchor="middle" fill="#FFFFFF">1</text>
<circle cx="44.000000" cy="156.000000" r="1"/>
<line x1="33.000000" y1="145.000000" x2="33.000000" y2="187.000000"  style="stroke: black; stroke-linecap:round; stroke-width:0.25; stroke-dasharray:3,3;"/>
<line x1="33.000000" y1="187.000000" x2="75.000000" y2="187.000000"  style="stroke: black; stroke-linecap:round; stroke-width:0.25; stroke-dasharray:3,3;"/>
<line x1="75.000000" y1="187.000000" x2="75.000000" y2="145.000000"  style="stroke: black; stroke-linecap:round; stroke-width:0.25; stroke-dasharray:3,3;"/>
<line x1="33.000000" y1="145.000000" x2="38.000000" y2="145.000000"  style="stroke: black; stroke-linecap:round; stroke-width:0.25; stroke-dasharray:3,3;"/>
<line x1="47.675000" y1="145.000000" x2="75.000000" y2="145.000000"  style="stroke: black; stroke-linecap:round; stroke-width:0.25; stroke-dasharray:3,3;"/>
<text x="38.000000" y="147.000000" font-family="Arial" font-size="7">k</text>
<rect x="35.650000" y="197.000000" width="38.700000" height="24.000000" rx="0" ry="0" style="stroke:none;fill:#cccccc;"/>
<rect x="34.650000" y="196.000000" width="38.700000" height="24.000000" rx="0" ry="0" style="stroke:none;fill:#47945E;"/>
<text x="54.000000" y="210.000000" font-family="Arial" font-size="7" text-anchor="middle" fill="#FFFFFF">cntrlMain</text>
<circle cx="36.650000" cy="198.000000" r="1"/>
<rect x="93.000000" y="171.000000" width="24.000000" height="24.000000" rx="0" ry="0" style="stroke:none;fill:#cccccc;"/>
<rect x="92.000000" y="170.000000" width="24.000000" height="24.000000" rx="0" ry="0" style="stroke:none;fill:#4B71A1;"/>
<text x="104.000000" y="184.000000" font-family="Arial" font-size="7" text-anchor="middle" fill="#FFFFFF">-</text>
<circle cx="94.000000" cy="172.000000" r="1"/>
<line x1="89.000000" y1="177.000000" x2="92.000000" y2="178.000000"  transform="rotate(0.000000,92.000000,178.000000)" style="stroke: black; stroke-width:0.25;"/>
<line x1="89.000000" y1="179.000000" x2="92.000000" y2="178.000000"  transform="rotate(0.000000,92.000000,178.000000)" style="stroke: black; stroke-width:0.25;"/>
<line x1="89.000000" y1="185.000000" x2="92.000000" y2="186.000000"  transform="rotate(0.000000,92.000000,186.000000)" style="stroke: black; stroke-width:0.25;"/>
<line x1="89.000000" y1="187.000000" x2="92.000000" y2="186.000000"  transform="rotate(0.000000,92.000000,186.000000)" style="stroke: black; stroke-width:0.25;"/>
<rect x="133.000000" y="145.000000" width="24.000000" height="24.000000" rx="0" ry="0" style="stroke:none;fill:#cccccc;"/>
<rect x="132.000000" y="144.000000" width="24.000000" height="24.000000" rx="0" ry="0" style="stroke:none;fill:#4B71A1;"/>
<text x="144.000000" y="158.000000" font-family="Arial" font-size="7" text-anchor="middle" fill="#FFFFFF">*</text>
<circle cx="134.000000" cy="146.000000" r="1"/>
<line x1="129.000000" y1="151.000000" x2="132.000000" y2="152.000000"  transform="rotate(0.000000,132.000000,152.000000)" style="stroke: black; stroke-width:0.25;"/>
<line x1="129.000000" y1="153.000000" x2="132.000000" y2="152.000000"  transform="rotate(0.000000,132.000000,152.000000)" style="stroke: black; stroke-width:0.25;"/>
<line x1="129.000000" y1="159.000000" x2="132.000000" y2="160.000000"  transform="rotate(0.000000,132.000000,160.000000)" style="stroke: black; stroke-width:0.25;"/>
<line x1="129.000000" y1="161.000000" x2="132.000000" y2="160.000000"  transform="rotate(0.000000,132.000000,160.000000)" style="stroke: black; stroke-width:0.25;"/>
<a xlink:href="SR-0x7f993c20cbd0.svg">
<rect x="83.000000" y="229.000000" width="24.000000" height="24.000000" rx="0" ry="0" style="stroke:none;fill:#cccccc;"/>
<rect x="82.000000" y="228.000000" width="24.000000" height="24.000000" rx="0" ry="0" style="stroke:none;fill:#003366;"/>
</a>
<a xlink:href="SR-0x7f993c20cbd0.svg">
<text x="94.000000" y="242.000000" font-family="Arial" font-size="7" text-anchor="middle" fill="#FFFFFF">SR</text>
</a>
<circle cx="84.000000" cy="230.000000" r="1"/>
<rect x="173.000000" y="161.000000" width="24.000000" height="24.000000" rx="0" ry="0" style="stroke:none;fill:#cccccc;"/>
<rect x="172.000000" y="160.000000" width="24.000000" height="24.000000" rx="0" ry="0" style="stroke:none;fill:#4B71A1;"/>
<text x="184.000000" y="174.000000" font-family="Arial" font-size="7" text-anchor="middle" fill="#FFFFFF">/</text>
<circle cx="174.000000" cy="162.000000" r="1"/>
<line x1="169.000000" y1="167.000000" x2="172.000000" y2="168.000000"  transform="rotate(0.000000,172.000000,168.000000)" style="stroke: black; stroke-width:0.25;"/>
<line x1="169.000000" y1="169.000000" x2="172.000000" y2="168.000000"  transform="rotate(0.000000,172.000000,168.000000)" style="stroke: black; stroke-width:0.25;"/>
<line x1="169.000000" y1="175.000000" x2="172.000000" y2="176.000000"  transform="rotate(0.000000,172.000000,176.000000)" style="stroke: black; stroke-width:0.25;"/>
<line x1="169.000000" y1="177.000000" x2="172.000000" y2="176.000000"  transform="rotate(0.000000,172.000000,176.000000)" style="stroke: black; stroke-width:0.25;"/>
<rect x="213.000000" y="157.000000" width="24.000000" height="24.000000" rx="0" ry="0" style="stroke:none;fill:#cccccc;"/>
<rect x="212.000000" y="156.000000" width="24.000000" height="24.000000" rx="0" ry="0" style="stroke:none;fill:#4B71A1;"/>
<text x="224.000000" y="170.000000" font-family="Arial" font-size="7" text-anchor="middle" fill="#FFFFFF">+</text>
<circle cx="214.000000" cy="158.000000" r="1"/>
<line x1="209.000000" y1="163.000000" x2="212.000000" y2="164.000000"  transform="rotate(0.000000,212.000000,164.000000)" style="stroke: black; stroke-width:0.25;"/>
<line x1="209.000000" y1="165.000000" x2="212.000000" y2="164.000000"  transform="rotate(0.000000,212.000000,164.000000)" style="stroke: black; stroke-width:0.25;"/>
<line x1="209.000000" y1="171.000000" x2="212.000000" y2="172.000000"  transform="rotate(0.000000,212.000000,172.000000)" style="stroke: black; stroke-width:0.25;"/>
<line x1="209.000000" y1="173.000000" x2="212.000000" y2="172.000000"  transform="rotate(0.000000,212.000000,172.000000)" style="stroke: black; stroke-width:0.25;"/>
<rect x="123.000000" y="271.000000" width="24.000000" height="24.000000" rx="0" ry="0" style="stroke:none;fill:#cccccc;"/>
<rect x="122.000000" y="270.000000" width="24.000000" height="24.000000" rx="0" ry="0" style="stroke:none;fill:#f44800;"/>
<text x="134.000000" y="284.000000" font-family="Arial" font-size="7" text-anchor="middle" fill="#FFFFFF">0</text>
<circle cx="124.000000" cy="272.000000" r="1"/>
<line x1="113.000000" y1="261.000000" x2="113.000000" y2="303.000000"  style="stroke: black; stroke-linecap:round; stroke-width:0.25; stroke-dasharray:3,3;"/>
<line x1="113.000000" y1="303.000000" x2="155.000000" y2="303.000000"  style="stroke: black; stroke-linecap:round; stroke-width:0.25; stroke-dasharray:3,3;"/>
<line x1="155.000000" y1="303.000000" x2="155.000000" y2="261.000000"  style="stroke: black; stroke-linecap:round; stroke-width:0.25; stroke-dasharray:3,3;"/>
<line x1="113.000000" y1="261.000000" x2="118.000000" y2="261.000000"  style="stroke: black; stroke-linecap:round; stroke-width:0.25; stroke-dasharray:3,3;"/>
<line x1="143.800000" y1="261.000000" x2="155.000000" y2="261.000000"  style="stroke: black; stroke-linecap:round; stroke-width:0.25; stroke-dasharray:3,3;"/>
<text x="118.000000" y="263.000000" font-family="Arial" font-size="7">parity</text>
<rect x="253.000000" y="157.000000" width="38.700000" height="24.000000" rx="0" ry="0" style="stroke:none;fill:#cccccc;"/>
<rect x="252.000000" y="156.000000" width="38.700000" height="24.000000" rx="0" ry="0" style="stroke:none;fill:#4B71A1;"/>
<text x="271.350000" y="170.000000" font-family="Arial" font-size="7" text-anchor="middle" fill="#FFFFFF">select2</text>
<circle cx="254.000000" cy="158.000000" r="1"/>
<line x1="249.000000" y1="159.000000" x2="252.000000" y2="160.000000"  transform="rotate(0.000000,252.000000,160.000000)" style="stroke: black; stroke-width:0.25;"/>
<line x1="249.000000" y1="161.000000" x2="252.000000" y2="160.000000"  transform="rotate(0.000000,252.000000,160.000000)" style="stroke: black; stroke-width:0.25;"/>
<line x1="249.000000" y1="167.000000" x2="252.000000" y2="168.000000"  transform="rotate(0.000000,252.000000,168.000000)" style="stroke: black; stroke-width:0.25;"/>
<line x1="249.000000" y1="169.000000" x2="252.000000" y2="168.000000"  transform="rotate(0.000000,252.000000,168.000000)" style="stroke: black; stroke-width:0.25;"/>
<line x1="249.000000" y1="175.000000" x2="252.000000" y2="176.000000"  transform="rotate(0.000000,252.000000,176.000000)" style="stroke: black; stroke-width:0.25;"/>
<line x1="249.000000" y1="177.000000" x2="252.000000" y2="176.000000"  transform="rotate(0.000000,252.000000,176.000000)" style="stroke: black; stroke-width:0.25;"/>
<a xlink:href="decimal-0x7f993c970180.svg">
<rect x="299.700000" y="157.000000" width="38.700000" height="24.000000" rx="0" ry="0" style="stroke:none;fill:#cccccc;"/>
<rect x="298.700000" y="156.000000" width="38.700000" height="24.000000" rx="0" ry="0" style="stroke:none;fill:#003366;"/>
</a>
<a xlink:href="decimal-0x7f993c970180.svg">
<text x="318.050000" y="170.000000" font-family="Arial" font-size="7" text-anchor="middle" fill="#FFFFFF">decimal</text>
</a>
<circle cx="300.700000" cy="158.000000" r="1"/>
<line x1="295.700000" y1="167.000000" x2="298.700000" y2="168.000000"  transform="rotate(0.000000,298.700000,168.000000)" style="stroke: black; stroke-width:0.25;"/>
<line x1="295.700000" y1="169.000000" x2="298.700000" y2="168.000000"  transform="rotate(0.000000,298.700000,168.000000)" style="stroke: black; stroke-width:0.25;"/>
<line x1="339.400000" y1="168.000000" x2="339.400000" y2="164.000000"  style="stroke:black; stroke-linecap:round; stroke-width:0.25;"/>
<line x1="339.400000" y1="164.000000" x2="343.400000" y2="164.000000"  style="stroke:black; stroke-linecap:round; stroke-width:0.25;"/>
<line x1="343.400000" y1="164.000000" x2="343.400000" y2="168.000000"  style="stroke:black; stroke-linecap:round; stroke-width:0.25;"/>
<line x1="15.000000" y1="15.000000" x2="15.000000" y2="313.000000"  style="stroke: black; stroke-linecap:round; stroke-width:0.25; stroke-dasharray:3,3;"/>
<line x1="15.000000" y1="313.000000" x2="370.400000" y2="313.000000"  style="stroke: black; stroke-linecap:round; stroke-width:0.25; stroke-dasharray:3,3;"/>
<line x1="370.400000" y1="313.000000" x2="370.400000" y2="15.000000"  style="stroke: black; stroke-linecap:round; stroke-width:0.25; stroke-dasharray:3,3;"/>
<line x1="15.000000" y1="15.000000" x2="20.000000" y2="15.000000"  style="stroke: black; stroke-linecap:round; stroke-width:0.25; stroke-dasharray:3,3;"/>
<line x1="119.975000" y1="15.000000" x2="370.400000" y2="15.000000"  style="stroke: black; stroke-linecap:round; stroke-width:0.25; stroke-dasharray:3,3;"/>
<text x="20.000000" y="17.000000" font-family="Arial" font-size="7">lf_sawpos(40,(1,x23 : -) : *)</text>
<line x1="372.400000" y1="163.000000" x2="375.400000" y2="164.000000"  transform="rotate(0.000000,375.400000,164.000000)" style="stroke: black; stroke-width:0.25;"/>
<line x1="372.400000" y1="165.000000" x2="375.400000" y2="164.000000"  transform="rotate(0.000000,375.400000,164.000000)" style="stroke: black; stroke-width:0.25;"/>
<line x1="28.000000" y1="24.000000" x2="28.000000" y2="24.000000"  style="stroke:black; stroke-linecap:round; stroke-width:0.25;"/>
<line x1="28.000000" y1="24.000000" x2="28.000000" y2="84.000000"  style="stroke:black; stroke-linecap:round; stroke-width:0.25;"/>
<line x1="28.000000" y1="84.000000" x2="28.000000" y2="84.000000"  style="stroke:black; stroke-linecap:round; stroke-width:0.25;"/>
<line x1="28.000000" y1="84.000000" x2="114.000000" y2="84.000000"  style="stroke:black; stroke-linecap:round; stroke-width:0.25;"/>
<line x1="66.000000" y1="166.000000" x2="70.000000" y2="166.000000"  style="stroke:black; stroke-linecap:round; stroke-width:0.25;"/>
<line x1="70.000000" y1="166.000000" x2="80.000000" y2="166.000000"  style="stroke:black; stroke-linecap:round; stroke-width:0.25;"/>
<line x1="73.350000" y1="208.000000" x2="77.350000" y2="208.000000"  style="stroke:black; stroke-linecap:round; stroke-width:0.25;"/>
<line x1="77.350000" y1="208.000000" x2="80.000000" y2="208.000000"  style="stroke:black; stroke-linecap:round; stroke-width:0.25;"/>
<line x1="80.000000" y1="166.000000" x2="88.000000" y2="166.000000"  style="stroke:black; stroke-linecap:round; stroke-width:0.25;"/>
<line x1="80.000000" y1="186.000000" x2="88.000000" y2="186.000000"  style="stroke:black; stroke-linecap:round; stroke-width:0.25;"/>
<line x1="80.000000" y1="208.000000" x2="80.000000" y2="186.000000"  style="stroke:black; stroke-linecap:round; stroke-width:0.25;"/>
<line x1="80.000000" y1="208.000000" x2="80.000000" y2="208.000000"  style="stroke:black; stroke-linecap:round; stroke-width:0.25;"/>
<line x1="86.000000" y1="114.000000" x2="90.000000" y2="114.000000"  style="stroke:black; stroke-linecap:round; stroke-width:0.25;"/>
<line x1="88.000000" y1="166.000000" x2="88.000000" y2="178.000000"  style="stroke:black; stroke-linecap:round; stroke-width:0.25;"/>
<line x1="88.000000" y1="178.000000" x2="88.000000" y2="178.000000"  style="stroke:black; stroke-linecap:round; stroke-width:0.25;"/>
<line x1="88.000000" y1="178.000000" x2="92.000000" y2="178.000000"  style="stroke:black; stroke-linecap:round; stroke-width:0.25;"/>
<line x1="88.000000" y1="186.000000" x2="92.000000" y2="186.000000"  style="stroke:black; stroke-linecap:round; stroke-width:0.25;"/>
<line x1="90.000000" y1="114.000000" x2="100.000000" y2="114.000000"  style="stroke:black; stroke-linecap:round; stroke-width:0.25;"/>
<line x1="100.000000" y1="114.000000" x2="120.000000" y2="114.000000"  style="stroke:black; stroke-linecap:round; stroke-width:0.25;"/>
<line x1="106.000000" y1="240.000000" x2="110.000000" y2="240.000000"  style="stroke:black; stroke-linecap:round; stroke-width:0.25;"/>
<line x1="110.000000" y1="240.000000" x2="160.000000" y2="240.000000"  style="stroke:black; stroke-linecap:round; stroke-width:0.25;"/>
<line x1="114.000000" y1="84.000000" x2="200.000000" y2="84.000000"  style="stroke:black; stroke-linecap:round; stroke-width:0.25;"/>
<line x1="116.000000" y1="182.000000" x2="120.000000" y2="182.000000"  style="stroke:black; stroke-linecap:round; stroke-width:0.25;"/>
<line x1="120.000000" y1="114.000000" x2="128.000000" y2="114.000000"  style="stroke:black; stroke-linecap:round; stroke-width:0.25;"/>
<line x1="120.000000" y1="160.000000" x2="128.000000" y2="160.000000"  style="stroke:black; stroke-linecap:round; stroke-width:0.25;"/>
<line x1="120.000000" y1="182.000000" x2="120.000000" y2="160.000000"  style="stroke:black; stroke-linecap:round; stroke-width:0.25;"/>
<line x1="120.000000" y1="182.000000" x2="120.000000" y2="182.000000"  style="stroke:black; stroke-linecap:round; stroke-width:0.25;"/>
<line x1="128.000000" y1="114.000000" x2="128.000000" y2="152.000000"  style="stroke:black; stroke-linecap:round; stroke-width:0.25;"/>
<line x1="128.000000" y1="152.000000" x2="128.000000" y2="152.000000"  style="stroke:black; stroke-linecap:round; stroke-width:0.25;"/>
<line x1="128.000000" y1="152.000000" x2="132.000000" y2="152.000000"  style="stroke:black; stroke-linecap:round; stroke-width:0.25;"/>
<line x1="128.000000" y1="160.000000" x2="132.000000" y2="160.000000"  style="stroke:black; stroke-linecap:round; stroke-width:0.25;"/>
<line x1="146.000000" y1="54.000000" x2="150.000000" y2="54.000000"  style="stroke:black; stroke-linecap:round; stroke-width:0.25;"/>
<line x1="146.000000" y1="282.000000" x2="150.000000" y2="282.000000"  style="stroke:black; stroke-linecap:round; stroke-width:0.25;"/>
<line x1="150.000000" y1="54.000000" x2="160.000000" y2="54.000000"  style="stroke:black; stroke-linecap:round; stroke-width:0.25;"/>
<line x1="150.000000" y1="282.000000" x2="160.000000" y2="282.000000"  style="stroke:black; stroke-linecap:round; stroke-width:0.25;"/>
<line x1="156.000000" y1="156.000000" x2="160.000000" y2="156.000000"  style="stroke:black; stroke-linecap:round; stroke-width:0.25;"/>
<line x1="160.000000" y1="54.000000" x2="240.000000" y2="54.000000"  style="stroke:black; stroke-linecap:round; stroke-width:0.25;"/>
<line x1="160.000000" y1="156.000000" x2="168.000000" y2="156.000000"  style="stroke:black; stroke-linecap:round; stroke-width:0.25;"/>
<line x1="160.000000" y1="176.000000" x2="168.000000" y2="176.000000"  style="stroke:black; stroke-linecap:round; stroke-width:0.25;"/>
<line x1="160.000000" y1="240.000000" x2="160.000000" y2="176.000000"  style="stroke:black; stroke-linecap:round; stroke-width:0.25;"/>
<line x1="160.000000" y1="240.000000" x2="160.000000" y2="240.000000"  style="stroke:black; stroke-linecap:round; stroke-width:0.25;"/>
<line x1="160.000000" y1="282.000000" x2="240.000000" y2="282.000000"  style="stroke:black; stroke-linecap:round; stroke-width:0.25;"/>
<line x1="168.000000" y1="156.000000" x2="168.000000" y2="168.000000"  style="stroke:black; stroke-linecap:round; stroke-width:0.25;"/>
<line x1="168.000000" y1="168.000000" x2="168.000000" y2="168.000000"  style="stroke:black; stroke-linecap:round; stroke-width:0.25;"/>
<line x1="168.000000" y1="168.000000" x2="172.000000" y2="168.000000"  style="stroke:black; stroke-linecap:round; stroke-width:0.25;"/>
<line x1="168.000000" y1="176.000000" x2="172.000000" y2="176.000000"  style="stroke:black; stroke-linecap:round; stroke-width:0.25;"/>
<line x1="184.700000" y1="24.000000" x2="28.000000" y2="24.000000"  style="stroke:black; stroke-linecap:round; stroke-width:0.25;"/>
<line x1="196.000000" y1="172.000000" x2="200.000000" y2="172.000000"  style="stroke:black; stroke-linecap:round; stroke-width:0.25;"/>
<line x1="200.000000" y1="84.000000" x2="208.000000" y2="84.000000"  style="stroke:black; stroke-linecap:round; stroke-width:0.25;"/>
<line x1="200.000000" y1="172.000000" x2="208.000000" y2="172.000000"  style="stroke:black; stroke-linecap:round; stroke-width:0.25;"/>
<line x1="208.000000" y1="84.000000" x2="208.000000" y2="164.000000"  style="stroke:black; stroke-linecap:round; stroke-width:0.25;"/>
<line x1="208.000000" y1="164.000000" x2="208.000000" y2="164.000000"  style="stroke:black; stroke-linecap:round; stroke-width:0.25;"/>
<line x1="208.000000" y1="164.000000" x2="212.000000" y2="164.000000"  style="stroke:black; stroke-linecap:round; stroke-width:0.25;"/>
<line x1="208.000000" y1="172.000000" x2="212.000000" y2="172.000000"  style="stroke:black; stroke-linecap:round; stroke-width:0.25;"/>
<line x1="236.000000" y1="168.000000" x2="240.000000" y2="168.000000"  style="stroke:black; stroke-linecap:round; stroke-width:0.25;"/>
<line x1="240.000000" y1="54.000000" x2="248.000000" y2="54.000000"  style="stroke:black; stroke-linecap:round; stroke-width:0.25;"/>
<line x1="240.000000" y1="168.000000" x2="248.000000" y2="168.000000"  style="stroke:black; stroke-linecap:round; stroke-width:0.25;"/>
<line x1="240.000000" y1="176.000000" x2="248.000000" y2="176.000000"  style="stroke:black; stroke-linecap:round; stroke-width:0.25;"/>
<line x1="240.000000" y1="282.000000" x2="240.000000" y2="176.000000"  style="stroke:black; stroke-linecap:round; stroke-width:0.25;"/>
<line x1="240.000000" y1="282.000000" x2="240.000000" y2="282.000000"  style="stroke:black; stroke-linecap:round; stroke-width:0.25;"/>
<line x1="248.000000" y1="54.000000" x2="248.000000" y2="160.000000"  style="stroke:black; stroke-linecap:round; stroke-width:0.25;"/>
<line x1="248.000000" y1="160.000000" x2="248.000000" y2="160.000000"  style="stroke:black; stroke-linecap:round; stroke-width:0.25;"/>
<line x1="248.000000" y1="160.000000" x2="252.000000" y2="160.000000"  style="stroke:black; stroke-linecap:round; stroke-width:0.25;"/>
<line x1="248.000000" y1="168.000000" x2="252.000000" y2="168.000000"  style="stroke:black; stroke-linecap:round; stroke-width:0.25;"/>
<line x1="248.000000" y1="176.000000" x2="252.000000" y2="176.000000"  style="stroke:black; stroke-linecap:round; stroke-width:0.25;"/>
<line x1="290.700000" y1="168.000000" x2="294.700000" y2="168.000000"  style="stroke:black; stroke-linecap:round; stroke-width:0.25;"/>
<line x1="294.700000" y1="168.000000" x2="294.700000" y2="168.000000"  style="stroke:black; stroke-linecap:round; stroke-width:0.25;"/>
<line x1="294.700000" y1="168.000000" x2="298.700000" y2="168.000000"  style="stroke:black; stroke-linecap:round; stroke-width:0.25;"/>
<line x1="337.400000" y1="168.000000" x2="341.400000" y2="168.000000"  style="stroke:black; stroke-linecap:round; stroke-width:0.25;"/>
<line x1="341.400000" y1="24.000000" x2="184.700000" y2="24.000000"  style="stroke:black; stroke-linecap:round; stroke-width:0.25;"/>
<line x1="341.400000" y1="24.000000" x2="341.400000" y2="24.000000"  style="stroke:black; stroke-linecap:round; stroke-width:0.25;"/>
<line x1="341.400000" y1="164.000000" x2="341.400000" y2="24.000000"  style="stroke:black; stroke-linecap:round; stroke-width:0.25;"/>
<line x1="341.400000" y1="168.000000" x2="343.400000" y2="168.000000"  style="stroke:black; stroke-linecap:round; stroke-width:0.25;"/>
<line x1="343.400000" y1="168.000000" x2="349.400000" y2="168.000000"  style="stroke:black; stroke-linecap:round; stroke-width:0.25;"/>
<line x1="349.400000" y1="164.000000" x2="357.400000" y2="164.000000"  style="stroke:black; stroke-linecap:round; stroke-width:0.25;"/>
<line x1="349.400000" y1="168.000000" x2="349.400000" y2="164.000000"  style="stroke:black; stroke-linecap:round; stroke-width:0.25;"/>
<line x1="349.400000" y1="168.000000" x2="349.400000" y2="168.000000"  style="stroke:black; stroke-linecap:round; stroke-width:0.25;"/>
<line x1="357.400000" y1="164.000000" x2="361.400000" y2="164.000000"  style="stroke:black; stroke-linecap:round; stroke-width:0.25;"/>
<line x1="361.400000" y1="164.000000" x2="365.400000" y2="164.000000"  style="stroke:black; stroke-linecap:round; stroke-width:0.25;"/>
<line x1="365.400000" y1="164.000000" x2="375.400000" y2="164.000000"  style="stroke:black; stroke-linecap:round; stroke-width:0.25;"/>
</svg>
