<?xml version="1.0"?>
<svg xmlns="http://www.w3.org/2000/svg" xmlns:xlink="http://www.w3.org/1999/xlink" viewBox="0 0 313.000000 224.000000" width="156.500000mm" height="112.000000mm" version="1.1">
<a xlink:href="saw1-0x7f993c990310.svg">
<rect x="1.000000" y="1.000000" width="312.000000" height="223.000000" rx="0" ry="0" style="stroke:none;fill:#cccccc;"/>
<rect x="0.000000" y="0.000000" width="312.000000" height="223.000000" rx="0" ry="0" style="stroke:none;fill:#ffffff;"/>
</a>
<text x="10.000000" y="7.000000" font-family="Arial" font-size="7"></text>
<rect x="86.800000" y="43.000000" width="24.000000" height="24.000000" rx="0" ry="0" style="stroke:none;fill:#cccccc;"/>
<rect x="85.800000" y="42.000000" width="24.000000" height="24.000000" rx="0" ry="0" style="stroke:none;fill:#f44800;"/>
<text x="97.800000" y="56.000000" font-family="Arial" font-size="7" text-anchor="middle" fill="#FFFFFF">0</text>
<circle cx="87.800000" cy="44.000000" r="1"/>
<line x1="76.800000" y1="33.000000" x2="76.800000" y2="75.000000"  style="stroke: black; stroke-linecap:round; stroke-width:0.25; stroke-dasharray:3,3;"/>
<line x1="76.800000" y1="75.000000" x2="118.800000" y2="75.000000"  style="stroke: black; stroke-linecap:round; stroke-width:0.25; stroke-dasharray:3,3;"/>
<line x1="118.800000" y1="75.000000" x2="118.800000" y2="33.000000"  style="stroke: black; stroke-linecap:round; stroke-width:0.25; stroke-dasharray:3,3;"/>
<line x1="76.800000" y1="33.000000" x2="81.800000" y2="33.000000"  style="stroke: black; stroke-linecap:round; stroke-width:0.25; stroke-dasharray:3,3;"/>
<line x1="107.600000" y1="33.000000" x2="118.800000" y2="33.000000"  style="stroke: black; stroke-linecap:round; stroke-width:0.25; stroke-dasharray:3,3;"/>
<text x="81.800000" y="35.000000" font-family="Arial" font-size="7">parity</text>
<rect x="33.000000" y="93.000000" width="51.600000" height="24.000000" rx="0" ry="0" style="stroke:none;fill:#cccccc;"/>
<rect x="32.000000" y="92.000000" width="51.600000" height="24.000000" rx="0" ry="0" style="stroke:none;fill:#f44800;"/>
<text x="57.800000" y="106.000000" font-family="Arial" font-size="7" text-anchor="middle" fill="#FFFFFF">0.00416667</text>
<circle cx="34.000000" cy="94.000000" r="1"/>
<a xlink:href="SR-0x7f993c20cbd0.svg">
<rect x="46.800000" y="125.000000" width="24.000000" height="24.000000" rx="0" ry="0" style="stroke:none;fill:#cccccc;"/>
<rect x="45.800000" y="124.000000" width="24.000000" height="24.000000" rx="0" ry="0" style="stroke:none;fill:#003366;"/>
</a>
<a xlink:href="SR-0x7f993c20cbd0.svg">
<text x="57.800000" y="138.000000" font-family="Arial" font-size="7" text-anchor="middle" fill="#FFFFFF">SR</text>
</a>
<circle cx="47.800000" cy="126.000000" r="1"/>
<rect x="100.600000" y="109.000000" width="24.000000" height="24.000000" rx="0" ry="0" style="stroke:none;fill:#cccccc;"/>
<rect x="99.600000" y="108.000000" width="24.000000" height="24.000000" rx="0" ry="0" style="stroke:none;fill:#4B71A1;"/>
<text x="111.600000" y="122.000000" font-family="Arial" font-size="7" text-anchor="middle" fill="#FFFFFF">/</text>
<circle cx="101.600000" cy="110.000000" r="1"/>
<line x1="96.600000" y1="115.000000" x2="99.600000" y2="116.000000"  transform="rotate(0.000000,99.600000,116.000000)" style="stroke: black; stroke-width:0.25;"/>
<line x1="96.600000" y1="117.000000" x2="99.600000" y2="116.000000"  transform="rotate(0.000000,99.600000,116.000000)" style="stroke: black; stroke-width:0.25;"/>
<line x1="96.600000" y1="123.000000" x2="99.600000" y2="124.000000"  transform="rotate(0.000000,99.600000,124.000000)" style="stroke: black; stroke-width:0.25;"/>
<line x1="96.600000" y1="125.000000" x2="99.600000" y2="124.000000"  transform="rotate(0.000000,99.600000,124.000000)" style="stroke: black; stroke-width:0.25;"/>
<rect x="140.600000" y="105.000000" width="24.000000" height="24.000000" rx="0" ry="0" style="stroke:none;fill:#cccccc;"/>
<rect x="139.600000" y="104.000000" width="24.000000" height="24.000000" rx="0" ry="0" style="stroke:none;fill:#4B71A1;"/>
<text x="151.600000" y="118.000000" font-family="Arial" font-size="7" text-anchor="middle" fill="#FFFFFF">+</text>
<circle cx="141.600000" cy="106.000000" r="1"/>
<line x1="136.600000" y1="111.000000" x2="139.600000" y2="112.000000"  transform="rotate(0.000000,139.600000,112.000000)" style="stroke: black; stroke-width:0.25;"/>
<line x1="136.600000" y1="113.000000" x2="139.600000" y2="112.000000"  transform="rotate(0.000000,139.600000,112.000000)" style="stroke: black; stroke-width:0.25;"/>
<line x1="136.600000" y1="119.000000" x2="139.600000" y2="120.000000"  transform="rotate(0.000000,139.600000,120.000000)" style="stroke: black; stroke-width:0.25;"/>
<line x1="136.600000" y1="121.000000" x2="139.600000" y2="120.000000"  transform="rotate(0.000000,139.600000,120.000000)" style="stroke: black; stroke-width:0.25;"/>
<rect x="86.800000" y="167.000000" width="24.000000" height="24.000000" rx="0" ry="0" style="stroke:none;fill:#cccccc;"/>
<rect x="85.800000" y="166.000000" width="24.000000" height="24.000000" rx="0" ry="0" style="stroke:none;fill:#f44800;"/>
<text x="97.800000" y="180.000000" font-family="Arial" font-size="7" text-anchor="middle" fill="#FFFFFF">0</text>
<circle cx="87.800000" cy="168.000000" r="1"/>
<line x1="76.800000" y1="157.000000" x2="76.800000" y2="199.000000"  style="stroke: black; stroke-linecap:round; stroke-width:0.25; stroke-dasharray:3,3;"/>
<line x1="76.800000" y1="199.000000" x2="118.800000" y2="199.000000"  style="stroke: black; stroke-linecap:round; stroke-width:0.25; stroke-dasharray:3,3;"/>
<line x1="118.800000" y1="199.000000" x2="118.800000" y2="157.000000"  style="stroke: black; stroke-linecap:round; stroke-width:0.25; stroke-dasharray:3,3;"/>
<line x1="76.800000" y1="157.000000" x2="81.800000" y2="157.000000"  style="stroke: black; stroke-linecap:round; stroke-width:0.25; stroke-dasharray:3,3;"/>
<line x1="107.600000" y1="157.000000" x2="118.800000" y2="157.000000"  style="stroke: black; stroke-linecap:round; stroke-width:0.25; stroke-dasharray:3,3;"/>
<text x="81.800000" y="159.000000" font-family="Arial" font-size="7">parity</text>
<rect x="180.600000" y="105.000000" width="38.700000" height="24.000000" rx="0" ry="0" style="stroke:none;fill:#cccccc;"/>
<rect x="179.600000" y="104.000000" width="38.700000" height="24.000000" rx="0" ry="0" style="stroke:none;fill:#4B71A1;"/>
<text x="198.950000" y="118.000000" font-family="Arial" font-size="7" text-anchor="middle" fill="#FFFFFF">select2</text>
<circle cx="181.600000" cy="106.000000" r="1"/>
<line x1="176.600000" y1="107.000000" x2="179.600000" y2="108.000000"  transform="rotate(0.000000,179.600000,108.000000)" style="stroke: black; stroke-width:0.25;"/>
<line x1="176.600000" y1="109.000000" x2="179.600000" y2="108.000000"  transform="rotate(0.000000,179.600000,108.000000)" style="stroke: black; stroke-width:0.25;"/>
<line x1="176.600000" y1="115.000000" x2="179.600000" y2="116.000000"  transform="rotate(0.000000,179.600000,116.000000)" style="stroke: black; stroke-width:0.25;"/>
<line x1="176.600000" y1="117.000000" x2="179.600000" y2="116.000000"  transform="rotate(0.000000,179.600000,116.000000)" style="stroke: black; stroke-width:0.25;"/>
<line x1="176.600000" y1="123.000000" x2="179.600000" y2="124.000000"  transform="rotate(0.000000,179.600000,124.000000)" style="stroke: black; stroke-width:0.25;"/>
<line x1="176.600000" y1="125.000000" x2="179.600000" y2="124.000000"  transform="rotate(0.000000,179.600000,124.000000)" style="stroke: black; stroke-width:0.25;"/>
<a xlink:href="decimal-0x7f993c970180.svg">
<rect x="227.300000" y="105.000000" width="38.700000" height="24.000000" rx="0" ry="0" style="stroke:none;fill:#cccccc;"/>
<rect x="226.300000" y="104.000000" width="38.700000" height="24.000000" rx="0" ry="0" style="stroke:none;fill:#003366;"/>
</a>
<a xlink:href="decimal-0x7f993c970180.svg">
<text x="245.650000" y="118.000000" font-family="Arial" font-size="7" text-anchor="middle" fill="#FFFFFF">decimal</text>
</a>
<circle cx="228.300000" cy="106.000000" r="1"/>
<line x1="223.300000" y1="115.000000" x2="226.300000" y2="116.000000"  transform="rotate(0.000000,226.300000,116.000000)" style="stroke: black; stroke-width:0.25;"/>
<line x1="223.300000" y1="117.000000" x2="226.300000" y2="116.000000"  transform="rotate(0.000000,226.300000,116.000000)" style="stroke: black; stroke-width:0.25;"/>
<line x1="267.000000" y1="116.000000" x2="267.000000" y2="112.000000"  style="stroke:black; stroke-linecap:round; stroke-width:0.25;"/>
<line x1="267.000000" y1="112.000000" x2="271.000000" y2="112.000000"  style="stroke:black; stroke-linecap:round; stroke-width:0.25;"/>
<line x1="271.000000" y1="112.000000" x2="271.000000" y2="116.000000"  style="stroke:black; stroke-linecap:round; stroke-width:0.25;"/>
<line x1="15.000000" y1="15.000000" x2="15.000000" y2="209.000000"  style="stroke: black; stroke-linecap:round; stroke-width:0.25; stroke-dasharray:3,3;"/>
<line x1="15.000000" y1="209.000000" x2="298.000000" y2="209.000000"  style="stroke: black; stroke-linecap:round; stroke-width:0.25; stroke-dasharray:3,3;"/>
<line x1="298.000000" y1="209.000000" x2="298.000000" y2="15.000000"  style="stroke: black; stroke-linecap:round; stroke-width:0.25; stroke-dasharray:3,3;"/>
<line x1="15.000000" y1="15.000000" x2="20.000000" y2="15.000000"  style="stroke: black; stroke-linecap:round; stroke-width:0.25; stroke-dasharray:3,3;"/>
<line x1="132.875000" y1="15.000000" x2="298.000000" y2="15.000000"  style="stroke: black; stroke-linecap:round; stroke-width:0.25; stroke-dasharray:3,3;"/>
<text x="20.000000" y="17.000000" font-family="Arial" font-size="7">lf_sawpos(0.0041666666666666666f)</text>
<line x1="300.000000" y1="111.000000" x2="303.000000" y2="112.000000"  transform="rotate(0.000000,303.000000,112.000000)" style="stroke: black; stroke-width:0.25;"/>
<line x1="300.000000" y1="113.000000" x2="303.000000" y2="112.000000"  transform="rotate(0.000000,303.000000,112.000000)" style="stroke: black; stroke-width:0.25;"/>
<line x1="28.000000" y1="24.000000" x2="28.000000" y2="24.000000"  style="stroke:black; stroke-linecap:round; stroke-width:0.25;"/>
<line x1="28.000000" y1="24.000000" x2="28.000000" y2="84.000000"  style="stroke:black; stroke-linecap:round; stroke-width:0.25;"/>
<line x1="28.000000" y1="84.000000" x2="28.000000" y2="84.000000"  style="stroke:black; stroke-linecap:round; stroke-width:0.25;"/>
<line x1="28.000000" y1="84.000000" x2="77.800000" y2="84.000000"  style="stroke:black; stroke-linecap:round; stroke-width:0.25;"/>
<line x1="69.800000" y1="136.000000" x2="73.800000" y2="136.000000"  style="stroke:black; stroke-linecap:round; stroke-width:0.25;"/>
<line x1="73.800000" y1="136.000000" x2="87.600000" y2="136.000000"  style="stroke:black; stroke-linecap:round; stroke-width:0.25;"/>
<line x1="77.800000" y1="84.000000" x2="127.600000" y2="84.000000"  style="stroke:black; stroke-linecap:round; stroke-width:0.25;"/>
<line x1="83.600000" y1="104.000000" x2="87.600000" y2="104.000000"  style="stroke:black; stroke-linecap:round; stroke-width:0.25;"/>
<line x1="87.600000" y1="104.000000" x2="95.600000" y2="104.000000"  style="stroke:black; stroke-linecap:round; stroke-width:0.25;"/>
<line x1="87.600000" y1="124.000000" x2="95.600000" y2="124.000000"  style="stroke:black; stroke-linecap:round; stroke-width:0.25;"/>
<line x1="87.600000" y1="136.000000" x2="87.600000" y2="124.000000"  style="stroke:black; stroke-linecap:round; stroke-width:0.25;"/>
<line x1="87.600000" y1="136.000000" x2="87.600000" y2="136.000000"  style="stroke:black; stroke-linecap:round; stroke-width:0.25;"/>
<line x1="95.600000" y1="104.000000" x2="95.600000" y2="116.000000"  style="stroke:black; stroke-linecap:round; stroke-width:0.25;"/>
<line x1="95.600000" y1="116.000000" x2="95.600000" y2="116.000000"  style="stroke:black; stroke-linecap:round; stroke-width:0.25;"/>
<line x1="95.600000" y1="116.000000" x2="99.600000" y2="116.000000"  style="stroke:black; stroke-linecap:round; stroke-width:0.25;"/>
<line x1="95.600000" y1="124.000000" x2="99.600000" y2="124.000000"  style="stroke:black; stroke-linecap:round; stroke-width:0.25;"/>
<line x1="109.800000" y1="54.000000" x2="113.800000" y2="54.000000"  style="stroke:black; stroke-linecap:round; stroke-width:0.25;"/>
<line x1="109.800000" y1="178.000000" x2="113.800000" y2="178.000000"  style="stroke:black; stroke-linecap:round; stroke-width:0.25;"/>
<line x1="113.800000" y1="54.000000" x2="123.800000" y2="54.000000"  style="stroke:black; stroke-linecap:round; stroke-width:0.25;"/>
<line x1="113.800000" y1="178.000000" x2="123.800000" y2="178.000000"  style="stroke:black; stroke-linecap:round; stroke-width:0.25;"/>
<line x1="123.600000" y1="120.000000" x2="127.600000" y2="120.000000"  style="stroke:black; stroke-linecap:round; stroke-width:0.25;"/>
<line x1="123.800000" y1="54.000000" x2="167.600000" y2="54.000000"  style="stroke:black; stroke-linecap:round; stroke-width:0.25;"/>
<line x1="123.800000" y1="178.000000" x2="167.600000" y2="178.000000"  style="stroke:black; stroke-linecap:round; stroke-width:0.25;"/>
<line x1="127.600000" y1="84.000000" x2="135.600000" y2="84.000000"  style="stroke:black; stroke-linecap:round; stroke-width:0.25;"/>
<line x1="127.600000" y1="120.000000" x2="135.600000" y2="120.000000"  style="stroke:black; stroke-linecap:round; stroke-width:0.25;"/>
<line x1="135.600000" y1="84.000000" x2="135.600000" y2="112.000000"  style="stroke:black; stroke-linecap:round; stroke-width:0.25;"/>
<line x1="135.600000" y1="112.000000" x2="135.600000" y2="112.000000"  style="stroke:black; stroke-linecap:round; stroke-width:0.25;"/>
<line x1="135.600000" y1="112.000000" x2="139.600000" y2="112.000000"  style="stroke:black; stroke-linecap:round; stroke-width:0.25;"/>
<line x1="135.600000" y1="120.000000" x2="139.600000" y2="120.000000"  style="stroke:black; stroke-linecap:round; stroke-width:0.25;"/>
<line x1="148.500000" y1="24.000000" x2="28.000000" y2="24.000000"  style="stroke:black; stroke-linecap:round; stroke-width:0.25;"/>
<line x1="163.600000" y1="116.000000" x2="167.600000" y2="116.000000"  style="stroke:black; stroke-linecap:round; stroke-width:0.25;"/>
<line x1="167.600000" y1="54.000000" x2="175.600000" y2="54.000000"  style="stroke:black; stroke-linecap:round; stroke-width:0.25;"/>
<line x1="167.600000" y1="116.000000" x2="175.600000" y2="116.000000"  style="stroke:black; stroke-linecap:round; stroke-width:0.25;"/>
<line x1="167.600000" y1="124.000000" x2="175.600000" y2="124.000000"  style="stroke:black; stroke-linecap:round; stroke-width:0.25;"/>
<line x1="167.600000" y1="178.000000" x2="167.600000" y2="124.000000"  style="stroke:black; stroke-linecap:round; stroke-width:0.25;"/>
<line x1="167.600000" y1="178.000000" x2="167.600000" y2="178.000000"  style="stroke:black; stroke-linecap:round; stroke-width:0.25;"/>
<line x1="175.600000" y1="54.000000" x2="175.600000" y2="108.000000"  style="stroke:black; stroke-linecap:round; stroke-width:0.25;"/>
<line x1="175.600000" y1="108.000000" x2="175.600000" y2="108.000000"  style="stroke:black; stroke-linecap:round; stroke-width:0.25;"/>
<line x1="175.600000" y1="108.000000" x2="179.600000" y2="108.000000"  style="stroke:black; stroke-linecap:round; stroke-width:0.25;"/>
<line x1="175.600000" y1="116.000000" x2="179.600000" y2="116.000000"  style="stroke:black; stroke-linecap:round; stroke-width:0.25;"/>
<line x1="175.600000" y1="124.000000" x2="179.600000" y2="124.000000"  style="stroke:black; stroke-linecap:round; stroke-width:0.25;"/>
<line x1="218.300000" y1="116.000000" x2="222.300000" y2="116.000000"  style="stroke:black; stroke-linecap:round; stroke-width:0.25;"/>
<line x1="222.300000" y1="116.000000" x2="222.300000" y2="116.000000"  style="stroke:black; stroke-linecap:round; stroke-width:0.25;"/>
<line x1="222.300000" y1="116.000000" x2="226.300000" y2="116.000000"  style="stroke:black; stroke-linecap:round; stroke-width:0.25;"/>
<line x1="265.000000" y1="116.000000" x2="269.000000" y2="116.000000"  style="stroke:black; stroke-linecap:round; stroke-width:0.25;"/>
<line x1="269.000000" y1="24.000000" x2="148.500000" y2="24.000000"  style="stroke:black; stroke-linecap:round; stroke-width:0.25;"/>
<line x1="269.000000" y1="24.000000" x2="269.000000" y2="24.000000"  style="stroke:black; stroke-linecap:round; stroke-width:0.25;"/>
<line x1="269.000000" y1="112.000000" x2="269.000000" y2="24.000000"  style="stroke:black; stroke-linecap:round; stroke-width:0.25;"/>
<line x1="269.000000" y1="116.000000" x2="271.000000" y2="116.000000"  style="stroke:black; stroke-linecap:round; stroke-width:0.25;"/>
<line x1="271.000000" y1="116.000000" x2="277.000000" y2="116.000000"  style="stroke:black; stroke-linecap:round; stroke-width:0.25;"/>
<line x1="277.000000" y1="112.000000" x2="285.000000" y2="112.000000"  style="stroke:black; stroke-linecap:round; stroke-width:0.25;"/>
<line x1="277.000000" y1="116.000000" x2="277.000000" y2="112.000000"  style="stroke:black; stroke-linecap:round; stroke-width:0.25;"/>
<line x1="277.000000" y1="116.000000" x2="277.000000" y2="116.000000"  style="stroke:black; stroke-linecap:round; stroke-width:0.25;"/>
<line x1="285.000000" y1="112.000000" x2="289.000000" y2="112.000000"  style="stroke:black; stroke-linecap:round; stroke-width:0.25;"/>
<line x1="289.000000" y1="112.000000" x2="293.000000" y2="112.000000"  style="stroke:black; stroke-linecap:round; stroke-width:0.25;"/>
<line x1="293.000000" y1="112.000000" x2="303.000000" y2="112.000000"  style="stroke:black; stroke-linecap:round; stroke-width:0.25;"/>
</svg>
