<?xml version="1.0"?>
<svg xmlns="http://www.w3.org/2000/svg" xmlns:xlink="http://www.w3.org/1999/xlink" viewBox="0 0 300.100000 224.000000" width="150.050000mm" height="112.000000mm" version="1.1">
<a xlink:href="saw1-0x7f5410a2b1d0.svg">
<rect x="1.000000" y="1.000000" width="299.100000" height="223.000000" rx="0" ry="0" style="stroke:none;fill:#cccccc;"/>
<rect x="0.000000" y="0.000000" width="299.100000" height="223.000000" rx="0" ry="0" style="stroke:none;fill:#ffffff;"/>
</a>
<text x="10.000000" y="7.000000" font-family="Arial" font-size="7"></text>
<rect x="80.350000" y="43.000000" width="24.000000" height="24.000000" rx="0" ry="0" style="stroke:none;fill:#cccccc;"/>
<rect x="79.350000" y="42.000000" width="24.000000" height="24.000000" rx="0" ry="0" style="stroke:none;fill:#f44800;"/>
<text x="91.350000" y="56.000000" font-family="Arial" font-size="7" text-anchor="middle" fill="#FFFFFF">0</text>
<circle cx="81.350000" cy="44.000000" r="1"/>
<line x1="70.350000" y1="33.000000" x2="70.350000" y2="75.000000"  style="stroke: black; stroke-linecap:round; stroke-width:0.25; stroke-dasharray:3,3;"/>
<line x1="70.350000" y1="75.000000" x2="112.350000" y2="75.000000"  style="stroke: black; stroke-linecap:round; stroke-width:0.25; stroke-dasharray:3,3;"/>
<line x1="112.350000" y1="75.000000" x2="112.350000" y2="33.000000"  style="stroke: black; stroke-linecap:round; stroke-width:0.25; stroke-dasharray:3,3;"/>
<line x1="70.350000" y1="33.000000" x2="75.350000" y2="33.000000"  style="stroke: black; stroke-linecap:round; stroke-width:0.25; stroke-dasharray:3,3;"/>
<line x1="107.600000" y1="33.000000" x2="112.350000" y2="33.000000"  style="stroke: black; stroke-linecap:round; stroke-width:0.25; stroke-dasharray:3,3;"/>
<text x="75.350000" y="35.000000" font-family="Arial" font-size="7">xVals(0)</text>
<rect x="33.000000" y="93.000000" width="38.700000" height="24.000000" rx="0" ry="0" style="stroke:none;fill:#cccccc;"/>
<rect x="32.000000" y="92.000000" width="38.700000" height="24.000000" rx="0" ry="0" style="stroke:none;fill:#f44800;"/>
<text x="51.350000" y="106.000000" font-family="Arial" font-size="7" text-anchor="middle" fill="#FFFFFF">0.0416667</text>
<circle cx="34.000000" cy="94.000000" r="1"/>
<a xlink:href="SR-0x7f541024b6d0.svg">
<rect x="40.350000" y="125.000000" width="24.000000" height="24.000000" rx="0" ry="0" style="stroke:none;fill:#cccccc;"/>
<rect x="39.350000" y="124.000000" width="24.000000" height="24.000000" rx="0" ry="0" style="stroke:none;fill:#003366;"/>
</a>
<a xlink:href="SR-0x7f541024b6d0.svg">
<text x="51.350000" y="138.000000" font-family="Arial" font-size="7" text-anchor="middle" fill="#FFFFFF">SR</text>
</a>
<circle cx="41.350000" cy="126.000000" r="1"/>
<rect x="87.700000" y="109.000000" width="24.000000" height="24.000000" rx="0" ry="0" style="stroke:none;fill:#cccccc;"/>
<rect x="86.700000" y="108.000000" width="24.000000" height="24.000000" rx="0" ry="0" style="stroke:none;fill:#4B71A1;"/>
<text x="98.700000" y="122.000000" font-family="Arial" font-size="7" text-anchor="middle" fill="#FFFFFF">/</text>
<circle cx="88.700000" cy="110.000000" r="1"/>
<line x1="83.700000" y1="115.000000" x2="86.700000" y2="116.000000"  transform="rotate(0.000000,86.700000,116.000000)" style="stroke: black; stroke-width:0.25;"/>
<line x1="83.700000" y1="117.000000" x2="86.700000" y2="116.000000"  transform="rotate(0.000000,86.700000,116.000000)" style="stroke: black; stroke-width:0.25;"/>
<line x1="83.700000" y1="123.000000" x2="86.700000" y2="124.000000"  transform="rotate(0.000000,86.700000,124.000000)" style="stroke: black; stroke-width:0.25;"/>
<line x1="83.700000" y1="125.000000" x2="86.700000" y2="124.000000"  transform="rotate(0.000000,86.700000,124.000000)" style="stroke: black; stroke-width:0.25;"/>
<rect x="127.700000" y="105.000000" width="24.000000" height="24.000000" rx="0" ry="0" style="stroke:none;fill:#cccccc;"/>
<rect x="126.700000" y="104.000000" width="24.000000" height="24.000000" rx="0" ry="0" style="stroke:none;fill:#4B71A1;"/>
<text x="138.700000" y="118.000000" font-family="Arial" font-size="7" text-anchor="middle" fill="#FFFFFF">+</text>
<circle cx="128.700000" cy="106.000000" r="1"/>
<line x1="123.700000" y1="111.000000" x2="126.700000" y2="112.000000"  transform="rotate(0.000000,126.700000,112.000000)" style="stroke: black; stroke-width:0.25;"/>
<line x1="123.700000" y1="113.000000" x2="126.700000" y2="112.000000"  transform="rotate(0.000000,126.700000,112.000000)" style="stroke: black; stroke-width:0.25;"/>
<line x1="123.700000" y1="119.000000" x2="126.700000" y2="120.000000"  transform="rotate(0.000000,126.700000,120.000000)" style="stroke: black; stroke-width:0.25;"/>
<line x1="123.700000" y1="121.000000" x2="126.700000" y2="120.000000"  transform="rotate(0.000000,126.700000,120.000000)" style="stroke: black; stroke-width:0.25;"/>
<rect x="80.350000" y="167.000000" width="24.000000" height="24.000000" rx="0" ry="0" style="stroke:none;fill:#cccccc;"/>
<rect x="79.350000" y="166.000000" width="24.000000" height="24.000000" rx="0" ry="0" style="stroke:none;fill:#f44800;"/>
<text x="91.350000" y="180.000000" font-family="Arial" font-size="7" text-anchor="middle" fill="#FFFFFF">0</text>
<circle cx="81.350000" cy="168.000000" r="1"/>
<line x1="70.350000" y1="157.000000" x2="70.350000" y2="199.000000"  style="stroke: black; stroke-linecap:round; stroke-width:0.25; stroke-dasharray:3,3;"/>
<line x1="70.350000" y1="199.000000" x2="112.350000" y2="199.000000"  style="stroke: black; stroke-linecap:round; stroke-width:0.25; stroke-dasharray:3,3;"/>
<line x1="112.350000" y1="199.000000" x2="112.350000" y2="157.000000"  style="stroke: black; stroke-linecap:round; stroke-width:0.25; stroke-dasharray:3,3;"/>
<line x1="70.350000" y1="157.000000" x2="75.350000" y2="157.000000"  style="stroke: black; stroke-linecap:round; stroke-width:0.25; stroke-dasharray:3,3;"/>
<line x1="107.600000" y1="157.000000" x2="112.350000" y2="157.000000"  style="stroke: black; stroke-linecap:round; stroke-width:0.25; stroke-dasharray:3,3;"/>
<text x="75.350000" y="159.000000" font-family="Arial" font-size="7">xVals(0)</text>
<rect x="167.700000" y="105.000000" width="38.700000" height="24.000000" rx="0" ry="0" style="stroke:none;fill:#cccccc;"/>
<rect x="166.700000" y="104.000000" width="38.700000" height="24.000000" rx="0" ry="0" style="stroke:none;fill:#4B71A1;"/>
<text x="186.050000" y="118.000000" font-family="Arial" font-size="7" text-anchor="middle" fill="#FFFFFF">select2</text>
<circle cx="168.700000" cy="106.000000" r="1"/>
<line x1="163.700000" y1="107.000000" x2="166.700000" y2="108.000000"  transform="rotate(0.000000,166.700000,108.000000)" style="stroke: black; stroke-width:0.25;"/>
<line x1="163.700000" y1="109.000000" x2="166.700000" y2="108.000000"  transform="rotate(0.000000,166.700000,108.000000)" style="stroke: black; stroke-width:0.25;"/>
<line x1="163.700000" y1="115.000000" x2="166.700000" y2="116.000000"  transform="rotate(0.000000,166.700000,116.000000)" style="stroke: black; stroke-width:0.25;"/>
<line x1="163.700000" y1="117.000000" x2="166.700000" y2="116.000000"  transform="rotate(0.000000,166.700000,116.000000)" style="stroke: black; stroke-width:0.25;"/>
<line x1="163.700000" y1="123.000000" x2="166.700000" y2="124.000000"  transform="rotate(0.000000,166.700000,124.000000)" style="stroke: black; stroke-width:0.25;"/>
<line x1="163.700000" y1="125.000000" x2="166.700000" y2="124.000000"  transform="rotate(0.000000,166.700000,124.000000)" style="stroke: black; stroke-width:0.25;"/>
<a xlink:href="decimal-0x7f5410a0b2b0.svg">
<rect x="214.400000" y="105.000000" width="38.700000" height="24.000000" rx="0" ry="0" style="stroke:none;fill:#cccccc;"/>
<rect x="213.400000" y="104.000000" width="38.700000" height="24.000000" rx="0" ry="0" style="stroke:none;fill:#003366;"/>
</a>
<a xlink:href="decimal-0x7f5410a0b2b0.svg">
<text x="232.750000" y="118.000000" font-family="Arial" font-size="7" text-anchor="middle" fill="#FFFFFF">decimal</text>
</a>
<circle cx="215.400000" cy="106.000000" r="1"/>
<line x1="210.400000" y1="115.000000" x2="213.400000" y2="116.000000"  transform="rotate(0.000000,213.400000,116.000000)" style="stroke: black; stroke-width:0.25;"/>
<line x1="210.400000" y1="117.000000" x2="213.400000" y2="116.000000"  transform="rotate(0.000000,213.400000,116.000000)" style="stroke: black; stroke-width:0.25;"/>
<line x1="254.100000" y1="116.000000" x2="254.100000" y2="112.000000"  style="stroke:black; stroke-linecap:round; stroke-width:0.25;"/>
<line x1="254.100000" y1="112.000000" x2="258.100000" y2="112.000000"  style="stroke:black; stroke-linecap:round; stroke-width:0.25;"/>
<line x1="258.100000" y1="112.000000" x2="258.100000" y2="116.000000"  style="stroke:black; stroke-linecap:round; stroke-width:0.25;"/>
<line x1="15.000000" y1="15.000000" x2="15.000000" y2="209.000000"  style="stroke: black; stroke-linecap:round; stroke-width:0.25; stroke-dasharray:3,3;"/>
<line x1="15.000000" y1="209.000000" x2="285.100000" y2="209.000000"  style="stroke: black; stroke-linecap:round; stroke-width:0.25; stroke-dasharray:3,3;"/>
<line x1="285.100000" y1="209.000000" x2="285.100000" y2="15.000000"  style="stroke: black; stroke-linecap:round; stroke-width:0.25; stroke-dasharray:3,3;"/>
<line x1="15.000000" y1="15.000000" x2="20.000000" y2="15.000000"  style="stroke: black; stroke-linecap:round; stroke-width:0.25; stroke-dasharray:3,3;"/>
<line x1="129.650000" y1="15.000000" x2="285.100000" y2="15.000000"  style="stroke: black; stroke-linecap:round; stroke-width:0.25; stroke-dasharray:3,3;"/>
<text x="20.000000" y="17.000000" font-family="Arial" font-size="7">lf_sawpos(0.041666666666666664f)</text>
<line x1="287.100000" y1="111.000000" x2="290.100000" y2="112.000000"  transform="rotate(0.000000,290.100000,112.000000)" style="stroke: black; stroke-width:0.25;"/>
<line x1="287.100000" y1="113.000000" x2="290.100000" y2="112.000000"  transform="rotate(0.000000,290.100000,112.000000)" style="stroke: black; stroke-width:0.25;"/>
<line x1="28.000000" y1="24.000000" x2="28.000000" y2="24.000000"  style="stroke:black; stroke-linecap:round; stroke-width:0.25;"/>
<line x1="28.000000" y1="24.000000" x2="28.000000" y2="84.000000"  style="stroke:black; stroke-linecap:round; stroke-width:0.25;"/>
<line x1="28.000000" y1="84.000000" x2="28.000000" y2="84.000000"  style="stroke:black; stroke-linecap:round; stroke-width:0.25;"/>
<line x1="28.000000" y1="84.000000" x2="71.350000" y2="84.000000"  style="stroke:black; stroke-linecap:round; stroke-width:0.25;"/>
<line x1="63.350000" y1="136.000000" x2="67.350000" y2="136.000000"  style="stroke:black; stroke-linecap:round; stroke-width:0.25;"/>
<line x1="67.350000" y1="136.000000" x2="74.700000" y2="136.000000"  style="stroke:black; stroke-linecap:round; stroke-width:0.25;"/>
<line x1="70.700000" y1="104.000000" x2="74.700000" y2="104.000000"  style="stroke:black; stroke-linecap:round; stroke-width:0.25;"/>
<line x1="71.350000" y1="84.000000" x2="114.700000" y2="84.000000"  style="stroke:black; stroke-linecap:round; stroke-width:0.25;"/>
<line x1="74.700000" y1="104.000000" x2="82.700000" y2="104.000000"  style="stroke:black; stroke-linecap:round; stroke-width:0.25;"/>
<line x1="74.700000" y1="124.000000" x2="82.700000" y2="124.000000"  style="stroke:black; stroke-linecap:round; stroke-width:0.25;"/>
<line x1="74.700000" y1="136.000000" x2="74.700000" y2="124.000000"  style="stroke:black; stroke-linecap:round; stroke-width:0.25;"/>
<line x1="74.700000" y1="136.000000" x2="74.700000" y2="136.000000"  style="stroke:black; stroke-linecap:round; stroke-width:0.25;"/>
<line x1="82.700000" y1="104.000000" x2="82.700000" y2="116.000000"  style="stroke:black; stroke-linecap:round; stroke-width:0.25;"/>
<line x1="82.700000" y1="116.000000" x2="82.700000" y2="116.000000"  style="stroke:black; stroke-linecap:round; stroke-width:0.25;"/>
<line x1="82.700000" y1="116.000000" x2="86.700000" y2="116.000000"  style="stroke:black; stroke-linecap:round; stroke-width:0.25;"/>
<line x1="82.700000" y1="124.000000" x2="86.700000" y2="124.000000"  style="stroke:black; stroke-linecap:round; stroke-width:0.25;"/>
<line x1="103.350000" y1="54.000000" x2="107.350000" y2="54.000000"  style="stroke:black; stroke-linecap:round; stroke-width:0.25;"/>
<line x1="103.350000" y1="178.000000" x2="107.350000" y2="178.000000"  style="stroke:black; stroke-linecap:round; stroke-width:0.25;"/>
<line x1="107.350000" y1="54.000000" x2="117.350000" y2="54.000000"  style="stroke:black; stroke-linecap:round; stroke-width:0.25;"/>
<line x1="107.350000" y1="178.000000" x2="117.350000" y2="178.000000"  style="stroke:black; stroke-linecap:round; stroke-width:0.25;"/>
<line x1="110.700000" y1="120.000000" x2="114.700000" y2="120.000000"  style="stroke:black; stroke-linecap:round; stroke-width:0.25;"/>
<line x1="114.700000" y1="84.000000" x2="122.700000" y2="84.000000"  style="stroke:black; stroke-linecap:round; stroke-width:0.25;"/>
<line x1="114.700000" y1="120.000000" x2="122.700000" y2="120.000000"  style="stroke:black; stroke-linecap:round; stroke-width:0.25;"/>
<line x1="117.350000" y1="54.000000" x2="154.700000" y2="54.000000"  style="stroke:black; stroke-linecap:round; stroke-width:0.25;"/>
<line x1="117.350000" y1="178.000000" x2="154.700000" y2="178.000000"  style="stroke:black; stroke-linecap:round; stroke-width:0.25;"/>
<line x1="122.700000" y1="84.000000" x2="122.700000" y2="112.000000"  style="stroke:black; stroke-linecap:round; stroke-width:0.25;"/>
<line x1="122.700000" y1="112.000000" x2="122.700000" y2="112.000000"  style="stroke:black; stroke-linecap:round; stroke-width:0.25;"/>
<line x1="122.700000" y1="112.000000" x2="126.700000" y2="112.000000"  style="stroke:black; stroke-linecap:round; stroke-width:0.25;"/>
<line x1="122.700000" y1="120.000000" x2="126.700000" y2="120.000000"  style="stroke:black; stroke-linecap:round; stroke-width:0.25;"/>
<line x1="142.050000" y1="24.000000" x2="28.000000" y2="24.000000"  style="stroke:black; stroke-linecap:round; stroke-width:0.25;"/>
<line x1="150.700000" y1="116.000000" x2="154.700000" y2="116.000000"  style="stroke:black; stroke-linecap:round; stroke-width:0.25;"/>
<line x1="154.700000" y1="54.000000" x2="162.700000" y2="54.000000"  style="stroke:black; stroke-linecap:round; stroke-width:0.25;"/>
<line x1="154.700000" y1="116.000000" x2="162.700000" y2="116.000000"  style="stroke:black; stroke-linecap:round; stroke-width:0.25;"/>
<line x1="154.700000" y1="124.000000" x2="162.700000" y2="124.000000"  style="stroke:black; stroke-linecap:round; stroke-width:0.25;"/>
<line x1="154.700000" y1="178.000000" x2="154.700000" y2="124.000000"  style="stroke:black; stroke-linecap:round; stroke-width:0.25;"/>
<line x1="154.700000" y1="178.000000" x2="154.700000" y2="178.000000"  style="stroke:black; stroke-linecap:round; stroke-width:0.25;"/>
<line x1="162.700000" y1="54.000000" x2="162.700000" y2="108.000000"  style="stroke:black; stroke-linecap:round; stroke-width:0.25;"/>
<line x1="162.700000" y1="108.000000" x2="162.700000" y2="108.000000"  style="stroke:black; stroke-linecap:round; stroke-width:0.25;"/>
<line x1="162.700000" y1="108.000000" x2="166.700000" y2="108.000000"  style="stroke:black; stroke-linecap:round; stroke-width:0.25;"/>
<line x1="162.700000" y1="116.000000" x2="166.700000" y2="116.000000"  style="stroke:black; stroke-linecap:round; stroke-width:0.25;"/>
<line x1="162.700000" y1="124.000000" x2="166.700000" y2="124.000000"  style="stroke:black; stroke-linecap:round; stroke-width:0.25;"/>
<line x1="205.400000" y1="116.000000" x2="209.400000" y2="116.000000"  style="stroke:black; stroke-linecap:round; stroke-width:0.25;"/>
<line x1="209.400000" y1="116.000000" x2="209.400000" y2="116.000000"  style="stroke:black; stroke-linecap:round; stroke-width:0.25;"/>
<line x1="209.400000" y1="116.000000" x2="213.400000" y2="116.000000"  style="stroke:black; stroke-linecap:round; stroke-width:0.25;"/>
<line x1="252.100000" y1="116.000000" x2="256.100000" y2="116.000000"  style="stroke:black; stroke-linecap:round; stroke-width:0.25;"/>
<line x1="256.100000" y1="24.000000" x2="142.050000" y2="24.000000"  style="stroke:black; stroke-linecap:round; stroke-width:0.25;"/>
<line x1="256.100000" y1="24.000000" x2="256.100000" y2="24.000000"  style="stroke:black; stroke-linecap:round; stroke-width:0.25;"/>
<line x1="256.100000" y1="112.000000" x2="256.100000" y2="24.000000"  style="stroke:black; stroke-linecap:round; stroke-width:0.25;"/>
<line x1="256.100000" y1="116.000000" x2="258.100000" y2="116.000000"  style="stroke:black; stroke-linecap:round; stroke-width:0.25;"/>
<line x1="258.100000" y1="116.000000" x2="264.100000" y2="116.000000"  style="stroke:black; stroke-linecap:round; stroke-width:0.25;"/>
<line x1="264.100000" y1="112.000000" x2="272.100000" y2="112.000000"  style="stroke:black; stroke-linecap:round; stroke-width:0.25;"/>
<line x1="264.100000" y1="116.000000" x2="264.100000" y2="112.000000"  style="stroke:black; stroke-linecap:round; stroke-width:0.25;"/>
<line x1="264.100000" y1="116.000000" x2="264.100000" y2="116.000000"  style="stroke:black; stroke-linecap:round; stroke-width:0.25;"/>
<line x1="272.100000" y1="112.000000" x2="276.100000" y2="112.000000"  style="stroke:black; stroke-linecap:round; stroke-width:0.25;"/>
<line x1="276.100000" y1="112.000000" x2="280.100000" y2="112.000000"  style="stroke:black; stroke-linecap:round; stroke-width:0.25;"/>
<line x1="280.100000" y1="112.000000" x2="290.100000" y2="112.000000"  style="stroke:black; stroke-linecap:round; stroke-width:0.25;"/>
</svg>
