<?xml version="1.0"?>
<svg xmlns="http://www.w3.org/2000/svg" xmlns:xlink="http://www.w3.org/1999/xlink" viewBox="0 0 314.700000 164.000000" width="157.350000mm" height="82.000000mm" version="1.1">
<a xlink:href="hp1-0x7fc304ad74d0.svg">
<rect x="1.000000" y="1.000000" width="313.700000" height="163.000000" rx="0" ry="0" style="stroke:none;fill:#cccccc;"/>
<rect x="0.000000" y="0.000000" width="313.700000" height="163.000000" rx="0" ry="0" style="stroke:none;fill:#ffffff;"/>
</a>
<text x="10.000000" y="7.000000" font-family="Arial" font-size="7"></text>
<a xlink:href="acor-0x7fc304acd690.svg">
<rect x="41.000000" y="75.000000" width="38.700000" height="24.000000" rx="0" ry="0" style="stroke:none;fill:#cccccc;"/>
<rect x="40.000000" y="74.000000" width="38.700000" height="24.000000" rx="0" ry="0" style="stroke:none;fill:#003366;"/>
</a>
<a xlink:href="acor-0x7fc304acd690.svg">
<text x="59.350000" y="88.000000" font-family="Arial" font-size="7" text-anchor="middle" fill="#FFFFFF">acor(50)</text>
</a>
<circle cx="42.000000" cy="76.000000" r="1"/>
<rect x="95.700000" y="71.000000" width="24.000000" height="24.000000" rx="0" ry="0" style="stroke:none;fill:#cccccc;"/>
<rect x="94.700000" y="70.000000" width="24.000000" height="24.000000" rx="0" ry="0" style="stroke:none;fill:#4B71A1;"/>
<text x="106.700000" y="84.000000" font-family="Arial" font-size="7" text-anchor="middle" fill="#FFFFFF">*</text>
<circle cx="96.700000" cy="72.000000" r="1"/>
<line x1="91.700000" y1="77.000000" x2="94.700000" y2="78.000000"  transform="rotate(0.000000,94.700000,78.000000)" style="stroke: black; stroke-width:0.25;"/>
<line x1="91.700000" y1="79.000000" x2="94.700000" y2="78.000000"  transform="rotate(0.000000,94.700000,78.000000)" style="stroke: black; stroke-width:0.25;"/>
<line x1="91.700000" y1="85.000000" x2="94.700000" y2="86.000000"  transform="rotate(0.000000,94.700000,86.000000)" style="stroke: black; stroke-width:0.25;"/>
<line x1="91.700000" y1="87.000000" x2="94.700000" y2="86.000000"  transform="rotate(0.000000,94.700000,86.000000)" style="stroke: black; stroke-width:0.25;"/>
<rect x="193.700000" y="117.000000" width="24.000000" height="24.000000" rx="0" ry="0" style="stroke:none;fill:#cccccc;"/>
<rect x="192.700000" y="116.000000" width="24.000000" height="24.000000" rx="0" ry="0" style="stroke:none;fill:#4B71A1;"/>
<text x="204.700000" y="130.000000" font-family="Arial" font-size="7" text-anchor="middle" fill="#FFFFFF">+</text>
<circle cx="194.700000" cy="118.000000" r="1"/>
<line x1="189.700000" y1="123.000000" x2="192.700000" y2="124.000000"  transform="rotate(0.000000,192.700000,124.000000)" style="stroke: black; stroke-width:0.25;"/>
<line x1="189.700000" y1="125.000000" x2="192.700000" y2="124.000000"  transform="rotate(0.000000,192.700000,124.000000)" style="stroke: black; stroke-width:0.25;"/>
<line x1="189.700000" y1="131.000000" x2="192.700000" y2="132.000000"  transform="rotate(0.000000,192.700000,132.000000)" style="stroke: black; stroke-width:0.25;"/>
<line x1="189.700000" y1="133.000000" x2="192.700000" y2="132.000000"  transform="rotate(0.000000,192.700000,132.000000)" style="stroke: black; stroke-width:0.25;"/>
<rect x="233.700000" y="67.000000" width="24.000000" height="24.000000" rx="0" ry="0" style="stroke:none;fill:#cccccc;"/>
<rect x="232.700000" y="66.000000" width="24.000000" height="24.000000" rx="0" ry="0" style="stroke:none;fill:#f44800;"/>
<text x="244.700000" y="80.000000" font-family="Arial" font-size="7" text-anchor="middle" fill="#FFFFFF">1</text>
<circle cx="254.700000" cy="88.000000" r="1"/>
<line x1="223.700000" y1="57.000000" x2="223.700000" y2="99.000000"  style="stroke: black; stroke-linecap:round; stroke-width:0.25; stroke-dasharray:3,3;"/>
<line x1="223.700000" y1="99.000000" x2="265.700000" y2="99.000000"  style="stroke: black; stroke-linecap:round; stroke-width:0.25; stroke-dasharray:3,3;"/>
<line x1="265.700000" y1="99.000000" x2="265.700000" y2="57.000000"  style="stroke: black; stroke-linecap:round; stroke-width:0.25; stroke-dasharray:3,3;"/>
<line x1="223.700000" y1="57.000000" x2="228.700000" y2="57.000000"  style="stroke: black; stroke-linecap:round; stroke-width:0.25; stroke-dasharray:3,3;"/>
<line x1="260.950000" y1="57.000000" x2="265.700000" y2="57.000000"  style="stroke: black; stroke-linecap:round; stroke-width:0.25; stroke-dasharray:3,3;"/>
<text x="228.700000" y="59.000000" font-family="Arial" font-size="7">xVals(1)</text>
<a xlink:href="acor-0x7fc304acd690.svg">
<rect x="226.350000" y="25.000000" width="38.700000" height="24.000000" rx="0" ry="0" style="stroke:none;fill:#cccccc;"/>
<rect x="225.350000" y="24.000000" width="38.700000" height="24.000000" rx="0" ry="0" style="stroke:none;fill:#003366;"/>
</a>
<a xlink:href="acor-0x7fc304acd690.svg">
<text x="244.700000" y="38.000000" font-family="Arial" font-size="7" text-anchor="middle" fill="#FFFFFF">acor(50)</text>
</a>
<circle cx="262.050000" cy="46.000000" r="1"/>
<rect x="183.700000" y="51.000000" width="24.000000" height="24.000000" rx="0" ry="0" style="stroke:none;fill:#cccccc;"/>
<rect x="182.700000" y="50.000000" width="24.000000" height="24.000000" rx="0" ry="0" style="stroke:none;fill:#4B71A1;"/>
<text x="194.700000" y="64.000000" font-family="Arial" font-size="7" text-anchor="middle" fill="#FFFFFF">-</text>
<circle cx="204.700000" cy="72.000000" r="1"/>
<line x1="209.700000" y1="65.000000" x2="206.700000" y2="66.000000"  transform="rotate(0.000000,206.700000,66.000000)" style="stroke: black; stroke-width:0.25;"/>
<line x1="209.700000" y1="67.000000" x2="206.700000" y2="66.000000"  transform="rotate(0.000000,206.700000,66.000000)" style="stroke: black; stroke-width:0.25;"/>
<line x1="209.700000" y1="57.000000" x2="206.700000" y2="58.000000"  transform="rotate(0.000000,206.700000,58.000000)" style="stroke: black; stroke-width:0.25;"/>
<line x1="209.700000" y1="59.000000" x2="206.700000" y2="58.000000"  transform="rotate(0.000000,206.700000,58.000000)" style="stroke: black; stroke-width:0.25;"/>
<rect x="143.700000" y="55.000000" width="24.000000" height="24.000000" rx="0" ry="0" style="stroke:none;fill:#cccccc;"/>
<rect x="142.700000" y="54.000000" width="24.000000" height="24.000000" rx="0" ry="0" style="stroke:none;fill:#4B71A1;"/>
<text x="154.700000" y="68.000000" font-family="Arial" font-size="7" text-anchor="middle" fill="#FFFFFF">*</text>
<circle cx="164.700000" cy="76.000000" r="1"/>
<line x1="169.700000" y1="69.000000" x2="166.700000" y2="70.000000"  transform="rotate(0.000000,166.700000,70.000000)" style="stroke: black; stroke-width:0.25;"/>
<line x1="169.700000" y1="71.000000" x2="166.700000" y2="70.000000"  transform="rotate(0.000000,166.700000,70.000000)" style="stroke: black; stroke-width:0.25;"/>
<line x1="169.700000" y1="61.000000" x2="166.700000" y2="62.000000"  transform="rotate(0.000000,166.700000,62.000000)" style="stroke: black; stroke-width:0.25;"/>
<line x1="169.700000" y1="63.000000" x2="166.700000" y2="62.000000"  transform="rotate(0.000000,166.700000,62.000000)" style="stroke: black; stroke-width:0.25;"/>
<line x1="268.700000" y1="128.000000" x2="268.700000" y2="124.000000"  style="stroke:black; stroke-linecap:round; stroke-width:0.25;"/>
<line x1="268.700000" y1="124.000000" x2="272.700000" y2="124.000000"  style="stroke:black; stroke-linecap:round; stroke-width:0.25;"/>
<line x1="272.700000" y1="124.000000" x2="272.700000" y2="128.000000"  style="stroke:black; stroke-linecap:round; stroke-width:0.25;"/>
<line x1="15.000000" y1="15.000000" x2="15.000000" y2="149.000000"  style="stroke: black; stroke-linecap:round; stroke-width:0.25; stroke-dasharray:3,3;"/>
<line x1="15.000000" y1="149.000000" x2="299.700000" y2="149.000000"  style="stroke: black; stroke-linecap:round; stroke-width:0.25; stroke-dasharray:3,3;"/>
<line x1="299.700000" y1="149.000000" x2="299.700000" y2="15.000000"  style="stroke: black; stroke-linecap:round; stroke-width:0.25; stroke-dasharray:3,3;"/>
<line x1="15.000000" y1="15.000000" x2="20.000000" y2="15.000000"  style="stroke: black; stroke-linecap:round; stroke-width:0.25; stroke-dasharray:3,3;"/>
<line x1="52.250000" y1="15.000000" x2="299.700000" y2="15.000000"  style="stroke: black; stroke-linecap:round; stroke-width:0.25; stroke-dasharray:3,3;"/>
<text x="20.000000" y="17.000000" font-family="Arial" font-size="7">lp1p(50)</text>
<line x1="301.700000" y1="81.000000" x2="304.700000" y2="82.000000"  transform="rotate(0.000000,304.700000,82.000000)" style="stroke: black; stroke-width:0.25;"/>
<line x1="301.700000" y1="83.000000" x2="304.700000" y2="82.000000"  transform="rotate(0.000000,304.700000,82.000000)" style="stroke: black; stroke-width:0.25;"/>
<line x1="10.000000" y1="82.000000" x2="20.000000" y2="82.000000"  style="stroke:black; stroke-linecap:round; stroke-width:0.25;"/>
<line x1="20.000000" y1="82.000000" x2="24.000000" y2="82.000000"  style="stroke:black; stroke-linecap:round; stroke-width:0.25;"/>
<line x1="24.000000" y1="82.000000" x2="28.000000" y2="82.000000"  style="stroke:black; stroke-linecap:round; stroke-width:0.25;"/>
<line x1="28.000000" y1="66.000000" x2="36.000000" y2="66.000000"  style="stroke:black; stroke-linecap:round; stroke-width:0.25;"/>
<line x1="28.000000" y1="82.000000" x2="28.000000" y2="66.000000"  style="stroke:black; stroke-linecap:round; stroke-width:0.25;"/>
<line x1="28.000000" y1="82.000000" x2="28.000000" y2="82.000000"  style="stroke:black; stroke-linecap:round; stroke-width:0.25;"/>
<line x1="36.000000" y1="66.000000" x2="59.350000" y2="66.000000"  style="stroke:black; stroke-linecap:round; stroke-width:0.25;"/>
<line x1="59.350000" y1="66.000000" x2="82.700000" y2="66.000000"  style="stroke:black; stroke-linecap:round; stroke-width:0.25;"/>
<line x1="78.700000" y1="86.000000" x2="82.700000" y2="86.000000"  style="stroke:black; stroke-linecap:round; stroke-width:0.25;"/>
<line x1="82.700000" y1="66.000000" x2="90.700000" y2="66.000000"  style="stroke:black; stroke-linecap:round; stroke-width:0.25;"/>
<line x1="82.700000" y1="86.000000" x2="90.700000" y2="86.000000"  style="stroke:black; stroke-linecap:round; stroke-width:0.25;"/>
<line x1="90.700000" y1="66.000000" x2="90.700000" y2="78.000000"  style="stroke:black; stroke-linecap:round; stroke-width:0.25;"/>
<line x1="90.700000" y1="78.000000" x2="90.700000" y2="78.000000"  style="stroke:black; stroke-linecap:round; stroke-width:0.25;"/>
<line x1="90.700000" y1="78.000000" x2="94.700000" y2="78.000000"  style="stroke:black; stroke-linecap:round; stroke-width:0.25;"/>
<line x1="90.700000" y1="86.000000" x2="94.700000" y2="86.000000"  style="stroke:black; stroke-linecap:round; stroke-width:0.25;"/>
<line x1="118.700000" y1="82.000000" x2="122.700000" y2="82.000000"  style="stroke:black; stroke-linecap:round; stroke-width:0.25;"/>
<line x1="122.700000" y1="82.000000" x2="130.700000" y2="82.000000"  style="stroke:black; stroke-linecap:round; stroke-width:0.25;"/>
<line x1="130.700000" y1="82.000000" x2="130.700000" y2="132.000000"  style="stroke:black; stroke-linecap:round; stroke-width:0.25;"/>
<line x1="130.700000" y1="132.000000" x2="130.700000" y2="132.000000"  style="stroke:black; stroke-linecap:round; stroke-width:0.25;"/>
<line x1="130.700000" y1="132.000000" x2="138.700000" y2="132.000000"  style="stroke:black; stroke-linecap:round; stroke-width:0.25;"/>
<line x1="138.700000" y1="66.000000" x2="138.700000" y2="66.000000"  style="stroke:black; stroke-linecap:round; stroke-width:0.25;"/>
<line x1="138.700000" y1="66.000000" x2="138.700000" y2="124.000000"  style="stroke:black; stroke-linecap:round; stroke-width:0.25;"/>
<line x1="138.700000" y1="124.000000" x2="138.700000" y2="124.000000"  style="stroke:black; stroke-linecap:round; stroke-width:0.25;"/>
<line x1="138.700000" y1="124.000000" x2="188.700000" y2="124.000000"  style="stroke:black; stroke-linecap:round; stroke-width:0.25;"/>
<line x1="138.700000" y1="132.000000" x2="188.700000" y2="132.000000"  style="stroke:black; stroke-linecap:round; stroke-width:0.25;"/>
<line x1="142.700000" y1="66.000000" x2="138.700000" y2="66.000000"  style="stroke:black; stroke-linecap:round; stroke-width:0.25;"/>
<line x1="170.700000" y1="62.000000" x2="166.700000" y2="62.000000"  style="stroke:black; stroke-linecap:round; stroke-width:0.25;"/>
<line x1="170.700000" y1="70.000000" x2="166.700000" y2="70.000000"  style="stroke:black; stroke-linecap:round; stroke-width:0.25;"/>
<line x1="170.700000" y1="70.000000" x2="170.700000" y2="70.000000"  style="stroke:black; stroke-linecap:round; stroke-width:0.25;"/>
<line x1="170.700000" y1="108.000000" x2="170.700000" y2="70.000000"  style="stroke:black; stroke-linecap:round; stroke-width:0.25;"/>
<line x1="178.700000" y1="62.000000" x2="170.700000" y2="62.000000"  style="stroke:black; stroke-linecap:round; stroke-width:0.25;"/>
<line x1="178.700000" y1="108.000000" x2="170.700000" y2="108.000000"  style="stroke:black; stroke-linecap:round; stroke-width:0.25;"/>
<line x1="182.700000" y1="62.000000" x2="178.700000" y2="62.000000"  style="stroke:black; stroke-linecap:round; stroke-width:0.25;"/>
<line x1="188.700000" y1="124.000000" x2="192.700000" y2="124.000000"  style="stroke:black; stroke-linecap:round; stroke-width:0.25;"/>
<line x1="188.700000" y1="132.000000" x2="192.700000" y2="132.000000"  style="stroke:black; stroke-linecap:round; stroke-width:0.25;"/>
<line x1="210.700000" y1="58.000000" x2="206.700000" y2="58.000000"  style="stroke:black; stroke-linecap:round; stroke-width:0.25;"/>
<line x1="210.700000" y1="66.000000" x2="206.700000" y2="66.000000"  style="stroke:black; stroke-linecap:round; stroke-width:0.25;"/>
<line x1="210.700000" y1="66.000000" x2="210.700000" y2="66.000000"  style="stroke:black; stroke-linecap:round; stroke-width:0.25;"/>
<line x1="210.700000" y1="78.000000" x2="210.700000" y2="66.000000"  style="stroke:black; stroke-linecap:round; stroke-width:0.25;"/>
<line x1="216.700000" y1="128.000000" x2="220.700000" y2="128.000000"  style="stroke:black; stroke-linecap:round; stroke-width:0.25;"/>
<line x1="218.700000" y1="36.000000" x2="218.700000" y2="36.000000"  style="stroke:black; stroke-linecap:round; stroke-width:0.25;"/>
<line x1="218.700000" y1="36.000000" x2="218.700000" y2="58.000000"  style="stroke:black; stroke-linecap:round; stroke-width:0.25;"/>
<line x1="218.700000" y1="58.000000" x2="210.700000" y2="58.000000"  style="stroke:black; stroke-linecap:round; stroke-width:0.25;"/>
<line x1="218.700000" y1="78.000000" x2="210.700000" y2="78.000000"  style="stroke:black; stroke-linecap:round; stroke-width:0.25;"/>
<line x1="220.700000" y1="128.000000" x2="270.700000" y2="128.000000"  style="stroke:black; stroke-linecap:round; stroke-width:0.25;"/>
<line x1="221.350000" y1="36.000000" x2="218.700000" y2="36.000000"  style="stroke:black; stroke-linecap:round; stroke-width:0.25;"/>
<line x1="224.700000" y1="108.000000" x2="178.700000" y2="108.000000"  style="stroke:black; stroke-linecap:round; stroke-width:0.25;"/>
<line x1="225.350000" y1="36.000000" x2="221.350000" y2="36.000000"  style="stroke:black; stroke-linecap:round; stroke-width:0.25;"/>
<line x1="228.700000" y1="78.000000" x2="218.700000" y2="78.000000"  style="stroke:black; stroke-linecap:round; stroke-width:0.25;"/>
<line x1="232.700000" y1="78.000000" x2="228.700000" y2="78.000000"  style="stroke:black; stroke-linecap:round; stroke-width:0.25;"/>
<line x1="270.700000" y1="108.000000" x2="224.700000" y2="108.000000"  style="stroke:black; stroke-linecap:round; stroke-width:0.25;"/>
<line x1="270.700000" y1="108.000000" x2="270.700000" y2="108.000000"  style="stroke:black; stroke-linecap:round; stroke-width:0.25;"/>
<line x1="270.700000" y1="124.000000" x2="270.700000" y2="108.000000"  style="stroke:black; stroke-linecap:round; stroke-width:0.25;"/>
<line x1="270.700000" y1="128.000000" x2="272.700000" y2="128.000000"  style="stroke:black; stroke-linecap:round; stroke-width:0.25;"/>
<line x1="272.700000" y1="128.000000" x2="278.700000" y2="128.000000"  style="stroke:black; stroke-linecap:round; stroke-width:0.25;"/>
<line x1="278.700000" y1="82.000000" x2="286.700000" y2="82.000000"  style="stroke:black; stroke-linecap:round; stroke-width:0.25;"/>
<line x1="278.700000" y1="128.000000" x2="278.700000" y2="82.000000"  style="stroke:black; stroke-linecap:round; stroke-width:0.25;"/>
<line x1="278.700000" y1="128.000000" x2="278.700000" y2="128.000000"  style="stroke:black; stroke-linecap:round; stroke-width:0.25;"/>
<line x1="286.700000" y1="82.000000" x2="290.700000" y2="82.000000"  style="stroke:black; stroke-linecap:round; stroke-width:0.25;"/>
<line x1="290.700000" y1="82.000000" x2="294.700000" y2="82.000000"  style="stroke:black; stroke-linecap:round; stroke-width:0.25;"/>
<line x1="294.700000" y1="82.000000" x2="304.700000" y2="82.000000"  style="stroke:black; stroke-linecap:round; stroke-width:0.25;"/>
</svg>
