<?xml version="1.0"?>
<svg xmlns="http://www.w3.org/2000/svg" xmlns:xlink="http://www.w3.org/1999/xlink" viewBox="0 0 282.700000 292.000000" width="141.350000mm" height="146.000000mm" version="1.1">
<a xlink:href="signal-0x7f37c08b0620.svg">
<rect x="1.000000" y="1.000000" width="281.700000" height="291.000000" rx="0" ry="0" style="stroke:none;fill:#cccccc;"/>
<rect x="0.000000" y="0.000000" width="281.700000" height="291.000000" rx="0" ry="0" style="stroke:none;fill:#ffffff;"/>
</a>
<text x="10.000000" y="7.000000" font-family="Arial" font-size="7"></text>
<rect x="33.000000" y="135.000000" width="24.000000" height="24.000000" rx="0" ry="0" style="stroke:none;fill:#cccccc;"/>
<rect x="32.000000" y="134.000000" width="24.000000" height="24.000000" rx="0" ry="0" style="stroke:none;fill:#47945E;"/>
<text x="44.000000" y="148.000000" font-family="Arial" font-size="7" text-anchor="middle" fill="#FFFFFF">x</text>
<circle cx="34.000000" cy="136.000000" r="1"/>
<line x1="29.000000" y1="145.000000" x2="32.000000" y2="146.000000"  transform="rotate(0.000000,32.000000,146.000000)" style="stroke: black; stroke-width:0.25;"/>
<line x1="29.000000" y1="147.000000" x2="32.000000" y2="146.000000"  transform="rotate(0.000000,32.000000,146.000000)" style="stroke: black; stroke-width:0.25;"/>
<rect x="95.000000" y="25.000000" width="24.000000" height="24.000000" rx="0" ry="0" style="stroke:none;fill:#cccccc;"/>
<rect x="94.000000" y="24.000000" width="24.000000" height="24.000000" rx="0" ry="0" style="stroke:none;fill:#47945E;"/>
<text x="106.000000" y="38.000000" font-family="Arial" font-size="7" text-anchor="middle" fill="#FFFFFF">x</text>
<circle cx="96.000000" cy="26.000000" r="1"/>
<rect x="95.000000" y="57.000000" width="24.000000" height="24.000000" rx="0" ry="0" style="stroke:none;fill:#cccccc;"/>
<rect x="94.000000" y="56.000000" width="24.000000" height="24.000000" rx="0" ry="0" style="stroke:none;fill:#f44800;"/>
<text x="106.000000" y="70.000000" font-family="Arial" font-size="7" text-anchor="middle" fill="#FFFFFF">0.5</text>
<circle cx="96.000000" cy="58.000000" r="1"/>
<rect x="135.000000" y="41.000000" width="24.000000" height="24.000000" rx="0" ry="0" style="stroke:none;fill:#cccccc;"/>
<rect x="134.000000" y="40.000000" width="24.000000" height="24.000000" rx="0" ry="0" style="stroke:none;fill:#4B71A1;"/>
<text x="146.000000" y="54.000000" font-family="Arial" font-size="7" text-anchor="middle" fill="#FFFFFF">&gt;</text>
<circle cx="136.000000" cy="42.000000" r="1"/>
<line x1="131.000000" y1="47.000000" x2="134.000000" y2="48.000000"  transform="rotate(0.000000,134.000000,48.000000)" style="stroke: black; stroke-width:0.25;"/>
<line x1="131.000000" y1="49.000000" x2="134.000000" y2="48.000000"  transform="rotate(0.000000,134.000000,48.000000)" style="stroke: black; stroke-width:0.25;"/>
<line x1="131.000000" y1="55.000000" x2="134.000000" y2="56.000000"  transform="rotate(0.000000,134.000000,56.000000)" style="stroke: black; stroke-width:0.25;"/>
<line x1="131.000000" y1="57.000000" x2="134.000000" y2="56.000000"  transform="rotate(0.000000,134.000000,56.000000)" style="stroke: black; stroke-width:0.25;"/>
<rect x="115.000000" y="99.000000" width="24.000000" height="24.000000" rx="0" ry="0" style="stroke:none;fill:#cccccc;"/>
<rect x="114.000000" y="98.000000" width="24.000000" height="24.000000" rx="0" ry="0" style="stroke:none;fill:#f44800;"/>
<text x="126.000000" y="112.000000" font-family="Arial" font-size="7" text-anchor="middle" fill="#FFFFFF">1</text>
<circle cx="116.000000" cy="100.000000" r="1"/>
<line x1="105.000000" y1="89.000000" x2="105.000000" y2="131.000000"  style="stroke: black; stroke-linecap:round; stroke-width:0.25; stroke-dasharray:3,3;"/>
<line x1="105.000000" y1="131.000000" x2="147.000000" y2="131.000000"  style="stroke: black; stroke-linecap:round; stroke-width:0.25; stroke-dasharray:3,3;"/>
<line x1="147.000000" y1="131.000000" x2="147.000000" y2="89.000000"  style="stroke: black; stroke-linecap:round; stroke-width:0.25; stroke-dasharray:3,3;"/>
<line x1="105.000000" y1="89.000000" x2="110.000000" y2="89.000000"  style="stroke: black; stroke-linecap:round; stroke-width:0.25; stroke-dasharray:3,3;"/>
<line x1="119.675000" y1="89.000000" x2="147.000000" y2="89.000000"  style="stroke: black; stroke-linecap:round; stroke-width:0.25; stroke-dasharray:3,3;"/>
<text x="110.000000" y="91.000000" font-family="Arial" font-size="7">k</text>
<rect x="75.000000" y="151.000000" width="24.000000" height="24.000000" rx="0" ry="0" style="stroke:none;fill:#cccccc;"/>
<rect x="74.000000" y="150.000000" width="24.000000" height="24.000000" rx="0" ry="0" style="stroke:none;fill:#f44800;"/>
<text x="86.000000" y="164.000000" font-family="Arial" font-size="7" text-anchor="middle" fill="#FFFFFF">1</text>
<circle cx="76.000000" cy="152.000000" r="1"/>
<line x1="65.000000" y1="141.000000" x2="65.000000" y2="183.000000"  style="stroke: black; stroke-linecap:round; stroke-width:0.25; stroke-dasharray:3,3;"/>
<line x1="65.000000" y1="183.000000" x2="107.000000" y2="183.000000"  style="stroke: black; stroke-linecap:round; stroke-width:0.25; stroke-dasharray:3,3;"/>
<line x1="107.000000" y1="183.000000" x2="107.000000" y2="141.000000"  style="stroke: black; stroke-linecap:round; stroke-width:0.25; stroke-dasharray:3,3;"/>
<line x1="65.000000" y1="141.000000" x2="70.000000" y2="141.000000"  style="stroke: black; stroke-linecap:round; stroke-width:0.25; stroke-dasharray:3,3;"/>
<line x1="79.675000" y1="141.000000" x2="107.000000" y2="141.000000"  style="stroke: black; stroke-linecap:round; stroke-width:0.25; stroke-dasharray:3,3;"/>
<text x="70.000000" y="143.000000" font-family="Arial" font-size="7">k</text>
<rect x="75.000000" y="193.000000" width="24.000000" height="24.000000" rx="0" ry="0" style="stroke:none;fill:#cccccc;"/>
<rect x="74.000000" y="192.000000" width="24.000000" height="24.000000" rx="0" ry="0" style="stroke:none;fill:#47945E;"/>
<text x="86.000000" y="206.000000" font-family="Arial" font-size="7" text-anchor="middle" fill="#FFFFFF">x</text>
<circle cx="76.000000" cy="194.000000" r="1"/>
<rect x="125.000000" y="167.000000" width="24.000000" height="24.000000" rx="0" ry="0" style="stroke:none;fill:#cccccc;"/>
<rect x="124.000000" y="166.000000" width="24.000000" height="24.000000" rx="0" ry="0" style="stroke:none;fill:#4B71A1;"/>
<text x="136.000000" y="180.000000" font-family="Arial" font-size="7" text-anchor="middle" fill="#FFFFFF">-</text>
<circle cx="126.000000" cy="168.000000" r="1"/>
<line x1="121.000000" y1="173.000000" x2="124.000000" y2="174.000000"  transform="rotate(0.000000,124.000000,174.000000)" style="stroke: black; stroke-width:0.25;"/>
<line x1="121.000000" y1="175.000000" x2="124.000000" y2="174.000000"  transform="rotate(0.000000,124.000000,174.000000)" style="stroke: black; stroke-width:0.25;"/>
<line x1="121.000000" y1="181.000000" x2="124.000000" y2="182.000000"  transform="rotate(0.000000,124.000000,182.000000)" style="stroke: black; stroke-width:0.25;"/>
<line x1="121.000000" y1="183.000000" x2="124.000000" y2="182.000000"  transform="rotate(0.000000,124.000000,182.000000)" style="stroke: black; stroke-width:0.25;"/>
<rect x="95.000000" y="235.000000" width="24.000000" height="24.000000" rx="0" ry="0" style="stroke:none;fill:#cccccc;"/>
<rect x="94.000000" y="234.000000" width="24.000000" height="24.000000" rx="0" ry="0" style="stroke:none;fill:#f44800;"/>
<text x="106.000000" y="248.000000" font-family="Arial" font-size="7" text-anchor="middle" fill="#FFFFFF">2</text>
<circle cx="96.000000" cy="236.000000" r="1"/>
<line x1="85.000000" y1="225.000000" x2="85.000000" y2="267.000000"  style="stroke: black; stroke-linecap:round; stroke-width:0.25; stroke-dasharray:3,3;"/>
<line x1="85.000000" y1="267.000000" x2="127.000000" y2="267.000000"  style="stroke: black; stroke-linecap:round; stroke-width:0.25; stroke-dasharray:3,3;"/>
<line x1="127.000000" y1="267.000000" x2="127.000000" y2="225.000000"  style="stroke: black; stroke-linecap:round; stroke-width:0.25; stroke-dasharray:3,3;"/>
<line x1="85.000000" y1="225.000000" x2="90.000000" y2="225.000000"  style="stroke: black; stroke-linecap:round; stroke-width:0.25; stroke-dasharray:3,3;"/>
<line x1="99.675000" y1="225.000000" x2="127.000000" y2="225.000000"  style="stroke: black; stroke-linecap:round; stroke-width:0.25; stroke-dasharray:3,3;"/>
<text x="90.000000" y="227.000000" font-family="Arial" font-size="7">S</text>
<rect x="165.000000" y="193.000000" width="24.000000" height="24.000000" rx="0" ry="0" style="stroke:none;fill:#cccccc;"/>
<rect x="164.000000" y="192.000000" width="24.000000" height="24.000000" rx="0" ry="0" style="stroke:none;fill:#4B71A1;"/>
<text x="176.000000" y="206.000000" font-family="Arial" font-size="7" text-anchor="middle" fill="#FFFFFF">*</text>
<circle cx="166.000000" cy="194.000000" r="1"/>
<line x1="161.000000" y1="199.000000" x2="164.000000" y2="200.000000"  transform="rotate(0.000000,164.000000,200.000000)" style="stroke: black; stroke-width:0.25;"/>
<line x1="161.000000" y1="201.000000" x2="164.000000" y2="200.000000"  transform="rotate(0.000000,164.000000,200.000000)" style="stroke: black; stroke-width:0.25;"/>
<line x1="161.000000" y1="207.000000" x2="164.000000" y2="208.000000"  transform="rotate(0.000000,164.000000,208.000000)" style="stroke: black; stroke-width:0.25;"/>
<line x1="161.000000" y1="209.000000" x2="164.000000" y2="208.000000"  transform="rotate(0.000000,164.000000,208.000000)" style="stroke: black; stroke-width:0.25;"/>
<rect x="213.000000" y="135.000000" width="38.700000" height="24.000000" rx="0" ry="0" style="stroke:none;fill:#cccccc;"/>
<rect x="212.000000" y="134.000000" width="38.700000" height="24.000000" rx="0" ry="0" style="stroke:none;fill:#4B71A1;"/>
<text x="231.350000" y="148.000000" font-family="Arial" font-size="7" text-anchor="middle" fill="#FFFFFF">select2</text>
<circle cx="214.000000" cy="136.000000" r="1"/>
<line x1="209.000000" y1="137.000000" x2="212.000000" y2="138.000000"  transform="rotate(0.000000,212.000000,138.000000)" style="stroke: black; stroke-width:0.25;"/>
<line x1="209.000000" y1="139.000000" x2="212.000000" y2="138.000000"  transform="rotate(0.000000,212.000000,138.000000)" style="stroke: black; stroke-width:0.25;"/>
<line x1="209.000000" y1="145.000000" x2="212.000000" y2="146.000000"  transform="rotate(0.000000,212.000000,146.000000)" style="stroke: black; stroke-width:0.25;"/>
<line x1="209.000000" y1="147.000000" x2="212.000000" y2="146.000000"  transform="rotate(0.000000,212.000000,146.000000)" style="stroke: black; stroke-width:0.25;"/>
<line x1="209.000000" y1="153.000000" x2="212.000000" y2="154.000000"  transform="rotate(0.000000,212.000000,154.000000)" style="stroke: black; stroke-width:0.25;"/>
<line x1="209.000000" y1="155.000000" x2="212.000000" y2="154.000000"  transform="rotate(0.000000,212.000000,154.000000)" style="stroke: black; stroke-width:0.25;"/>
<line x1="15.000000" y1="15.000000" x2="15.000000" y2="277.000000"  style="stroke: black; stroke-linecap:round; stroke-width:0.25; stroke-dasharray:3,3;"/>
<line x1="15.000000" y1="277.000000" x2="267.700000" y2="277.000000"  style="stroke: black; stroke-linecap:round; stroke-width:0.25; stroke-dasharray:3,3;"/>
<line x1="267.700000" y1="277.000000" x2="267.700000" y2="15.000000"  style="stroke: black; stroke-linecap:round; stroke-width:0.25; stroke-dasharray:3,3;"/>
<line x1="15.000000" y1="15.000000" x2="20.000000" y2="15.000000"  style="stroke: black; stroke-linecap:round; stroke-width:0.25; stroke-dasharray:3,3;"/>
<line x1="49.025000" y1="15.000000" x2="267.700000" y2="15.000000"  style="stroke: black; stroke-linecap:round; stroke-width:0.25; stroke-dasharray:3,3;"/>
<text x="20.000000" y="17.000000" font-family="Arial" font-size="7">mapcond</text>
<line x1="269.700000" y1="145.000000" x2="272.700000" y2="146.000000"  transform="rotate(0.000000,272.700000,146.000000)" style="stroke: black; stroke-width:0.25;"/>
<line x1="269.700000" y1="147.000000" x2="272.700000" y2="146.000000"  transform="rotate(0.000000,272.700000,146.000000)" style="stroke: black; stroke-width:0.25;"/>
<line x1="10.000000" y1="146.000000" x2="20.000000" y2="146.000000"  style="stroke:black; stroke-linecap:round; stroke-width:0.25;"/>
<line x1="20.000000" y1="146.000000" x2="24.000000" y2="146.000000"  style="stroke:black; stroke-linecap:round; stroke-width:0.25;"/>
<line x1="24.000000" y1="146.000000" x2="28.000000" y2="146.000000"  style="stroke:black; stroke-linecap:round; stroke-width:0.25;"/>
<line x1="28.000000" y1="146.000000" x2="28.000000" y2="146.000000"  style="stroke:black; stroke-linecap:round; stroke-width:0.25;"/>
<line x1="28.000000" y1="146.000000" x2="32.000000" y2="146.000000"  style="stroke:black; stroke-linecap:round; stroke-width:0.25;"/>
<line x1="98.000000" y1="162.000000" x2="102.000000" y2="162.000000"  style="stroke:black; stroke-linecap:round; stroke-width:0.25;"/>
<line x1="98.000000" y1="204.000000" x2="102.000000" y2="204.000000"  style="stroke:black; stroke-linecap:round; stroke-width:0.25;"/>
<line x1="102.000000" y1="162.000000" x2="112.000000" y2="162.000000"  style="stroke:black; stroke-linecap:round; stroke-width:0.25;"/>
<line x1="102.000000" y1="204.000000" x2="112.000000" y2="204.000000"  style="stroke:black; stroke-linecap:round; stroke-width:0.25;"/>
<line x1="112.000000" y1="162.000000" x2="120.000000" y2="162.000000"  style="stroke:black; stroke-linecap:round; stroke-width:0.25;"/>
<line x1="112.000000" y1="182.000000" x2="120.000000" y2="182.000000"  style="stroke:black; stroke-linecap:round; stroke-width:0.25;"/>
<line x1="112.000000" y1="204.000000" x2="112.000000" y2="182.000000"  style="stroke:black; stroke-linecap:round; stroke-width:0.25;"/>
<line x1="112.000000" y1="204.000000" x2="112.000000" y2="204.000000"  style="stroke:black; stroke-linecap:round; stroke-width:0.25;"/>
<line x1="118.000000" y1="36.000000" x2="122.000000" y2="36.000000"  style="stroke:black; stroke-linecap:round; stroke-width:0.25;"/>
<line x1="118.000000" y1="68.000000" x2="122.000000" y2="68.000000"  style="stroke:black; stroke-linecap:round; stroke-width:0.25;"/>
<line x1="118.000000" y1="246.000000" x2="122.000000" y2="246.000000"  style="stroke:black; stroke-linecap:round; stroke-width:0.25;"/>
<line x1="120.000000" y1="162.000000" x2="120.000000" y2="174.000000"  style="stroke:black; stroke-linecap:round; stroke-width:0.25;"/>
<line x1="120.000000" y1="174.000000" x2="120.000000" y2="174.000000"  style="stroke:black; stroke-linecap:round; stroke-width:0.25;"/>
<line x1="120.000000" y1="174.000000" x2="124.000000" y2="174.000000"  style="stroke:black; stroke-linecap:round; stroke-width:0.25;"/>
<line x1="120.000000" y1="182.000000" x2="124.000000" y2="182.000000"  style="stroke:black; stroke-linecap:round; stroke-width:0.25;"/>
<line x1="122.000000" y1="36.000000" x2="130.000000" y2="36.000000"  style="stroke:black; stroke-linecap:round; stroke-width:0.25;"/>
<line x1="122.000000" y1="56.000000" x2="130.000000" y2="56.000000"  style="stroke:black; stroke-linecap:round; stroke-width:0.25;"/>
<line x1="122.000000" y1="68.000000" x2="122.000000" y2="56.000000"  style="stroke:black; stroke-linecap:round; stroke-width:0.25;"/>
<line x1="122.000000" y1="68.000000" x2="122.000000" y2="68.000000"  style="stroke:black; stroke-linecap:round; stroke-width:0.25;"/>
<line x1="122.000000" y1="246.000000" x2="132.000000" y2="246.000000"  style="stroke:black; stroke-linecap:round; stroke-width:0.25;"/>
<line x1="130.000000" y1="36.000000" x2="130.000000" y2="48.000000"  style="stroke:black; stroke-linecap:round; stroke-width:0.25;"/>
<line x1="130.000000" y1="48.000000" x2="130.000000" y2="48.000000"  style="stroke:black; stroke-linecap:round; stroke-width:0.25;"/>
<line x1="130.000000" y1="48.000000" x2="134.000000" y2="48.000000"  style="stroke:black; stroke-linecap:round; stroke-width:0.25;"/>
<line x1="130.000000" y1="56.000000" x2="134.000000" y2="56.000000"  style="stroke:black; stroke-linecap:round; stroke-width:0.25;"/>
<line x1="132.000000" y1="246.000000" x2="152.000000" y2="246.000000"  style="stroke:black; stroke-linecap:round; stroke-width:0.25;"/>
<line x1="138.000000" y1="110.000000" x2="142.000000" y2="110.000000"  style="stroke:black; stroke-linecap:round; stroke-width:0.25;"/>
<line x1="142.000000" y1="110.000000" x2="152.000000" y2="110.000000"  style="stroke:black; stroke-linecap:round; stroke-width:0.25;"/>
<line x1="148.000000" y1="178.000000" x2="152.000000" y2="178.000000"  style="stroke:black; stroke-linecap:round; stroke-width:0.25;"/>
<line x1="152.000000" y1="110.000000" x2="192.000000" y2="110.000000"  style="stroke:black; stroke-linecap:round; stroke-width:0.25;"/>
<line x1="152.000000" y1="178.000000" x2="160.000000" y2="178.000000"  style="stroke:black; stroke-linecap:round; stroke-width:0.25;"/>
<line x1="152.000000" y1="208.000000" x2="160.000000" y2="208.000000"  style="stroke:black; stroke-linecap:round; stroke-width:0.25;"/>
<line x1="152.000000" y1="246.000000" x2="152.000000" y2="208.000000"  style="stroke:black; stroke-linecap:round; stroke-width:0.25;"/>
<line x1="152.000000" y1="246.000000" x2="152.000000" y2="246.000000"  style="stroke:black; stroke-linecap:round; stroke-width:0.25;"/>
<line x1="158.000000" y1="52.000000" x2="162.000000" y2="52.000000"  style="stroke:black; stroke-linecap:round; stroke-width:0.25;"/>
<line x1="160.000000" y1="178.000000" x2="160.000000" y2="200.000000"  style="stroke:black; stroke-linecap:round; stroke-width:0.25;"/>
<line x1="160.000000" y1="200.000000" x2="160.000000" y2="200.000000"  style="stroke:black; stroke-linecap:round; stroke-width:0.25;"/>
<line x1="160.000000" y1="200.000000" x2="164.000000" y2="200.000000"  style="stroke:black; stroke-linecap:round; stroke-width:0.25;"/>
<line x1="160.000000" y1="208.000000" x2="164.000000" y2="208.000000"  style="stroke:black; stroke-linecap:round; stroke-width:0.25;"/>
<line x1="162.000000" y1="52.000000" x2="192.000000" y2="52.000000"  style="stroke:black; stroke-linecap:round; stroke-width:0.25;"/>
<line x1="188.000000" y1="204.000000" x2="192.000000" y2="204.000000"  style="stroke:black; stroke-linecap:round; stroke-width:0.25;"/>
<line x1="192.000000" y1="52.000000" x2="208.000000" y2="52.000000"  style="stroke:black; stroke-linecap:round; stroke-width:0.25;"/>
<line x1="192.000000" y1="110.000000" x2="200.000000" y2="110.000000"  style="stroke:black; stroke-linecap:round; stroke-width:0.25;"/>
<line x1="192.000000" y1="154.000000" x2="208.000000" y2="154.000000"  style="stroke:black; stroke-linecap:round; stroke-width:0.25;"/>
<line x1="192.000000" y1="204.000000" x2="192.000000" y2="154.000000"  style="stroke:black; stroke-linecap:round; stroke-width:0.25;"/>
<line x1="192.000000" y1="204.000000" x2="192.000000" y2="204.000000"  style="stroke:black; stroke-linecap:round; stroke-width:0.25;"/>
<line x1="200.000000" y1="110.000000" x2="200.000000" y2="146.000000"  style="stroke:black; stroke-linecap:round; stroke-width:0.25;"/>
<line x1="200.000000" y1="146.000000" x2="208.000000" y2="146.000000"  style="stroke:black; stroke-linecap:round; stroke-width:0.25;"/>
<line x1="208.000000" y1="52.000000" x2="208.000000" y2="138.000000"  style="stroke:black; stroke-linecap:round; stroke-width:0.25;"/>
<line x1="208.000000" y1="138.000000" x2="208.000000" y2="138.000000"  style="stroke:black; stroke-linecap:round; stroke-width:0.25;"/>
<line x1="208.000000" y1="138.000000" x2="212.000000" y2="138.000000"  style="stroke:black; stroke-linecap:round; stroke-width:0.25;"/>
<line x1="208.000000" y1="146.000000" x2="212.000000" y2="146.000000"  style="stroke:black; stroke-linecap:round; stroke-width:0.25;"/>
<line x1="208.000000" y1="154.000000" x2="212.000000" y2="154.000000"  style="stroke:black; stroke-linecap:round; stroke-width:0.25;"/>
<line x1="250.700000" y1="146.000000" x2="254.700000" y2="146.000000"  style="stroke:black; stroke-linecap:round; stroke-width:0.25;"/>
<line x1="254.700000" y1="146.000000" x2="254.700000" y2="146.000000"  style="stroke:black; stroke-linecap:round; stroke-width:0.25;"/>
<line x1="254.700000" y1="146.000000" x2="258.700000" y2="146.000000"  style="stroke:black; stroke-linecap:round; stroke-width:0.25;"/>
<line x1="258.700000" y1="146.000000" x2="262.700000" y2="146.000000"  style="stroke:black; stroke-linecap:round; stroke-width:0.25;"/>
<line x1="262.700000" y1="146.000000" x2="272.700000" y2="146.000000"  style="stroke:black; stroke-linecap:round; stroke-width:0.25;"/>
</svg>
