<?xml version="1.0"?>
<svg xmlns="http://www.w3.org/2000/svg" xmlns:xlink="http://www.w3.org/1999/xlink" viewBox="0 0 300.100000 240.000000" width="150.050000mm" height="120.000000mm" version="1.1">
<a xlink:href="env-0x7f37c0885370.svg">
<rect x="1.000000" y="1.000000" width="299.100000" height="239.000000" rx="0" ry="0" style="stroke:none;fill:#cccccc;"/>
<rect x="0.000000" y="0.000000" width="299.100000" height="239.000000" rx="0" ry="0" style="stroke:none;fill:#ffffff;"/>
</a>
<text x="10.000000" y="7.000000" font-family="Arial" font-size="7"></text>
<rect x="107.700000" y="35.000000" width="24.000000" height="24.000000" rx="0" ry="0" style="stroke:none;fill:#cccccc;"/>
<rect x="106.700000" y="34.000000" width="24.000000" height="24.000000" rx="0" ry="0" style="stroke:none;fill:#f44800;"/>
<text x="118.700000" y="48.000000" font-family="Arial" font-size="7" text-anchor="middle" fill="#FFFFFF">0</text>
<circle cx="108.700000" cy="36.000000" r="1"/>
<line x1="97.700000" y1="25.000000" x2="97.700000" y2="67.000000"  style="stroke: black; stroke-linecap:round; stroke-width:0.25; stroke-dasharray:3,3;"/>
<line x1="97.700000" y1="67.000000" x2="139.700000" y2="67.000000"  style="stroke: black; stroke-linecap:round; stroke-width:0.25; stroke-dasharray:3,3;"/>
<line x1="139.700000" y1="67.000000" x2="139.700000" y2="25.000000"  style="stroke: black; stroke-linecap:round; stroke-width:0.25; stroke-dasharray:3,3;"/>
<line x1="97.700000" y1="25.000000" x2="102.700000" y2="25.000000"  style="stroke: black; stroke-linecap:round; stroke-width:0.25; stroke-dasharray:3,3;"/>
<line x1="128.500000" y1="25.000000" x2="139.700000" y2="25.000000"  style="stroke: black; stroke-linecap:round; stroke-width:0.25; stroke-dasharray:3,3;"/>
<text x="102.700000" y="27.000000" font-family="Arial" font-size="7">parity</text>
<rect x="71.700000" y="77.000000" width="24.000000" height="24.000000" rx="0" ry="0" style="stroke:none;fill:#cccccc;"/>
<rect x="70.700000" y="76.000000" width="24.000000" height="24.000000" rx="0" ry="0" style="stroke:none;fill:#f44800;"/>
<text x="82.700000" y="90.000000" font-family="Arial" font-size="7" text-anchor="middle" fill="#FFFFFF">-1</text>
<circle cx="72.700000" cy="78.000000" r="1"/>
<a xlink:href="tauCenterClipped-0x7f37c0878c70.svg">
<rect x="25.000000" y="109.000000" width="77.400000" height="24.000000" rx="0" ry="0" style="stroke:none;fill:#cccccc;"/>
<rect x="24.000000" y="108.000000" width="77.400000" height="24.000000" rx="0" ry="0" style="stroke:none;fill:#003366;"/>
</a>
<a xlink:href="tauCenterClipped-0x7f37c0878c70.svg">
<text x="62.700000" y="122.000000" font-family="Arial" font-size="7" text-anchor="middle" fill="#FFFFFF">tauCenterClipped</text>
</a>
<circle cx="26.000000" cy="110.000000" r="1"/>
<a xlink:href="SR-0x7f37c020c3a0.svg">
<rect x="34.800000" y="141.000000" width="24.000000" height="24.000000" rx="0" ry="0" style="stroke:none;fill:#cccccc;"/>
<rect x="33.800000" y="140.000000" width="24.000000" height="24.000000" rx="0" ry="0" style="stroke:none;fill:#003366;"/>
</a>
<a xlink:href="SR-0x7f37c020c3a0.svg">
<text x="45.800000" y="154.000000" font-family="Arial" font-size="7" text-anchor="middle" fill="#FFFFFF">SR</text>
</a>
<circle cx="35.800000" cy="142.000000" r="1"/>
<rect x="66.800000" y="141.000000" width="25.800000" height="24.000000" rx="0" ry="0" style="stroke:none;fill:#cccccc;"/>
<rect x="65.800000" y="140.000000" width="25.800000" height="24.000000" rx="0" ry="0" style="stroke:none;fill:#4B71A1;"/>
<text x="78.700000" y="154.000000" font-family="Arial" font-size="7" text-anchor="middle" fill="#FFFFFF">float</text>
<circle cx="67.800000" cy="142.000000" r="1"/>
<line x1="62.800000" y1="151.000000" x2="65.800000" y2="152.000000"  transform="rotate(0.000000,65.800000,152.000000)" style="stroke: black; stroke-width:0.25;"/>
<line x1="62.800000" y1="153.000000" x2="65.800000" y2="152.000000"  transform="rotate(0.000000,65.800000,152.000000)" style="stroke: black; stroke-width:0.25;"/>
<rect x="118.400000" y="125.000000" width="24.000000" height="24.000000" rx="0" ry="0" style="stroke:none;fill:#cccccc;"/>
<rect x="117.400000" y="124.000000" width="24.000000" height="24.000000" rx="0" ry="0" style="stroke:none;fill:#4B71A1;"/>
<text x="129.400000" y="138.000000" font-family="Arial" font-size="7" text-anchor="middle" fill="#FFFFFF">*</text>
<circle cx="119.400000" cy="126.000000" r="1"/>
<line x1="114.400000" y1="131.000000" x2="117.400000" y2="132.000000"  transform="rotate(0.000000,117.400000,132.000000)" style="stroke: black; stroke-width:0.25;"/>
<line x1="114.400000" y1="133.000000" x2="117.400000" y2="132.000000"  transform="rotate(0.000000,117.400000,132.000000)" style="stroke: black; stroke-width:0.25;"/>
<line x1="114.400000" y1="139.000000" x2="117.400000" y2="140.000000"  transform="rotate(0.000000,117.400000,140.000000)" style="stroke: black; stroke-width:0.25;"/>
<line x1="114.400000" y1="141.000000" x2="117.400000" y2="140.000000"  transform="rotate(0.000000,117.400000,140.000000)" style="stroke: black; stroke-width:0.25;"/>
<rect x="158.400000" y="109.000000" width="24.000000" height="24.000000" rx="0" ry="0" style="stroke:none;fill:#cccccc;"/>
<rect x="157.400000" y="108.000000" width="24.000000" height="24.000000" rx="0" ry="0" style="stroke:none;fill:#4B71A1;"/>
<text x="169.400000" y="122.000000" font-family="Arial" font-size="7" text-anchor="middle" fill="#FFFFFF">/</text>
<circle cx="159.400000" cy="110.000000" r="1"/>
<line x1="154.400000" y1="115.000000" x2="157.400000" y2="116.000000"  transform="rotate(0.000000,157.400000,116.000000)" style="stroke: black; stroke-width:0.25;"/>
<line x1="154.400000" y1="117.000000" x2="157.400000" y2="116.000000"  transform="rotate(0.000000,157.400000,116.000000)" style="stroke: black; stroke-width:0.25;"/>
<line x1="154.400000" y1="123.000000" x2="157.400000" y2="124.000000"  transform="rotate(0.000000,157.400000,124.000000)" style="stroke: black; stroke-width:0.25;"/>
<line x1="154.400000" y1="125.000000" x2="157.400000" y2="124.000000"  transform="rotate(0.000000,157.400000,124.000000)" style="stroke: black; stroke-width:0.25;"/>
<rect x="190.400000" y="109.000000" width="24.000000" height="24.000000" rx="0" ry="0" style="stroke:none;fill:#cccccc;"/>
<rect x="189.400000" y="108.000000" width="24.000000" height="24.000000" rx="0" ry="0" style="stroke:none;fill:#4B71A1;"/>
<text x="201.400000" y="122.000000" font-family="Arial" font-size="7" text-anchor="middle" fill="#FFFFFF">exp</text>
<circle cx="191.400000" cy="110.000000" r="1"/>
<line x1="186.400000" y1="119.000000" x2="189.400000" y2="120.000000"  transform="rotate(0.000000,189.400000,120.000000)" style="stroke: black; stroke-width:0.25;"/>
<line x1="186.400000" y1="121.000000" x2="189.400000" y2="120.000000"  transform="rotate(0.000000,189.400000,120.000000)" style="stroke: black; stroke-width:0.25;"/>
<rect x="107.700000" y="183.000000" width="24.000000" height="24.000000" rx="0" ry="0" style="stroke:none;fill:#cccccc;"/>
<rect x="106.700000" y="182.000000" width="24.000000" height="24.000000" rx="0" ry="0" style="stroke:none;fill:#f44800;"/>
<text x="118.700000" y="196.000000" font-family="Arial" font-size="7" text-anchor="middle" fill="#FFFFFF">0</text>
<circle cx="108.700000" cy="184.000000" r="1"/>
<line x1="97.700000" y1="173.000000" x2="97.700000" y2="215.000000"  style="stroke: black; stroke-linecap:round; stroke-width:0.25; stroke-dasharray:3,3;"/>
<line x1="97.700000" y1="215.000000" x2="139.700000" y2="215.000000"  style="stroke: black; stroke-linecap:round; stroke-width:0.25; stroke-dasharray:3,3;"/>
<line x1="139.700000" y1="215.000000" x2="139.700000" y2="173.000000"  style="stroke: black; stroke-linecap:round; stroke-width:0.25; stroke-dasharray:3,3;"/>
<line x1="97.700000" y1="173.000000" x2="102.700000" y2="173.000000"  style="stroke: black; stroke-linecap:round; stroke-width:0.25; stroke-dasharray:3,3;"/>
<line x1="112.375000" y1="173.000000" x2="139.700000" y2="173.000000"  style="stroke: black; stroke-linecap:round; stroke-width:0.25; stroke-dasharray:3,3;"/>
<text x="102.700000" y="175.000000" font-family="Arial" font-size="7">d</text>
<rect x="230.400000" y="109.000000" width="38.700000" height="24.000000" rx="0" ry="0" style="stroke:none;fill:#cccccc;"/>
<rect x="229.400000" y="108.000000" width="38.700000" height="24.000000" rx="0" ry="0" style="stroke:none;fill:#4B71A1;"/>
<text x="248.750000" y="122.000000" font-family="Arial" font-size="7" text-anchor="middle" fill="#FFFFFF">select2</text>
<circle cx="231.400000" cy="110.000000" r="1"/>
<line x1="226.400000" y1="111.000000" x2="229.400000" y2="112.000000"  transform="rotate(0.000000,229.400000,112.000000)" style="stroke: black; stroke-width:0.25;"/>
<line x1="226.400000" y1="113.000000" x2="229.400000" y2="112.000000"  transform="rotate(0.000000,229.400000,112.000000)" style="stroke: black; stroke-width:0.25;"/>
<line x1="226.400000" y1="119.000000" x2="229.400000" y2="120.000000"  transform="rotate(0.000000,229.400000,120.000000)" style="stroke: black; stroke-width:0.25;"/>
<line x1="226.400000" y1="121.000000" x2="229.400000" y2="120.000000"  transform="rotate(0.000000,229.400000,120.000000)" style="stroke: black; stroke-width:0.25;"/>
<line x1="226.400000" y1="127.000000" x2="229.400000" y2="128.000000"  transform="rotate(0.000000,229.400000,128.000000)" style="stroke: black; stroke-width:0.25;"/>
<line x1="226.400000" y1="129.000000" x2="229.400000" y2="128.000000"  transform="rotate(0.000000,229.400000,128.000000)" style="stroke: black; stroke-width:0.25;"/>
<line x1="15.000000" y1="15.000000" x2="15.000000" y2="225.000000"  style="stroke: black; stroke-linecap:round; stroke-width:0.25; stroke-dasharray:3,3;"/>
<line x1="15.000000" y1="225.000000" x2="285.100000" y2="225.000000"  style="stroke: black; stroke-linecap:round; stroke-width:0.25; stroke-dasharray:3,3;"/>
<line x1="285.100000" y1="225.000000" x2="285.100000" y2="15.000000"  style="stroke: black; stroke-linecap:round; stroke-width:0.25; stroke-dasharray:3,3;"/>
<line x1="15.000000" y1="15.000000" x2="20.000000" y2="15.000000"  style="stroke: black; stroke-linecap:round; stroke-width:0.25; stroke-dasharray:3,3;"/>
<line x1="29.675000" y1="15.000000" x2="285.100000" y2="15.000000"  style="stroke: black; stroke-linecap:round; stroke-width:0.25; stroke-dasharray:3,3;"/>
<text x="20.000000" y="17.000000" font-family="Arial" font-size="7">p</text>
<line x1="287.100000" y1="119.000000" x2="290.100000" y2="120.000000"  transform="rotate(0.000000,290.100000,120.000000)" style="stroke: black; stroke-width:0.25;"/>
<line x1="287.100000" y1="121.000000" x2="290.100000" y2="120.000000"  transform="rotate(0.000000,290.100000,120.000000)" style="stroke: black; stroke-width:0.25;"/>
<line x1="57.800000" y1="152.000000" x2="61.800000" y2="152.000000"  style="stroke:black; stroke-linecap:round; stroke-width:0.25;"/>
<line x1="61.800000" y1="152.000000" x2="61.800000" y2="152.000000"  style="stroke:black; stroke-linecap:round; stroke-width:0.25;"/>
<line x1="61.800000" y1="152.000000" x2="65.800000" y2="152.000000"  style="stroke:black; stroke-linecap:round; stroke-width:0.25;"/>
<line x1="91.600000" y1="152.000000" x2="95.600000" y2="152.000000"  style="stroke:black; stroke-linecap:round; stroke-width:0.25;"/>
<line x1="94.700000" y1="88.000000" x2="98.700000" y2="88.000000"  style="stroke:black; stroke-linecap:round; stroke-width:0.25;"/>
<line x1="95.600000" y1="152.000000" x2="105.400000" y2="152.000000"  style="stroke:black; stroke-linecap:round; stroke-width:0.25;"/>
<line x1="98.700000" y1="88.000000" x2="145.400000" y2="88.000000"  style="stroke:black; stroke-linecap:round; stroke-width:0.25;"/>
<line x1="101.400000" y1="120.000000" x2="105.400000" y2="120.000000"  style="stroke:black; stroke-linecap:round; stroke-width:0.25;"/>
<line x1="105.400000" y1="120.000000" x2="113.400000" y2="120.000000"  style="stroke:black; stroke-linecap:round; stroke-width:0.25;"/>
<line x1="105.400000" y1="140.000000" x2="113.400000" y2="140.000000"  style="stroke:black; stroke-linecap:round; stroke-width:0.25;"/>
<line x1="105.400000" y1="152.000000" x2="105.400000" y2="140.000000"  style="stroke:black; stroke-linecap:round; stroke-width:0.25;"/>
<line x1="105.400000" y1="152.000000" x2="105.400000" y2="152.000000"  style="stroke:black; stroke-linecap:round; stroke-width:0.25;"/>
<line x1="113.400000" y1="120.000000" x2="113.400000" y2="132.000000"  style="stroke:black; stroke-linecap:round; stroke-width:0.25;"/>
<line x1="113.400000" y1="132.000000" x2="113.400000" y2="132.000000"  style="stroke:black; stroke-linecap:round; stroke-width:0.25;"/>
<line x1="113.400000" y1="132.000000" x2="117.400000" y2="132.000000"  style="stroke:black; stroke-linecap:round; stroke-width:0.25;"/>
<line x1="113.400000" y1="140.000000" x2="117.400000" y2="140.000000"  style="stroke:black; stroke-linecap:round; stroke-width:0.25;"/>
<line x1="130.700000" y1="46.000000" x2="134.700000" y2="46.000000"  style="stroke:black; stroke-linecap:round; stroke-width:0.25;"/>
<line x1="130.700000" y1="194.000000" x2="134.700000" y2="194.000000"  style="stroke:black; stroke-linecap:round; stroke-width:0.25;"/>
<line x1="134.700000" y1="46.000000" x2="144.700000" y2="46.000000"  style="stroke:black; stroke-linecap:round; stroke-width:0.25;"/>
<line x1="134.700000" y1="194.000000" x2="144.700000" y2="194.000000"  style="stroke:black; stroke-linecap:round; stroke-width:0.25;"/>
<line x1="141.400000" y1="136.000000" x2="145.400000" y2="136.000000"  style="stroke:black; stroke-linecap:round; stroke-width:0.25;"/>
<line x1="144.700000" y1="46.000000" x2="217.400000" y2="46.000000"  style="stroke:black; stroke-linecap:round; stroke-width:0.25;"/>
<line x1="144.700000" y1="194.000000" x2="217.400000" y2="194.000000"  style="stroke:black; stroke-linecap:round; stroke-width:0.25;"/>
<line x1="145.400000" y1="88.000000" x2="153.400000" y2="88.000000"  style="stroke:black; stroke-linecap:round; stroke-width:0.25;"/>
<line x1="145.400000" y1="124.000000" x2="153.400000" y2="124.000000"  style="stroke:black; stroke-linecap:round; stroke-width:0.25;"/>
<line x1="145.400000" y1="136.000000" x2="145.400000" y2="124.000000"  style="stroke:black; stroke-linecap:round; stroke-width:0.25;"/>
<line x1="145.400000" y1="136.000000" x2="145.400000" y2="136.000000"  style="stroke:black; stroke-linecap:round; stroke-width:0.25;"/>
<line x1="153.400000" y1="88.000000" x2="153.400000" y2="116.000000"  style="stroke:black; stroke-linecap:round; stroke-width:0.25;"/>
<line x1="153.400000" y1="116.000000" x2="153.400000" y2="116.000000"  style="stroke:black; stroke-linecap:round; stroke-width:0.25;"/>
<line x1="153.400000" y1="116.000000" x2="157.400000" y2="116.000000"  style="stroke:black; stroke-linecap:round; stroke-width:0.25;"/>
<line x1="153.400000" y1="124.000000" x2="157.400000" y2="124.000000"  style="stroke:black; stroke-linecap:round; stroke-width:0.25;"/>
<line x1="181.400000" y1="120.000000" x2="185.400000" y2="120.000000"  style="stroke:black; stroke-linecap:round; stroke-width:0.25;"/>
<line x1="185.400000" y1="120.000000" x2="185.400000" y2="120.000000"  style="stroke:black; stroke-linecap:round; stroke-width:0.25;"/>
<line x1="185.400000" y1="120.000000" x2="189.400000" y2="120.000000"  style="stroke:black; stroke-linecap:round; stroke-width:0.25;"/>
<line x1="213.400000" y1="120.000000" x2="217.400000" y2="120.000000"  style="stroke:black; stroke-linecap:round; stroke-width:0.25;"/>
<line x1="217.400000" y1="46.000000" x2="225.400000" y2="46.000000"  style="stroke:black; stroke-linecap:round; stroke-width:0.25;"/>
<line x1="217.400000" y1="120.000000" x2="225.400000" y2="120.000000"  style="stroke:black; stroke-linecap:round; stroke-width:0.25;"/>
<line x1="217.400000" y1="128.000000" x2="225.400000" y2="128.000000"  style="stroke:black; stroke-linecap:round; stroke-width:0.25;"/>
<line x1="217.400000" y1="194.000000" x2="217.400000" y2="128.000000"  style="stroke:black; stroke-linecap:round; stroke-width:0.25;"/>
<line x1="217.400000" y1="194.000000" x2="217.400000" y2="194.000000"  style="stroke:black; stroke-linecap:round; stroke-width:0.25;"/>
<line x1="225.400000" y1="46.000000" x2="225.400000" y2="112.000000"  style="stroke:black; stroke-linecap:round; stroke-width:0.25;"/>
<line x1="225.400000" y1="112.000000" x2="225.400000" y2="112.000000"  style="stroke:black; stroke-linecap:round; stroke-width:0.25;"/>
<line x1="225.400000" y1="112.000000" x2="229.400000" y2="112.000000"  style="stroke:black; stroke-linecap:round; stroke-width:0.25;"/>
<line x1="225.400000" y1="120.000000" x2="229.400000" y2="120.000000"  style="stroke:black; stroke-linecap:round; stroke-width:0.25;"/>
<line x1="225.400000" y1="128.000000" x2="229.400000" y2="128.000000"  style="stroke:black; stroke-linecap:round; stroke-width:0.25;"/>
<line x1="268.100000" y1="120.000000" x2="272.100000" y2="120.000000"  style="stroke:black; stroke-linecap:round; stroke-width:0.25;"/>
<line x1="272.100000" y1="120.000000" x2="272.100000" y2="120.000000"  style="stroke:black; stroke-linecap:round; stroke-width:0.25;"/>
<line x1="272.100000" y1="120.000000" x2="276.100000" y2="120.000000"  style="stroke:black; stroke-linecap:round; stroke-width:0.25;"/>
<line x1="276.100000" y1="120.000000" x2="280.100000" y2="120.000000"  style="stroke:black; stroke-linecap:round; stroke-width:0.25;"/>
<line x1="280.100000" y1="120.000000" x2="290.100000" y2="120.000000"  style="stroke:black; stroke-linecap:round; stroke-width:0.25;"/>
</svg>
