<?xml version="1.0"?>
<svg xmlns="http://www.w3.org/2000/svg" xmlns:xlink="http://www.w3.org/1999/xlink" viewBox="0 0 222.760000 80.080000" width="111.380000mm" height="40.040000mm" version="1.1">
<a xlink:href="peakholder-0x7ff56c863050.svg">
<rect x="1.000000" y="1.000000" width="221.760000" height="79.080000" rx="0" ry="0" style="stroke:none;fill:#cccccc;"/>
<rect x="0.000000" y="0.000000" width="221.760000" height="79.080000" rx="0" ry="0" style="stroke:none;fill:#ffffff;"/>
</a>
<text x="10.000000" y="7.000000" font-family="Arial" font-size="7"></text>
<rect x="41.000000" y="33.040000" width="24.000000" height="24.000000" rx="0" ry="0" style="stroke:none;fill:#cccccc;"/>
<rect x="40.000000" y="32.040000" width="24.000000" height="24.000000" rx="0" ry="0" style="stroke:none;fill:#4B71A1;"/>
<text x="52.000000" y="46.040000" font-family="Arial" font-size="7" text-anchor="middle" fill="#FFFFFF">abs</text>
<circle cx="42.000000" cy="34.040000" r="1"/>
<line x1="37.000000" y1="43.040000" x2="40.000000" y2="44.040000"  transform="rotate(0.000000,40.000000,44.040000)" style="stroke: black; stroke-width:0.25;"/>
<line x1="37.000000" y1="45.040000" x2="40.000000" y2="44.040000"  transform="rotate(0.000000,40.000000,44.040000)" style="stroke: black; stroke-width:0.25;"/>
<a xlink:href="peakhold-0x7ff56c15d6f0.svg">
<rect x="93.020000" y="25.000000" width="38.700000" height="24.000000" rx="0" ry="0" style="stroke:none;fill:#cccccc;"/>
<rect x="92.020000" y="24.000000" width="38.700000" height="24.000000" rx="0" ry="0" style="stroke:none;fill:#003366;"/>
</a>
<a xlink:href="peakhold-0x7ff56c15d6f0.svg">
<text x="111.370000" y="38.000000" font-family="Arial" font-size="7" text-anchor="middle" fill="#FFFFFF">peakhold</text>
</a>
<circle cx="94.020000" cy="26.000000" r="1"/>
<line x1="89.020000" y1="31.000000" x2="92.020000" y2="32.000000"  transform="rotate(0.000000,92.020000,32.000000)" style="stroke: black; stroke-width:0.25;"/>
<line x1="89.020000" y1="33.000000" x2="92.020000" y2="32.000000"  transform="rotate(0.000000,92.020000,32.000000)" style="stroke: black; stroke-width:0.25;"/>
<line x1="89.020000" y1="39.000000" x2="92.020000" y2="40.000000"  transform="rotate(0.000000,92.020000,40.000000)" style="stroke: black; stroke-width:0.25;"/>
<line x1="89.020000" y1="41.000000" x2="92.020000" y2="40.000000"  transform="rotate(0.000000,92.020000,40.000000)" style="stroke: black; stroke-width:0.25;"/>
<rect x="159.760000" y="25.000000" width="24.000000" height="24.000000" rx="0" ry="0" style="stroke:none;fill:#cccccc;"/>
<rect x="158.760000" y="24.000000" width="24.000000" height="24.000000" rx="0" ry="0" style="stroke:none;fill:#4B71A1;"/>
<text x="170.760000" y="38.000000" font-family="Arial" font-size="7" text-anchor="middle" fill="#FFFFFF">&gt;=</text>
<circle cx="160.760000" cy="26.000000" r="1"/>
<line x1="155.760000" y1="31.000000" x2="158.760000" y2="32.000000"  transform="rotate(0.000000,158.760000,32.000000)" style="stroke: black; stroke-width:0.25;"/>
<line x1="155.760000" y1="33.000000" x2="158.760000" y2="32.000000"  transform="rotate(0.000000,158.760000,32.000000)" style="stroke: black; stroke-width:0.25;"/>
<line x1="155.760000" y1="39.000000" x2="158.760000" y2="40.000000"  transform="rotate(0.000000,158.760000,40.000000)" style="stroke: black; stroke-width:0.25;"/>
<line x1="155.760000" y1="41.000000" x2="158.760000" y2="40.000000"  transform="rotate(0.000000,158.760000,40.000000)" style="stroke: black; stroke-width:0.25;"/>
<line x1="15.000000" y1="15.000000" x2="15.000000" y2="65.080000"  style="stroke: black; stroke-linecap:round; stroke-width:0.25; stroke-dasharray:3,3;"/>
<line x1="15.000000" y1="65.080000" x2="207.760000" y2="65.080000"  style="stroke: black; stroke-linecap:round; stroke-width:0.25; stroke-dasharray:3,3;"/>
<line x1="207.760000" y1="65.080000" x2="207.760000" y2="15.000000"  style="stroke: black; stroke-linecap:round; stroke-width:0.25; stroke-dasharray:3,3;"/>
<line x1="15.000000" y1="15.000000" x2="20.000000" y2="15.000000"  style="stroke: black; stroke-linecap:round; stroke-width:0.25; stroke-dasharray:3,3;"/>
<line x1="55.475000" y1="15.000000" x2="207.760000" y2="15.000000"  style="stroke: black; stroke-linecap:round; stroke-width:0.25; stroke-dasharray:3,3;"/>
<text x="20.000000" y="17.000000" font-family="Arial" font-size="7">peakhold2</text>
<line x1="209.760000" y1="35.040000" x2="212.760000" y2="36.040000"  transform="rotate(0.000000,212.760000,36.040000)" style="stroke: black; stroke-width:0.25;"/>
<line x1="209.760000" y1="37.040000" x2="212.760000" y2="36.040000"  transform="rotate(0.000000,212.760000,36.040000)" style="stroke: black; stroke-width:0.25;"/>
<line x1="209.760000" y1="43.040000" x2="212.760000" y2="44.040000"  transform="rotate(0.000000,212.760000,44.040000)" style="stroke: black; stroke-width:0.25;"/>
<line x1="209.760000" y1="45.040000" x2="212.760000" y2="44.040000"  transform="rotate(0.000000,212.760000,44.040000)" style="stroke: black; stroke-width:0.25;"/>
<line x1="10.000000" y1="36.040000" x2="20.000000" y2="36.040000"  style="stroke:black; stroke-linecap:round; stroke-width:0.25;"/>
<line x1="10.000000" y1="44.040000" x2="20.000000" y2="44.040000"  style="stroke:black; stroke-linecap:round; stroke-width:0.25;"/>
<line x1="20.000000" y1="36.040000" x2="24.000000" y2="36.040000"  style="stroke:black; stroke-linecap:round; stroke-width:0.25;"/>
<line x1="20.000000" y1="44.040000" x2="24.000000" y2="44.040000"  style="stroke:black; stroke-linecap:round; stroke-width:0.25;"/>
<line x1="24.000000" y1="36.040000" x2="28.000000" y2="36.040000"  style="stroke:black; stroke-linecap:round; stroke-width:0.25;"/>
<line x1="24.000000" y1="44.040000" x2="28.000000" y2="44.040000"  style="stroke:black; stroke-linecap:round; stroke-width:0.25;"/>
<line x1="28.000000" y1="24.040000" x2="36.000000" y2="24.040000"  style="stroke:black; stroke-linecap:round; stroke-width:0.25;"/>
<line x1="28.000000" y1="36.040000" x2="28.000000" y2="24.040000"  style="stroke:black; stroke-linecap:round; stroke-width:0.25;"/>
<line x1="28.000000" y1="36.040000" x2="28.000000" y2="36.040000"  style="stroke:black; stroke-linecap:round; stroke-width:0.25;"/>
<line x1="28.000000" y1="44.040000" x2="36.000000" y2="44.040000"  style="stroke:black; stroke-linecap:round; stroke-width:0.25;"/>
<line x1="36.000000" y1="24.040000" x2="52.000000" y2="24.040000"  style="stroke:black; stroke-linecap:round; stroke-width:0.25;"/>
<line x1="36.000000" y1="44.040000" x2="40.000000" y2="44.040000"  style="stroke:black; stroke-linecap:round; stroke-width:0.25;"/>
<line x1="52.000000" y1="24.040000" x2="68.000000" y2="24.040000"  style="stroke:black; stroke-linecap:round; stroke-width:0.25;"/>
<line x1="64.000000" y1="44.040000" x2="68.000000" y2="44.040000"  style="stroke:black; stroke-linecap:round; stroke-width:0.25;"/>
<line x1="68.000000" y1="24.040000" x2="88.020000" y2="32.000000"  style="stroke:black; stroke-linecap:round; stroke-width:0.25;"/>
<line x1="68.000000" y1="44.040000" x2="88.020000" y2="40.000000"  style="stroke:black; stroke-linecap:round; stroke-width:0.25;"/>
<line x1="68.000000" y1="44.040000" x2="88.020000" y2="56.080000"  style="stroke:black; stroke-linecap:round; stroke-width:0.25;"/>
<line x1="88.020000" y1="32.000000" x2="92.020000" y2="32.000000"  style="stroke:black; stroke-linecap:round; stroke-width:0.25;"/>
<line x1="88.020000" y1="40.000000" x2="92.020000" y2="40.000000"  style="stroke:black; stroke-linecap:round; stroke-width:0.25;"/>
<line x1="88.020000" y1="56.080000" x2="111.370000" y2="56.080000"  style="stroke:black; stroke-linecap:round; stroke-width:0.25;"/>
<line x1="111.370000" y1="56.080000" x2="134.720000" y2="56.080000"  style="stroke:black; stroke-linecap:round; stroke-width:0.25;"/>
<line x1="130.720000" y1="36.000000" x2="134.720000" y2="36.000000"  style="stroke:black; stroke-linecap:round; stroke-width:0.25;"/>
<line x1="134.720000" y1="36.000000" x2="154.760000" y2="32.000000"  style="stroke:black; stroke-linecap:round; stroke-width:0.25;"/>
<line x1="134.720000" y1="36.000000" x2="154.760000" y2="56.000000"  style="stroke:black; stroke-linecap:round; stroke-width:0.25;"/>
<line x1="134.720000" y1="56.080000" x2="154.760000" y2="40.000000"  style="stroke:black; stroke-linecap:round; stroke-width:0.25;"/>
<line x1="154.760000" y1="32.000000" x2="158.760000" y2="32.000000"  style="stroke:black; stroke-linecap:round; stroke-width:0.25;"/>
<line x1="154.760000" y1="40.000000" x2="158.760000" y2="40.000000"  style="stroke:black; stroke-linecap:round; stroke-width:0.25;"/>
<line x1="154.760000" y1="56.000000" x2="170.760000" y2="56.000000"  style="stroke:black; stroke-linecap:round; stroke-width:0.25;"/>
<line x1="170.760000" y1="56.000000" x2="186.760000" y2="56.000000"  style="stroke:black; stroke-linecap:round; stroke-width:0.25;"/>
<line x1="182.760000" y1="36.000000" x2="186.760000" y2="36.000000"  style="stroke:black; stroke-linecap:round; stroke-width:0.25;"/>
<line x1="186.760000" y1="36.000000" x2="194.760000" y2="36.000000"  style="stroke:black; stroke-linecap:round; stroke-width:0.25;"/>
<line x1="186.760000" y1="44.040000" x2="194.760000" y2="44.040000"  style="stroke:black; stroke-linecap:round; stroke-width:0.25;"/>
<line x1="186.760000" y1="56.000000" x2="186.760000" y2="44.040000"  style="stroke:black; stroke-linecap:round; stroke-width:0.25;"/>
<line x1="186.760000" y1="56.000000" x2="186.760000" y2="56.000000"  style="stroke:black; stroke-linecap:round; stroke-width:0.25;"/>
<line x1="194.760000" y1="36.000000" x2="194.760000" y2="36.040000"  style="stroke:black; stroke-linecap:round; stroke-width:0.25;"/>
<line x1="194.760000" y1="36.040000" x2="194.760000" y2="36.040000"  style="stroke:black; stroke-linecap:round; stroke-width:0.25;"/>
<line x1="194.760000" y1="36.040000" x2="198.760000" y2="36.040000"  style="stroke:black; stroke-linecap:round; stroke-width:0.25;"/>
<line x1="194.760000" y1="44.040000" x2="198.760000" y2="44.040000"  style="stroke:black; stroke-linecap:round; stroke-width:0.25;"/>
<line x1="198.760000" y1="36.040000" x2="202.760000" y2="36.040000"  style="stroke:black; stroke-linecap:round; stroke-width:0.25;"/>
<line x1="198.760000" y1="44.040000" x2="202.760000" y2="44.040000"  style="stroke:black; stroke-linecap:round; stroke-width:0.25;"/>
<line x1="202.760000" y1="36.040000" x2="212.760000" y2="36.040000"  style="stroke:black; stroke-linecap:round; stroke-width:0.25;"/>
<line x1="202.760000" y1="44.040000" x2="212.760000" y2="44.040000"  style="stroke:black; stroke-linecap:round; stroke-width:0.25;"/>
</svg>
