<?xml version="1.0"?>
<svg xmlns="http://www.w3.org/2000/svg" xmlns:xlink="http://www.w3.org/1999/xlink" viewBox="0 0 344.600000 100.000000" width="172.300000mm" height="50.000000mm" version="1.1">
<a xlink:href="loop-0x7fac2b04b9d0.svg">
<rect x="1.000000" y="1.000000" width="343.600000" height="99.000000" rx="0" ry="0" style="stroke:none;fill:#cccccc;"/>
<rect x="0.000000" y="0.000000" width="343.600000" height="99.000000" rx="0" ry="0" style="stroke:none;fill:#ffffff;"/>
</a>
<text x="10.000000" y="7.000000" font-family="Arial" font-size="7"></text>
<a xlink:href="phasor-0x7fac2b04b640.svg">
<rect x="25.000000" y="39.000000" width="154.800000" height="24.000000" rx="0" ry="0" style="stroke:none;fill:#cccccc;"/>
<rect x="24.000000" y="38.000000" width="154.800000" height="24.000000" rx="0" ry="0" style="stroke:none;fill:#003366;"/>
</a>
<a xlink:href="phasor-0x7fac2b04b640.svg">
<text x="101.400000" y="52.000000" font-family="Arial" font-size="7" text-anchor="middle" fill="#FFFFFF">phasor_imp((x...: select2)~_)(0)(0)</text>
</a>
<circle cx="26.000000" cy="40.000000" r="1"/>
<rect x="205.800000" y="43.000000" width="24.000000" height="24.000000" rx="0" ry="0" style="stroke:none;fill:#cccccc;"/>
<rect x="204.800000" y="42.000000" width="24.000000" height="24.000000" rx="0" ry="0" style="stroke:none;fill:#f44800;"/>
<text x="216.800000" y="56.000000" font-family="Arial" font-size="7" text-anchor="middle" fill="#FFFFFF">1</text>
<circle cx="206.800000" cy="44.000000" r="1"/>
<line x1="195.800000" y1="33.000000" x2="195.800000" y2="75.000000"  style="stroke: black; stroke-linecap:round; stroke-width:0.25; stroke-dasharray:3,3;"/>
<line x1="195.800000" y1="75.000000" x2="237.800000" y2="75.000000"  style="stroke: black; stroke-linecap:round; stroke-width:0.25; stroke-dasharray:3,3;"/>
<line x1="237.800000" y1="75.000000" x2="237.800000" y2="33.000000"  style="stroke: black; stroke-linecap:round; stroke-width:0.25; stroke-dasharray:3,3;"/>
<line x1="195.800000" y1="33.000000" x2="200.800000" y2="33.000000"  style="stroke: black; stroke-linecap:round; stroke-width:0.25; stroke-dasharray:3,3;"/>
<line x1="233.050000" y1="33.000000" x2="237.800000" y2="33.000000"  style="stroke: black; stroke-linecap:round; stroke-width:0.25; stroke-dasharray:3,3;"/>
<text x="200.800000" y="35.000000" font-family="Arial" font-size="7">xVals(1)</text>
<rect x="247.800000" y="43.000000" width="25.800000" height="24.000000" rx="0" ry="0" style="stroke:none;fill:#cccccc;"/>
<rect x="246.800000" y="42.000000" width="25.800000" height="24.000000" rx="0" ry="0" style="stroke:none;fill:#4B71A1;"/>
<text x="259.700000" y="56.000000" font-family="Arial" font-size="7" text-anchor="middle" fill="#FFFFFF">float</text>
<circle cx="248.800000" cy="44.000000" r="1"/>
<line x1="243.800000" y1="53.000000" x2="246.800000" y2="54.000000"  transform="rotate(0.000000,246.800000,54.000000)" style="stroke: black; stroke-width:0.25;"/>
<line x1="243.800000" y1="55.000000" x2="246.800000" y2="54.000000"  transform="rotate(0.000000,246.800000,54.000000)" style="stroke: black; stroke-width:0.25;"/>
<rect x="289.600000" y="39.000000" width="24.000000" height="24.000000" rx="0" ry="0" style="stroke:none;fill:#cccccc;"/>
<rect x="288.600000" y="38.000000" width="24.000000" height="24.000000" rx="0" ry="0" style="stroke:none;fill:#4B71A1;"/>
<text x="300.600000" y="52.000000" font-family="Arial" font-size="7" text-anchor="middle" fill="#FFFFFF">*</text>
<circle cx="290.600000" cy="40.000000" r="1"/>
<line x1="285.600000" y1="45.000000" x2="288.600000" y2="46.000000"  transform="rotate(0.000000,288.600000,46.000000)" style="stroke: black; stroke-width:0.25;"/>
<line x1="285.600000" y1="47.000000" x2="288.600000" y2="46.000000"  transform="rotate(0.000000,288.600000,46.000000)" style="stroke: black; stroke-width:0.25;"/>
<line x1="285.600000" y1="53.000000" x2="288.600000" y2="54.000000"  transform="rotate(0.000000,288.600000,54.000000)" style="stroke: black; stroke-width:0.25;"/>
<line x1="285.600000" y1="55.000000" x2="288.600000" y2="54.000000"  transform="rotate(0.000000,288.600000,54.000000)" style="stroke: black; stroke-width:0.25;"/>
<line x1="15.000000" y1="15.000000" x2="15.000000" y2="85.000000"  style="stroke: black; stroke-linecap:round; stroke-width:0.25; stroke-dasharray:3,3;"/>
<line x1="15.000000" y1="85.000000" x2="329.600000" y2="85.000000"  style="stroke: black; stroke-linecap:round; stroke-width:0.25; stroke-dasharray:3,3;"/>
<line x1="329.600000" y1="85.000000" x2="329.600000" y2="15.000000"  style="stroke: black; stroke-linecap:round; stroke-width:0.25; stroke-dasharray:3,3;"/>
<line x1="15.000000" y1="15.000000" x2="20.000000" y2="15.000000"  style="stroke: black; stroke-linecap:round; stroke-width:0.25; stroke-dasharray:3,3;"/>
<line x1="32.900000" y1="15.000000" x2="329.600000" y2="15.000000"  style="stroke: black; stroke-linecap:round; stroke-width:0.25; stroke-dasharray:3,3;"/>
<text x="20.000000" y="17.000000" font-family="Arial" font-size="7">ph</text>
<line x1="331.600000" y1="49.000000" x2="334.600000" y2="50.000000"  transform="rotate(0.000000,334.600000,50.000000)" style="stroke: black; stroke-width:0.25;"/>
<line x1="331.600000" y1="51.000000" x2="334.600000" y2="50.000000"  transform="rotate(0.000000,334.600000,50.000000)" style="stroke: black; stroke-width:0.25;"/>
<line x1="178.800000" y1="50.000000" x2="182.800000" y2="50.000000"  style="stroke:black; stroke-linecap:round; stroke-width:0.25;"/>
<line x1="182.800000" y1="24.000000" x2="190.800000" y2="24.000000"  style="stroke:black; stroke-linecap:round; stroke-width:0.25;"/>
<line x1="182.800000" y1="50.000000" x2="182.800000" y2="24.000000"  style="stroke:black; stroke-linecap:round; stroke-width:0.25;"/>
<line x1="182.800000" y1="50.000000" x2="182.800000" y2="50.000000"  style="stroke:black; stroke-linecap:round; stroke-width:0.25;"/>
<line x1="190.800000" y1="24.000000" x2="233.700000" y2="24.000000"  style="stroke:black; stroke-linecap:round; stroke-width:0.25;"/>
<line x1="228.800000" y1="54.000000" x2="232.800000" y2="54.000000"  style="stroke:black; stroke-linecap:round; stroke-width:0.25;"/>
<line x1="232.800000" y1="54.000000" x2="242.800000" y2="54.000000"  style="stroke:black; stroke-linecap:round; stroke-width:0.25;"/>
<line x1="233.700000" y1="24.000000" x2="276.600000" y2="24.000000"  style="stroke:black; stroke-linecap:round; stroke-width:0.25;"/>
<line x1="242.800000" y1="54.000000" x2="242.800000" y2="54.000000"  style="stroke:black; stroke-linecap:round; stroke-width:0.25;"/>
<line x1="242.800000" y1="54.000000" x2="246.800000" y2="54.000000"  style="stroke:black; stroke-linecap:round; stroke-width:0.25;"/>
<line x1="272.600000" y1="54.000000" x2="276.600000" y2="54.000000"  style="stroke:black; stroke-linecap:round; stroke-width:0.25;"/>
<line x1="276.600000" y1="24.000000" x2="284.600000" y2="24.000000"  style="stroke:black; stroke-linecap:round; stroke-width:0.25;"/>
<line x1="276.600000" y1="54.000000" x2="284.600000" y2="54.000000"  style="stroke:black; stroke-linecap:round; stroke-width:0.25;"/>
<line x1="284.600000" y1="24.000000" x2="284.600000" y2="46.000000"  style="stroke:black; stroke-linecap:round; stroke-width:0.25;"/>
<line x1="284.600000" y1="46.000000" x2="284.600000" y2="46.000000"  style="stroke:black; stroke-linecap:round; stroke-width:0.25;"/>
<line x1="284.600000" y1="46.000000" x2="288.600000" y2="46.000000"  style="stroke:black; stroke-linecap:round; stroke-width:0.25;"/>
<line x1="284.600000" y1="54.000000" x2="288.600000" y2="54.000000"  style="stroke:black; stroke-linecap:round; stroke-width:0.25;"/>
<line x1="312.600000" y1="50.000000" x2="316.600000" y2="50.000000"  style="stroke:black; stroke-linecap:round; stroke-width:0.25;"/>
<line x1="316.600000" y1="50.000000" x2="316.600000" y2="50.000000"  style="stroke:black; stroke-linecap:round; stroke-width:0.25;"/>
<line x1="316.600000" y1="50.000000" x2="320.600000" y2="50.000000"  style="stroke:black; stroke-linecap:round; stroke-width:0.25;"/>
<line x1="320.600000" y1="50.000000" x2="324.600000" y2="50.000000"  style="stroke:black; stroke-linecap:round; stroke-width:0.25;"/>
<line x1="324.600000" y1="50.000000" x2="334.600000" y2="50.000000"  style="stroke:black; stroke-linecap:round; stroke-width:0.25;"/>
</svg>
