<?xml version="1.0"?>
<svg xmlns="http://www.w3.org/2000/svg" xmlns:xlink="http://www.w3.org/1999/xlink" viewBox="0 0 450.000000 224.000000" width="225.000000mm" height="112.000000mm" version="1.1">
<a xlink:href="ph-0x7fa4d3085ca0.svg">
<rect x="1.000000" y="1.000000" width="449.000000" height="223.000000" rx="0" ry="0" style="stroke:none;fill:#cccccc;"/>
<rect x="0.000000" y="0.000000" width="449.000000" height="223.000000" rx="0" ry="0" style="stroke:none;fill:#ffffff;"/>
</a>
<text x="10.000000" y="7.000000" font-family="Arial" font-size="7"></text>
<rect x="155.300000" y="43.000000" width="24.000000" height="24.000000" rx="0" ry="0" style="stroke:none;fill:#cccccc;"/>
<rect x="154.300000" y="42.000000" width="24.000000" height="24.000000" rx="0" ry="0" style="stroke:none;fill:#f44800;"/>
<text x="166.300000" y="56.000000" font-family="Arial" font-size="7" text-anchor="middle" fill="#FFFFFF">0</text>
<circle cx="156.300000" cy="44.000000" r="1"/>
<line x1="145.300000" y1="33.000000" x2="145.300000" y2="75.000000"  style="stroke: black; stroke-linecap:round; stroke-width:0.25; stroke-dasharray:3,3;"/>
<line x1="145.300000" y1="75.000000" x2="187.300000" y2="75.000000"  style="stroke: black; stroke-linecap:round; stroke-width:0.25; stroke-dasharray:3,3;"/>
<line x1="187.300000" y1="75.000000" x2="187.300000" y2="33.000000"  style="stroke: black; stroke-linecap:round; stroke-width:0.25; stroke-dasharray:3,3;"/>
<line x1="145.300000" y1="33.000000" x2="150.300000" y2="33.000000"  style="stroke: black; stroke-linecap:round; stroke-width:0.25; stroke-dasharray:3,3;"/>
<line x1="182.550000" y1="33.000000" x2="187.300000" y2="33.000000"  style="stroke: black; stroke-linecap:round; stroke-width:0.25; stroke-dasharray:3,3;"/>
<text x="150.300000" y="35.000000" font-family="Arial" font-size="7">xVals(0)</text>
<a xlink:href="-0x7fa4d8e90500.svg">
<rect x="33.000000" y="93.000000" width="51.600000" height="24.000000" rx="0" ry="0" style="stroke:none;fill:#cccccc;"/>
<rect x="32.000000" y="92.000000" width="51.600000" height="24.000000" rx="0" ry="0" style="stroke:none;fill:#003366;"/>
</a>
<a xlink:href="-0x7fa4d8e90500.svg">
<text x="57.800000" y="106.000000" font-family="Arial" font-size="7" text-anchor="middle" fill="#FFFFFF">_grainRate</text>
</a>
<circle cx="34.000000" cy="94.000000" r="1"/>
<a xlink:href="sAndH-0x7fa4d3075dd0.svg">
<rect x="92.600000" y="93.000000" width="129.000000" height="24.000000" rx="0" ry="0" style="stroke:none;fill:#cccccc;"/>
<rect x="91.600000" y="92.000000" width="129.000000" height="24.000000" rx="0" ry="0" style="stroke:none;fill:#003366;"/>
</a>
<a xlink:href="sAndH-0x7fa4d3075dd0.svg">
<text x="156.100000" y="106.000000" font-family="Arial" font-size="7" text-anchor="middle" fill="#FFFFFF">sAndH(((x635,...1 : mem) : -)</text>
</a>
<circle cx="93.600000" cy="94.000000" r="1"/>
<line x1="88.600000" y1="103.000000" x2="91.600000" y2="104.000000"  transform="rotate(0.000000,91.600000,104.000000)" style="stroke: black; stroke-width:0.25;"/>
<line x1="88.600000" y1="105.000000" x2="91.600000" y2="104.000000"  transform="rotate(0.000000,91.600000,104.000000)" style="stroke: black; stroke-width:0.25;"/>
<a xlink:href="SR-0x7fa4e8255100.svg">
<rect x="115.300000" y="125.000000" width="24.000000" height="24.000000" rx="0" ry="0" style="stroke:none;fill:#cccccc;"/>
<rect x="114.300000" y="124.000000" width="24.000000" height="24.000000" rx="0" ry="0" style="stroke:none;fill:#003366;"/>
</a>
<a xlink:href="SR-0x7fa4e8255100.svg">
<text x="126.300000" y="138.000000" font-family="Arial" font-size="7" text-anchor="middle" fill="#FFFFFF">SR</text>
</a>
<circle cx="116.300000" cy="126.000000" r="1"/>
<rect x="237.600000" y="109.000000" width="24.000000" height="24.000000" rx="0" ry="0" style="stroke:none;fill:#cccccc;"/>
<rect x="236.600000" y="108.000000" width="24.000000" height="24.000000" rx="0" ry="0" style="stroke:none;fill:#4B71A1;"/>
<text x="248.600000" y="122.000000" font-family="Arial" font-size="7" text-anchor="middle" fill="#FFFFFF">/</text>
<circle cx="238.600000" cy="110.000000" r="1"/>
<line x1="233.600000" y1="115.000000" x2="236.600000" y2="116.000000"  transform="rotate(0.000000,236.600000,116.000000)" style="stroke: black; stroke-width:0.25;"/>
<line x1="233.600000" y1="117.000000" x2="236.600000" y2="116.000000"  transform="rotate(0.000000,236.600000,116.000000)" style="stroke: black; stroke-width:0.25;"/>
<line x1="233.600000" y1="123.000000" x2="236.600000" y2="124.000000"  transform="rotate(0.000000,236.600000,124.000000)" style="stroke: black; stroke-width:0.25;"/>
<line x1="233.600000" y1="125.000000" x2="236.600000" y2="124.000000"  transform="rotate(0.000000,236.600000,124.000000)" style="stroke: black; stroke-width:0.25;"/>
<rect x="277.600000" y="105.000000" width="24.000000" height="24.000000" rx="0" ry="0" style="stroke:none;fill:#cccccc;"/>
<rect x="276.600000" y="104.000000" width="24.000000" height="24.000000" rx="0" ry="0" style="stroke:none;fill:#4B71A1;"/>
<text x="288.600000" y="118.000000" font-family="Arial" font-size="7" text-anchor="middle" fill="#FFFFFF">+</text>
<circle cx="278.600000" cy="106.000000" r="1"/>
<line x1="273.600000" y1="111.000000" x2="276.600000" y2="112.000000"  transform="rotate(0.000000,276.600000,112.000000)" style="stroke: black; stroke-width:0.25;"/>
<line x1="273.600000" y1="113.000000" x2="276.600000" y2="112.000000"  transform="rotate(0.000000,276.600000,112.000000)" style="stroke: black; stroke-width:0.25;"/>
<line x1="273.600000" y1="119.000000" x2="276.600000" y2="120.000000"  transform="rotate(0.000000,276.600000,120.000000)" style="stroke: black; stroke-width:0.25;"/>
<line x1="273.600000" y1="121.000000" x2="276.600000" y2="120.000000"  transform="rotate(0.000000,276.600000,120.000000)" style="stroke: black; stroke-width:0.25;"/>
<rect x="155.300000" y="167.000000" width="24.000000" height="24.000000" rx="0" ry="0" style="stroke:none;fill:#cccccc;"/>
<rect x="154.300000" y="166.000000" width="24.000000" height="24.000000" rx="0" ry="0" style="stroke:none;fill:#f44800;"/>
<text x="166.300000" y="180.000000" font-family="Arial" font-size="7" text-anchor="middle" fill="#FFFFFF">0</text>
<circle cx="156.300000" cy="168.000000" r="1"/>
<line x1="145.300000" y1="157.000000" x2="145.300000" y2="199.000000"  style="stroke: black; stroke-linecap:round; stroke-width:0.25; stroke-dasharray:3,3;"/>
<line x1="145.300000" y1="199.000000" x2="187.300000" y2="199.000000"  style="stroke: black; stroke-linecap:round; stroke-width:0.25; stroke-dasharray:3,3;"/>
<line x1="187.300000" y1="199.000000" x2="187.300000" y2="157.000000"  style="stroke: black; stroke-linecap:round; stroke-width:0.25; stroke-dasharray:3,3;"/>
<line x1="145.300000" y1="157.000000" x2="150.300000" y2="157.000000"  style="stroke: black; stroke-linecap:round; stroke-width:0.25; stroke-dasharray:3,3;"/>
<line x1="182.550000" y1="157.000000" x2="187.300000" y2="157.000000"  style="stroke: black; stroke-linecap:round; stroke-width:0.25; stroke-dasharray:3,3;"/>
<text x="150.300000" y="159.000000" font-family="Arial" font-size="7">xVals(0)</text>
<rect x="317.600000" y="105.000000" width="38.700000" height="24.000000" rx="0" ry="0" style="stroke:none;fill:#cccccc;"/>
<rect x="316.600000" y="104.000000" width="38.700000" height="24.000000" rx="0" ry="0" style="stroke:none;fill:#4B71A1;"/>
<text x="335.950000" y="118.000000" font-family="Arial" font-size="7" text-anchor="middle" fill="#FFFFFF">select2</text>
<circle cx="318.600000" cy="106.000000" r="1"/>
<line x1="313.600000" y1="107.000000" x2="316.600000" y2="108.000000"  transform="rotate(0.000000,316.600000,108.000000)" style="stroke: black; stroke-width:0.25;"/>
<line x1="313.600000" y1="109.000000" x2="316.600000" y2="108.000000"  transform="rotate(0.000000,316.600000,108.000000)" style="stroke: black; stroke-width:0.25;"/>
<line x1="313.600000" y1="115.000000" x2="316.600000" y2="116.000000"  transform="rotate(0.000000,316.600000,116.000000)" style="stroke: black; stroke-width:0.25;"/>
<line x1="313.600000" y1="117.000000" x2="316.600000" y2="116.000000"  transform="rotate(0.000000,316.600000,116.000000)" style="stroke: black; stroke-width:0.25;"/>
<line x1="313.600000" y1="123.000000" x2="316.600000" y2="124.000000"  transform="rotate(0.000000,316.600000,124.000000)" style="stroke: black; stroke-width:0.25;"/>
<line x1="313.600000" y1="125.000000" x2="316.600000" y2="124.000000"  transform="rotate(0.000000,316.600000,124.000000)" style="stroke: black; stroke-width:0.25;"/>
<a xlink:href="decimal-0x7fa4ea00e4b0.svg">
<rect x="364.300000" y="105.000000" width="38.700000" height="24.000000" rx="0" ry="0" style="stroke:none;fill:#cccccc;"/>
<rect x="363.300000" y="104.000000" width="38.700000" height="24.000000" rx="0" ry="0" style="stroke:none;fill:#003366;"/>
</a>
<a xlink:href="decimal-0x7fa4ea00e4b0.svg">
<text x="382.650000" y="118.000000" font-family="Arial" font-size="7" text-anchor="middle" fill="#FFFFFF">decimal</text>
</a>
<circle cx="365.300000" cy="106.000000" r="1"/>
<line x1="360.300000" y1="115.000000" x2="363.300000" y2="116.000000"  transform="rotate(0.000000,363.300000,116.000000)" style="stroke: black; stroke-width:0.25;"/>
<line x1="360.300000" y1="117.000000" x2="363.300000" y2="116.000000"  transform="rotate(0.000000,363.300000,116.000000)" style="stroke: black; stroke-width:0.25;"/>
<line x1="404.000000" y1="116.000000" x2="404.000000" y2="112.000000"  style="stroke:black; stroke-linecap:round; stroke-width:0.25;"/>
<line x1="404.000000" y1="112.000000" x2="408.000000" y2="112.000000"  style="stroke:black; stroke-linecap:round; stroke-width:0.25;"/>
<line x1="408.000000" y1="112.000000" x2="408.000000" y2="116.000000"  style="stroke:black; stroke-linecap:round; stroke-width:0.25;"/>
<line x1="15.000000" y1="15.000000" x2="15.000000" y2="209.000000"  style="stroke: black; stroke-linecap:round; stroke-width:0.25; stroke-dasharray:3,3;"/>
<line x1="15.000000" y1="209.000000" x2="435.000000" y2="209.000000"  style="stroke: black; stroke-linecap:round; stroke-width:0.25; stroke-dasharray:3,3;"/>
<line x1="435.000000" y1="209.000000" x2="435.000000" y2="15.000000"  style="stroke: black; stroke-linecap:round; stroke-width:0.25; stroke-dasharray:3,3;"/>
<line x1="15.000000" y1="15.000000" x2="20.000000" y2="15.000000"  style="stroke: black; stroke-linecap:round; stroke-width:0.25; stroke-dasharray:3,3;"/>
<line x1="139.325000" y1="15.000000" x2="435.000000" y2="15.000000"  style="stroke: black; stroke-linecap:round; stroke-width:0.25; stroke-dasharray:3,3;"/>
<text x="20.000000" y="17.000000" font-family="Arial" font-size="7">phasor_imp((x...: select2)~_)(0)(0)</text>
<line x1="437.000000" y1="111.000000" x2="440.000000" y2="112.000000"  transform="rotate(0.000000,440.000000,112.000000)" style="stroke: black; stroke-width:0.25;"/>
<line x1="437.000000" y1="113.000000" x2="440.000000" y2="112.000000"  transform="rotate(0.000000,440.000000,112.000000)" style="stroke: black; stroke-width:0.25;"/>
<line x1="28.000000" y1="24.000000" x2="28.000000" y2="24.000000"  style="stroke:black; stroke-linecap:round; stroke-width:0.25;"/>
<line x1="28.000000" y1="24.000000" x2="28.000000" y2="84.000000"  style="stroke:black; stroke-linecap:round; stroke-width:0.25;"/>
<line x1="28.000000" y1="84.000000" x2="28.000000" y2="84.000000"  style="stroke:black; stroke-linecap:round; stroke-width:0.25;"/>
<line x1="28.000000" y1="84.000000" x2="146.300000" y2="84.000000"  style="stroke:black; stroke-linecap:round; stroke-width:0.25;"/>
<line x1="83.600000" y1="104.000000" x2="87.600000" y2="104.000000"  style="stroke:black; stroke-linecap:round; stroke-width:0.25;"/>
<line x1="87.600000" y1="104.000000" x2="87.600000" y2="104.000000"  style="stroke:black; stroke-linecap:round; stroke-width:0.25;"/>
<line x1="87.600000" y1="104.000000" x2="91.600000" y2="104.000000"  style="stroke:black; stroke-linecap:round; stroke-width:0.25;"/>
<line x1="138.300000" y1="136.000000" x2="142.300000" y2="136.000000"  style="stroke:black; stroke-linecap:round; stroke-width:0.25;"/>
<line x1="142.300000" y1="136.000000" x2="224.600000" y2="136.000000"  style="stroke:black; stroke-linecap:round; stroke-width:0.25;"/>
<line x1="146.300000" y1="84.000000" x2="264.600000" y2="84.000000"  style="stroke:black; stroke-linecap:round; stroke-width:0.25;"/>
<line x1="178.300000" y1="54.000000" x2="182.300000" y2="54.000000"  style="stroke:black; stroke-linecap:round; stroke-width:0.25;"/>
<line x1="178.300000" y1="178.000000" x2="182.300000" y2="178.000000"  style="stroke:black; stroke-linecap:round; stroke-width:0.25;"/>
<line x1="182.300000" y1="54.000000" x2="192.300000" y2="54.000000"  style="stroke:black; stroke-linecap:round; stroke-width:0.25;"/>
<line x1="182.300000" y1="178.000000" x2="192.300000" y2="178.000000"  style="stroke:black; stroke-linecap:round; stroke-width:0.25;"/>
<line x1="192.300000" y1="54.000000" x2="304.600000" y2="54.000000"  style="stroke:black; stroke-linecap:round; stroke-width:0.25;"/>
<line x1="192.300000" y1="178.000000" x2="304.600000" y2="178.000000"  style="stroke:black; stroke-linecap:round; stroke-width:0.25;"/>
<line x1="217.000000" y1="24.000000" x2="28.000000" y2="24.000000"  style="stroke:black; stroke-linecap:round; stroke-width:0.25;"/>
<line x1="220.600000" y1="104.000000" x2="224.600000" y2="104.000000"  style="stroke:black; stroke-linecap:round; stroke-width:0.25;"/>
<line x1="224.600000" y1="104.000000" x2="232.600000" y2="104.000000"  style="stroke:black; stroke-linecap:round; stroke-width:0.25;"/>
<line x1="224.600000" y1="124.000000" x2="232.600000" y2="124.000000"  style="stroke:black; stroke-linecap:round; stroke-width:0.25;"/>
<line x1="224.600000" y1="136.000000" x2="224.600000" y2="124.000000"  style="stroke:black; stroke-linecap:round; stroke-width:0.25;"/>
<line x1="224.600000" y1="136.000000" x2="224.600000" y2="136.000000"  style="stroke:black; stroke-linecap:round; stroke-width:0.25;"/>
<line x1="232.600000" y1="104.000000" x2="232.600000" y2="116.000000"  style="stroke:black; stroke-linecap:round; stroke-width:0.25;"/>
<line x1="232.600000" y1="116.000000" x2="232.600000" y2="116.000000"  style="stroke:black; stroke-linecap:round; stroke-width:0.25;"/>
<line x1="232.600000" y1="116.000000" x2="236.600000" y2="116.000000"  style="stroke:black; stroke-linecap:round; stroke-width:0.25;"/>
<line x1="232.600000" y1="124.000000" x2="236.600000" y2="124.000000"  style="stroke:black; stroke-linecap:round; stroke-width:0.25;"/>
<line x1="260.600000" y1="120.000000" x2="264.600000" y2="120.000000"  style="stroke:black; stroke-linecap:round; stroke-width:0.25;"/>
<line x1="264.600000" y1="84.000000" x2="272.600000" y2="84.000000"  style="stroke:black; stroke-linecap:round; stroke-width:0.25;"/>
<line x1="264.600000" y1="120.000000" x2="272.600000" y2="120.000000"  style="stroke:black; stroke-linecap:round; stroke-width:0.25;"/>
<line x1="272.600000" y1="84.000000" x2="272.600000" y2="112.000000"  style="stroke:black; stroke-linecap:round; stroke-width:0.25;"/>
<line x1="272.600000" y1="112.000000" x2="272.600000" y2="112.000000"  style="stroke:black; stroke-linecap:round; stroke-width:0.25;"/>
<line x1="272.600000" y1="112.000000" x2="276.600000" y2="112.000000"  style="stroke:black; stroke-linecap:round; stroke-width:0.25;"/>
<line x1="272.600000" y1="120.000000" x2="276.600000" y2="120.000000"  style="stroke:black; stroke-linecap:round; stroke-width:0.25;"/>
<line x1="300.600000" y1="116.000000" x2="304.600000" y2="116.000000"  style="stroke:black; stroke-linecap:round; stroke-width:0.25;"/>
<line x1="304.600000" y1="54.000000" x2="312.600000" y2="54.000000"  style="stroke:black; stroke-linecap:round; stroke-width:0.25;"/>
<line x1="304.600000" y1="116.000000" x2="312.600000" y2="116.000000"  style="stroke:black; stroke-linecap:round; stroke-width:0.25;"/>
<line x1="304.600000" y1="124.000000" x2="312.600000" y2="124.000000"  style="stroke:black; stroke-linecap:round; stroke-width:0.25;"/>
<line x1="304.600000" y1="178.000000" x2="304.600000" y2="124.000000"  style="stroke:black; stroke-linecap:round; stroke-width:0.25;"/>
<line x1="304.600000" y1="178.000000" x2="304.600000" y2="178.000000"  style="stroke:black; stroke-linecap:round; stroke-width:0.25;"/>
<line x1="312.600000" y1="54.000000" x2="312.600000" y2="108.000000"  style="stroke:black; stroke-linecap:round; stroke-width:0.25;"/>
<line x1="312.600000" y1="108.000000" x2="312.600000" y2="108.000000"  style="stroke:black; stroke-linecap:round; stroke-width:0.25;"/>
<line x1="312.600000" y1="108.000000" x2="316.600000" y2="108.000000"  style="stroke:black; stroke-linecap:round; stroke-width:0.25;"/>
<line x1="312.600000" y1="116.000000" x2="316.600000" y2="116.000000"  style="stroke:black; stroke-linecap:round; stroke-width:0.25;"/>
<line x1="312.600000" y1="124.000000" x2="316.600000" y2="124.000000"  style="stroke:black; stroke-linecap:round; stroke-width:0.25;"/>
<line x1="355.300000" y1="116.000000" x2="359.300000" y2="116.000000"  style="stroke:black; stroke-linecap:round; stroke-width:0.25;"/>
<line x1="359.300000" y1="116.000000" x2="359.300000" y2="116.000000"  style="stroke:black; stroke-linecap:round; stroke-width:0.25;"/>
<line x1="359.300000" y1="116.000000" x2="363.300000" y2="116.000000"  style="stroke:black; stroke-linecap:round; stroke-width:0.25;"/>
<line x1="402.000000" y1="116.000000" x2="406.000000" y2="116.000000"  style="stroke:black; stroke-linecap:round; stroke-width:0.25;"/>
<line x1="406.000000" y1="24.000000" x2="217.000000" y2="24.000000"  style="stroke:black; stroke-linecap:round; stroke-width:0.25;"/>
<line x1="406.000000" y1="24.000000" x2="406.000000" y2="24.000000"  style="stroke:black; stroke-linecap:round; stroke-width:0.25;"/>
<line x1="406.000000" y1="112.000000" x2="406.000000" y2="24.000000"  style="stroke:black; stroke-linecap:round; stroke-width:0.25;"/>
<line x1="406.000000" y1="116.000000" x2="408.000000" y2="116.000000"  style="stroke:black; stroke-linecap:round; stroke-width:0.25;"/>
<line x1="408.000000" y1="116.000000" x2="414.000000" y2="116.000000"  style="stroke:black; stroke-linecap:round; stroke-width:0.25;"/>
<line x1="414.000000" y1="112.000000" x2="422.000000" y2="112.000000"  style="stroke:black; stroke-linecap:round; stroke-width:0.25;"/>
<line x1="414.000000" y1="116.000000" x2="414.000000" y2="112.000000"  style="stroke:black; stroke-linecap:round; stroke-width:0.25;"/>
<line x1="414.000000" y1="116.000000" x2="414.000000" y2="116.000000"  style="stroke:black; stroke-linecap:round; stroke-width:0.25;"/>
<line x1="422.000000" y1="112.000000" x2="426.000000" y2="112.000000"  style="stroke:black; stroke-linecap:round; stroke-width:0.25;"/>
<line x1="426.000000" y1="112.000000" x2="430.000000" y2="112.000000"  style="stroke:black; stroke-linecap:round; stroke-width:0.25;"/>
<line x1="430.000000" y1="112.000000" x2="440.000000" y2="112.000000"  style="stroke:black; stroke-linecap:round; stroke-width:0.25;"/>
</svg>
