<?xml version="1.0"?>
<svg xmlns="http://www.w3.org/2000/svg" xmlns:xlink="http://www.w3.org/1999/xlink" viewBox="0 0 233.400000 136.000000" width="116.700000mm" height="68.000000mm" version="1.1">
<a xlink:href="readPtr-0x7f5f2f04e050.svg">
<rect x="1.000000" y="1.000000" width="232.400000" height="135.000000" rx="0" ry="0" style="stroke:none;fill:#cccccc;"/>
<rect x="0.000000" y="0.000000" width="232.400000" height="135.000000" rx="0" ry="0" style="stroke:none;fill:#ffffff;"/>
</a>
<text x="10.000000" y="7.000000" font-family="Arial" font-size="7"></text>
<a xlink:href="maxGrainDuration-0x7f5f2f04cc60.svg">
<rect x="55.000000" y="25.000000" width="77.400000" height="24.000000" rx="0" ry="0" style="stroke:none;fill:#cccccc;"/>
<rect x="54.000000" y="24.000000" width="77.400000" height="24.000000" rx="0" ry="0" style="stroke:none;fill:#003366;"/>
</a>
<a xlink:href="maxGrainDuration-0x7f5f2f04cc60.svg">
<text x="92.700000" y="38.000000" font-family="Arial" font-size="7" text-anchor="middle" fill="#FFFFFF">maxGrainDuration</text>
</a>
<circle cx="56.000000" cy="26.000000" r="1"/>
<a xlink:href="maxGrainDuration-0x7f5f2f04cc60.svg">
<rect x="25.000000" y="57.000000" width="77.400000" height="24.000000" rx="0" ry="0" style="stroke:none;fill:#cccccc;"/>
<rect x="24.000000" y="56.000000" width="77.400000" height="24.000000" rx="0" ry="0" style="stroke:none;fill:#003366;"/>
</a>
<a xlink:href="maxGrainDuration-0x7f5f2f04cc60.svg">
<text x="62.700000" y="70.000000" font-family="Arial" font-size="7" text-anchor="middle" fill="#FFFFFF">maxGrainDuration</text>
</a>
<circle cx="26.000000" cy="58.000000" r="1"/>
<a xlink:href="grainDuration-0x7f5f2f04cdf0.svg">
<rect x="31.450000" y="89.000000" width="64.500000" height="24.000000" rx="0" ry="0" style="stroke:none;fill:#cccccc;"/>
<rect x="30.450000" y="88.000000" width="64.500000" height="24.000000" rx="0" ry="0" style="stroke:none;fill:#003366;"/>
</a>
<a xlink:href="grainDuration-0x7f5f2f04cdf0.svg">
<text x="62.700000" y="102.000000" font-family="Arial" font-size="7" text-anchor="middle" fill="#FFFFFF">grainDuration</text>
</a>
<circle cx="32.450000" cy="90.000000" r="1"/>
<rect x="128.400000" y="73.000000" width="24.000000" height="24.000000" rx="0" ry="0" style="stroke:none;fill:#cccccc;"/>
<rect x="127.400000" y="72.000000" width="24.000000" height="24.000000" rx="0" ry="0" style="stroke:none;fill:#4B71A1;"/>
<text x="139.400000" y="86.000000" font-family="Arial" font-size="7" text-anchor="middle" fill="#FFFFFF">min</text>
<circle cx="129.400000" cy="74.000000" r="1"/>
<line x1="124.400000" y1="79.000000" x2="127.400000" y2="80.000000"  transform="rotate(0.000000,127.400000,80.000000)" style="stroke: black; stroke-width:0.25;"/>
<line x1="124.400000" y1="81.000000" x2="127.400000" y2="80.000000"  transform="rotate(0.000000,127.400000,80.000000)" style="stroke: black; stroke-width:0.25;"/>
<line x1="124.400000" y1="87.000000" x2="127.400000" y2="88.000000"  transform="rotate(0.000000,127.400000,88.000000)" style="stroke: black; stroke-width:0.25;"/>
<line x1="124.400000" y1="89.000000" x2="127.400000" y2="88.000000"  transform="rotate(0.000000,127.400000,88.000000)" style="stroke: black; stroke-width:0.25;"/>
<line x1="118.400000" y1="63.000000" x2="118.400000" y2="105.000000"  style="stroke: black; stroke-linecap:round; stroke-width:0.25; stroke-dasharray:3,3;"/>
<line x1="118.400000" y1="105.000000" x2="160.400000" y2="105.000000"  style="stroke: black; stroke-linecap:round; stroke-width:0.25; stroke-dasharray:3,3;"/>
<line x1="160.400000" y1="105.000000" x2="160.400000" y2="63.000000"  style="stroke: black; stroke-linecap:round; stroke-width:0.25; stroke-dasharray:3,3;"/>
<line x1="118.400000" y1="63.000000" x2="123.400000" y2="63.000000"  style="stroke: black; stroke-linecap:round; stroke-width:0.25; stroke-dasharray:3,3;"/>
<line x1="142.750000" y1="63.000000" x2="160.400000" y2="63.000000"  style="stroke: black; stroke-linecap:round; stroke-width:0.25; stroke-dasharray:3,3;"/>
<text x="123.400000" y="65.000000" font-family="Arial" font-size="7">fmin</text>
<rect x="178.400000" y="57.000000" width="24.000000" height="24.000000" rx="0" ry="0" style="stroke:none;fill:#cccccc;"/>
<rect x="177.400000" y="56.000000" width="24.000000" height="24.000000" rx="0" ry="0" style="stroke:none;fill:#4B71A1;"/>
<text x="189.400000" y="70.000000" font-family="Arial" font-size="7" text-anchor="middle" fill="#FFFFFF">/</text>
<circle cx="179.400000" cy="58.000000" r="1"/>
<line x1="174.400000" y1="63.000000" x2="177.400000" y2="64.000000"  transform="rotate(0.000000,177.400000,64.000000)" style="stroke: black; stroke-width:0.25;"/>
<line x1="174.400000" y1="65.000000" x2="177.400000" y2="64.000000"  transform="rotate(0.000000,177.400000,64.000000)" style="stroke: black; stroke-width:0.25;"/>
<line x1="174.400000" y1="71.000000" x2="177.400000" y2="72.000000"  transform="rotate(0.000000,177.400000,72.000000)" style="stroke: black; stroke-width:0.25;"/>
<line x1="174.400000" y1="73.000000" x2="177.400000" y2="72.000000"  transform="rotate(0.000000,177.400000,72.000000)" style="stroke: black; stroke-width:0.25;"/>
<line x1="15.000000" y1="15.000000" x2="15.000000" y2="121.000000"  style="stroke: black; stroke-linecap:round; stroke-width:0.25; stroke-dasharray:3,3;"/>
<line x1="15.000000" y1="121.000000" x2="218.400000" y2="121.000000"  style="stroke: black; stroke-linecap:round; stroke-width:0.25; stroke-dasharray:3,3;"/>
<line x1="218.400000" y1="121.000000" x2="218.400000" y2="15.000000"  style="stroke: black; stroke-linecap:round; stroke-width:0.25; stroke-dasharray:3,3;"/>
<line x1="15.000000" y1="15.000000" x2="20.000000" y2="15.000000"  style="stroke: black; stroke-linecap:round; stroke-width:0.25; stroke-dasharray:3,3;"/>
<line x1="81.275000" y1="15.000000" x2="218.400000" y2="15.000000"  style="stroke: black; stroke-linecap:round; stroke-width:0.25; stroke-dasharray:3,3;"/>
<text x="20.000000" y="17.000000" font-family="Arial" font-size="7">phasorSlopeFactor</text>
<line x1="220.400000" y1="67.000000" x2="223.400000" y2="68.000000"  transform="rotate(0.000000,223.400000,68.000000)" style="stroke: black; stroke-width:0.25;"/>
<line x1="220.400000" y1="69.000000" x2="223.400000" y2="68.000000"  transform="rotate(0.000000,223.400000,68.000000)" style="stroke: black; stroke-width:0.25;"/>
<line x1="94.950000" y1="100.000000" x2="98.950000" y2="100.000000"  style="stroke:black; stroke-linecap:round; stroke-width:0.25;"/>
<line x1="98.950000" y1="100.000000" x2="105.400000" y2="100.000000"  style="stroke:black; stroke-linecap:round; stroke-width:0.25;"/>
<line x1="101.400000" y1="68.000000" x2="105.400000" y2="68.000000"  style="stroke:black; stroke-linecap:round; stroke-width:0.25;"/>
<line x1="105.400000" y1="88.000000" x2="113.400000" y2="88.000000"  style="stroke:black; stroke-linecap:round; stroke-width:0.25;"/>
<line x1="105.400000" y1="100.000000" x2="105.400000" y2="88.000000"  style="stroke:black; stroke-linecap:round; stroke-width:0.25;"/>
<line x1="105.400000" y1="100.000000" x2="105.400000" y2="100.000000"  style="stroke:black; stroke-linecap:round; stroke-width:0.25;"/>
<line x1="105.400000" y1="68.000000" x2="113.400000" y2="68.000000"  style="stroke:black; stroke-linecap:round; stroke-width:0.25;"/>
<line x1="113.400000" y1="68.000000" x2="113.400000" y2="80.000000"  style="stroke:black; stroke-linecap:round; stroke-width:0.25;"/>
<line x1="113.400000" y1="80.000000" x2="113.400000" y2="80.000000"  style="stroke:black; stroke-linecap:round; stroke-width:0.25;"/>
<line x1="113.400000" y1="80.000000" x2="123.400000" y2="80.000000"  style="stroke:black; stroke-linecap:round; stroke-width:0.25;"/>
<line x1="113.400000" y1="88.000000" x2="123.400000" y2="88.000000"  style="stroke:black; stroke-linecap:round; stroke-width:0.25;"/>
<line x1="123.400000" y1="80.000000" x2="127.400000" y2="80.000000"  style="stroke:black; stroke-linecap:round; stroke-width:0.25;"/>
<line x1="123.400000" y1="88.000000" x2="127.400000" y2="88.000000"  style="stroke:black; stroke-linecap:round; stroke-width:0.25;"/>
<line x1="131.400000" y1="36.000000" x2="135.400000" y2="36.000000"  style="stroke:black; stroke-linecap:round; stroke-width:0.25;"/>
<line x1="135.400000" y1="36.000000" x2="165.400000" y2="36.000000"  style="stroke:black; stroke-linecap:round; stroke-width:0.25;"/>
<line x1="151.400000" y1="84.000000" x2="155.400000" y2="84.000000"  style="stroke:black; stroke-linecap:round; stroke-width:0.25;"/>
<line x1="155.400000" y1="84.000000" x2="165.400000" y2="84.000000"  style="stroke:black; stroke-linecap:round; stroke-width:0.25;"/>
<line x1="165.400000" y1="36.000000" x2="173.400000" y2="36.000000"  style="stroke:black; stroke-linecap:round; stroke-width:0.25;"/>
<line x1="165.400000" y1="72.000000" x2="173.400000" y2="72.000000"  style="stroke:black; stroke-linecap:round; stroke-width:0.25;"/>
<line x1="165.400000" y1="84.000000" x2="165.400000" y2="72.000000"  style="stroke:black; stroke-linecap:round; stroke-width:0.25;"/>
<line x1="165.400000" y1="84.000000" x2="165.400000" y2="84.000000"  style="stroke:black; stroke-linecap:round; stroke-width:0.25;"/>
<line x1="173.400000" y1="36.000000" x2="173.400000" y2="64.000000"  style="stroke:black; stroke-linecap:round; stroke-width:0.25;"/>
<line x1="173.400000" y1="64.000000" x2="173.400000" y2="64.000000"  style="stroke:black; stroke-linecap:round; stroke-width:0.25;"/>
<line x1="173.400000" y1="64.000000" x2="177.400000" y2="64.000000"  style="stroke:black; stroke-linecap:round; stroke-width:0.25;"/>
<line x1="173.400000" y1="72.000000" x2="177.400000" y2="72.000000"  style="stroke:black; stroke-linecap:round; stroke-width:0.25;"/>
<line x1="201.400000" y1="68.000000" x2="205.400000" y2="68.000000"  style="stroke:black; stroke-linecap:round; stroke-width:0.25;"/>
<line x1="205.400000" y1="68.000000" x2="205.400000" y2="68.000000"  style="stroke:black; stroke-linecap:round; stroke-width:0.25;"/>
<line x1="205.400000" y1="68.000000" x2="209.400000" y2="68.000000"  style="stroke:black; stroke-linecap:round; stroke-width:0.25;"/>
<line x1="209.400000" y1="68.000000" x2="213.400000" y2="68.000000"  style="stroke:black; stroke-linecap:round; stroke-width:0.25;"/>
<line x1="213.400000" y1="68.000000" x2="223.400000" y2="68.000000"  style="stroke:black; stroke-linecap:round; stroke-width:0.25;"/>
</svg>
