<?xml version="1.0"?>
<svg xmlns="http://www.w3.org/2000/svg" xmlns:xlink="http://www.w3.org/1999/xlink" viewBox="0 0 285.400000 224.000000" width="142.700000mm" height="112.000000mm" version="1.1">
<a xlink:href="phasor-0x7fb0140fa2d0.svg">
<rect x="1.000000" y="1.000000" width="284.400000" height="223.000000" rx="0" ry="0" style="stroke:none;fill:#cccccc;"/>
<rect x="0.000000" y="0.000000" width="284.400000" height="223.000000" rx="0" ry="0" style="stroke:none;fill:#ffffff;"/>
</a>
<text x="10.000000" y="7.000000" font-family="Arial" font-size="7"></text>
<rect x="73.000000" y="43.000000" width="24.000000" height="24.000000" rx="0" ry="0" style="stroke:none;fill:#cccccc;"/>
<rect x="72.000000" y="42.000000" width="24.000000" height="24.000000" rx="0" ry="0" style="stroke:none;fill:#f44800;"/>
<text x="84.000000" y="56.000000" font-family="Arial" font-size="7" text-anchor="middle" fill="#FFFFFF">0</text>
<circle cx="74.000000" cy="44.000000" r="1"/>
<line x1="63.000000" y1="33.000000" x2="63.000000" y2="75.000000"  style="stroke: black; stroke-linecap:round; stroke-width:0.25; stroke-dasharray:3,3;"/>
<line x1="63.000000" y1="75.000000" x2="105.000000" y2="75.000000"  style="stroke: black; stroke-linecap:round; stroke-width:0.25; stroke-dasharray:3,3;"/>
<line x1="105.000000" y1="75.000000" x2="105.000000" y2="33.000000"  style="stroke: black; stroke-linecap:round; stroke-width:0.25; stroke-dasharray:3,3;"/>
<line x1="63.000000" y1="33.000000" x2="68.000000" y2="33.000000"  style="stroke: black; stroke-linecap:round; stroke-width:0.25; stroke-dasharray:3,3;"/>
<line x1="100.250000" y1="33.000000" x2="105.000000" y2="33.000000"  style="stroke: black; stroke-linecap:round; stroke-width:0.25; stroke-dasharray:3,3;"/>
<text x="68.000000" y="35.000000" font-family="Arial" font-size="7">xVals(0)</text>
<rect x="33.000000" y="93.000000" width="24.000000" height="24.000000" rx="0" ry="0" style="stroke:none;fill:#cccccc;"/>
<rect x="32.000000" y="92.000000" width="24.000000" height="24.000000" rx="0" ry="0" style="stroke:none;fill:#f44800;"/>
<text x="44.000000" y="106.000000" font-family="Arial" font-size="7" text-anchor="middle" fill="#FFFFFF">600</text>
<circle cx="34.000000" cy="94.000000" r="1"/>
<a xlink:href="SR-0x7fb01c20d350.svg">
<rect x="33.000000" y="125.000000" width="24.000000" height="24.000000" rx="0" ry="0" style="stroke:none;fill:#cccccc;"/>
<rect x="32.000000" y="124.000000" width="24.000000" height="24.000000" rx="0" ry="0" style="stroke:none;fill:#003366;"/>
</a>
<a xlink:href="SR-0x7fb01c20d350.svg">
<text x="44.000000" y="138.000000" font-family="Arial" font-size="7" text-anchor="middle" fill="#FFFFFF">SR</text>
</a>
<circle cx="34.000000" cy="126.000000" r="1"/>
<rect x="73.000000" y="109.000000" width="24.000000" height="24.000000" rx="0" ry="0" style="stroke:none;fill:#cccccc;"/>
<rect x="72.000000" y="108.000000" width="24.000000" height="24.000000" rx="0" ry="0" style="stroke:none;fill:#4B71A1;"/>
<text x="84.000000" y="122.000000" font-family="Arial" font-size="7" text-anchor="middle" fill="#FFFFFF">/</text>
<circle cx="74.000000" cy="110.000000" r="1"/>
<line x1="69.000000" y1="115.000000" x2="72.000000" y2="116.000000"  transform="rotate(0.000000,72.000000,116.000000)" style="stroke: black; stroke-width:0.25;"/>
<line x1="69.000000" y1="117.000000" x2="72.000000" y2="116.000000"  transform="rotate(0.000000,72.000000,116.000000)" style="stroke: black; stroke-width:0.25;"/>
<line x1="69.000000" y1="123.000000" x2="72.000000" y2="124.000000"  transform="rotate(0.000000,72.000000,124.000000)" style="stroke: black; stroke-width:0.25;"/>
<line x1="69.000000" y1="125.000000" x2="72.000000" y2="124.000000"  transform="rotate(0.000000,72.000000,124.000000)" style="stroke: black; stroke-width:0.25;"/>
<rect x="113.000000" y="105.000000" width="24.000000" height="24.000000" rx="0" ry="0" style="stroke:none;fill:#cccccc;"/>
<rect x="112.000000" y="104.000000" width="24.000000" height="24.000000" rx="0" ry="0" style="stroke:none;fill:#4B71A1;"/>
<text x="124.000000" y="118.000000" font-family="Arial" font-size="7" text-anchor="middle" fill="#FFFFFF">+</text>
<circle cx="114.000000" cy="106.000000" r="1"/>
<line x1="109.000000" y1="111.000000" x2="112.000000" y2="112.000000"  transform="rotate(0.000000,112.000000,112.000000)" style="stroke: black; stroke-width:0.25;"/>
<line x1="109.000000" y1="113.000000" x2="112.000000" y2="112.000000"  transform="rotate(0.000000,112.000000,112.000000)" style="stroke: black; stroke-width:0.25;"/>
<line x1="109.000000" y1="119.000000" x2="112.000000" y2="120.000000"  transform="rotate(0.000000,112.000000,120.000000)" style="stroke: black; stroke-width:0.25;"/>
<line x1="109.000000" y1="121.000000" x2="112.000000" y2="120.000000"  transform="rotate(0.000000,112.000000,120.000000)" style="stroke: black; stroke-width:0.25;"/>
<rect x="73.000000" y="167.000000" width="24.000000" height="24.000000" rx="0" ry="0" style="stroke:none;fill:#cccccc;"/>
<rect x="72.000000" y="166.000000" width="24.000000" height="24.000000" rx="0" ry="0" style="stroke:none;fill:#f44800;"/>
<text x="84.000000" y="180.000000" font-family="Arial" font-size="7" text-anchor="middle" fill="#FFFFFF">0</text>
<circle cx="74.000000" cy="168.000000" r="1"/>
<line x1="63.000000" y1="157.000000" x2="63.000000" y2="199.000000"  style="stroke: black; stroke-linecap:round; stroke-width:0.25; stroke-dasharray:3,3;"/>
<line x1="63.000000" y1="199.000000" x2="105.000000" y2="199.000000"  style="stroke: black; stroke-linecap:round; stroke-width:0.25; stroke-dasharray:3,3;"/>
<line x1="105.000000" y1="199.000000" x2="105.000000" y2="157.000000"  style="stroke: black; stroke-linecap:round; stroke-width:0.25; stroke-dasharray:3,3;"/>
<line x1="63.000000" y1="157.000000" x2="68.000000" y2="157.000000"  style="stroke: black; stroke-linecap:round; stroke-width:0.25; stroke-dasharray:3,3;"/>
<line x1="100.250000" y1="157.000000" x2="105.000000" y2="157.000000"  style="stroke: black; stroke-linecap:round; stroke-width:0.25; stroke-dasharray:3,3;"/>
<text x="68.000000" y="159.000000" font-family="Arial" font-size="7">xVals(0)</text>
<rect x="153.000000" y="105.000000" width="38.700000" height="24.000000" rx="0" ry="0" style="stroke:none;fill:#cccccc;"/>
<rect x="152.000000" y="104.000000" width="38.700000" height="24.000000" rx="0" ry="0" style="stroke:none;fill:#4B71A1;"/>
<text x="171.350000" y="118.000000" font-family="Arial" font-size="7" text-anchor="middle" fill="#FFFFFF">select2</text>
<circle cx="154.000000" cy="106.000000" r="1"/>
<line x1="149.000000" y1="107.000000" x2="152.000000" y2="108.000000"  transform="rotate(0.000000,152.000000,108.000000)" style="stroke: black; stroke-width:0.25;"/>
<line x1="149.000000" y1="109.000000" x2="152.000000" y2="108.000000"  transform="rotate(0.000000,152.000000,108.000000)" style="stroke: black; stroke-width:0.25;"/>
<line x1="149.000000" y1="115.000000" x2="152.000000" y2="116.000000"  transform="rotate(0.000000,152.000000,116.000000)" style="stroke: black; stroke-width:0.25;"/>
<line x1="149.000000" y1="117.000000" x2="152.000000" y2="116.000000"  transform="rotate(0.000000,152.000000,116.000000)" style="stroke: black; stroke-width:0.25;"/>
<line x1="149.000000" y1="123.000000" x2="152.000000" y2="124.000000"  transform="rotate(0.000000,152.000000,124.000000)" style="stroke: black; stroke-width:0.25;"/>
<line x1="149.000000" y1="125.000000" x2="152.000000" y2="124.000000"  transform="rotate(0.000000,152.000000,124.000000)" style="stroke: black; stroke-width:0.25;"/>
<a xlink:href="decimal-0x7fb0140f9f40.svg">
<rect x="199.700000" y="105.000000" width="38.700000" height="24.000000" rx="0" ry="0" style="stroke:none;fill:#cccccc;"/>
<rect x="198.700000" y="104.000000" width="38.700000" height="24.000000" rx="0" ry="0" style="stroke:none;fill:#003366;"/>
</a>
<a xlink:href="decimal-0x7fb0140f9f40.svg">
<text x="218.050000" y="118.000000" font-family="Arial" font-size="7" text-anchor="middle" fill="#FFFFFF">decimal</text>
</a>
<circle cx="200.700000" cy="106.000000" r="1"/>
<line x1="195.700000" y1="115.000000" x2="198.700000" y2="116.000000"  transform="rotate(0.000000,198.700000,116.000000)" style="stroke: black; stroke-width:0.25;"/>
<line x1="195.700000" y1="117.000000" x2="198.700000" y2="116.000000"  transform="rotate(0.000000,198.700000,116.000000)" style="stroke: black; stroke-width:0.25;"/>
<line x1="239.400000" y1="116.000000" x2="239.400000" y2="112.000000"  style="stroke:black; stroke-linecap:round; stroke-width:0.25;"/>
<line x1="239.400000" y1="112.000000" x2="243.400000" y2="112.000000"  style="stroke:black; stroke-linecap:round; stroke-width:0.25;"/>
<line x1="243.400000" y1="112.000000" x2="243.400000" y2="116.000000"  style="stroke:black; stroke-linecap:round; stroke-width:0.25;"/>
<line x1="15.000000" y1="15.000000" x2="15.000000" y2="209.000000"  style="stroke: black; stroke-linecap:round; stroke-width:0.25; stroke-dasharray:3,3;"/>
<line x1="15.000000" y1="209.000000" x2="270.400000" y2="209.000000"  style="stroke: black; stroke-linecap:round; stroke-width:0.25; stroke-dasharray:3,3;"/>
<line x1="270.400000" y1="209.000000" x2="270.400000" y2="15.000000"  style="stroke: black; stroke-linecap:round; stroke-width:0.25; stroke-dasharray:3,3;"/>
<line x1="15.000000" y1="15.000000" x2="20.000000" y2="15.000000"  style="stroke: black; stroke-linecap:round; stroke-width:0.25; stroke-dasharray:3,3;"/>
<line x1="94.175000" y1="15.000000" x2="270.400000" y2="15.000000"  style="stroke: black; stroke-linecap:round; stroke-width:0.25; stroke-dasharray:3,3;"/>
<text x="20.000000" y="17.000000" font-family="Arial" font-size="7">phasor_imp(600)(0)(0)</text>
<line x1="272.400000" y1="111.000000" x2="275.400000" y2="112.000000"  transform="rotate(0.000000,275.400000,112.000000)" style="stroke: black; stroke-width:0.25;"/>
<line x1="272.400000" y1="113.000000" x2="275.400000" y2="112.000000"  transform="rotate(0.000000,275.400000,112.000000)" style="stroke: black; stroke-width:0.25;"/>
<line x1="28.000000" y1="24.000000" x2="28.000000" y2="24.000000"  style="stroke:black; stroke-linecap:round; stroke-width:0.25;"/>
<line x1="28.000000" y1="24.000000" x2="28.000000" y2="84.000000"  style="stroke:black; stroke-linecap:round; stroke-width:0.25;"/>
<line x1="28.000000" y1="84.000000" x2="28.000000" y2="84.000000"  style="stroke:black; stroke-linecap:round; stroke-width:0.25;"/>
<line x1="28.000000" y1="84.000000" x2="64.000000" y2="84.000000"  style="stroke:black; stroke-linecap:round; stroke-width:0.25;"/>
<line x1="56.000000" y1="104.000000" x2="60.000000" y2="104.000000"  style="stroke:black; stroke-linecap:round; stroke-width:0.25;"/>
<line x1="56.000000" y1="136.000000" x2="60.000000" y2="136.000000"  style="stroke:black; stroke-linecap:round; stroke-width:0.25;"/>
<line x1="60.000000" y1="104.000000" x2="68.000000" y2="104.000000"  style="stroke:black; stroke-linecap:round; stroke-width:0.25;"/>
<line x1="60.000000" y1="124.000000" x2="68.000000" y2="124.000000"  style="stroke:black; stroke-linecap:round; stroke-width:0.25;"/>
<line x1="60.000000" y1="136.000000" x2="60.000000" y2="124.000000"  style="stroke:black; stroke-linecap:round; stroke-width:0.25;"/>
<line x1="60.000000" y1="136.000000" x2="60.000000" y2="136.000000"  style="stroke:black; stroke-linecap:round; stroke-width:0.25;"/>
<line x1="64.000000" y1="84.000000" x2="100.000000" y2="84.000000"  style="stroke:black; stroke-linecap:round; stroke-width:0.25;"/>
<line x1="68.000000" y1="104.000000" x2="68.000000" y2="116.000000"  style="stroke:black; stroke-linecap:round; stroke-width:0.25;"/>
<line x1="68.000000" y1="116.000000" x2="68.000000" y2="116.000000"  style="stroke:black; stroke-linecap:round; stroke-width:0.25;"/>
<line x1="68.000000" y1="116.000000" x2="72.000000" y2="116.000000"  style="stroke:black; stroke-linecap:round; stroke-width:0.25;"/>
<line x1="68.000000" y1="124.000000" x2="72.000000" y2="124.000000"  style="stroke:black; stroke-linecap:round; stroke-width:0.25;"/>
<line x1="96.000000" y1="54.000000" x2="100.000000" y2="54.000000"  style="stroke:black; stroke-linecap:round; stroke-width:0.25;"/>
<line x1="96.000000" y1="120.000000" x2="100.000000" y2="120.000000"  style="stroke:black; stroke-linecap:round; stroke-width:0.25;"/>
<line x1="96.000000" y1="178.000000" x2="100.000000" y2="178.000000"  style="stroke:black; stroke-linecap:round; stroke-width:0.25;"/>
<line x1="100.000000" y1="54.000000" x2="110.000000" y2="54.000000"  style="stroke:black; stroke-linecap:round; stroke-width:0.25;"/>
<line x1="100.000000" y1="84.000000" x2="108.000000" y2="84.000000"  style="stroke:black; stroke-linecap:round; stroke-width:0.25;"/>
<line x1="100.000000" y1="120.000000" x2="108.000000" y2="120.000000"  style="stroke:black; stroke-linecap:round; stroke-width:0.25;"/>
<line x1="100.000000" y1="178.000000" x2="110.000000" y2="178.000000"  style="stroke:black; stroke-linecap:round; stroke-width:0.25;"/>
<line x1="108.000000" y1="84.000000" x2="108.000000" y2="112.000000"  style="stroke:black; stroke-linecap:round; stroke-width:0.25;"/>
<line x1="108.000000" y1="112.000000" x2="108.000000" y2="112.000000"  style="stroke:black; stroke-linecap:round; stroke-width:0.25;"/>
<line x1="108.000000" y1="112.000000" x2="112.000000" y2="112.000000"  style="stroke:black; stroke-linecap:round; stroke-width:0.25;"/>
<line x1="108.000000" y1="120.000000" x2="112.000000" y2="120.000000"  style="stroke:black; stroke-linecap:round; stroke-width:0.25;"/>
<line x1="110.000000" y1="54.000000" x2="140.000000" y2="54.000000"  style="stroke:black; stroke-linecap:round; stroke-width:0.25;"/>
<line x1="110.000000" y1="178.000000" x2="140.000000" y2="178.000000"  style="stroke:black; stroke-linecap:round; stroke-width:0.25;"/>
<line x1="134.700000" y1="24.000000" x2="28.000000" y2="24.000000"  style="stroke:black; stroke-linecap:round; stroke-width:0.25;"/>
<line x1="136.000000" y1="116.000000" x2="140.000000" y2="116.000000"  style="stroke:black; stroke-linecap:round; stroke-width:0.25;"/>
<line x1="140.000000" y1="54.000000" x2="148.000000" y2="54.000000"  style="stroke:black; stroke-linecap:round; stroke-width:0.25;"/>
<line x1="140.000000" y1="116.000000" x2="148.000000" y2="116.000000"  style="stroke:black; stroke-linecap:round; stroke-width:0.25;"/>
<line x1="140.000000" y1="124.000000" x2="148.000000" y2="124.000000"  style="stroke:black; stroke-linecap:round; stroke-width:0.25;"/>
<line x1="140.000000" y1="178.000000" x2="140.000000" y2="124.000000"  style="stroke:black; stroke-linecap:round; stroke-width:0.25;"/>
<line x1="140.000000" y1="178.000000" x2="140.000000" y2="178.000000"  style="stroke:black; stroke-linecap:round; stroke-width:0.25;"/>
<line x1="148.000000" y1="54.000000" x2="148.000000" y2="108.000000"  style="stroke:black; stroke-linecap:round; stroke-width:0.25;"/>
<line x1="148.000000" y1="108.000000" x2="148.000000" y2="108.000000"  style="stroke:black; stroke-linecap:round; stroke-width:0.25;"/>
<line x1="148.000000" y1="108.000000" x2="152.000000" y2="108.000000"  style="stroke:black; stroke-linecap:round; stroke-width:0.25;"/>
<line x1="148.000000" y1="116.000000" x2="152.000000" y2="116.000000"  style="stroke:black; stroke-linecap:round; stroke-width:0.25;"/>
<line x1="148.000000" y1="124.000000" x2="152.000000" y2="124.000000"  style="stroke:black; stroke-linecap:round; stroke-width:0.25;"/>
<line x1="190.700000" y1="116.000000" x2="194.700000" y2="116.000000"  style="stroke:black; stroke-linecap:round; stroke-width:0.25;"/>
<line x1="194.700000" y1="116.000000" x2="194.700000" y2="116.000000"  style="stroke:black; stroke-linecap:round; stroke-width:0.25;"/>
<line x1="194.700000" y1="116.000000" x2="198.700000" y2="116.000000"  style="stroke:black; stroke-linecap:round; stroke-width:0.25;"/>
<line x1="237.400000" y1="116.000000" x2="241.400000" y2="116.000000"  style="stroke:black; stroke-linecap:round; stroke-width:0.25;"/>
<line x1="241.400000" y1="24.000000" x2="134.700000" y2="24.000000"  style="stroke:black; stroke-linecap:round; stroke-width:0.25;"/>
<line x1="241.400000" y1="24.000000" x2="241.400000" y2="24.000000"  style="stroke:black; stroke-linecap:round; stroke-width:0.25;"/>
<line x1="241.400000" y1="112.000000" x2="241.400000" y2="24.000000"  style="stroke:black; stroke-linecap:round; stroke-width:0.25;"/>
<line x1="241.400000" y1="116.000000" x2="243.400000" y2="116.000000"  style="stroke:black; stroke-linecap:round; stroke-width:0.25;"/>
<line x1="243.400000" y1="116.000000" x2="249.400000" y2="116.000000"  style="stroke:black; stroke-linecap:round; stroke-width:0.25;"/>
<line x1="249.400000" y1="112.000000" x2="257.400000" y2="112.000000"  style="stroke:black; stroke-linecap:round; stroke-width:0.25;"/>
<line x1="249.400000" y1="116.000000" x2="249.400000" y2="112.000000"  style="stroke:black; stroke-linecap:round; stroke-width:0.25;"/>
<line x1="249.400000" y1="116.000000" x2="249.400000" y2="116.000000"  style="stroke:black; stroke-linecap:round; stroke-width:0.25;"/>
<line x1="257.400000" y1="112.000000" x2="261.400000" y2="112.000000"  style="stroke:black; stroke-linecap:round; stroke-width:0.25;"/>
<line x1="261.400000" y1="112.000000" x2="265.400000" y2="112.000000"  style="stroke:black; stroke-linecap:round; stroke-width:0.25;"/>
<line x1="265.400000" y1="112.000000" x2="275.400000" y2="112.000000"  style="stroke:black; stroke-linecap:round; stroke-width:0.25;"/>
</svg>
