<?xml version="1.0"?>
<svg xmlns="http://www.w3.org/2000/svg" xmlns:xlink="http://www.w3.org/1999/xlink" viewBox="0 0 211.600000 172.000000" width="105.800000mm" height="86.000000mm" version="1.1">
<a xlink:href="positionJitter-0x7ff55d45e870.svg">
<rect x="1.000000" y="1.000000" width="210.600000" height="171.000000" rx="0" ry="0" style="stroke:none;fill:#cccccc;"/>
<rect x="0.000000" y="0.000000" width="210.600000" height="171.000000" rx="0" ry="0" style="stroke:none;fill:#ffffff;"/>
</a>
<text x="10.000000" y="7.000000" font-family="Arial" font-size="7"></text>
<rect x="45.900000" y="83.000000" width="25.800000" height="24.000000" rx="0" ry="0" style="stroke:none;fill:#cccccc;"/>
<rect x="44.900000" y="82.000000" width="25.800000" height="24.000000" rx="0" ry="0" style="stroke:none;fill:#f44800;"/>
<text x="57.800000" y="96.000000" font-family="Arial" font-size="7" text-anchor="middle" fill="#FFFFFF">8011</text>
<circle cx="46.900000" cy="84.000000" r="1"/>
<line x1="35.900000" y1="73.000000" x2="35.900000" y2="115.000000"  style="stroke: black; stroke-linecap:round; stroke-width:0.25; stroke-dasharray:3,3;"/>
<line x1="35.900000" y1="115.000000" x2="79.700000" y2="115.000000"  style="stroke: black; stroke-linecap:round; stroke-width:0.25; stroke-dasharray:3,3;"/>
<line x1="79.700000" y1="115.000000" x2="79.700000" y2="73.000000"  style="stroke: black; stroke-linecap:round; stroke-width:0.25; stroke-dasharray:3,3;"/>
<line x1="35.900000" y1="73.000000" x2="40.900000" y2="73.000000"  style="stroke: black; stroke-linecap:round; stroke-width:0.25; stroke-dasharray:3,3;"/>
<line x1="79.700000" y1="73.000000" x2="79.700000" y2="73.000000"  style="stroke: black; stroke-linecap:round; stroke-width:0.25; stroke-dasharray:3,3;"/>
<text x="40.900000" y="75.000000" font-family="Arial" font-size="7">primesnumbers(1009)</text>
<rect x="97.700000" y="79.000000" width="24.000000" height="24.000000" rx="0" ry="0" style="stroke:none;fill:#cccccc;"/>
<rect x="96.700000" y="78.000000" width="24.000000" height="24.000000" rx="0" ry="0" style="stroke:none;fill:#4B71A1;"/>
<text x="108.700000" y="92.000000" font-family="Arial" font-size="7" text-anchor="middle" fill="#FFFFFF">+</text>
<circle cx="98.700000" cy="80.000000" r="1"/>
<line x1="93.700000" y1="85.000000" x2="96.700000" y2="86.000000"  transform="rotate(0.000000,96.700000,86.000000)" style="stroke: black; stroke-width:0.25;"/>
<line x1="93.700000" y1="87.000000" x2="96.700000" y2="86.000000"  transform="rotate(0.000000,96.700000,86.000000)" style="stroke: black; stroke-width:0.25;"/>
<line x1="93.700000" y1="93.000000" x2="96.700000" y2="94.000000"  transform="rotate(0.000000,96.700000,94.000000)" style="stroke: black; stroke-width:0.25;"/>
<line x1="93.700000" y1="95.000000" x2="96.700000" y2="94.000000"  transform="rotate(0.000000,96.700000,94.000000)" style="stroke: black; stroke-width:0.25;"/>
<rect x="73.000000" y="25.000000" width="51.600000" height="24.000000" rx="0" ry="0" style="stroke:none;fill:#cccccc;"/>
<rect x="72.000000" y="24.000000" width="51.600000" height="24.000000" rx="0" ry="0" style="stroke:none;fill:#f44800;"/>
<text x="97.800000" y="38.000000" font-family="Arial" font-size="7" text-anchor="middle" fill="#FFFFFF">1103515245</text>
<circle cx="121.600000" cy="46.000000" r="1"/>
<rect x="33.000000" y="29.000000" width="24.000000" height="24.000000" rx="0" ry="0" style="stroke:none;fill:#cccccc;"/>
<rect x="32.000000" y="28.000000" width="24.000000" height="24.000000" rx="0" ry="0" style="stroke:none;fill:#4B71A1;"/>
<text x="44.000000" y="42.000000" font-family="Arial" font-size="7" text-anchor="middle" fill="#FFFFFF">*</text>
<circle cx="54.000000" cy="50.000000" r="1"/>
<line x1="59.000000" y1="43.000000" x2="56.000000" y2="44.000000"  transform="rotate(0.000000,56.000000,44.000000)" style="stroke: black; stroke-width:0.25;"/>
<line x1="59.000000" y1="45.000000" x2="56.000000" y2="44.000000"  transform="rotate(0.000000,56.000000,44.000000)" style="stroke: black; stroke-width:0.25;"/>
<line x1="59.000000" y1="35.000000" x2="56.000000" y2="36.000000"  transform="rotate(0.000000,56.000000,36.000000)" style="stroke: black; stroke-width:0.25;"/>
<line x1="59.000000" y1="37.000000" x2="56.000000" y2="36.000000"  transform="rotate(0.000000,56.000000,36.000000)" style="stroke: black; stroke-width:0.25;"/>
<line x1="125.600000" y1="90.000000" x2="125.600000" y2="86.000000"  style="stroke:black; stroke-linecap:round; stroke-width:0.25;"/>
<line x1="125.600000" y1="86.000000" x2="129.600000" y2="86.000000"  style="stroke:black; stroke-linecap:round; stroke-width:0.25;"/>
<line x1="129.600000" y1="86.000000" x2="129.600000" y2="90.000000"  style="stroke:black; stroke-linecap:round; stroke-width:0.25;"/>
<rect x="53.000000" y="125.000000" width="51.600000" height="24.000000" rx="0" ry="0" style="stroke:none;fill:#cccccc;"/>
<rect x="52.000000" y="124.000000" width="51.600000" height="24.000000" rx="0" ry="0" style="stroke:none;fill:#f44800;"/>
<text x="77.800000" y="138.000000" font-family="Arial" font-size="7" text-anchor="middle" fill="#FFFFFF">2.14748e+09</text>
<circle cx="54.000000" cy="126.000000" r="1"/>
<rect x="156.600000" y="75.000000" width="24.000000" height="24.000000" rx="0" ry="0" style="stroke:none;fill:#cccccc;"/>
<rect x="155.600000" y="74.000000" width="24.000000" height="24.000000" rx="0" ry="0" style="stroke:none;fill:#4B71A1;"/>
<text x="167.600000" y="88.000000" font-family="Arial" font-size="7" text-anchor="middle" fill="#FFFFFF">/</text>
<circle cx="157.600000" cy="76.000000" r="1"/>
<line x1="152.600000" y1="81.000000" x2="155.600000" y2="82.000000"  transform="rotate(0.000000,155.600000,82.000000)" style="stroke: black; stroke-width:0.25;"/>
<line x1="152.600000" y1="83.000000" x2="155.600000" y2="82.000000"  transform="rotate(0.000000,155.600000,82.000000)" style="stroke: black; stroke-width:0.25;"/>
<line x1="152.600000" y1="89.000000" x2="155.600000" y2="90.000000"  transform="rotate(0.000000,155.600000,90.000000)" style="stroke: black; stroke-width:0.25;"/>
<line x1="152.600000" y1="91.000000" x2="155.600000" y2="90.000000"  transform="rotate(0.000000,155.600000,90.000000)" style="stroke: black; stroke-width:0.25;"/>
<line x1="15.000000" y1="15.000000" x2="15.000000" y2="157.000000"  style="stroke: black; stroke-linecap:round; stroke-width:0.25; stroke-dasharray:3,3;"/>
<line x1="15.000000" y1="157.000000" x2="196.600000" y2="157.000000"  style="stroke: black; stroke-linecap:round; stroke-width:0.25; stroke-dasharray:3,3;"/>
<line x1="196.600000" y1="157.000000" x2="196.600000" y2="15.000000"  style="stroke: black; stroke-linecap:round; stroke-width:0.25; stroke-dasharray:3,3;"/>
<line x1="15.000000" y1="15.000000" x2="20.000000" y2="15.000000"  style="stroke: black; stroke-linecap:round; stroke-width:0.25; stroke-dasharray:3,3;"/>
<line x1="68.375000" y1="15.000000" x2="196.600000" y2="15.000000"  style="stroke: black; stroke-linecap:round; stroke-width:0.25; stroke-dasharray:3,3;"/>
<text x="20.000000" y="17.000000" font-family="Arial" font-size="7">primenoise(9)</text>
<line x1="198.600000" y1="85.000000" x2="201.600000" y2="86.000000"  transform="rotate(0.000000,201.600000,86.000000)" style="stroke: black; stroke-width:0.25;"/>
<line x1="198.600000" y1="87.000000" x2="201.600000" y2="86.000000"  transform="rotate(0.000000,201.600000,86.000000)" style="stroke: black; stroke-width:0.25;"/>
<line x1="28.000000" y1="40.000000" x2="28.000000" y2="40.000000"  style="stroke:black; stroke-linecap:round; stroke-width:0.25;"/>
<line x1="28.000000" y1="40.000000" x2="28.000000" y2="64.000000"  style="stroke:black; stroke-linecap:round; stroke-width:0.25;"/>
<line x1="28.000000" y1="64.000000" x2="28.000000" y2="64.000000"  style="stroke:black; stroke-linecap:round; stroke-width:0.25;"/>
<line x1="28.000000" y1="64.000000" x2="30.900000" y2="64.000000"  style="stroke:black; stroke-linecap:round; stroke-width:0.25;"/>
<line x1="30.900000" y1="64.000000" x2="57.800000" y2="64.000000"  style="stroke:black; stroke-linecap:round; stroke-width:0.25;"/>
<line x1="32.000000" y1="40.000000" x2="28.000000" y2="40.000000"  style="stroke:black; stroke-linecap:round; stroke-width:0.25;"/>
<line x1="57.800000" y1="64.000000" x2="84.700000" y2="64.000000"  style="stroke:black; stroke-linecap:round; stroke-width:0.25;"/>
<line x1="60.000000" y1="36.000000" x2="56.000000" y2="36.000000"  style="stroke:black; stroke-linecap:round; stroke-width:0.25;"/>
<line x1="60.000000" y1="44.000000" x2="56.000000" y2="44.000000"  style="stroke:black; stroke-linecap:round; stroke-width:0.25;"/>
<line x1="60.000000" y1="44.000000" x2="60.000000" y2="44.000000"  style="stroke:black; stroke-linecap:round; stroke-width:0.25;"/>
<line x1="60.000000" y1="56.000000" x2="60.000000" y2="44.000000"  style="stroke:black; stroke-linecap:round; stroke-width:0.25;"/>
<line x1="68.000000" y1="36.000000" x2="60.000000" y2="36.000000"  style="stroke:black; stroke-linecap:round; stroke-width:0.25;"/>
<line x1="68.000000" y1="56.000000" x2="60.000000" y2="56.000000"  style="stroke:black; stroke-linecap:round; stroke-width:0.25;"/>
<line x1="70.700000" y1="94.000000" x2="74.700000" y2="94.000000"  style="stroke:black; stroke-linecap:round; stroke-width:0.25;"/>
<line x1="72.000000" y1="36.000000" x2="68.000000" y2="36.000000"  style="stroke:black; stroke-linecap:round; stroke-width:0.25;"/>
<line x1="74.700000" y1="94.000000" x2="84.700000" y2="94.000000"  style="stroke:black; stroke-linecap:round; stroke-width:0.25;"/>
<line x1="84.700000" y1="64.000000" x2="92.700000" y2="64.000000"  style="stroke:black; stroke-linecap:round; stroke-width:0.25;"/>
<line x1="84.700000" y1="94.000000" x2="92.700000" y2="94.000000"  style="stroke:black; stroke-linecap:round; stroke-width:0.25;"/>
<line x1="92.700000" y1="64.000000" x2="92.700000" y2="86.000000"  style="stroke:black; stroke-linecap:round; stroke-width:0.25;"/>
<line x1="92.700000" y1="86.000000" x2="92.700000" y2="86.000000"  style="stroke:black; stroke-linecap:round; stroke-width:0.25;"/>
<line x1="92.700000" y1="86.000000" x2="96.700000" y2="86.000000"  style="stroke:black; stroke-linecap:round; stroke-width:0.25;"/>
<line x1="92.700000" y1="94.000000" x2="96.700000" y2="94.000000"  style="stroke:black; stroke-linecap:round; stroke-width:0.25;"/>
<line x1="97.800000" y1="56.000000" x2="68.000000" y2="56.000000"  style="stroke:black; stroke-linecap:round; stroke-width:0.25;"/>
<line x1="103.600000" y1="136.000000" x2="107.600000" y2="136.000000"  style="stroke:black; stroke-linecap:round; stroke-width:0.25;"/>
<line x1="107.600000" y1="136.000000" x2="135.600000" y2="136.000000"  style="stroke:black; stroke-linecap:round; stroke-width:0.25;"/>
<line x1="120.700000" y1="90.000000" x2="124.700000" y2="90.000000"  style="stroke:black; stroke-linecap:round; stroke-width:0.25;"/>
<line x1="124.700000" y1="90.000000" x2="127.600000" y2="90.000000"  style="stroke:black; stroke-linecap:round; stroke-width:0.25;"/>
<line x1="127.600000" y1="56.000000" x2="97.800000" y2="56.000000"  style="stroke:black; stroke-linecap:round; stroke-width:0.25;"/>
<line x1="127.600000" y1="56.000000" x2="127.600000" y2="56.000000"  style="stroke:black; stroke-linecap:round; stroke-width:0.25;"/>
<line x1="127.600000" y1="86.000000" x2="127.600000" y2="56.000000"  style="stroke:black; stroke-linecap:round; stroke-width:0.25;"/>
<line x1="127.600000" y1="90.000000" x2="129.600000" y2="90.000000"  style="stroke:black; stroke-linecap:round; stroke-width:0.25;"/>
<line x1="129.600000" y1="90.000000" x2="135.600000" y2="90.000000"  style="stroke:black; stroke-linecap:round; stroke-width:0.25;"/>
<line x1="135.600000" y1="82.000000" x2="151.600000" y2="82.000000"  style="stroke:black; stroke-linecap:round; stroke-width:0.25;"/>
<line x1="135.600000" y1="90.000000" x2="135.600000" y2="82.000000"  style="stroke:black; stroke-linecap:round; stroke-width:0.25;"/>
<line x1="135.600000" y1="90.000000" x2="135.600000" y2="90.000000"  style="stroke:black; stroke-linecap:round; stroke-width:0.25;"/>
<line x1="135.600000" y1="136.000000" x2="143.600000" y2="136.000000"  style="stroke:black; stroke-linecap:round; stroke-width:0.25;"/>
<line x1="143.600000" y1="90.000000" x2="151.600000" y2="90.000000"  style="stroke:black; stroke-linecap:round; stroke-width:0.25;"/>
<line x1="143.600000" y1="136.000000" x2="143.600000" y2="90.000000"  style="stroke:black; stroke-linecap:round; stroke-width:0.25;"/>
<line x1="151.600000" y1="82.000000" x2="155.600000" y2="82.000000"  style="stroke:black; stroke-linecap:round; stroke-width:0.25;"/>
<line x1="151.600000" y1="90.000000" x2="155.600000" y2="90.000000"  style="stroke:black; stroke-linecap:round; stroke-width:0.25;"/>
<line x1="179.600000" y1="86.000000" x2="183.600000" y2="86.000000"  style="stroke:black; stroke-linecap:round; stroke-width:0.25;"/>
<line x1="183.600000" y1="86.000000" x2="183.600000" y2="86.000000"  style="stroke:black; stroke-linecap:round; stroke-width:0.25;"/>
<line x1="183.600000" y1="86.000000" x2="187.600000" y2="86.000000"  style="stroke:black; stroke-linecap:round; stroke-width:0.25;"/>
<line x1="187.600000" y1="86.000000" x2="191.600000" y2="86.000000"  style="stroke:black; stroke-linecap:round; stroke-width:0.25;"/>
<line x1="191.600000" y1="86.000000" x2="201.600000" y2="86.000000"  style="stroke:black; stroke-linecap:round; stroke-width:0.25;"/>
</svg>
