<?xml version="1.0"?>
<svg xmlns="http://www.w3.org/2000/svg" xmlns:xlink="http://www.w3.org/1999/xlink" viewBox="0 0 293.400000 252.000000" width="146.700000mm" height="126.000000mm" version="1.1">
<a xlink:href="decimal-0x7fb011b1a090.svg">
<rect x="1.000000" y="1.000000" width="292.400000" height="251.000000" rx="0" ry="0" style="stroke:none;fill:#cccccc;"/>
<rect x="0.000000" y="0.000000" width="292.400000" height="251.000000" rx="0" ry="0" style="stroke:none;fill:#ffffff;"/>
</a>
<text x="10.000000" y="7.000000" font-family="Arial" font-size="7"></text>
<a xlink:href="grainPosition-0x7fb011afa800.svg">
<rect x="71.450000" y="25.000000" width="64.500000" height="24.000000" rx="0" ry="0" style="stroke:none;fill:#cccccc;"/>
<rect x="70.450000" y="24.000000" width="64.500000" height="24.000000" rx="0" ry="0" style="stroke:none;fill:#003366;"/>
</a>
<a xlink:href="grainPosition-0x7fb011afa800.svg">
<text x="102.700000" y="38.000000" font-family="Arial" font-size="7" text-anchor="middle" fill="#FFFFFF">grainPosition</text>
</a>
<circle cx="72.450000" cy="26.000000" r="1"/>
<rect x="90.800000" y="67.000000" width="25.800000" height="24.000000" rx="0" ry="0" style="stroke:none;fill:#cccccc;"/>
<rect x="89.800000" y="66.000000" width="25.800000" height="24.000000" rx="0" ry="0" style="stroke:none;fill:#f44800;"/>
<text x="102.700000" y="80.000000" font-family="Arial" font-size="7" text-anchor="middle" fill="#FFFFFF">588000</text>
<circle cx="91.800000" cy="68.000000" r="1"/>
<line x1="80.800000" y1="57.000000" x2="80.800000" y2="99.000000"  style="stroke: black; stroke-linecap:round; stroke-width:0.25; stroke-dasharray:3,3;"/>
<line x1="80.800000" y1="99.000000" x2="124.600000" y2="99.000000"  style="stroke: black; stroke-linecap:round; stroke-width:0.25; stroke-dasharray:3,3;"/>
<line x1="124.600000" y1="99.000000" x2="124.600000" y2="57.000000"  style="stroke: black; stroke-linecap:round; stroke-width:0.25; stroke-dasharray:3,3;"/>
<line x1="80.800000" y1="57.000000" x2="85.800000" y2="57.000000"  style="stroke: black; stroke-linecap:round; stroke-width:0.25; stroke-dasharray:3,3;"/>
<line x1="124.500000" y1="57.000000" x2="124.600000" y2="57.000000"  style="stroke: black; stroke-linecap:round; stroke-width:0.25; stroke-dasharray:3,3;"/>
<text x="85.800000" y="59.000000" font-family="Arial" font-size="7">bufferSize</text>
<rect x="151.950000" y="51.000000" width="24.000000" height="24.000000" rx="0" ry="0" style="stroke:none;fill:#cccccc;"/>
<rect x="150.950000" y="50.000000" width="24.000000" height="24.000000" rx="0" ry="0" style="stroke:none;fill:#4B71A1;"/>
<text x="162.950000" y="64.000000" font-family="Arial" font-size="7" text-anchor="middle" fill="#FFFFFF">*</text>
<circle cx="152.950000" cy="52.000000" r="1"/>
<line x1="147.950000" y1="57.000000" x2="150.950000" y2="58.000000"  transform="rotate(0.000000,150.950000,58.000000)" style="stroke: black; stroke-width:0.25;"/>
<line x1="147.950000" y1="59.000000" x2="150.950000" y2="58.000000"  transform="rotate(0.000000,150.950000,58.000000)" style="stroke: black; stroke-width:0.25;"/>
<line x1="147.950000" y1="65.000000" x2="150.950000" y2="66.000000"  transform="rotate(0.000000,150.950000,66.000000)" style="stroke: black; stroke-width:0.25;"/>
<line x1="147.950000" y1="67.000000" x2="150.950000" y2="66.000000"  transform="rotate(0.000000,150.950000,66.000000)" style="stroke: black; stroke-width:0.25;"/>
<a xlink:href="readingSegment-0x7fb011b193c0.svg">
<rect x="71.450000" y="109.000000" width="64.500000" height="24.000000" rx="0" ry="0" style="stroke:none;fill:#cccccc;"/>
<rect x="70.450000" y="108.000000" width="64.500000" height="24.000000" rx="0" ry="0" style="stroke:none;fill:#003366;"/>
</a>
<a xlink:href="readingSegment-0x7fb011b193c0.svg">
<text x="102.700000" y="122.000000" font-family="Arial" font-size="7" text-anchor="middle" fill="#FFFFFF">readingSegment</text>
</a>
<circle cx="72.450000" cy="110.000000" r="1"/>
<a xlink:href="SR-0x7fb01c20d350.svg">
<rect x="71.700000" y="141.000000" width="24.000000" height="24.000000" rx="0" ry="0" style="stroke:none;fill:#cccccc;"/>
<rect x="70.700000" y="140.000000" width="24.000000" height="24.000000" rx="0" ry="0" style="stroke:none;fill:#003366;"/>
</a>
<a xlink:href="SR-0x7fb01c20d350.svg">
<text x="82.700000" y="154.000000" font-family="Arial" font-size="7" text-anchor="middle" fill="#FFFFFF">SR</text>
</a>
<circle cx="72.700000" cy="142.000000" r="1"/>
<a xlink:href="grainRate-0x7fb011b18690.svg">
<rect x="44.350000" y="173.000000" width="38.700000" height="24.000000" rx="0" ry="0" style="stroke:none;fill:#cccccc;"/>
<rect x="43.350000" y="172.000000" width="38.700000" height="24.000000" rx="0" ry="0" style="stroke:none;fill:#003366;"/>
</a>
<a xlink:href="grainRate-0x7fb011b18690.svg">
<text x="62.700000" y="186.000000" font-family="Arial" font-size="7" text-anchor="middle" fill="#FFFFFF">grainRate</text>
</a>
<circle cx="45.350000" cy="174.000000" r="1"/>
<a xlink:href="phasorSlopeFacto-0x7fb011b18f40.svg">
<rect x="25.000000" y="205.000000" width="77.400000" height="24.000000" rx="0" ry="0" style="stroke:none;fill:#cccccc;"/>
<rect x="24.000000" y="204.000000" width="77.400000" height="24.000000" rx="0" ry="0" style="stroke:none;fill:#003366;"/>
</a>
<a xlink:href="phasorSlopeFacto-0x7fb011b18f40.svg">
<text x="62.700000" y="218.000000" font-family="Arial" font-size="7" text-anchor="middle" fill="#FFFFFF">phasorSlopeFactor</text>
</a>
<circle cx="26.000000" cy="206.000000" r="1"/>
<rect x="118.400000" y="189.000000" width="24.000000" height="24.000000" rx="0" ry="0" style="stroke:none;fill:#cccccc;"/>
<rect x="117.400000" y="188.000000" width="24.000000" height="24.000000" rx="0" ry="0" style="stroke:none;fill:#4B71A1;"/>
<text x="129.400000" y="202.000000" font-family="Arial" font-size="7" text-anchor="middle" fill="#FFFFFF">*</text>
<circle cx="119.400000" cy="190.000000" r="1"/>
<line x1="114.400000" y1="195.000000" x2="117.400000" y2="196.000000"  transform="rotate(0.000000,117.400000,196.000000)" style="stroke: black; stroke-width:0.25;"/>
<line x1="114.400000" y1="197.000000" x2="117.400000" y2="196.000000"  transform="rotate(0.000000,117.400000,196.000000)" style="stroke: black; stroke-width:0.25;"/>
<line x1="114.400000" y1="203.000000" x2="117.400000" y2="204.000000"  transform="rotate(0.000000,117.400000,204.000000)" style="stroke: black; stroke-width:0.25;"/>
<line x1="114.400000" y1="205.000000" x2="117.400000" y2="204.000000"  transform="rotate(0.000000,117.400000,204.000000)" style="stroke: black; stroke-width:0.25;"/>
<rect x="158.400000" y="173.000000" width="24.000000" height="24.000000" rx="0" ry="0" style="stroke:none;fill:#cccccc;"/>
<rect x="157.400000" y="172.000000" width="24.000000" height="24.000000" rx="0" ry="0" style="stroke:none;fill:#4B71A1;"/>
<text x="169.400000" y="186.000000" font-family="Arial" font-size="7" text-anchor="middle" fill="#FFFFFF">/</text>
<circle cx="159.400000" cy="174.000000" r="1"/>
<line x1="154.400000" y1="179.000000" x2="157.400000" y2="180.000000"  transform="rotate(0.000000,157.400000,180.000000)" style="stroke: black; stroke-width:0.25;"/>
<line x1="154.400000" y1="181.000000" x2="157.400000" y2="180.000000"  transform="rotate(0.000000,157.400000,180.000000)" style="stroke: black; stroke-width:0.25;"/>
<line x1="154.400000" y1="187.000000" x2="157.400000" y2="188.000000"  transform="rotate(0.000000,157.400000,188.000000)" style="stroke: black; stroke-width:0.25;"/>
<line x1="154.400000" y1="189.000000" x2="157.400000" y2="188.000000"  transform="rotate(0.000000,157.400000,188.000000)" style="stroke: black; stroke-width:0.25;"/>
<rect x="198.400000" y="157.000000" width="24.000000" height="24.000000" rx="0" ry="0" style="stroke:none;fill:#cccccc;"/>
<rect x="197.400000" y="156.000000" width="24.000000" height="24.000000" rx="0" ry="0" style="stroke:none;fill:#4B71A1;"/>
<text x="209.400000" y="170.000000" font-family="Arial" font-size="7" text-anchor="middle" fill="#FFFFFF">*</text>
<circle cx="199.400000" cy="158.000000" r="1"/>
<line x1="194.400000" y1="163.000000" x2="197.400000" y2="164.000000"  transform="rotate(0.000000,197.400000,164.000000)" style="stroke: black; stroke-width:0.25;"/>
<line x1="194.400000" y1="165.000000" x2="197.400000" y2="164.000000"  transform="rotate(0.000000,197.400000,164.000000)" style="stroke: black; stroke-width:0.25;"/>
<line x1="194.400000" y1="171.000000" x2="197.400000" y2="172.000000"  transform="rotate(0.000000,197.400000,172.000000)" style="stroke: black; stroke-width:0.25;"/>
<line x1="194.400000" y1="173.000000" x2="197.400000" y2="172.000000"  transform="rotate(0.000000,197.400000,172.000000)" style="stroke: black; stroke-width:0.25;"/>
<rect x="238.400000" y="115.000000" width="24.000000" height="24.000000" rx="0" ry="0" style="stroke:none;fill:#cccccc;"/>
<rect x="237.400000" y="114.000000" width="24.000000" height="24.000000" rx="0" ry="0" style="stroke:none;fill:#4B71A1;"/>
<text x="249.400000" y="128.000000" font-family="Arial" font-size="7" text-anchor="middle" fill="#FFFFFF">+</text>
<circle cx="239.400000" cy="116.000000" r="1"/>
<line x1="234.400000" y1="121.000000" x2="237.400000" y2="122.000000"  transform="rotate(0.000000,237.400000,122.000000)" style="stroke: black; stroke-width:0.25;"/>
<line x1="234.400000" y1="123.000000" x2="237.400000" y2="122.000000"  transform="rotate(0.000000,237.400000,122.000000)" style="stroke: black; stroke-width:0.25;"/>
<line x1="234.400000" y1="129.000000" x2="237.400000" y2="130.000000"  transform="rotate(0.000000,237.400000,130.000000)" style="stroke: black; stroke-width:0.25;"/>
<line x1="234.400000" y1="131.000000" x2="237.400000" y2="130.000000"  transform="rotate(0.000000,237.400000,130.000000)" style="stroke: black; stroke-width:0.25;"/>
<line x1="15.000000" y1="15.000000" x2="15.000000" y2="237.000000"  style="stroke: black; stroke-linecap:round; stroke-width:0.25; stroke-dasharray:3,3;"/>
<line x1="15.000000" y1="237.000000" x2="278.400000" y2="237.000000"  style="stroke: black; stroke-linecap:round; stroke-width:0.25; stroke-dasharray:3,3;"/>
<line x1="278.400000" y1="237.000000" x2="278.400000" y2="15.000000"  style="stroke: black; stroke-linecap:round; stroke-width:0.25; stroke-dasharray:3,3;"/>
<line x1="15.000000" y1="15.000000" x2="20.000000" y2="15.000000"  style="stroke: black; stroke-linecap:round; stroke-width:0.25; stroke-dasharray:3,3;"/>
<line x1="49.025000" y1="15.000000" x2="278.400000" y2="15.000000"  style="stroke: black; stroke-linecap:round; stroke-width:0.25; stroke-dasharray:3,3;"/>
<text x="20.000000" y="17.000000" font-family="Arial" font-size="7">readPtr</text>
<line x1="280.400000" y1="125.000000" x2="283.400000" y2="126.000000"  transform="rotate(0.000000,283.400000,126.000000)" style="stroke: black; stroke-width:0.25;"/>
<line x1="280.400000" y1="127.000000" x2="283.400000" y2="126.000000"  transform="rotate(0.000000,283.400000,126.000000)" style="stroke: black; stroke-width:0.25;"/>
<line x1="82.050000" y1="184.000000" x2="86.050000" y2="184.000000"  style="stroke:black; stroke-linecap:round; stroke-width:0.25;"/>
<line x1="86.050000" y1="184.000000" x2="105.400000" y2="184.000000"  style="stroke:black; stroke-linecap:round; stroke-width:0.25;"/>
<line x1="94.700000" y1="152.000000" x2="98.700000" y2="152.000000"  style="stroke:black; stroke-linecap:round; stroke-width:0.25;"/>
<line x1="98.700000" y1="152.000000" x2="145.400000" y2="152.000000"  style="stroke:black; stroke-linecap:round; stroke-width:0.25;"/>
<line x1="101.400000" y1="216.000000" x2="105.400000" y2="216.000000"  style="stroke:black; stroke-linecap:round; stroke-width:0.25;"/>
<line x1="105.400000" y1="184.000000" x2="113.400000" y2="184.000000"  style="stroke:black; stroke-linecap:round; stroke-width:0.25;"/>
<line x1="105.400000" y1="204.000000" x2="113.400000" y2="204.000000"  style="stroke:black; stroke-linecap:round; stroke-width:0.25;"/>
<line x1="105.400000" y1="216.000000" x2="105.400000" y2="204.000000"  style="stroke:black; stroke-linecap:round; stroke-width:0.25;"/>
<line x1="105.400000" y1="216.000000" x2="105.400000" y2="216.000000"  style="stroke:black; stroke-linecap:round; stroke-width:0.25;"/>
<line x1="113.400000" y1="184.000000" x2="113.400000" y2="196.000000"  style="stroke:black; stroke-linecap:round; stroke-width:0.25;"/>
<line x1="113.400000" y1="196.000000" x2="113.400000" y2="196.000000"  style="stroke:black; stroke-linecap:round; stroke-width:0.25;"/>
<line x1="113.400000" y1="196.000000" x2="117.400000" y2="196.000000"  style="stroke:black; stroke-linecap:round; stroke-width:0.25;"/>
<line x1="113.400000" y1="204.000000" x2="117.400000" y2="204.000000"  style="stroke:black; stroke-linecap:round; stroke-width:0.25;"/>
<line x1="115.600000" y1="78.000000" x2="119.600000" y2="78.000000"  style="stroke:black; stroke-linecap:round; stroke-width:0.25;"/>
<line x1="119.600000" y1="78.000000" x2="129.600000" y2="78.000000"  style="stroke:black; stroke-linecap:round; stroke-width:0.25;"/>
<line x1="129.600000" y1="78.000000" x2="138.950000" y2="78.000000"  style="stroke:black; stroke-linecap:round; stroke-width:0.25;"/>
<line x1="134.950000" y1="36.000000" x2="138.950000" y2="36.000000"  style="stroke:black; stroke-linecap:round; stroke-width:0.25;"/>
<line x1="134.950000" y1="120.000000" x2="138.950000" y2="120.000000"  style="stroke:black; stroke-linecap:round; stroke-width:0.25;"/>
<line x1="138.950000" y1="66.000000" x2="146.950000" y2="66.000000"  style="stroke:black; stroke-linecap:round; stroke-width:0.25;"/>
<line x1="138.950000" y1="78.000000" x2="138.950000" y2="66.000000"  style="stroke:black; stroke-linecap:round; stroke-width:0.25;"/>
<line x1="138.950000" y1="78.000000" x2="138.950000" y2="78.000000"  style="stroke:black; stroke-linecap:round; stroke-width:0.25;"/>
<line x1="138.950000" y1="36.000000" x2="146.950000" y2="36.000000"  style="stroke:black; stroke-linecap:round; stroke-width:0.25;"/>
<line x1="138.950000" y1="120.000000" x2="185.400000" y2="120.000000"  style="stroke:black; stroke-linecap:round; stroke-width:0.25;"/>
<line x1="141.400000" y1="200.000000" x2="145.400000" y2="200.000000"  style="stroke:black; stroke-linecap:round; stroke-width:0.25;"/>
<line x1="145.400000" y1="152.000000" x2="153.400000" y2="152.000000"  style="stroke:black; stroke-linecap:round; stroke-width:0.25;"/>
<line x1="145.400000" y1="188.000000" x2="153.400000" y2="188.000000"  style="stroke:black; stroke-linecap:round; stroke-width:0.25;"/>
<line x1="145.400000" y1="200.000000" x2="145.400000" y2="188.000000"  style="stroke:black; stroke-linecap:round; stroke-width:0.25;"/>
<line x1="145.400000" y1="200.000000" x2="145.400000" y2="200.000000"  style="stroke:black; stroke-linecap:round; stroke-width:0.25;"/>
<line x1="146.950000" y1="36.000000" x2="146.950000" y2="58.000000"  style="stroke:black; stroke-linecap:round; stroke-width:0.25;"/>
<line x1="146.950000" y1="58.000000" x2="146.950000" y2="58.000000"  style="stroke:black; stroke-linecap:round; stroke-width:0.25;"/>
<line x1="146.950000" y1="58.000000" x2="150.950000" y2="58.000000"  style="stroke:black; stroke-linecap:round; stroke-width:0.25;"/>
<line x1="146.950000" y1="66.000000" x2="150.950000" y2="66.000000"  style="stroke:black; stroke-linecap:round; stroke-width:0.25;"/>
<line x1="153.400000" y1="152.000000" x2="153.400000" y2="180.000000"  style="stroke:black; stroke-linecap:round; stroke-width:0.25;"/>
<line x1="153.400000" y1="180.000000" x2="153.400000" y2="180.000000"  style="stroke:black; stroke-linecap:round; stroke-width:0.25;"/>
<line x1="153.400000" y1="180.000000" x2="157.400000" y2="180.000000"  style="stroke:black; stroke-linecap:round; stroke-width:0.25;"/>
<line x1="153.400000" y1="188.000000" x2="157.400000" y2="188.000000"  style="stroke:black; stroke-linecap:round; stroke-width:0.25;"/>
<line x1="174.950000" y1="62.000000" x2="178.950000" y2="62.000000"  style="stroke:black; stroke-linecap:round; stroke-width:0.25;"/>
<line x1="178.950000" y1="62.000000" x2="225.400000" y2="62.000000"  style="stroke:black; stroke-linecap:round; stroke-width:0.25;"/>
<line x1="181.400000" y1="184.000000" x2="185.400000" y2="184.000000"  style="stroke:black; stroke-linecap:round; stroke-width:0.25;"/>
<line x1="185.400000" y1="120.000000" x2="193.400000" y2="120.000000"  style="stroke:black; stroke-linecap:round; stroke-width:0.25;"/>
<line x1="185.400000" y1="172.000000" x2="193.400000" y2="172.000000"  style="stroke:black; stroke-linecap:round; stroke-width:0.25;"/>
<line x1="185.400000" y1="184.000000" x2="185.400000" y2="172.000000"  style="stroke:black; stroke-linecap:round; stroke-width:0.25;"/>
<line x1="185.400000" y1="184.000000" x2="185.400000" y2="184.000000"  style="stroke:black; stroke-linecap:round; stroke-width:0.25;"/>
<line x1="193.400000" y1="120.000000" x2="193.400000" y2="164.000000"  style="stroke:black; stroke-linecap:round; stroke-width:0.25;"/>
<line x1="193.400000" y1="164.000000" x2="193.400000" y2="164.000000"  style="stroke:black; stroke-linecap:round; stroke-width:0.25;"/>
<line x1="193.400000" y1="164.000000" x2="197.400000" y2="164.000000"  style="stroke:black; stroke-linecap:round; stroke-width:0.25;"/>
<line x1="193.400000" y1="172.000000" x2="197.400000" y2="172.000000"  style="stroke:black; stroke-linecap:round; stroke-width:0.25;"/>
<line x1="221.400000" y1="168.000000" x2="225.400000" y2="168.000000"  style="stroke:black; stroke-linecap:round; stroke-width:0.25;"/>
<line x1="225.400000" y1="62.000000" x2="233.400000" y2="62.000000"  style="stroke:black; stroke-linecap:round; stroke-width:0.25;"/>
<line x1="225.400000" y1="130.000000" x2="233.400000" y2="130.000000"  style="stroke:black; stroke-linecap:round; stroke-width:0.25;"/>
<line x1="225.400000" y1="168.000000" x2="225.400000" y2="130.000000"  style="stroke:black; stroke-linecap:round; stroke-width:0.25;"/>
<line x1="225.400000" y1="168.000000" x2="225.400000" y2="168.000000"  style="stroke:black; stroke-linecap:round; stroke-width:0.25;"/>
<line x1="233.400000" y1="62.000000" x2="233.400000" y2="122.000000"  style="stroke:black; stroke-linecap:round; stroke-width:0.25;"/>
<line x1="233.400000" y1="122.000000" x2="233.400000" y2="122.000000"  style="stroke:black; stroke-linecap:round; stroke-width:0.25;"/>
<line x1="233.400000" y1="122.000000" x2="237.400000" y2="122.000000"  style="stroke:black; stroke-linecap:round; stroke-width:0.25;"/>
<line x1="233.400000" y1="130.000000" x2="237.400000" y2="130.000000"  style="stroke:black; stroke-linecap:round; stroke-width:0.25;"/>
<line x1="261.400000" y1="126.000000" x2="265.400000" y2="126.000000"  style="stroke:black; stroke-linecap:round; stroke-width:0.25;"/>
<line x1="265.400000" y1="126.000000" x2="265.400000" y2="126.000000"  style="stroke:black; stroke-linecap:round; stroke-width:0.25;"/>
<line x1="265.400000" y1="126.000000" x2="269.400000" y2="126.000000"  style="stroke:black; stroke-linecap:round; stroke-width:0.25;"/>
<line x1="269.400000" y1="126.000000" x2="273.400000" y2="126.000000"  style="stroke:black; stroke-linecap:round; stroke-width:0.25;"/>
<line x1="273.400000" y1="126.000000" x2="283.400000" y2="126.000000"  style="stroke:black; stroke-linecap:round; stroke-width:0.25;"/>
</svg>
