<?xml version="1.0"?>
<svg xmlns="http://www.w3.org/2000/svg" xmlns:xlink="http://www.w3.org/1999/xlink" viewBox="0 0 360.000000 428.000000" width="180.000000mm" height="214.000000mm" version="1.1">
<a xlink:href="signal-0x7fb0ed390830.svg">
<rect x="1.000000" y="1.000000" width="359.000000" height="427.000000" rx="0" ry="0" style="stroke:none;fill:#cccccc;"/>
<rect x="0.000000" y="0.000000" width="359.000000" height="427.000000" rx="0" ry="0" style="stroke:none;fill:#ffffff;"/>
</a>
<text x="10.000000" y="7.000000" font-family="Arial" font-size="7"></text>
<rect x="33.000000" y="203.000000" width="24.000000" height="24.000000" rx="0" ry="0" style="stroke:none;fill:#cccccc;"/>
<rect x="32.000000" y="202.000000" width="24.000000" height="24.000000" rx="0" ry="0" style="stroke:none;fill:#47945E;"/>
<text x="44.000000" y="216.000000" font-family="Arial" font-size="7" text-anchor="middle" fill="#FFFFFF">sig</text>
<circle cx="34.000000" cy="204.000000" r="1"/>
<line x1="29.000000" y1="213.000000" x2="32.000000" y2="214.000000"  transform="rotate(0.000000,32.000000,214.000000)" style="stroke: black; stroke-width:0.25;"/>
<line x1="29.000000" y1="215.000000" x2="32.000000" y2="214.000000"  transform="rotate(0.000000,32.000000,214.000000)" style="stroke: black; stroke-width:0.25;"/>
<a xlink:href="fdelay-0x7fb0ed2d3bb0.svg">
<rect x="79.600000" y="25.000000" width="154.800000" height="24.000000" rx="0" ry="0" style="stroke:none;fill:#cccccc;"/>
<rect x="78.600000" y="24.000000" width="154.800000" height="24.000000" rx="0" ry="0" style="stroke:none;fill:#003366;"/>
</a>
<a xlink:href="fdelay-0x7fb0ed2d3bb0.svg">
<text x="156.000000" y="38.000000" font-family="Arial" font-size="7" text-anchor="middle" fill="#FFFFFF">fdelay(65536)...t) : fmod)~_)(x60)</text>
</a>
<circle cx="80.600000" cy="26.000000" r="1"/>
<a xlink:href="d-0x7fb0ed1c02e0.svg">
<rect x="95.000000" y="57.000000" width="24.000000" height="24.000000" rx="0" ry="0" style="stroke:none;fill:#cccccc;"/>
<rect x="94.000000" y="56.000000" width="24.000000" height="24.000000" rx="0" ry="0" style="stroke:none;fill:#003366;"/>
</a>
<a xlink:href="d-0x7fb0ed1c02e0.svg">
<text x="106.000000" y="70.000000" font-family="Arial" font-size="7" text-anchor="middle" fill="#FFFFFF">d</text>
</a>
<circle cx="96.000000" cy="58.000000" r="1"/>
<rect x="95.000000" y="99.000000" width="24.000000" height="24.000000" rx="0" ry="0" style="stroke:none;fill:#cccccc;"/>
<rect x="94.000000" y="98.000000" width="24.000000" height="24.000000" rx="0" ry="0" style="stroke:none;fill:#f44800;"/>
<text x="106.000000" y="112.000000" font-family="Arial" font-size="7" text-anchor="middle" fill="#FFFFFF">128</text>
<circle cx="96.000000" cy="100.000000" r="1"/>
<line x1="85.000000" y1="89.000000" x2="85.000000" y2="131.000000"  style="stroke: black; stroke-linecap:round; stroke-width:0.25; stroke-dasharray:3,3;"/>
<line x1="85.000000" y1="131.000000" x2="127.000000" y2="131.000000"  style="stroke: black; stroke-linecap:round; stroke-width:0.25; stroke-dasharray:3,3;"/>
<line x1="127.000000" y1="131.000000" x2="127.000000" y2="89.000000"  style="stroke: black; stroke-linecap:round; stroke-width:0.25; stroke-dasharray:3,3;"/>
<line x1="85.000000" y1="89.000000" x2="90.000000" y2="89.000000"  style="stroke: black; stroke-linecap:round; stroke-width:0.25; stroke-dasharray:3,3;"/>
<line x1="112.575000" y1="89.000000" x2="127.000000" y2="89.000000"  style="stroke: black; stroke-linecap:round; stroke-width:0.25; stroke-dasharray:3,3;"/>
<text x="90.000000" y="91.000000" font-family="Arial" font-size="7">xfade</text>
<rect x="145.000000" y="83.000000" width="24.000000" height="24.000000" rx="0" ry="0" style="stroke:none;fill:#cccccc;"/>
<rect x="144.000000" y="82.000000" width="24.000000" height="24.000000" rx="0" ry="0" style="stroke:none;fill:#4B71A1;"/>
<text x="156.000000" y="96.000000" font-family="Arial" font-size="7" text-anchor="middle" fill="#FFFFFF">/</text>
<circle cx="146.000000" cy="84.000000" r="1"/>
<line x1="141.000000" y1="89.000000" x2="144.000000" y2="90.000000"  transform="rotate(0.000000,144.000000,90.000000)" style="stroke: black; stroke-width:0.25;"/>
<line x1="141.000000" y1="91.000000" x2="144.000000" y2="90.000000"  transform="rotate(0.000000,144.000000,90.000000)" style="stroke: black; stroke-width:0.25;"/>
<line x1="141.000000" y1="97.000000" x2="144.000000" y2="98.000000"  transform="rotate(0.000000,144.000000,98.000000)" style="stroke: black; stroke-width:0.25;"/>
<line x1="141.000000" y1="99.000000" x2="144.000000" y2="98.000000"  transform="rotate(0.000000,144.000000,98.000000)" style="stroke: black; stroke-width:0.25;"/>
<rect x="115.000000" y="151.000000" width="24.000000" height="24.000000" rx="0" ry="0" style="stroke:none;fill:#cccccc;"/>
<rect x="114.000000" y="150.000000" width="24.000000" height="24.000000" rx="0" ry="0" style="stroke:none;fill:#f44800;"/>
<text x="126.000000" y="164.000000" font-family="Arial" font-size="7" text-anchor="middle" fill="#FFFFFF">1</text>
<circle cx="116.000000" cy="152.000000" r="1"/>
<line x1="105.000000" y1="141.000000" x2="105.000000" y2="183.000000"  style="stroke: black; stroke-linecap:round; stroke-width:0.25; stroke-dasharray:3,3;"/>
<line x1="105.000000" y1="183.000000" x2="147.000000" y2="183.000000"  style="stroke: black; stroke-linecap:round; stroke-width:0.25; stroke-dasharray:3,3;"/>
<line x1="147.000000" y1="183.000000" x2="147.000000" y2="141.000000"  style="stroke: black; stroke-linecap:round; stroke-width:0.25; stroke-dasharray:3,3;"/>
<line x1="105.000000" y1="141.000000" x2="110.000000" y2="141.000000"  style="stroke: black; stroke-linecap:round; stroke-width:0.25; stroke-dasharray:3,3;"/>
<line x1="142.250000" y1="141.000000" x2="147.000000" y2="141.000000"  style="stroke: black; stroke-linecap:round; stroke-width:0.25; stroke-dasharray:3,3;"/>
<text x="110.000000" y="143.000000" font-family="Arial" font-size="7">xVals(1)</text>
<rect x="195.000000" y="109.000000" width="24.000000" height="24.000000" rx="0" ry="0" style="stroke:none;fill:#cccccc;"/>
<rect x="194.000000" y="108.000000" width="24.000000" height="24.000000" rx="0" ry="0" style="stroke:none;fill:#4B71A1;"/>
<text x="206.000000" y="122.000000" font-family="Arial" font-size="7" text-anchor="middle" fill="#FFFFFF">min</text>
<circle cx="196.000000" cy="110.000000" r="1"/>
<line x1="191.000000" y1="115.000000" x2="194.000000" y2="116.000000"  transform="rotate(0.000000,194.000000,116.000000)" style="stroke: black; stroke-width:0.25;"/>
<line x1="191.000000" y1="117.000000" x2="194.000000" y2="116.000000"  transform="rotate(0.000000,194.000000,116.000000)" style="stroke: black; stroke-width:0.25;"/>
<line x1="191.000000" y1="123.000000" x2="194.000000" y2="124.000000"  transform="rotate(0.000000,194.000000,124.000000)" style="stroke: black; stroke-width:0.25;"/>
<line x1="191.000000" y1="125.000000" x2="194.000000" y2="124.000000"  transform="rotate(0.000000,194.000000,124.000000)" style="stroke: black; stroke-width:0.25;"/>
<line x1="185.000000" y1="99.000000" x2="185.000000" y2="141.000000"  style="stroke: black; stroke-linecap:round; stroke-width:0.25; stroke-dasharray:3,3;"/>
<line x1="185.000000" y1="141.000000" x2="227.000000" y2="141.000000"  style="stroke: black; stroke-linecap:round; stroke-width:0.25; stroke-dasharray:3,3;"/>
<line x1="227.000000" y1="141.000000" x2="227.000000" y2="99.000000"  style="stroke: black; stroke-linecap:round; stroke-width:0.25; stroke-dasharray:3,3;"/>
<line x1="185.000000" y1="99.000000" x2="190.000000" y2="99.000000"  style="stroke: black; stroke-linecap:round; stroke-width:0.25; stroke-dasharray:3,3;"/>
<line x1="209.350000" y1="99.000000" x2="227.000000" y2="99.000000"  style="stroke: black; stroke-linecap:round; stroke-width:0.25; stroke-dasharray:3,3;"/>
<text x="190.000000" y="101.000000" font-family="Arial" font-size="7">fmin</text>
<rect x="250.400000" y="93.000000" width="24.000000" height="24.000000" rx="0" ry="0" style="stroke:none;fill:#cccccc;"/>
<rect x="249.400000" y="92.000000" width="24.000000" height="24.000000" rx="0" ry="0" style="stroke:none;fill:#4B71A1;"/>
<text x="261.400000" y="106.000000" font-family="Arial" font-size="7" text-anchor="middle" fill="#FFFFFF">*</text>
<circle cx="251.400000" cy="94.000000" r="1"/>
<line x1="246.400000" y1="99.000000" x2="249.400000" y2="100.000000"  transform="rotate(0.000000,249.400000,100.000000)" style="stroke: black; stroke-width:0.25;"/>
<line x1="246.400000" y1="101.000000" x2="249.400000" y2="100.000000"  transform="rotate(0.000000,249.400000,100.000000)" style="stroke: black; stroke-width:0.25;"/>
<line x1="246.400000" y1="107.000000" x2="249.400000" y2="108.000000"  transform="rotate(0.000000,249.400000,108.000000)" style="stroke: black; stroke-width:0.25;"/>
<line x1="246.400000" y1="109.000000" x2="249.400000" y2="108.000000"  transform="rotate(0.000000,249.400000,108.000000)" style="stroke: black; stroke-width:0.25;"/>
<a xlink:href="fdelay-0x7fb0ed2d4ab0.svg">
<rect x="79.600000" y="193.000000" width="154.800000" height="24.000000" rx="0" ry="0" style="stroke:none;fill:#cccccc;"/>
<rect x="78.600000" y="192.000000" width="154.800000" height="24.000000" rx="0" ry="0" style="stroke:none;fill:#003366;"/>
</a>
<a xlink:href="fdelay-0x7fb0ed2d4ab0.svg">
<text x="156.000000" y="206.000000" font-family="Arial" font-size="7" text-anchor="middle" fill="#FFFFFF">fdelay(65536)...] : int) : +)(x60)</text>
</a>
<circle cx="80.600000" cy="194.000000" r="1"/>
<rect x="125.000000" y="235.000000" width="24.000000" height="24.000000" rx="0" ry="0" style="stroke:none;fill:#cccccc;"/>
<rect x="124.000000" y="234.000000" width="24.000000" height="24.000000" rx="0" ry="0" style="stroke:none;fill:#f44800;"/>
<text x="136.000000" y="248.000000" font-family="Arial" font-size="7" text-anchor="middle" fill="#FFFFFF">1</text>
<circle cx="126.000000" cy="236.000000" r="1"/>
<line x1="115.000000" y1="225.000000" x2="115.000000" y2="267.000000"  style="stroke: black; stroke-linecap:round; stroke-width:0.25; stroke-dasharray:3,3;"/>
<line x1="115.000000" y1="267.000000" x2="157.000000" y2="267.000000"  style="stroke: black; stroke-linecap:round; stroke-width:0.25; stroke-dasharray:3,3;"/>
<line x1="157.000000" y1="267.000000" x2="157.000000" y2="225.000000"  style="stroke: black; stroke-linecap:round; stroke-width:0.25; stroke-dasharray:3,3;"/>
<line x1="115.000000" y1="225.000000" x2="120.000000" y2="225.000000"  style="stroke: black; stroke-linecap:round; stroke-width:0.25; stroke-dasharray:3,3;"/>
<line x1="152.250000" y1="225.000000" x2="157.000000" y2="225.000000"  style="stroke: black; stroke-linecap:round; stroke-width:0.25; stroke-dasharray:3,3;"/>
<text x="120.000000" y="227.000000" font-family="Arial" font-size="7">xVals(1)</text>
<a xlink:href="d-0x7fb0ed1c02e0.svg">
<rect x="75.000000" y="277.000000" width="24.000000" height="24.000000" rx="0" ry="0" style="stroke:none;fill:#cccccc;"/>
<rect x="74.000000" y="276.000000" width="24.000000" height="24.000000" rx="0" ry="0" style="stroke:none;fill:#003366;"/>
</a>
<a xlink:href="d-0x7fb0ed1c02e0.svg">
<text x="86.000000" y="290.000000" font-family="Arial" font-size="7" text-anchor="middle" fill="#FFFFFF">d</text>
</a>
<circle cx="76.000000" cy="278.000000" r="1"/>
<rect x="75.000000" y="319.000000" width="24.000000" height="24.000000" rx="0" ry="0" style="stroke:none;fill:#cccccc;"/>
<rect x="74.000000" y="318.000000" width="24.000000" height="24.000000" rx="0" ry="0" style="stroke:none;fill:#f44800;"/>
<text x="86.000000" y="332.000000" font-family="Arial" font-size="7" text-anchor="middle" fill="#FFFFFF">128</text>
<circle cx="76.000000" cy="320.000000" r="1"/>
<line x1="65.000000" y1="309.000000" x2="65.000000" y2="351.000000"  style="stroke: black; stroke-linecap:round; stroke-width:0.25; stroke-dasharray:3,3;"/>
<line x1="65.000000" y1="351.000000" x2="107.000000" y2="351.000000"  style="stroke: black; stroke-linecap:round; stroke-width:0.25; stroke-dasharray:3,3;"/>
<line x1="107.000000" y1="351.000000" x2="107.000000" y2="309.000000"  style="stroke: black; stroke-linecap:round; stroke-width:0.25; stroke-dasharray:3,3;"/>
<line x1="65.000000" y1="309.000000" x2="70.000000" y2="309.000000"  style="stroke: black; stroke-linecap:round; stroke-width:0.25; stroke-dasharray:3,3;"/>
<line x1="92.575000" y1="309.000000" x2="107.000000" y2="309.000000"  style="stroke: black; stroke-linecap:round; stroke-width:0.25; stroke-dasharray:3,3;"/>
<text x="70.000000" y="311.000000" font-family="Arial" font-size="7">xfade</text>
<rect x="125.000000" y="303.000000" width="24.000000" height="24.000000" rx="0" ry="0" style="stroke:none;fill:#cccccc;"/>
<rect x="124.000000" y="302.000000" width="24.000000" height="24.000000" rx="0" ry="0" style="stroke:none;fill:#4B71A1;"/>
<text x="136.000000" y="316.000000" font-family="Arial" font-size="7" text-anchor="middle" fill="#FFFFFF">/</text>
<circle cx="126.000000" cy="304.000000" r="1"/>
<line x1="121.000000" y1="309.000000" x2="124.000000" y2="310.000000"  transform="rotate(0.000000,124.000000,310.000000)" style="stroke: black; stroke-width:0.25;"/>
<line x1="121.000000" y1="311.000000" x2="124.000000" y2="310.000000"  transform="rotate(0.000000,124.000000,310.000000)" style="stroke: black; stroke-width:0.25;"/>
<line x1="121.000000" y1="317.000000" x2="124.000000" y2="318.000000"  transform="rotate(0.000000,124.000000,318.000000)" style="stroke: black; stroke-width:0.25;"/>
<line x1="121.000000" y1="319.000000" x2="124.000000" y2="318.000000"  transform="rotate(0.000000,124.000000,318.000000)" style="stroke: black; stroke-width:0.25;"/>
<rect x="95.000000" y="371.000000" width="24.000000" height="24.000000" rx="0" ry="0" style="stroke:none;fill:#cccccc;"/>
<rect x="94.000000" y="370.000000" width="24.000000" height="24.000000" rx="0" ry="0" style="stroke:none;fill:#f44800;"/>
<text x="106.000000" y="384.000000" font-family="Arial" font-size="7" text-anchor="middle" fill="#FFFFFF">1</text>
<circle cx="96.000000" cy="372.000000" r="1"/>
<line x1="85.000000" y1="361.000000" x2="85.000000" y2="403.000000"  style="stroke: black; stroke-linecap:round; stroke-width:0.25; stroke-dasharray:3,3;"/>
<line x1="85.000000" y1="403.000000" x2="127.000000" y2="403.000000"  style="stroke: black; stroke-linecap:round; stroke-width:0.25; stroke-dasharray:3,3;"/>
<line x1="127.000000" y1="403.000000" x2="127.000000" y2="361.000000"  style="stroke: black; stroke-linecap:round; stroke-width:0.25; stroke-dasharray:3,3;"/>
<line x1="85.000000" y1="361.000000" x2="90.000000" y2="361.000000"  style="stroke: black; stroke-linecap:round; stroke-width:0.25; stroke-dasharray:3,3;"/>
<line x1="122.250000" y1="361.000000" x2="127.000000" y2="361.000000"  style="stroke: black; stroke-linecap:round; stroke-width:0.25; stroke-dasharray:3,3;"/>
<text x="90.000000" y="363.000000" font-family="Arial" font-size="7">xVals(1)</text>
<rect x="175.000000" y="329.000000" width="24.000000" height="24.000000" rx="0" ry="0" style="stroke:none;fill:#cccccc;"/>
<rect x="174.000000" y="328.000000" width="24.000000" height="24.000000" rx="0" ry="0" style="stroke:none;fill:#4B71A1;"/>
<text x="186.000000" y="342.000000" font-family="Arial" font-size="7" text-anchor="middle" fill="#FFFFFF">min</text>
<circle cx="176.000000" cy="330.000000" r="1"/>
<line x1="171.000000" y1="335.000000" x2="174.000000" y2="336.000000"  transform="rotate(0.000000,174.000000,336.000000)" style="stroke: black; stroke-width:0.25;"/>
<line x1="171.000000" y1="337.000000" x2="174.000000" y2="336.000000"  transform="rotate(0.000000,174.000000,336.000000)" style="stroke: black; stroke-width:0.25;"/>
<line x1="171.000000" y1="343.000000" x2="174.000000" y2="344.000000"  transform="rotate(0.000000,174.000000,344.000000)" style="stroke: black; stroke-width:0.25;"/>
<line x1="171.000000" y1="345.000000" x2="174.000000" y2="344.000000"  transform="rotate(0.000000,174.000000,344.000000)" style="stroke: black; stroke-width:0.25;"/>
<line x1="165.000000" y1="319.000000" x2="165.000000" y2="361.000000"  style="stroke: black; stroke-linecap:round; stroke-width:0.25; stroke-dasharray:3,3;"/>
<line x1="165.000000" y1="361.000000" x2="207.000000" y2="361.000000"  style="stroke: black; stroke-linecap:round; stroke-width:0.25; stroke-dasharray:3,3;"/>
<line x1="207.000000" y1="361.000000" x2="207.000000" y2="319.000000"  style="stroke: black; stroke-linecap:round; stroke-width:0.25; stroke-dasharray:3,3;"/>
<line x1="165.000000" y1="319.000000" x2="170.000000" y2="319.000000"  style="stroke: black; stroke-linecap:round; stroke-width:0.25; stroke-dasharray:3,3;"/>
<line x1="189.350000" y1="319.000000" x2="207.000000" y2="319.000000"  style="stroke: black; stroke-linecap:round; stroke-width:0.25; stroke-dasharray:3,3;"/>
<text x="170.000000" y="321.000000" font-family="Arial" font-size="7">fmin</text>
<rect x="225.000000" y="303.000000" width="24.000000" height="24.000000" rx="0" ry="0" style="stroke:none;fill:#cccccc;"/>
<rect x="224.000000" y="302.000000" width="24.000000" height="24.000000" rx="0" ry="0" style="stroke:none;fill:#4B71A1;"/>
<text x="236.000000" y="316.000000" font-family="Arial" font-size="7" text-anchor="middle" fill="#FFFFFF">-</text>
<circle cx="226.000000" cy="304.000000" r="1"/>
<line x1="221.000000" y1="309.000000" x2="224.000000" y2="310.000000"  transform="rotate(0.000000,224.000000,310.000000)" style="stroke: black; stroke-width:0.25;"/>
<line x1="221.000000" y1="311.000000" x2="224.000000" y2="310.000000"  transform="rotate(0.000000,224.000000,310.000000)" style="stroke: black; stroke-width:0.25;"/>
<line x1="221.000000" y1="317.000000" x2="224.000000" y2="318.000000"  transform="rotate(0.000000,224.000000,318.000000)" style="stroke: black; stroke-width:0.25;"/>
<line x1="221.000000" y1="319.000000" x2="224.000000" y2="318.000000"  transform="rotate(0.000000,224.000000,318.000000)" style="stroke: black; stroke-width:0.25;"/>
<rect x="265.000000" y="287.000000" width="24.000000" height="24.000000" rx="0" ry="0" style="stroke:none;fill:#cccccc;"/>
<rect x="264.000000" y="286.000000" width="24.000000" height="24.000000" rx="0" ry="0" style="stroke:none;fill:#4B71A1;"/>
<text x="276.000000" y="300.000000" font-family="Arial" font-size="7" text-anchor="middle" fill="#FFFFFF">*</text>
<circle cx="266.000000" cy="288.000000" r="1"/>
<line x1="261.000000" y1="293.000000" x2="264.000000" y2="294.000000"  transform="rotate(0.000000,264.000000,294.000000)" style="stroke: black; stroke-width:0.25;"/>
<line x1="261.000000" y1="295.000000" x2="264.000000" y2="294.000000"  transform="rotate(0.000000,264.000000,294.000000)" style="stroke: black; stroke-width:0.25;"/>
<line x1="261.000000" y1="301.000000" x2="264.000000" y2="302.000000"  transform="rotate(0.000000,264.000000,302.000000)" style="stroke: black; stroke-width:0.25;"/>
<line x1="261.000000" y1="303.000000" x2="264.000000" y2="302.000000"  transform="rotate(0.000000,264.000000,302.000000)" style="stroke: black; stroke-width:0.25;"/>
<rect x="305.000000" y="203.000000" width="24.000000" height="24.000000" rx="0" ry="0" style="stroke:none;fill:#cccccc;"/>
<rect x="304.000000" y="202.000000" width="24.000000" height="24.000000" rx="0" ry="0" style="stroke:none;fill:#4B71A1;"/>
<text x="316.000000" y="216.000000" font-family="Arial" font-size="7" text-anchor="middle" fill="#FFFFFF">+</text>
<circle cx="306.000000" cy="204.000000" r="1"/>
<line x1="301.000000" y1="209.000000" x2="304.000000" y2="210.000000"  transform="rotate(0.000000,304.000000,210.000000)" style="stroke: black; stroke-width:0.25;"/>
<line x1="301.000000" y1="211.000000" x2="304.000000" y2="210.000000"  transform="rotate(0.000000,304.000000,210.000000)" style="stroke: black; stroke-width:0.25;"/>
<line x1="301.000000" y1="217.000000" x2="304.000000" y2="218.000000"  transform="rotate(0.000000,304.000000,218.000000)" style="stroke: black; stroke-width:0.25;"/>
<line x1="301.000000" y1="219.000000" x2="304.000000" y2="218.000000"  transform="rotate(0.000000,304.000000,218.000000)" style="stroke: black; stroke-width:0.25;"/>
<line x1="15.000000" y1="15.000000" x2="15.000000" y2="413.000000"  style="stroke: black; stroke-linecap:round; stroke-width:0.25; stroke-dasharray:3,3;"/>
<line x1="15.000000" y1="413.000000" x2="345.000000" y2="413.000000"  style="stroke: black; stroke-linecap:round; stroke-width:0.25; stroke-dasharray:3,3;"/>
<line x1="345.000000" y1="413.000000" x2="345.000000" y2="15.000000"  style="stroke: black; stroke-linecap:round; stroke-width:0.25; stroke-dasharray:3,3;"/>
<line x1="15.000000" y1="15.000000" x2="20.000000" y2="15.000000"  style="stroke: black; stroke-linecap:round; stroke-width:0.25; stroke-dasharray:3,3;"/>
<line x1="155.450000" y1="15.000000" x2="345.000000" y2="15.000000"  style="stroke: black; stroke-linecap:round; stroke-width:0.25; stroke-dasharray:3,3;"/>
<text x="20.000000" y="17.000000" font-family="Arial" font-size="7">sampleread((1...: +),261 : /)(1,x40 : -)</text>
<line x1="347.000000" y1="213.000000" x2="350.000000" y2="214.000000"  transform="rotate(0.000000,350.000000,214.000000)" style="stroke: black; stroke-width:0.25;"/>
<line x1="347.000000" y1="215.000000" x2="350.000000" y2="214.000000"  transform="rotate(0.000000,350.000000,214.000000)" style="stroke: black; stroke-width:0.25;"/>
<line x1="10.000000" y1="214.000000" x2="20.000000" y2="214.000000"  style="stroke:black; stroke-linecap:round; stroke-width:0.25;"/>
<line x1="20.000000" y1="214.000000" x2="24.000000" y2="214.000000"  style="stroke:black; stroke-linecap:round; stroke-width:0.25;"/>
<line x1="24.000000" y1="214.000000" x2="28.000000" y2="214.000000"  style="stroke:black; stroke-linecap:round; stroke-width:0.25;"/>
<line x1="28.000000" y1="214.000000" x2="28.000000" y2="214.000000"  style="stroke:black; stroke-linecap:round; stroke-width:0.25;"/>
<line x1="28.000000" y1="214.000000" x2="32.000000" y2="214.000000"  style="stroke:black; stroke-linecap:round; stroke-width:0.25;"/>
<line x1="98.000000" y1="288.000000" x2="102.000000" y2="288.000000"  style="stroke:black; stroke-linecap:round; stroke-width:0.25;"/>
<line x1="98.000000" y1="330.000000" x2="102.000000" y2="330.000000"  style="stroke:black; stroke-linecap:round; stroke-width:0.25;"/>
<line x1="102.000000" y1="288.000000" x2="112.000000" y2="288.000000"  style="stroke:black; stroke-linecap:round; stroke-width:0.25;"/>
<line x1="102.000000" y1="330.000000" x2="112.000000" y2="330.000000"  style="stroke:black; stroke-linecap:round; stroke-width:0.25;"/>
<line x1="112.000000" y1="288.000000" x2="120.000000" y2="288.000000"  style="stroke:black; stroke-linecap:round; stroke-width:0.25;"/>
<line x1="112.000000" y1="318.000000" x2="120.000000" y2="318.000000"  style="stroke:black; stroke-linecap:round; stroke-width:0.25;"/>
<line x1="112.000000" y1="330.000000" x2="112.000000" y2="318.000000"  style="stroke:black; stroke-linecap:round; stroke-width:0.25;"/>
<line x1="112.000000" y1="330.000000" x2="112.000000" y2="330.000000"  style="stroke:black; stroke-linecap:round; stroke-width:0.25;"/>
<line x1="118.000000" y1="68.000000" x2="122.000000" y2="68.000000"  style="stroke:black; stroke-linecap:round; stroke-width:0.25;"/>
<line x1="118.000000" y1="110.000000" x2="122.000000" y2="110.000000"  style="stroke:black; stroke-linecap:round; stroke-width:0.25;"/>
<line x1="118.000000" y1="382.000000" x2="122.000000" y2="382.000000"  style="stroke:black; stroke-linecap:round; stroke-width:0.25;"/>
<line x1="120.000000" y1="288.000000" x2="120.000000" y2="310.000000"  style="stroke:black; stroke-linecap:round; stroke-width:0.25;"/>
<line x1="120.000000" y1="310.000000" x2="120.000000" y2="310.000000"  style="stroke:black; stroke-linecap:round; stroke-width:0.25;"/>
<line x1="120.000000" y1="310.000000" x2="124.000000" y2="310.000000"  style="stroke:black; stroke-linecap:round; stroke-width:0.25;"/>
<line x1="120.000000" y1="318.000000" x2="124.000000" y2="318.000000"  style="stroke:black; stroke-linecap:round; stroke-width:0.25;"/>
<line x1="122.000000" y1="68.000000" x2="132.000000" y2="68.000000"  style="stroke:black; stroke-linecap:round; stroke-width:0.25;"/>
<line x1="122.000000" y1="110.000000" x2="132.000000" y2="110.000000"  style="stroke:black; stroke-linecap:round; stroke-width:0.25;"/>
<line x1="122.000000" y1="382.000000" x2="132.000000" y2="382.000000"  style="stroke:black; stroke-linecap:round; stroke-width:0.25;"/>
<line x1="132.000000" y1="68.000000" x2="140.000000" y2="68.000000"  style="stroke:black; stroke-linecap:round; stroke-width:0.25;"/>
<line x1="132.000000" y1="98.000000" x2="140.000000" y2="98.000000"  style="stroke:black; stroke-linecap:round; stroke-width:0.25;"/>
<line x1="132.000000" y1="110.000000" x2="132.000000" y2="98.000000"  style="stroke:black; stroke-linecap:round; stroke-width:0.25;"/>
<line x1="132.000000" y1="110.000000" x2="132.000000" y2="110.000000"  style="stroke:black; stroke-linecap:round; stroke-width:0.25;"/>
<line x1="132.000000" y1="382.000000" x2="152.000000" y2="382.000000"  style="stroke:black; stroke-linecap:round; stroke-width:0.25;"/>
<line x1="138.000000" y1="162.000000" x2="142.000000" y2="162.000000"  style="stroke:black; stroke-linecap:round; stroke-width:0.25;"/>
<line x1="140.000000" y1="68.000000" x2="140.000000" y2="90.000000"  style="stroke:black; stroke-linecap:round; stroke-width:0.25;"/>
<line x1="140.000000" y1="90.000000" x2="140.000000" y2="90.000000"  style="stroke:black; stroke-linecap:round; stroke-width:0.25;"/>
<line x1="140.000000" y1="90.000000" x2="144.000000" y2="90.000000"  style="stroke:black; stroke-linecap:round; stroke-width:0.25;"/>
<line x1="140.000000" y1="98.000000" x2="144.000000" y2="98.000000"  style="stroke:black; stroke-linecap:round; stroke-width:0.25;"/>
<line x1="142.000000" y1="162.000000" x2="152.000000" y2="162.000000"  style="stroke:black; stroke-linecap:round; stroke-width:0.25;"/>
<line x1="148.000000" y1="246.000000" x2="152.000000" y2="246.000000"  style="stroke:black; stroke-linecap:round; stroke-width:0.25;"/>
<line x1="148.000000" y1="314.000000" x2="152.000000" y2="314.000000"  style="stroke:black; stroke-linecap:round; stroke-width:0.25;"/>
<line x1="152.000000" y1="162.000000" x2="172.000000" y2="162.000000"  style="stroke:black; stroke-linecap:round; stroke-width:0.25;"/>
<line x1="152.000000" y1="246.000000" x2="162.000000" y2="246.000000"  style="stroke:black; stroke-linecap:round; stroke-width:0.25;"/>
<line x1="152.000000" y1="314.000000" x2="160.000000" y2="314.000000"  style="stroke:black; stroke-linecap:round; stroke-width:0.25;"/>
<line x1="152.000000" y1="344.000000" x2="160.000000" y2="344.000000"  style="stroke:black; stroke-linecap:round; stroke-width:0.25;"/>
<line x1="152.000000" y1="382.000000" x2="152.000000" y2="344.000000"  style="stroke:black; stroke-linecap:round; stroke-width:0.25;"/>
<line x1="152.000000" y1="382.000000" x2="152.000000" y2="382.000000"  style="stroke:black; stroke-linecap:round; stroke-width:0.25;"/>
<line x1="160.000000" y1="314.000000" x2="160.000000" y2="336.000000"  style="stroke:black; stroke-linecap:round; stroke-width:0.25;"/>
<line x1="160.000000" y1="336.000000" x2="160.000000" y2="336.000000"  style="stroke:black; stroke-linecap:round; stroke-width:0.25;"/>
<line x1="160.000000" y1="336.000000" x2="170.000000" y2="336.000000"  style="stroke:black; stroke-linecap:round; stroke-width:0.25;"/>
<line x1="160.000000" y1="344.000000" x2="170.000000" y2="344.000000"  style="stroke:black; stroke-linecap:round; stroke-width:0.25;"/>
<line x1="162.000000" y1="246.000000" x2="212.000000" y2="246.000000"  style="stroke:black; stroke-linecap:round; stroke-width:0.25;"/>
<line x1="168.000000" y1="94.000000" x2="172.000000" y2="94.000000"  style="stroke:black; stroke-linecap:round; stroke-width:0.25;"/>
<line x1="170.000000" y1="336.000000" x2="174.000000" y2="336.000000"  style="stroke:black; stroke-linecap:round; stroke-width:0.25;"/>
<line x1="170.000000" y1="344.000000" x2="174.000000" y2="344.000000"  style="stroke:black; stroke-linecap:round; stroke-width:0.25;"/>
<line x1="172.000000" y1="94.000000" x2="180.000000" y2="94.000000"  style="stroke:black; stroke-linecap:round; stroke-width:0.25;"/>
<line x1="172.000000" y1="124.000000" x2="180.000000" y2="124.000000"  style="stroke:black; stroke-linecap:round; stroke-width:0.25;"/>
<line x1="172.000000" y1="162.000000" x2="172.000000" y2="124.000000"  style="stroke:black; stroke-linecap:round; stroke-width:0.25;"/>
<line x1="172.000000" y1="162.000000" x2="172.000000" y2="162.000000"  style="stroke:black; stroke-linecap:round; stroke-width:0.25;"/>
<line x1="180.000000" y1="94.000000" x2="180.000000" y2="116.000000"  style="stroke:black; stroke-linecap:round; stroke-width:0.25;"/>
<line x1="180.000000" y1="116.000000" x2="180.000000" y2="116.000000"  style="stroke:black; stroke-linecap:round; stroke-width:0.25;"/>
<line x1="180.000000" y1="116.000000" x2="190.000000" y2="116.000000"  style="stroke:black; stroke-linecap:round; stroke-width:0.25;"/>
<line x1="180.000000" y1="124.000000" x2="190.000000" y2="124.000000"  style="stroke:black; stroke-linecap:round; stroke-width:0.25;"/>
<line x1="190.000000" y1="116.000000" x2="194.000000" y2="116.000000"  style="stroke:black; stroke-linecap:round; stroke-width:0.25;"/>
<line x1="190.000000" y1="124.000000" x2="194.000000" y2="124.000000"  style="stroke:black; stroke-linecap:round; stroke-width:0.25;"/>
<line x1="198.000000" y1="340.000000" x2="202.000000" y2="340.000000"  style="stroke:black; stroke-linecap:round; stroke-width:0.25;"/>
<line x1="202.000000" y1="340.000000" x2="212.000000" y2="340.000000"  style="stroke:black; stroke-linecap:round; stroke-width:0.25;"/>
<line x1="212.000000" y1="246.000000" x2="220.000000" y2="246.000000"  style="stroke:black; stroke-linecap:round; stroke-width:0.25;"/>
<line x1="212.000000" y1="318.000000" x2="220.000000" y2="318.000000"  style="stroke:black; stroke-linecap:round; stroke-width:0.25;"/>
<line x1="212.000000" y1="340.000000" x2="212.000000" y2="318.000000"  style="stroke:black; stroke-linecap:round; stroke-width:0.25;"/>
<line x1="212.000000" y1="340.000000" x2="212.000000" y2="340.000000"  style="stroke:black; stroke-linecap:round; stroke-width:0.25;"/>
<line x1="218.000000" y1="120.000000" x2="222.000000" y2="120.000000"  style="stroke:black; stroke-linecap:round; stroke-width:0.25;"/>
<line x1="220.000000" y1="246.000000" x2="220.000000" y2="310.000000"  style="stroke:black; stroke-linecap:round; stroke-width:0.25;"/>
<line x1="220.000000" y1="310.000000" x2="220.000000" y2="310.000000"  style="stroke:black; stroke-linecap:round; stroke-width:0.25;"/>
<line x1="220.000000" y1="310.000000" x2="224.000000" y2="310.000000"  style="stroke:black; stroke-linecap:round; stroke-width:0.25;"/>
<line x1="220.000000" y1="318.000000" x2="224.000000" y2="318.000000"  style="stroke:black; stroke-linecap:round; stroke-width:0.25;"/>
<line x1="222.000000" y1="120.000000" x2="232.000000" y2="120.000000"  style="stroke:black; stroke-linecap:round; stroke-width:0.25;"/>
<line x1="232.000000" y1="120.000000" x2="237.400000" y2="120.000000"  style="stroke:black; stroke-linecap:round; stroke-width:0.25;"/>
<line x1="233.400000" y1="36.000000" x2="237.400000" y2="36.000000"  style="stroke:black; stroke-linecap:round; stroke-width:0.25;"/>
<line x1="233.400000" y1="204.000000" x2="237.400000" y2="204.000000"  style="stroke:black; stroke-linecap:round; stroke-width:0.25;"/>
<line x1="237.400000" y1="36.000000" x2="245.400000" y2="36.000000"  style="stroke:black; stroke-linecap:round; stroke-width:0.25;"/>
<line x1="237.400000" y1="108.000000" x2="245.400000" y2="108.000000"  style="stroke:black; stroke-linecap:round; stroke-width:0.25;"/>
<line x1="237.400000" y1="120.000000" x2="237.400000" y2="108.000000"  style="stroke:black; stroke-linecap:round; stroke-width:0.25;"/>
<line x1="237.400000" y1="120.000000" x2="237.400000" y2="120.000000"  style="stroke:black; stroke-linecap:round; stroke-width:0.25;"/>
<line x1="237.400000" y1="204.000000" x2="252.000000" y2="204.000000"  style="stroke:black; stroke-linecap:round; stroke-width:0.25;"/>
<line x1="245.400000" y1="36.000000" x2="245.400000" y2="100.000000"  style="stroke:black; stroke-linecap:round; stroke-width:0.25;"/>
<line x1="245.400000" y1="100.000000" x2="245.400000" y2="100.000000"  style="stroke:black; stroke-linecap:round; stroke-width:0.25;"/>
<line x1="245.400000" y1="100.000000" x2="249.400000" y2="100.000000"  style="stroke:black; stroke-linecap:round; stroke-width:0.25;"/>
<line x1="245.400000" y1="108.000000" x2="249.400000" y2="108.000000"  style="stroke:black; stroke-linecap:round; stroke-width:0.25;"/>
<line x1="248.000000" y1="314.000000" x2="252.000000" y2="314.000000"  style="stroke:black; stroke-linecap:round; stroke-width:0.25;"/>
<line x1="252.000000" y1="204.000000" x2="260.000000" y2="204.000000"  style="stroke:black; stroke-linecap:round; stroke-width:0.25;"/>
<line x1="252.000000" y1="302.000000" x2="260.000000" y2="302.000000"  style="stroke:black; stroke-linecap:round; stroke-width:0.25;"/>
<line x1="252.000000" y1="314.000000" x2="252.000000" y2="302.000000"  style="stroke:black; stroke-linecap:round; stroke-width:0.25;"/>
<line x1="252.000000" y1="314.000000" x2="252.000000" y2="314.000000"  style="stroke:black; stroke-linecap:round; stroke-width:0.25;"/>
<line x1="260.000000" y1="204.000000" x2="260.000000" y2="294.000000"  style="stroke:black; stroke-linecap:round; stroke-width:0.25;"/>
<line x1="260.000000" y1="294.000000" x2="260.000000" y2="294.000000"  style="stroke:black; stroke-linecap:round; stroke-width:0.25;"/>
<line x1="260.000000" y1="294.000000" x2="264.000000" y2="294.000000"  style="stroke:black; stroke-linecap:round; stroke-width:0.25;"/>
<line x1="260.000000" y1="302.000000" x2="264.000000" y2="302.000000"  style="stroke:black; stroke-linecap:round; stroke-width:0.25;"/>
<line x1="273.400000" y1="104.000000" x2="277.400000" y2="104.000000"  style="stroke:black; stroke-linecap:round; stroke-width:0.25;"/>
<line x1="277.400000" y1="104.000000" x2="292.000000" y2="104.000000"  style="stroke:black; stroke-linecap:round; stroke-width:0.25;"/>
<line x1="288.000000" y1="298.000000" x2="292.000000" y2="298.000000"  style="stroke:black; stroke-linecap:round; stroke-width:0.25;"/>
<line x1="292.000000" y1="104.000000" x2="300.000000" y2="104.000000"  style="stroke:black; stroke-linecap:round; stroke-width:0.25;"/>
<line x1="292.000000" y1="218.000000" x2="300.000000" y2="218.000000"  style="stroke:black; stroke-linecap:round; stroke-width:0.25;"/>
<line x1="292.000000" y1="298.000000" x2="292.000000" y2="218.000000"  style="stroke:black; stroke-linecap:round; stroke-width:0.25;"/>
<line x1="292.000000" y1="298.000000" x2="292.000000" y2="298.000000"  style="stroke:black; stroke-linecap:round; stroke-width:0.25;"/>
<line x1="300.000000" y1="104.000000" x2="300.000000" y2="210.000000"  style="stroke:black; stroke-linecap:round; stroke-width:0.25;"/>
<line x1="300.000000" y1="210.000000" x2="300.000000" y2="210.000000"  style="stroke:black; stroke-linecap:round; stroke-width:0.25;"/>
<line x1="300.000000" y1="210.000000" x2="304.000000" y2="210.000000"  style="stroke:black; stroke-linecap:round; stroke-width:0.25;"/>
<line x1="300.000000" y1="218.000000" x2="304.000000" y2="218.000000"  style="stroke:black; stroke-linecap:round; stroke-width:0.25;"/>
<line x1="328.000000" y1="214.000000" x2="332.000000" y2="214.000000"  style="stroke:black; stroke-linecap:round; stroke-width:0.25;"/>
<line x1="332.000000" y1="214.000000" x2="332.000000" y2="214.000000"  style="stroke:black; stroke-linecap:round; stroke-width:0.25;"/>
<line x1="332.000000" y1="214.000000" x2="336.000000" y2="214.000000"  style="stroke:black; stroke-linecap:round; stroke-width:0.25;"/>
<line x1="336.000000" y1="214.000000" x2="340.000000" y2="214.000000"  style="stroke:black; stroke-linecap:round; stroke-width:0.25;"/>
<line x1="340.000000" y1="214.000000" x2="350.000000" y2="214.000000"  style="stroke:black; stroke-linecap:round; stroke-width:0.25;"/>
</svg>
