<?xml version="1.0"?>
<svg xmlns="http://www.w3.org/2000/svg" xmlns:xlink="http://www.w3.org/1999/xlink" viewBox="0 0 277.900000 136.000000" width="138.950000mm" height="68.000000mm" version="1.1">
<a xlink:href="triangle3-0x7fb5b4b33da0.svg">
<rect x="1.000000" y="1.000000" width="276.900000" height="135.000000" rx="0" ry="0" style="stroke:none;fill:#cccccc;"/>
<rect x="0.000000" y="0.000000" width="276.900000" height="135.000000" rx="0" ry="0" style="stroke:none;fill:#ffffff;"/>
</a>
<text x="10.000000" y="7.000000" font-family="Arial" font-size="7"></text>
<rect x="83.950000" y="25.000000" width="24.000000" height="24.000000" rx="0" ry="0" style="stroke:none;fill:#cccccc;"/>
<rect x="82.950000" y="24.000000" width="24.000000" height="24.000000" rx="0" ry="0" style="stroke:none;fill:#f44800;"/>
<text x="94.950000" y="38.000000" font-family="Arial" font-size="7" text-anchor="middle" fill="#FFFFFF">2</text>
<circle cx="84.950000" cy="26.000000" r="1"/>
<a xlink:href="lf-0x7fb5b49703c0.svg">
<rect x="25.000000" y="57.000000" width="141.900000" height="24.000000" rx="0" ry="0" style="stroke:none;fill:#cccccc;"/>
<rect x="24.000000" y="56.000000" width="141.900000" height="24.000000" rx="0" ry="0" style="stroke:none;fill:#003366;"/>
</a>
<a xlink:href="lf-0x7fb5b49703c0.svg">
<text x="94.950000" y="70.000000" font-family="Arial" font-size="7" text-anchor="middle" fill="#FFFFFF">lf_sawpos(0.025000000000000001f)</text>
</a>
<circle cx="26.000000" cy="58.000000" r="1"/>
<rect x="182.900000" y="41.000000" width="24.000000" height="24.000000" rx="0" ry="0" style="stroke:none;fill:#cccccc;"/>
<rect x="181.900000" y="40.000000" width="24.000000" height="24.000000" rx="0" ry="0" style="stroke:none;fill:#4B71A1;"/>
<text x="193.900000" y="54.000000" font-family="Arial" font-size="7" text-anchor="middle" fill="#FFFFFF">*</text>
<circle cx="183.900000" cy="42.000000" r="1"/>
<line x1="178.900000" y1="47.000000" x2="181.900000" y2="48.000000"  transform="rotate(0.000000,181.900000,48.000000)" style="stroke: black; stroke-width:0.25;"/>
<line x1="178.900000" y1="49.000000" x2="181.900000" y2="48.000000"  transform="rotate(0.000000,181.900000,48.000000)" style="stroke: black; stroke-width:0.25;"/>
<line x1="178.900000" y1="55.000000" x2="181.900000" y2="56.000000"  transform="rotate(0.000000,181.900000,56.000000)" style="stroke: black; stroke-width:0.25;"/>
<line x1="178.900000" y1="57.000000" x2="181.900000" y2="56.000000"  transform="rotate(0.000000,181.900000,56.000000)" style="stroke: black; stroke-width:0.25;"/>
<rect x="103.950000" y="89.000000" width="24.000000" height="24.000000" rx="0" ry="0" style="stroke:none;fill:#cccccc;"/>
<rect x="102.950000" y="88.000000" width="24.000000" height="24.000000" rx="0" ry="0" style="stroke:none;fill:#f44800;"/>
<text x="114.950000" y="102.000000" font-family="Arial" font-size="7" text-anchor="middle" fill="#FFFFFF">1</text>
<circle cx="104.950000" cy="90.000000" r="1"/>
<rect x="222.900000" y="57.000000" width="24.000000" height="24.000000" rx="0" ry="0" style="stroke:none;fill:#cccccc;"/>
<rect x="221.900000" y="56.000000" width="24.000000" height="24.000000" rx="0" ry="0" style="stroke:none;fill:#4B71A1;"/>
<text x="233.900000" y="70.000000" font-family="Arial" font-size="7" text-anchor="middle" fill="#FFFFFF">-</text>
<circle cx="223.900000" cy="58.000000" r="1"/>
<line x1="218.900000" y1="63.000000" x2="221.900000" y2="64.000000"  transform="rotate(0.000000,221.900000,64.000000)" style="stroke: black; stroke-width:0.25;"/>
<line x1="218.900000" y1="65.000000" x2="221.900000" y2="64.000000"  transform="rotate(0.000000,221.900000,64.000000)" style="stroke: black; stroke-width:0.25;"/>
<line x1="218.900000" y1="71.000000" x2="221.900000" y2="72.000000"  transform="rotate(0.000000,221.900000,72.000000)" style="stroke: black; stroke-width:0.25;"/>
<line x1="218.900000" y1="73.000000" x2="221.900000" y2="72.000000"  transform="rotate(0.000000,221.900000,72.000000)" style="stroke: black; stroke-width:0.25;"/>
<line x1="15.000000" y1="15.000000" x2="15.000000" y2="121.000000"  style="stroke: black; stroke-linecap:round; stroke-width:0.25; stroke-dasharray:3,3;"/>
<line x1="15.000000" y1="121.000000" x2="262.900000" y2="121.000000"  style="stroke: black; stroke-linecap:round; stroke-width:0.25; stroke-dasharray:3,3;"/>
<line x1="262.900000" y1="121.000000" x2="262.900000" y2="15.000000"  style="stroke: black; stroke-linecap:round; stroke-width:0.25; stroke-dasharray:3,3;"/>
<line x1="15.000000" y1="15.000000" x2="20.000000" y2="15.000000"  style="stroke: black; stroke-linecap:round; stroke-width:0.25; stroke-dasharray:3,3;"/>
<line x1="113.525000" y1="15.000000" x2="262.900000" y2="15.000000"  style="stroke: black; stroke-linecap:round; stroke-width:0.25; stroke-dasharray:3,3;"/>
<text x="20.000000" y="17.000000" font-family="Arial" font-size="7">saw1(0.025000000000000001f)</text>
<line x1="264.900000" y1="67.000000" x2="267.900000" y2="68.000000"  transform="rotate(0.000000,267.900000,68.000000)" style="stroke: black; stroke-width:0.25;"/>
<line x1="264.900000" y1="69.000000" x2="267.900000" y2="68.000000"  transform="rotate(0.000000,267.900000,68.000000)" style="stroke: black; stroke-width:0.25;"/>
<line x1="106.950000" y1="36.000000" x2="110.950000" y2="36.000000"  style="stroke:black; stroke-linecap:round; stroke-width:0.25;"/>
<line x1="110.950000" y1="36.000000" x2="169.900000" y2="36.000000"  style="stroke:black; stroke-linecap:round; stroke-width:0.25;"/>
<line x1="126.950000" y1="100.000000" x2="130.950000" y2="100.000000"  style="stroke:black; stroke-linecap:round; stroke-width:0.25;"/>
<line x1="130.950000" y1="100.000000" x2="209.900000" y2="100.000000"  style="stroke:black; stroke-linecap:round; stroke-width:0.25;"/>
<line x1="165.900000" y1="68.000000" x2="169.900000" y2="68.000000"  style="stroke:black; stroke-linecap:round; stroke-width:0.25;"/>
<line x1="169.900000" y1="36.000000" x2="177.900000" y2="36.000000"  style="stroke:black; stroke-linecap:round; stroke-width:0.25;"/>
<line x1="169.900000" y1="56.000000" x2="177.900000" y2="56.000000"  style="stroke:black; stroke-linecap:round; stroke-width:0.25;"/>
<line x1="169.900000" y1="68.000000" x2="169.900000" y2="56.000000"  style="stroke:black; stroke-linecap:round; stroke-width:0.25;"/>
<line x1="169.900000" y1="68.000000" x2="169.900000" y2="68.000000"  style="stroke:black; stroke-linecap:round; stroke-width:0.25;"/>
<line x1="177.900000" y1="36.000000" x2="177.900000" y2="48.000000"  style="stroke:black; stroke-linecap:round; stroke-width:0.25;"/>
<line x1="177.900000" y1="48.000000" x2="177.900000" y2="48.000000"  style="stroke:black; stroke-linecap:round; stroke-width:0.25;"/>
<line x1="177.900000" y1="48.000000" x2="181.900000" y2="48.000000"  style="stroke:black; stroke-linecap:round; stroke-width:0.25;"/>
<line x1="177.900000" y1="56.000000" x2="181.900000" y2="56.000000"  style="stroke:black; stroke-linecap:round; stroke-width:0.25;"/>
<line x1="205.900000" y1="52.000000" x2="209.900000" y2="52.000000"  style="stroke:black; stroke-linecap:round; stroke-width:0.25;"/>
<line x1="209.900000" y1="72.000000" x2="217.900000" y2="72.000000"  style="stroke:black; stroke-linecap:round; stroke-width:0.25;"/>
<line x1="209.900000" y1="100.000000" x2="209.900000" y2="72.000000"  style="stroke:black; stroke-linecap:round; stroke-width:0.25;"/>
<line x1="209.900000" y1="100.000000" x2="209.900000" y2="100.000000"  style="stroke:black; stroke-linecap:round; stroke-width:0.25;"/>
<line x1="209.900000" y1="52.000000" x2="217.900000" y2="52.000000"  style="stroke:black; stroke-linecap:round; stroke-width:0.25;"/>
<line x1="217.900000" y1="52.000000" x2="217.900000" y2="64.000000"  style="stroke:black; stroke-linecap:round; stroke-width:0.25;"/>
<line x1="217.900000" y1="64.000000" x2="217.900000" y2="64.000000"  style="stroke:black; stroke-linecap:round; stroke-width:0.25;"/>
<line x1="217.900000" y1="64.000000" x2="221.900000" y2="64.000000"  style="stroke:black; stroke-linecap:round; stroke-width:0.25;"/>
<line x1="217.900000" y1="72.000000" x2="221.900000" y2="72.000000"  style="stroke:black; stroke-linecap:round; stroke-width:0.25;"/>
<line x1="245.900000" y1="68.000000" x2="249.900000" y2="68.000000"  style="stroke:black; stroke-linecap:round; stroke-width:0.25;"/>
<line x1="249.900000" y1="68.000000" x2="249.900000" y2="68.000000"  style="stroke:black; stroke-linecap:round; stroke-width:0.25;"/>
<line x1="249.900000" y1="68.000000" x2="253.900000" y2="68.000000"  style="stroke:black; stroke-linecap:round; stroke-width:0.25;"/>
<line x1="253.900000" y1="68.000000" x2="257.900000" y2="68.000000"  style="stroke:black; stroke-linecap:round; stroke-width:0.25;"/>
<line x1="257.900000" y1="68.000000" x2="267.900000" y2="68.000000"  style="stroke:black; stroke-linecap:round; stroke-width:0.25;"/>
</svg>
