<?xml version="1.0"?>
<svg xmlns="http://www.w3.org/2000/svg" xmlns:xlink="http://www.w3.org/1999/xlink" viewBox="0 0 298.800000 184.000000" width="149.400000mm" height="92.000000mm" version="1.1">
<a xlink:href="process.svg">
<rect x="1.000000" y="1.000000" width="297.800000" height="183.000000" rx="0" ry="0" style="stroke:none;fill:#cccccc;"/>
<rect x="0.000000" y="0.000000" width="297.800000" height="183.000000" rx="0" ry="0" style="stroke:none;fill:#ffffff;"/>
</a>
<text x="10.000000" y="7.000000" font-family="Arial" font-size="7"></text>
<a xlink:href="delay-0x7f05bb0623c0.svg">
<rect x="81.000000" y="41.000000" width="154.800000" height="24.000000" rx="0" ry="0" style="stroke:none;fill:#cccccc;"/>
<rect x="80.000000" y="40.000000" width="154.800000" height="24.000000" rx="0" ry="0" style="stroke:none;fill:#003366;"/>
</a>
<a xlink:href="delay-0x7f05bb0623c0.svg">
<text x="157.400000" y="54.000000" font-family="Arial" font-size="7" text-anchor="middle" fill="#FFFFFF">delay(65536)(0.017441860465116279f)</text>
</a>
<circle cx="82.000000" cy="42.000000" r="1"/>
<line x1="77.000000" y1="51.000000" x2="80.000000" y2="52.000000"  transform="rotate(0.000000,80.000000,52.000000)" style="stroke: black; stroke-width:0.25;"/>
<line x1="77.000000" y1="53.000000" x2="80.000000" y2="52.000000"  transform="rotate(0.000000,80.000000,52.000000)" style="stroke: black; stroke-width:0.25;"/>
<a xlink:href="delay-0x7f05bb0623c0.svg">
<rect x="81.000000" y="73.000000" width="154.800000" height="24.000000" rx="0" ry="0" style="stroke:none;fill:#cccccc;"/>
<rect x="80.000000" y="72.000000" width="154.800000" height="24.000000" rx="0" ry="0" style="stroke:none;fill:#003366;"/>
</a>
<a xlink:href="delay-0x7f05bb0623c0.svg">
<text x="157.400000" y="86.000000" font-family="Arial" font-size="7" text-anchor="middle" fill="#FFFFFF">delay(65536)(0.017441860465116279f)</text>
</a>
<circle cx="82.000000" cy="74.000000" r="1"/>
<line x1="77.000000" y1="83.000000" x2="80.000000" y2="84.000000"  transform="rotate(0.000000,80.000000,84.000000)" style="stroke: black; stroke-width:0.25;"/>
<line x1="77.000000" y1="85.000000" x2="80.000000" y2="84.000000"  transform="rotate(0.000000,80.000000,84.000000)" style="stroke: black; stroke-width:0.25;"/>
<a xlink:href="delay-0x7f05bb0649c0.svg">
<rect x="81.000000" y="105.000000" width="154.800000" height="24.000000" rx="0" ry="0" style="stroke:none;fill:#cccccc;"/>
<rect x="80.000000" y="104.000000" width="154.800000" height="24.000000" rx="0" ry="0" style="stroke:none;fill:#003366;"/>
</a>
<a xlink:href="delay-0x7f05bb0649c0.svg">
<text x="157.400000" y="118.000000" font-family="Arial" font-size="7" text-anchor="middle" fill="#FFFFFF">delay(65536)(0.034883720930232558f)</text>
</a>
<circle cx="82.000000" cy="106.000000" r="1"/>
<line x1="77.000000" y1="115.000000" x2="80.000000" y2="116.000000"  transform="rotate(0.000000,80.000000,116.000000)" style="stroke: black; stroke-width:0.25;"/>
<line x1="77.000000" y1="117.000000" x2="80.000000" y2="116.000000"  transform="rotate(0.000000,80.000000,116.000000)" style="stroke: black; stroke-width:0.25;"/>
<a xlink:href="delay-0x7f05bb0649c0.svg">
<rect x="81.000000" y="137.000000" width="154.800000" height="24.000000" rx="0" ry="0" style="stroke:none;fill:#cccccc;"/>
<rect x="80.000000" y="136.000000" width="154.800000" height="24.000000" rx="0" ry="0" style="stroke:none;fill:#003366;"/>
</a>
<a xlink:href="delay-0x7f05bb0649c0.svg">
<text x="157.400000" y="150.000000" font-family="Arial" font-size="7" text-anchor="middle" fill="#FFFFFF">delay(65536)(0.034883720930232558f)</text>
</a>
<circle cx="82.000000" cy="138.000000" r="1"/>
<line x1="77.000000" y1="147.000000" x2="80.000000" y2="148.000000"  transform="rotate(0.000000,80.000000,148.000000)" style="stroke: black; stroke-width:0.25;"/>
<line x1="77.000000" y1="149.000000" x2="80.000000" y2="148.000000"  transform="rotate(0.000000,80.000000,148.000000)" style="stroke: black; stroke-width:0.25;"/>
<line x1="15.000000" y1="15.000000" x2="15.000000" y2="169.000000"  style="stroke: black; stroke-linecap:round; stroke-width:0.25; stroke-dasharray:3,3;"/>
<line x1="15.000000" y1="169.000000" x2="283.800000" y2="169.000000"  style="stroke: black; stroke-linecap:round; stroke-width:0.25; stroke-dasharray:3,3;"/>
<line x1="283.800000" y1="169.000000" x2="283.800000" y2="15.000000"  style="stroke: black; stroke-linecap:round; stroke-width:0.25; stroke-dasharray:3,3;"/>
<line x1="15.000000" y1="15.000000" x2="20.000000" y2="15.000000"  style="stroke: black; stroke-linecap:round; stroke-width:0.25; stroke-dasharray:3,3;"/>
<line x1="68.375000" y1="15.000000" x2="283.800000" y2="15.000000"  style="stroke: black; stroke-linecap:round; stroke-width:0.25; stroke-dasharray:3,3;"/>
<text x="20.000000" y="17.000000" font-family="Arial" font-size="7">signal_flow_3</text>
<line x1="285.800000" y1="71.000000" x2="288.800000" y2="72.000000"  transform="rotate(0.000000,288.800000,72.000000)" style="stroke: black; stroke-width:0.25;"/>
<line x1="285.800000" y1="73.000000" x2="288.800000" y2="72.000000"  transform="rotate(0.000000,288.800000,72.000000)" style="stroke: black; stroke-width:0.25;"/>
<line x1="285.800000" y1="79.000000" x2="288.800000" y2="80.000000"  transform="rotate(0.000000,288.800000,80.000000)" style="stroke: black; stroke-width:0.25;"/>
<line x1="285.800000" y1="81.000000" x2="288.800000" y2="80.000000"  transform="rotate(0.000000,288.800000,80.000000)" style="stroke: black; stroke-width:0.25;"/>
<line x1="285.800000" y1="87.000000" x2="288.800000" y2="88.000000"  transform="rotate(0.000000,288.800000,88.000000)" style="stroke: black; stroke-width:0.25;"/>
<line x1="285.800000" y1="89.000000" x2="288.800000" y2="88.000000"  transform="rotate(0.000000,288.800000,88.000000)" style="stroke: black; stroke-width:0.25;"/>
<line x1="285.800000" y1="95.000000" x2="288.800000" y2="96.000000"  transform="rotate(0.000000,288.800000,96.000000)" style="stroke: black; stroke-width:0.25;"/>
<line x1="285.800000" y1="97.000000" x2="288.800000" y2="96.000000"  transform="rotate(0.000000,288.800000,96.000000)" style="stroke: black; stroke-width:0.25;"/>
<line x1="285.800000" y1="103.000000" x2="288.800000" y2="104.000000"  transform="rotate(0.000000,288.800000,104.000000)" style="stroke: black; stroke-width:0.25;"/>
<line x1="285.800000" y1="105.000000" x2="288.800000" y2="104.000000"  transform="rotate(0.000000,288.800000,104.000000)" style="stroke: black; stroke-width:0.25;"/>
<line x1="285.800000" y1="111.000000" x2="288.800000" y2="112.000000"  transform="rotate(0.000000,288.800000,112.000000)" style="stroke: black; stroke-width:0.25;"/>
<line x1="285.800000" y1="113.000000" x2="288.800000" y2="112.000000"  transform="rotate(0.000000,288.800000,112.000000)" style="stroke: black; stroke-width:0.25;"/>
<line x1="10.000000" y1="88.000000" x2="20.000000" y2="88.000000"  style="stroke:black; stroke-linecap:round; stroke-width:0.25;"/>
<line x1="10.000000" y1="96.000000" x2="20.000000" y2="96.000000"  style="stroke:black; stroke-linecap:round; stroke-width:0.25;"/>
<line x1="20.000000" y1="88.000000" x2="24.000000" y2="88.000000"  style="stroke:black; stroke-linecap:round; stroke-width:0.25;"/>
<line x1="20.000000" y1="96.000000" x2="24.000000" y2="96.000000"  style="stroke:black; stroke-linecap:round; stroke-width:0.25;"/>
<line x1="24.000000" y1="88.000000" x2="28.000000" y2="88.000000"  style="stroke:black; stroke-linecap:round; stroke-width:0.25;"/>
<line x1="24.000000" y1="96.000000" x2="28.000000" y2="96.000000"  style="stroke:black; stroke-linecap:round; stroke-width:0.25;"/>
<line x1="28.000000" y1="88.000000" x2="28.000000" y2="88.000000"  style="stroke:black; stroke-linecap:round; stroke-width:0.25;"/>
<line x1="28.000000" y1="88.000000" x2="32.000000" y2="88.000000"  style="stroke:black; stroke-linecap:round; stroke-width:0.25;"/>
<line x1="28.000000" y1="96.000000" x2="28.000000" y2="96.000000"  style="stroke:black; stroke-linecap:round; stroke-width:0.25;"/>
<line x1="28.000000" y1="96.000000" x2="32.000000" y2="96.000000"  style="stroke:black; stroke-linecap:round; stroke-width:0.25;"/>
<line x1="32.000000" y1="88.000000" x2="36.000000" y2="88.000000"  style="stroke:black; stroke-linecap:round; stroke-width:0.25;"/>
<line x1="32.000000" y1="96.000000" x2="36.000000" y2="96.000000"  style="stroke:black; stroke-linecap:round; stroke-width:0.25;"/>
<line x1="36.000000" y1="88.000000" x2="76.000000" y2="24.000000"  style="stroke:black; stroke-linecap:round; stroke-width:0.25;"/>
<line x1="36.000000" y1="88.000000" x2="76.000000" y2="52.000000"  style="stroke:black; stroke-linecap:round; stroke-width:0.25;"/>
<line x1="36.000000" y1="88.000000" x2="76.000000" y2="116.000000"  style="stroke:black; stroke-linecap:round; stroke-width:0.25;"/>
<line x1="36.000000" y1="96.000000" x2="76.000000" y2="32.000000"  style="stroke:black; stroke-linecap:round; stroke-width:0.25;"/>
<line x1="36.000000" y1="96.000000" x2="76.000000" y2="84.000000"  style="stroke:black; stroke-linecap:round; stroke-width:0.25;"/>
<line x1="36.000000" y1="96.000000" x2="76.000000" y2="148.000000"  style="stroke:black; stroke-linecap:round; stroke-width:0.25;"/>
<line x1="76.000000" y1="24.000000" x2="157.400000" y2="24.000000"  style="stroke:black; stroke-linecap:round; stroke-width:0.25;"/>
<line x1="76.000000" y1="32.000000" x2="157.400000" y2="32.000000"  style="stroke:black; stroke-linecap:round; stroke-width:0.25;"/>
<line x1="76.000000" y1="52.000000" x2="80.000000" y2="52.000000"  style="stroke:black; stroke-linecap:round; stroke-width:0.25;"/>
<line x1="76.000000" y1="84.000000" x2="80.000000" y2="84.000000"  style="stroke:black; stroke-linecap:round; stroke-width:0.25;"/>
<line x1="76.000000" y1="116.000000" x2="80.000000" y2="116.000000"  style="stroke:black; stroke-linecap:round; stroke-width:0.25;"/>
<line x1="76.000000" y1="148.000000" x2="80.000000" y2="148.000000"  style="stroke:black; stroke-linecap:round; stroke-width:0.25;"/>
<line x1="157.400000" y1="24.000000" x2="238.800000" y2="24.000000"  style="stroke:black; stroke-linecap:round; stroke-width:0.25;"/>
<line x1="157.400000" y1="32.000000" x2="238.800000" y2="32.000000"  style="stroke:black; stroke-linecap:round; stroke-width:0.25;"/>
<line x1="234.800000" y1="52.000000" x2="238.800000" y2="52.000000"  style="stroke:black; stroke-linecap:round; stroke-width:0.25;"/>
<line x1="234.800000" y1="84.000000" x2="238.800000" y2="84.000000"  style="stroke:black; stroke-linecap:round; stroke-width:0.25;"/>
<line x1="234.800000" y1="116.000000" x2="238.800000" y2="116.000000"  style="stroke:black; stroke-linecap:round; stroke-width:0.25;"/>
<line x1="234.800000" y1="148.000000" x2="238.800000" y2="148.000000"  style="stroke:black; stroke-linecap:round; stroke-width:0.25;"/>
<line x1="238.800000" y1="24.000000" x2="270.800000" y2="24.000000"  style="stroke:black; stroke-linecap:round; stroke-width:0.25;"/>
<line x1="238.800000" y1="32.000000" x2="262.800000" y2="32.000000"  style="stroke:black; stroke-linecap:round; stroke-width:0.25;"/>
<line x1="238.800000" y1="52.000000" x2="254.800000" y2="52.000000"  style="stroke:black; stroke-linecap:round; stroke-width:0.25;"/>
<line x1="238.800000" y1="84.000000" x2="246.800000" y2="84.000000"  style="stroke:black; stroke-linecap:round; stroke-width:0.25;"/>
<line x1="238.800000" y1="104.000000" x2="270.800000" y2="104.000000"  style="stroke:black; stroke-linecap:round; stroke-width:0.25;"/>
<line x1="238.800000" y1="116.000000" x2="238.800000" y2="104.000000"  style="stroke:black; stroke-linecap:round; stroke-width:0.25;"/>
<line x1="238.800000" y1="116.000000" x2="238.800000" y2="116.000000"  style="stroke:black; stroke-linecap:round; stroke-width:0.25;"/>
<line x1="238.800000" y1="148.000000" x2="246.800000" y2="148.000000"  style="stroke:black; stroke-linecap:round; stroke-width:0.25;"/>
<line x1="246.800000" y1="84.000000" x2="246.800000" y2="96.000000"  style="stroke:black; stroke-linecap:round; stroke-width:0.25;"/>
<line x1="246.800000" y1="96.000000" x2="270.800000" y2="96.000000"  style="stroke:black; stroke-linecap:round; stroke-width:0.25;"/>
<line x1="246.800000" y1="112.000000" x2="270.800000" y2="112.000000"  style="stroke:black; stroke-linecap:round; stroke-width:0.25;"/>
<line x1="246.800000" y1="148.000000" x2="246.800000" y2="112.000000"  style="stroke:black; stroke-linecap:round; stroke-width:0.25;"/>
<line x1="254.800000" y1="52.000000" x2="254.800000" y2="88.000000"  style="stroke:black; stroke-linecap:round; stroke-width:0.25;"/>
<line x1="254.800000" y1="88.000000" x2="270.800000" y2="88.000000"  style="stroke:black; stroke-linecap:round; stroke-width:0.25;"/>
<line x1="262.800000" y1="32.000000" x2="262.800000" y2="80.000000"  style="stroke:black; stroke-linecap:round; stroke-width:0.25;"/>
<line x1="262.800000" y1="80.000000" x2="270.800000" y2="80.000000"  style="stroke:black; stroke-linecap:round; stroke-width:0.25;"/>
<line x1="270.800000" y1="24.000000" x2="270.800000" y2="72.000000"  style="stroke:black; stroke-linecap:round; stroke-width:0.25;"/>
<line x1="270.800000" y1="72.000000" x2="270.800000" y2="72.000000"  style="stroke:black; stroke-linecap:round; stroke-width:0.25;"/>
<line x1="270.800000" y1="72.000000" x2="274.800000" y2="72.000000"  style="stroke:black; stroke-linecap:round; stroke-width:0.25;"/>
<line x1="270.800000" y1="80.000000" x2="274.800000" y2="80.000000"  style="stroke:black; stroke-linecap:round; stroke-width:0.25;"/>
<line x1="270.800000" y1="88.000000" x2="274.800000" y2="88.000000"  style="stroke:black; stroke-linecap:round; stroke-width:0.25;"/>
<line x1="270.800000" y1="96.000000" x2="274.800000" y2="96.000000"  style="stroke:black; stroke-linecap:round; stroke-width:0.25;"/>
<line x1="270.800000" y1="104.000000" x2="274.800000" y2="104.000000"  style="stroke:black; stroke-linecap:round; stroke-width:0.25;"/>
<line x1="270.800000" y1="112.000000" x2="274.800000" y2="112.000000"  style="stroke:black; stroke-linecap:round; stroke-width:0.25;"/>
<line x1="274.800000" y1="72.000000" x2="278.800000" y2="72.000000"  style="stroke:black; stroke-linecap:round; stroke-width:0.25;"/>
<line x1="274.800000" y1="80.000000" x2="278.800000" y2="80.000000"  style="stroke:black; stroke-linecap:round; stroke-width:0.25;"/>
<line x1="274.800000" y1="88.000000" x2="278.800000" y2="88.000000"  style="stroke:black; stroke-linecap:round; stroke-width:0.25;"/>
<line x1="274.800000" y1="96.000000" x2="278.800000" y2="96.000000"  style="stroke:black; stroke-linecap:round; stroke-width:0.25;"/>
<line x1="274.800000" y1="104.000000" x2="278.800000" y2="104.000000"  style="stroke:black; stroke-linecap:round; stroke-width:0.25;"/>
<line x1="274.800000" y1="112.000000" x2="278.800000" y2="112.000000"  style="stroke:black; stroke-linecap:round; stroke-width:0.25;"/>
<line x1="278.800000" y1="72.000000" x2="288.800000" y2="72.000000"  style="stroke:black; stroke-linecap:round; stroke-width:0.25;"/>
<line x1="278.800000" y1="80.000000" x2="288.800000" y2="80.000000"  style="stroke:black; stroke-linecap:round; stroke-width:0.25;"/>
<line x1="278.800000" y1="88.000000" x2="288.800000" y2="88.000000"  style="stroke:black; stroke-linecap:round; stroke-width:0.25;"/>
<line x1="278.800000" y1="96.000000" x2="288.800000" y2="96.000000"  style="stroke:black; stroke-linecap:round; stroke-width:0.25;"/>
<line x1="278.800000" y1="104.000000" x2="288.800000" y2="104.000000"  style="stroke:black; stroke-linecap:round; stroke-width:0.25;"/>
<line x1="278.800000" y1="112.000000" x2="288.800000" y2="112.000000"  style="stroke:black; stroke-linecap:round; stroke-width:0.25;"/>
</svg>
