<?xml version="1.0"?>
<svg xmlns="http://www.w3.org/2000/svg" xmlns:xlink="http://www.w3.org/1999/xlink" viewBox="0 0 300.000000 168.000000" width="150.000000mm" height="84.000000mm" version="1.1">
<a xlink:href="reset-0x7f993c862970.svg">
<rect x="1.000000" y="1.000000" width="299.000000" height="167.000000" rx="0" ry="0" style="stroke:none;fill:#cccccc;"/>
<rect x="0.000000" y="0.000000" width="299.000000" height="167.000000" rx="0" ry="0" style="stroke:none;fill:#ffffff;"/>
</a>
<text x="10.000000" y="7.000000" font-family="Arial" font-size="7"></text>
<rect x="57.000000" y="107.000000" width="24.000000" height="24.000000" rx="0" ry="0" style="stroke:none;fill:#cccccc;"/>
<rect x="56.000000" y="106.000000" width="24.000000" height="24.000000" rx="0" ry="0" style="stroke:none;fill:#4B71A1;"/>
<text x="68.000000" y="120.000000" font-family="Arial" font-size="7" text-anchor="middle" fill="#FFFFFF">*</text>
<circle cx="58.000000" cy="108.000000" r="1"/>
<line x1="53.000000" y1="113.000000" x2="56.000000" y2="114.000000"  transform="rotate(0.000000,56.000000,114.000000)" style="stroke: black; stroke-width:0.25;"/>
<line x1="53.000000" y1="115.000000" x2="56.000000" y2="114.000000"  transform="rotate(0.000000,56.000000,114.000000)" style="stroke: black; stroke-width:0.25;"/>
<line x1="53.000000" y1="121.000000" x2="56.000000" y2="122.000000"  transform="rotate(0.000000,56.000000,122.000000)" style="stroke: black; stroke-width:0.25;"/>
<line x1="53.000000" y1="123.000000" x2="56.000000" y2="122.000000"  transform="rotate(0.000000,56.000000,122.000000)" style="stroke: black; stroke-width:0.25;"/>
<rect x="107.000000" y="103.000000" width="24.000000" height="24.000000" rx="0" ry="0" style="stroke:none;fill:#cccccc;"/>
<rect x="106.000000" y="102.000000" width="24.000000" height="24.000000" rx="0" ry="0" style="stroke:none;fill:#f44800;"/>
<text x="118.000000" y="116.000000" font-family="Arial" font-size="7" text-anchor="middle" fill="#FFFFFF">1</text>
<circle cx="108.000000" cy="104.000000" r="1"/>
<line x1="97.000000" y1="93.000000" x2="97.000000" y2="135.000000"  style="stroke: black; stroke-linecap:round; stroke-width:0.25; stroke-dasharray:3,3;"/>
<line x1="97.000000" y1="135.000000" x2="139.000000" y2="135.000000"  style="stroke: black; stroke-linecap:round; stroke-width:0.25; stroke-dasharray:3,3;"/>
<line x1="139.000000" y1="135.000000" x2="139.000000" y2="93.000000"  style="stroke: black; stroke-linecap:round; stroke-width:0.25; stroke-dasharray:3,3;"/>
<line x1="97.000000" y1="93.000000" x2="102.000000" y2="93.000000"  style="stroke: black; stroke-linecap:round; stroke-width:0.25; stroke-dasharray:3,3;"/>
<line x1="111.675000" y1="93.000000" x2="139.000000" y2="93.000000"  style="stroke: black; stroke-linecap:round; stroke-width:0.25; stroke-dasharray:3,3;"/>
<text x="102.000000" y="95.000000" font-family="Arial" font-size="7">k</text>
<rect x="157.000000" y="107.000000" width="24.000000" height="24.000000" rx="0" ry="0" style="stroke:none;fill:#cccccc;"/>
<rect x="156.000000" y="106.000000" width="24.000000" height="24.000000" rx="0" ry="0" style="stroke:none;fill:#4B71A1;"/>
<text x="168.000000" y="120.000000" font-family="Arial" font-size="7" text-anchor="middle" fill="#FFFFFF">max</text>
<circle cx="158.000000" cy="108.000000" r="1"/>
<line x1="153.000000" y1="113.000000" x2="156.000000" y2="114.000000"  transform="rotate(0.000000,156.000000,114.000000)" style="stroke: black; stroke-width:0.25;"/>
<line x1="153.000000" y1="115.000000" x2="156.000000" y2="114.000000"  transform="rotate(0.000000,156.000000,114.000000)" style="stroke: black; stroke-width:0.25;"/>
<line x1="153.000000" y1="121.000000" x2="156.000000" y2="122.000000"  transform="rotate(0.000000,156.000000,122.000000)" style="stroke: black; stroke-width:0.25;"/>
<line x1="153.000000" y1="123.000000" x2="156.000000" y2="122.000000"  transform="rotate(0.000000,156.000000,122.000000)" style="stroke: black; stroke-width:0.25;"/>
<rect x="189.000000" y="107.000000" width="24.000000" height="24.000000" rx="0" ry="0" style="stroke:none;fill:#cccccc;"/>
<rect x="188.000000" y="106.000000" width="24.000000" height="24.000000" rx="0" ry="0" style="stroke:none;fill:#4B71A1;"/>
<text x="200.000000" y="120.000000" font-family="Arial" font-size="7" text-anchor="middle" fill="#FFFFFF">int</text>
<circle cx="190.000000" cy="108.000000" r="1"/>
<line x1="185.000000" y1="117.000000" x2="188.000000" y2="118.000000"  transform="rotate(0.000000,188.000000,118.000000)" style="stroke: black; stroke-width:0.25;"/>
<line x1="185.000000" y1="119.000000" x2="188.000000" y2="118.000000"  transform="rotate(0.000000,188.000000,118.000000)" style="stroke: black; stroke-width:0.25;"/>
<rect x="229.000000" y="103.000000" width="24.000000" height="24.000000" rx="0" ry="0" style="stroke:none;fill:#cccccc;"/>
<rect x="228.000000" y="102.000000" width="24.000000" height="24.000000" rx="0" ry="0" style="stroke:none;fill:#4B71A1;"/>
<text x="240.000000" y="116.000000" font-family="Arial" font-size="7" text-anchor="middle" fill="#FFFFFF">%</text>
<circle cx="230.000000" cy="104.000000" r="1"/>
<line x1="225.000000" y1="109.000000" x2="228.000000" y2="110.000000"  transform="rotate(0.000000,228.000000,110.000000)" style="stroke: black; stroke-width:0.25;"/>
<line x1="225.000000" y1="111.000000" x2="228.000000" y2="110.000000"  transform="rotate(0.000000,228.000000,110.000000)" style="stroke: black; stroke-width:0.25;"/>
<line x1="225.000000" y1="117.000000" x2="228.000000" y2="118.000000"  transform="rotate(0.000000,228.000000,118.000000)" style="stroke: black; stroke-width:0.25;"/>
<line x1="225.000000" y1="119.000000" x2="228.000000" y2="118.000000"  transform="rotate(0.000000,228.000000,118.000000)" style="stroke: black; stroke-width:0.25;"/>
<rect x="163.000000" y="35.000000" width="24.000000" height="24.000000" rx="0" ry="0" style="stroke:none;fill:#cccccc;"/>
<rect x="162.000000" y="34.000000" width="24.000000" height="24.000000" rx="0" ry="0" style="stroke:none;fill:#f44800;"/>
<text x="174.000000" y="48.000000" font-family="Arial" font-size="7" text-anchor="middle" fill="#FFFFFF">1</text>
<circle cx="184.000000" cy="56.000000" r="1"/>
<line x1="153.000000" y1="25.000000" x2="153.000000" y2="67.000000"  style="stroke: black; stroke-linecap:round; stroke-width:0.25; stroke-dasharray:3,3;"/>
<line x1="153.000000" y1="67.000000" x2="195.000000" y2="67.000000"  style="stroke: black; stroke-linecap:round; stroke-width:0.25; stroke-dasharray:3,3;"/>
<line x1="195.000000" y1="67.000000" x2="195.000000" y2="25.000000"  style="stroke: black; stroke-linecap:round; stroke-width:0.25; stroke-dasharray:3,3;"/>
<line x1="153.000000" y1="25.000000" x2="158.000000" y2="25.000000"  style="stroke: black; stroke-linecap:round; stroke-width:0.25; stroke-dasharray:3,3;"/>
<line x1="167.675000" y1="25.000000" x2="195.000000" y2="25.000000"  style="stroke: black; stroke-linecap:round; stroke-width:0.25; stroke-dasharray:3,3;"/>
<text x="158.000000" y="27.000000" font-family="Arial" font-size="7">k</text>
<rect x="113.000000" y="39.000000" width="24.000000" height="24.000000" rx="0" ry="0" style="stroke:none;fill:#cccccc;"/>
<rect x="112.000000" y="38.000000" width="24.000000" height="24.000000" rx="0" ry="0" style="stroke:none;fill:#4B71A1;"/>
<text x="124.000000" y="52.000000" font-family="Arial" font-size="7" text-anchor="middle" fill="#FFFFFF">+</text>
<circle cx="134.000000" cy="60.000000" r="1"/>
<line x1="139.000000" y1="53.000000" x2="136.000000" y2="54.000000"  transform="rotate(0.000000,136.000000,54.000000)" style="stroke: black; stroke-width:0.25;"/>
<line x1="139.000000" y1="55.000000" x2="136.000000" y2="54.000000"  transform="rotate(0.000000,136.000000,54.000000)" style="stroke: black; stroke-width:0.25;"/>
<line x1="139.000000" y1="45.000000" x2="136.000000" y2="46.000000"  transform="rotate(0.000000,136.000000,46.000000)" style="stroke: black; stroke-width:0.25;"/>
<line x1="139.000000" y1="47.000000" x2="136.000000" y2="46.000000"  transform="rotate(0.000000,136.000000,46.000000)" style="stroke: black; stroke-width:0.25;"/>
<line x1="254.000000" y1="114.000000" x2="254.000000" y2="110.000000"  style="stroke:black; stroke-linecap:round; stroke-width:0.25;"/>
<line x1="254.000000" y1="110.000000" x2="258.000000" y2="110.000000"  style="stroke:black; stroke-linecap:round; stroke-width:0.25;"/>
<line x1="258.000000" y1="110.000000" x2="258.000000" y2="114.000000"  style="stroke:black; stroke-linecap:round; stroke-width:0.25;"/>
<line x1="15.000000" y1="15.000000" x2="15.000000" y2="153.000000"  style="stroke: black; stroke-linecap:round; stroke-width:0.25; stroke-dasharray:3,3;"/>
<line x1="15.000000" y1="153.000000" x2="285.000000" y2="153.000000"  style="stroke: black; stroke-linecap:round; stroke-width:0.25; stroke-dasharray:3,3;"/>
<line x1="285.000000" y1="153.000000" x2="285.000000" y2="15.000000"  style="stroke: black; stroke-linecap:round; stroke-width:0.25; stroke-dasharray:3,3;"/>
<line x1="15.000000" y1="15.000000" x2="20.000000" y2="15.000000"  style="stroke: black; stroke-linecap:round; stroke-width:0.25; stroke-dasharray:3,3;"/>
<line x1="42.575000" y1="15.000000" x2="285.000000" y2="15.000000"  style="stroke: black; stroke-linecap:round; stroke-width:0.25; stroke-dasharray:3,3;"/>
<text x="20.000000" y="17.000000" font-family="Arial" font-size="7">sweep</text>
<line x1="287.000000" y1="83.000000" x2="290.000000" y2="84.000000"  transform="rotate(0.000000,290.000000,84.000000)" style="stroke: black; stroke-width:0.25;"/>
<line x1="287.000000" y1="85.000000" x2="290.000000" y2="84.000000"  transform="rotate(0.000000,290.000000,84.000000)" style="stroke: black; stroke-width:0.25;"/>
<line x1="10.000000" y1="80.000000" x2="20.000000" y2="80.000000"  style="stroke:black; stroke-linecap:round; stroke-width:0.25;"/>
<line x1="10.000000" y1="88.000000" x2="20.000000" y2="88.000000"  style="stroke:black; stroke-linecap:round; stroke-width:0.25;"/>
<line x1="20.000000" y1="80.000000" x2="24.000000" y2="80.000000"  style="stroke:black; stroke-linecap:round; stroke-width:0.25;"/>
<line x1="20.000000" y1="88.000000" x2="24.000000" y2="88.000000"  style="stroke:black; stroke-linecap:round; stroke-width:0.25;"/>
<line x1="24.000000" y1="80.000000" x2="28.000000" y2="80.000000"  style="stroke:black; stroke-linecap:round; stroke-width:0.25;"/>
<line x1="24.000000" y1="88.000000" x2="28.000000" y2="88.000000"  style="stroke:black; stroke-linecap:round; stroke-width:0.25;"/>
<line x1="28.000000" y1="80.000000" x2="44.000000" y2="80.000000"  style="stroke:black; stroke-linecap:round; stroke-width:0.25;"/>
<line x1="28.000000" y1="88.000000" x2="36.000000" y2="88.000000"  style="stroke:black; stroke-linecap:round; stroke-width:0.25;"/>
<line x1="36.000000" y1="88.000000" x2="36.000000" y2="122.000000"  style="stroke:black; stroke-linecap:round; stroke-width:0.25;"/>
<line x1="36.000000" y1="122.000000" x2="44.000000" y2="122.000000"  style="stroke:black; stroke-linecap:round; stroke-width:0.25;"/>
<line x1="44.000000" y1="80.000000" x2="44.000000" y2="114.000000"  style="stroke:black; stroke-linecap:round; stroke-width:0.25;"/>
<line x1="44.000000" y1="114.000000" x2="44.000000" y2="114.000000"  style="stroke:black; stroke-linecap:round; stroke-width:0.25;"/>
<line x1="44.000000" y1="114.000000" x2="52.000000" y2="114.000000"  style="stroke:black; stroke-linecap:round; stroke-width:0.25;"/>
<line x1="44.000000" y1="122.000000" x2="52.000000" y2="122.000000"  style="stroke:black; stroke-linecap:round; stroke-width:0.25;"/>
<line x1="52.000000" y1="50.000000" x2="52.000000" y2="50.000000"  style="stroke:black; stroke-linecap:round; stroke-width:0.25;"/>
<line x1="52.000000" y1="50.000000" x2="52.000000" y2="84.000000"  style="stroke:black; stroke-linecap:round; stroke-width:0.25;"/>
<line x1="52.000000" y1="84.000000" x2="52.000000" y2="84.000000"  style="stroke:black; stroke-linecap:round; stroke-width:0.25;"/>
<line x1="52.000000" y1="84.000000" x2="134.000000" y2="84.000000"  style="stroke:black; stroke-linecap:round; stroke-width:0.25;"/>
<line x1="52.000000" y1="114.000000" x2="56.000000" y2="114.000000"  style="stroke:black; stroke-linecap:round; stroke-width:0.25;"/>
<line x1="52.000000" y1="122.000000" x2="56.000000" y2="122.000000"  style="stroke:black; stroke-linecap:round; stroke-width:0.25;"/>
<line x1="80.000000" y1="118.000000" x2="84.000000" y2="118.000000"  style="stroke:black; stroke-linecap:round; stroke-width:0.25;"/>
<line x1="84.000000" y1="118.000000" x2="92.000000" y2="118.000000"  style="stroke:black; stroke-linecap:round; stroke-width:0.25;"/>
<line x1="92.000000" y1="118.000000" x2="92.000000" y2="144.000000"  style="stroke:black; stroke-linecap:round; stroke-width:0.25;"/>
<line x1="92.000000" y1="144.000000" x2="92.000000" y2="144.000000"  style="stroke:black; stroke-linecap:round; stroke-width:0.25;"/>
<line x1="92.000000" y1="144.000000" x2="118.000000" y2="144.000000"  style="stroke:black; stroke-linecap:round; stroke-width:0.25;"/>
<line x1="108.000000" y1="50.000000" x2="52.000000" y2="50.000000"  style="stroke:black; stroke-linecap:round; stroke-width:0.25;"/>
<line x1="112.000000" y1="50.000000" x2="108.000000" y2="50.000000"  style="stroke:black; stroke-linecap:round; stroke-width:0.25;"/>
<line x1="118.000000" y1="144.000000" x2="144.000000" y2="144.000000"  style="stroke:black; stroke-linecap:round; stroke-width:0.25;"/>
<line x1="130.000000" y1="114.000000" x2="134.000000" y2="114.000000"  style="stroke:black; stroke-linecap:round; stroke-width:0.25;"/>
<line x1="134.000000" y1="84.000000" x2="216.000000" y2="84.000000"  style="stroke:black; stroke-linecap:round; stroke-width:0.25;"/>
<line x1="134.000000" y1="114.000000" x2="144.000000" y2="114.000000"  style="stroke:black; stroke-linecap:round; stroke-width:0.25;"/>
<line x1="140.000000" y1="46.000000" x2="136.000000" y2="46.000000"  style="stroke:black; stroke-linecap:round; stroke-width:0.25;"/>
<line x1="140.000000" y1="54.000000" x2="136.000000" y2="54.000000"  style="stroke:black; stroke-linecap:round; stroke-width:0.25;"/>
<line x1="140.000000" y1="54.000000" x2="140.000000" y2="54.000000"  style="stroke:black; stroke-linecap:round; stroke-width:0.25;"/>
<line x1="140.000000" y1="76.000000" x2="140.000000" y2="54.000000"  style="stroke:black; stroke-linecap:round; stroke-width:0.25;"/>
<line x1="144.000000" y1="114.000000" x2="152.000000" y2="114.000000"  style="stroke:black; stroke-linecap:round; stroke-width:0.25;"/>
<line x1="144.000000" y1="122.000000" x2="152.000000" y2="122.000000"  style="stroke:black; stroke-linecap:round; stroke-width:0.25;"/>
<line x1="144.000000" y1="144.000000" x2="144.000000" y2="122.000000"  style="stroke:black; stroke-linecap:round; stroke-width:0.25;"/>
<line x1="144.000000" y1="144.000000" x2="144.000000" y2="144.000000"  style="stroke:black; stroke-linecap:round; stroke-width:0.25;"/>
<line x1="148.000000" y1="46.000000" x2="140.000000" y2="46.000000"  style="stroke:black; stroke-linecap:round; stroke-width:0.25;"/>
<line x1="148.000000" y1="76.000000" x2="140.000000" y2="76.000000"  style="stroke:black; stroke-linecap:round; stroke-width:0.25;"/>
<line x1="152.000000" y1="114.000000" x2="156.000000" y2="114.000000"  style="stroke:black; stroke-linecap:round; stroke-width:0.25;"/>
<line x1="152.000000" y1="122.000000" x2="156.000000" y2="122.000000"  style="stroke:black; stroke-linecap:round; stroke-width:0.25;"/>
<line x1="158.000000" y1="46.000000" x2="148.000000" y2="46.000000"  style="stroke:black; stroke-linecap:round; stroke-width:0.25;"/>
<line x1="162.000000" y1="46.000000" x2="158.000000" y2="46.000000"  style="stroke:black; stroke-linecap:round; stroke-width:0.25;"/>
<line x1="174.000000" y1="76.000000" x2="148.000000" y2="76.000000"  style="stroke:black; stroke-linecap:round; stroke-width:0.25;"/>
<line x1="180.000000" y1="118.000000" x2="184.000000" y2="118.000000"  style="stroke:black; stroke-linecap:round; stroke-width:0.25;"/>
<line x1="184.000000" y1="118.000000" x2="184.000000" y2="118.000000"  style="stroke:black; stroke-linecap:round; stroke-width:0.25;"/>
<line x1="184.000000" y1="118.000000" x2="188.000000" y2="118.000000"  style="stroke:black; stroke-linecap:round; stroke-width:0.25;"/>
<line x1="200.000000" y1="76.000000" x2="174.000000" y2="76.000000"  style="stroke:black; stroke-linecap:round; stroke-width:0.25;"/>
<line x1="212.000000" y1="118.000000" x2="216.000000" y2="118.000000"  style="stroke:black; stroke-linecap:round; stroke-width:0.25;"/>
<line x1="216.000000" y1="84.000000" x2="224.000000" y2="84.000000"  style="stroke:black; stroke-linecap:round; stroke-width:0.25;"/>
<line x1="216.000000" y1="118.000000" x2="224.000000" y2="118.000000"  style="stroke:black; stroke-linecap:round; stroke-width:0.25;"/>
<line x1="224.000000" y1="84.000000" x2="224.000000" y2="110.000000"  style="stroke:black; stroke-linecap:round; stroke-width:0.25;"/>
<line x1="224.000000" y1="110.000000" x2="224.000000" y2="110.000000"  style="stroke:black; stroke-linecap:round; stroke-width:0.25;"/>
<line x1="224.000000" y1="110.000000" x2="228.000000" y2="110.000000"  style="stroke:black; stroke-linecap:round; stroke-width:0.25;"/>
<line x1="224.000000" y1="118.000000" x2="228.000000" y2="118.000000"  style="stroke:black; stroke-linecap:round; stroke-width:0.25;"/>
<line x1="252.000000" y1="114.000000" x2="256.000000" y2="114.000000"  style="stroke:black; stroke-linecap:round; stroke-width:0.25;"/>
<line x1="256.000000" y1="76.000000" x2="200.000000" y2="76.000000"  style="stroke:black; stroke-linecap:round; stroke-width:0.25;"/>
<line x1="256.000000" y1="76.000000" x2="256.000000" y2="76.000000"  style="stroke:black; stroke-linecap:round; stroke-width:0.25;"/>
<line x1="256.000000" y1="110.000000" x2="256.000000" y2="76.000000"  style="stroke:black; stroke-linecap:round; stroke-width:0.25;"/>
<line x1="256.000000" y1="114.000000" x2="258.000000" y2="114.000000"  style="stroke:black; stroke-linecap:round; stroke-width:0.25;"/>
<line x1="258.000000" y1="114.000000" x2="264.000000" y2="114.000000"  style="stroke:black; stroke-linecap:round; stroke-width:0.25;"/>
<line x1="264.000000" y1="84.000000" x2="272.000000" y2="84.000000"  style="stroke:black; stroke-linecap:round; stroke-width:0.25;"/>
<line x1="264.000000" y1="114.000000" x2="264.000000" y2="84.000000"  style="stroke:black; stroke-linecap:round; stroke-width:0.25;"/>
<line x1="264.000000" y1="114.000000" x2="264.000000" y2="114.000000"  style="stroke:black; stroke-linecap:round; stroke-width:0.25;"/>
<line x1="272.000000" y1="84.000000" x2="276.000000" y2="84.000000"  style="stroke:black; stroke-linecap:round; stroke-width:0.25;"/>
<line x1="276.000000" y1="84.000000" x2="280.000000" y2="84.000000"  style="stroke:black; stroke-linecap:round; stroke-width:0.25;"/>
<line x1="280.000000" y1="84.000000" x2="290.000000" y2="84.000000"  style="stroke:black; stroke-linecap:round; stroke-width:0.25;"/>
</svg>
