<?xml version="1.0"?>
<svg xmlns="http://www.w3.org/2000/svg" xmlns:xlink="http://www.w3.org/1999/xlink" viewBox="0 0 326.400000 252.000000" width="163.200000mm" height="126.000000mm" version="1.1">
<a xlink:href="buffer-0x7fb007053600.svg">
<rect x="1.000000" y="1.000000" width="325.400000" height="251.000000" rx="0" ry="0" style="stroke:none;fill:#cccccc;"/>
<rect x="0.000000" y="0.000000" width="325.400000" height="251.000000" rx="0" ry="0" style="stroke:none;fill:#ffffff;"/>
</a>
<text x="10.000000" y="7.000000" font-family="Arial" font-size="7"></text>
<rect x="105.500000" y="25.000000" width="38.700000" height="24.000000" rx="0" ry="0" style="stroke:none;fill:#cccccc;"/>
<rect x="104.500000" y="24.000000" width="38.700000" height="24.000000" rx="0" ry="0" style="stroke:none;fill:#f44800;"/>
<text x="123.850000" y="38.000000" font-family="Arial" font-size="7" text-anchor="middle" fill="#FFFFFF">1920000</text>
<circle cx="106.500000" cy="26.000000" r="1"/>
<rect x="112.850000" y="67.000000" width="24.000000" height="24.000000" rx="0" ry="0" style="stroke:none;fill:#cccccc;"/>
<rect x="111.850000" y="66.000000" width="24.000000" height="24.000000" rx="0" ry="0" style="stroke:none;fill:#f44800;"/>
<text x="123.850000" y="80.000000" font-family="Arial" font-size="7" text-anchor="middle" fill="#FFFFFF">0</text>
<circle cx="113.850000" cy="68.000000" r="1"/>
<line x1="102.850000" y1="57.000000" x2="102.850000" y2="99.000000"  style="stroke: black; stroke-linecap:round; stroke-width:0.25; stroke-dasharray:3,3;"/>
<line x1="102.850000" y1="99.000000" x2="144.850000" y2="99.000000"  style="stroke: black; stroke-linecap:round; stroke-width:0.25; stroke-dasharray:3,3;"/>
<line x1="144.850000" y1="99.000000" x2="144.850000" y2="57.000000"  style="stroke: black; stroke-linecap:round; stroke-width:0.25; stroke-dasharray:3,3;"/>
<line x1="102.850000" y1="57.000000" x2="107.850000" y2="57.000000"  style="stroke: black; stroke-linecap:round; stroke-width:0.25; stroke-dasharray:3,3;"/>
<line x1="117.525000" y1="57.000000" x2="144.850000" y2="57.000000"  style="stroke: black; stroke-linecap:round; stroke-width:0.25; stroke-dasharray:3,3;"/>
<text x="107.850000" y="59.000000" font-family="Arial" font-size="7">d</text>
<a xlink:href="writePtr-0x7fb01e6dcd40.svg">
<rect x="105.500000" y="109.000000" width="38.700000" height="24.000000" rx="0" ry="0" style="stroke:none;fill:#cccccc;"/>
<rect x="104.500000" y="108.000000" width="38.700000" height="24.000000" rx="0" ry="0" style="stroke:none;fill:#003366;"/>
</a>
<a xlink:href="writePtr-0x7fb01e6dcd40.svg">
<text x="123.850000" y="122.000000" font-family="Arial" font-size="7" text-anchor="middle" fill="#FFFFFF">writePtr</text>
</a>
<circle cx="106.500000" cy="110.000000" r="1"/>
<a xlink:href="osc-0x7fb00d6aebf0.svg">
<rect x="85.500000" y="141.000000" width="38.700000" height="24.000000" rx="0" ry="0" style="stroke:none;fill:#cccccc;"/>
<rect x="84.500000" y="140.000000" width="38.700000" height="24.000000" rx="0" ry="0" style="stroke:none;fill:#003366;"/>
</a>
<a xlink:href="osc-0x7fb00d6aebf0.svg">
<text x="103.850000" y="154.000000" font-family="Arial" font-size="7" text-anchor="middle" fill="#FFFFFF">osc(600)</text>
</a>
<circle cx="86.500000" cy="142.000000" r="1"/>
<rect x="92.850000" y="173.000000" width="24.000000" height="24.000000" rx="0" ry="0" style="stroke:none;fill:#cccccc;"/>
<rect x="91.850000" y="172.000000" width="24.000000" height="24.000000" rx="0" ry="0" style="stroke:none;fill:#f44800;"/>
<text x="103.850000" y="186.000000" font-family="Arial" font-size="7" text-anchor="middle" fill="#FFFFFF">8</text>
<circle cx="93.850000" cy="174.000000" r="1"/>
<rect x="140.200000" y="157.000000" width="24.000000" height="24.000000" rx="0" ry="0" style="stroke:none;fill:#cccccc;"/>
<rect x="139.200000" y="156.000000" width="24.000000" height="24.000000" rx="0" ry="0" style="stroke:none;fill:#4B71A1;"/>
<text x="151.200000" y="170.000000" font-family="Arial" font-size="7" text-anchor="middle" fill="#FFFFFF">/</text>
<circle cx="141.200000" cy="158.000000" r="1"/>
<line x1="136.200000" y1="163.000000" x2="139.200000" y2="164.000000"  transform="rotate(0.000000,139.200000,164.000000)" style="stroke: black; stroke-width:0.25;"/>
<line x1="136.200000" y1="165.000000" x2="139.200000" y2="164.000000"  transform="rotate(0.000000,139.200000,164.000000)" style="stroke: black; stroke-width:0.25;"/>
<line x1="136.200000" y1="171.000000" x2="139.200000" y2="172.000000"  transform="rotate(0.000000,139.200000,172.000000)" style="stroke: black; stroke-width:0.25;"/>
<line x1="136.200000" y1="173.000000" x2="139.200000" y2="172.000000"  transform="rotate(0.000000,139.200000,172.000000)" style="stroke: black; stroke-width:0.25;"/>
<a xlink:href="modulo-0x7fb00d6c0660.svg">
<rect x="25.000000" y="205.000000" width="167.700000" height="24.000000" rx="0" ry="0" style="stroke:none;fill:#cccccc;"/>
<rect x="24.000000" y="204.000000" width="167.700000" height="24.000000" rx="0" ry="0" style="stroke:none;fill:#003366;"/>
</a>
<a xlink:href="modulo-0x7fb00d6c0660.svg">
<text x="107.850000" y="218.000000" font-family="Arial" font-size="7" text-anchor="middle" fill="#FFFFFF">modulo(((((((...2 : -),3 : +)(1920000)</text>
</a>
<circle cx="26.000000" cy="206.000000" r="1"/>
<rect x="200.700000" y="205.000000" width="24.000000" height="24.000000" rx="0" ry="0" style="stroke:none;fill:#cccccc;"/>
<rect x="199.700000" y="204.000000" width="24.000000" height="24.000000" rx="0" ry="0" style="stroke:none;fill:#4B71A1;"/>
<text x="211.700000" y="218.000000" font-family="Arial" font-size="7" text-anchor="middle" fill="#FFFFFF">int</text>
<circle cx="201.700000" cy="206.000000" r="1"/>
<line x1="196.700000" y1="215.000000" x2="199.700000" y2="216.000000"  transform="rotate(0.000000,199.700000,216.000000)" style="stroke: black; stroke-width:0.25;"/>
<line x1="196.700000" y1="217.000000" x2="199.700000" y2="216.000000"  transform="rotate(0.000000,199.700000,216.000000)" style="stroke: black; stroke-width:0.25;"/>
<rect x="256.700000" y="107.000000" width="38.700000" height="40.000000" rx="0" ry="0" style="stroke:none;fill:#cccccc;"/>
<rect x="255.700000" y="106.000000" width="38.700000" height="40.000000" rx="0" ry="0" style="stroke:none;fill:#4B71A1;"/>
<text x="275.050000" y="128.000000" font-family="Arial" font-size="7" text-anchor="middle" fill="#FFFFFF">rwtable</text>
<circle cx="257.700000" cy="108.000000" r="1"/>
<line x1="252.700000" y1="109.000000" x2="255.700000" y2="110.000000"  transform="rotate(0.000000,255.700000,110.000000)" style="stroke: black; stroke-width:0.25;"/>
<line x1="252.700000" y1="111.000000" x2="255.700000" y2="110.000000"  transform="rotate(0.000000,255.700000,110.000000)" style="stroke: black; stroke-width:0.25;"/>
<line x1="252.700000" y1="117.000000" x2="255.700000" y2="118.000000"  transform="rotate(0.000000,255.700000,118.000000)" style="stroke: black; stroke-width:0.25;"/>
<line x1="252.700000" y1="119.000000" x2="255.700000" y2="118.000000"  transform="rotate(0.000000,255.700000,118.000000)" style="stroke: black; stroke-width:0.25;"/>
<line x1="252.700000" y1="125.000000" x2="255.700000" y2="126.000000"  transform="rotate(0.000000,255.700000,126.000000)" style="stroke: black; stroke-width:0.25;"/>
<line x1="252.700000" y1="127.000000" x2="255.700000" y2="126.000000"  transform="rotate(0.000000,255.700000,126.000000)" style="stroke: black; stroke-width:0.25;"/>
<line x1="252.700000" y1="133.000000" x2="255.700000" y2="134.000000"  transform="rotate(0.000000,255.700000,134.000000)" style="stroke: black; stroke-width:0.25;"/>
<line x1="252.700000" y1="135.000000" x2="255.700000" y2="134.000000"  transform="rotate(0.000000,255.700000,134.000000)" style="stroke: black; stroke-width:0.25;"/>
<line x1="252.700000" y1="141.000000" x2="255.700000" y2="142.000000"  transform="rotate(0.000000,255.700000,142.000000)" style="stroke: black; stroke-width:0.25;"/>
<line x1="252.700000" y1="143.000000" x2="255.700000" y2="142.000000"  transform="rotate(0.000000,255.700000,142.000000)" style="stroke: black; stroke-width:0.25;"/>
<line x1="15.000000" y1="15.000000" x2="15.000000" y2="237.000000"  style="stroke: black; stroke-linecap:round; stroke-width:0.25; stroke-dasharray:3,3;"/>
<line x1="15.000000" y1="237.000000" x2="311.400000" y2="237.000000"  style="stroke: black; stroke-linecap:round; stroke-width:0.25; stroke-dasharray:3,3;"/>
<line x1="311.400000" y1="237.000000" x2="311.400000" y2="15.000000"  style="stroke: black; stroke-linecap:round; stroke-width:0.25; stroke-dasharray:3,3;"/>
<line x1="15.000000" y1="15.000000" x2="20.000000" y2="15.000000"  style="stroke: black; stroke-linecap:round; stroke-width:0.25; stroke-dasharray:3,3;"/>
<line x1="119.975000" y1="15.000000" x2="311.400000" y2="15.000000"  style="stroke: black; stroke-linecap:round; stroke-width:0.25; stroke-dasharray:3,3;"/>
<text x="20.000000" y="17.000000" font-family="Arial" font-size="7">table(((((((x...2 : -),3 : +)</text>
<line x1="313.400000" y1="125.000000" x2="316.400000" y2="126.000000"  transform="rotate(0.000000,316.400000,126.000000)" style="stroke: black; stroke-width:0.25;"/>
<line x1="313.400000" y1="127.000000" x2="316.400000" y2="126.000000"  transform="rotate(0.000000,316.400000,126.000000)" style="stroke: black; stroke-width:0.25;"/>
<line x1="115.850000" y1="184.000000" x2="119.850000" y2="184.000000"  style="stroke:black; stroke-linecap:round; stroke-width:0.25;"/>
<line x1="119.850000" y1="184.000000" x2="127.200000" y2="184.000000"  style="stroke:black; stroke-linecap:round; stroke-width:0.25;"/>
<line x1="123.200000" y1="152.000000" x2="127.200000" y2="152.000000"  style="stroke:black; stroke-linecap:round; stroke-width:0.25;"/>
<line x1="127.200000" y1="152.000000" x2="135.200000" y2="152.000000"  style="stroke:black; stroke-linecap:round; stroke-width:0.25;"/>
<line x1="127.200000" y1="172.000000" x2="135.200000" y2="172.000000"  style="stroke:black; stroke-linecap:round; stroke-width:0.25;"/>
<line x1="127.200000" y1="184.000000" x2="127.200000" y2="172.000000"  style="stroke:black; stroke-linecap:round; stroke-width:0.25;"/>
<line x1="127.200000" y1="184.000000" x2="127.200000" y2="184.000000"  style="stroke:black; stroke-linecap:round; stroke-width:0.25;"/>
<line x1="135.200000" y1="152.000000" x2="135.200000" y2="164.000000"  style="stroke:black; stroke-linecap:round; stroke-width:0.25;"/>
<line x1="135.200000" y1="164.000000" x2="135.200000" y2="164.000000"  style="stroke:black; stroke-linecap:round; stroke-width:0.25;"/>
<line x1="135.200000" y1="164.000000" x2="139.200000" y2="164.000000"  style="stroke:black; stroke-linecap:round; stroke-width:0.25;"/>
<line x1="135.200000" y1="172.000000" x2="139.200000" y2="172.000000"  style="stroke:black; stroke-linecap:round; stroke-width:0.25;"/>
<line x1="135.850000" y1="78.000000" x2="139.850000" y2="78.000000"  style="stroke:black; stroke-linecap:round; stroke-width:0.25;"/>
<line x1="139.850000" y1="78.000000" x2="149.850000" y2="78.000000"  style="stroke:black; stroke-linecap:round; stroke-width:0.25;"/>
<line x1="143.200000" y1="36.000000" x2="147.200000" y2="36.000000"  style="stroke:black; stroke-linecap:round; stroke-width:0.25;"/>
<line x1="143.200000" y1="120.000000" x2="147.200000" y2="120.000000"  style="stroke:black; stroke-linecap:round; stroke-width:0.25;"/>
<line x1="147.200000" y1="36.000000" x2="227.700000" y2="36.000000"  style="stroke:black; stroke-linecap:round; stroke-width:0.25;"/>
<line x1="147.200000" y1="120.000000" x2="227.700000" y2="120.000000"  style="stroke:black; stroke-linecap:round; stroke-width:0.25;"/>
<line x1="149.850000" y1="78.000000" x2="227.700000" y2="78.000000"  style="stroke:black; stroke-linecap:round; stroke-width:0.25;"/>
<line x1="163.200000" y1="168.000000" x2="167.200000" y2="168.000000"  style="stroke:black; stroke-linecap:round; stroke-width:0.25;"/>
<line x1="167.200000" y1="168.000000" x2="227.700000" y2="168.000000"  style="stroke:black; stroke-linecap:round; stroke-width:0.25;"/>
<line x1="191.700000" y1="216.000000" x2="195.700000" y2="216.000000"  style="stroke:black; stroke-linecap:round; stroke-width:0.25;"/>
<line x1="195.700000" y1="216.000000" x2="195.700000" y2="216.000000"  style="stroke:black; stroke-linecap:round; stroke-width:0.25;"/>
<line x1="195.700000" y1="216.000000" x2="199.700000" y2="216.000000"  style="stroke:black; stroke-linecap:round; stroke-width:0.25;"/>
<line x1="223.700000" y1="216.000000" x2="227.700000" y2="216.000000"  style="stroke:black; stroke-linecap:round; stroke-width:0.25;"/>
<line x1="227.700000" y1="36.000000" x2="251.700000" y2="36.000000"  style="stroke:black; stroke-linecap:round; stroke-width:0.25;"/>
<line x1="227.700000" y1="78.000000" x2="243.700000" y2="78.000000"  style="stroke:black; stroke-linecap:round; stroke-width:0.25;"/>
<line x1="227.700000" y1="120.000000" x2="235.700000" y2="120.000000"  style="stroke:black; stroke-linecap:round; stroke-width:0.25;"/>
<line x1="227.700000" y1="134.000000" x2="251.700000" y2="134.000000"  style="stroke:black; stroke-linecap:round; stroke-width:0.25;"/>
<line x1="227.700000" y1="168.000000" x2="227.700000" y2="134.000000"  style="stroke:black; stroke-linecap:round; stroke-width:0.25;"/>
<line x1="227.700000" y1="168.000000" x2="227.700000" y2="168.000000"  style="stroke:black; stroke-linecap:round; stroke-width:0.25;"/>
<line x1="227.700000" y1="216.000000" x2="235.700000" y2="216.000000"  style="stroke:black; stroke-linecap:round; stroke-width:0.25;"/>
<line x1="235.700000" y1="120.000000" x2="235.700000" y2="126.000000"  style="stroke:black; stroke-linecap:round; stroke-width:0.25;"/>
<line x1="235.700000" y1="126.000000" x2="251.700000" y2="126.000000"  style="stroke:black; stroke-linecap:round; stroke-width:0.25;"/>
<line x1="235.700000" y1="142.000000" x2="251.700000" y2="142.000000"  style="stroke:black; stroke-linecap:round; stroke-width:0.25;"/>
<line x1="235.700000" y1="216.000000" x2="235.700000" y2="142.000000"  style="stroke:black; stroke-linecap:round; stroke-width:0.25;"/>
<line x1="243.700000" y1="78.000000" x2="243.700000" y2="118.000000"  style="stroke:black; stroke-linecap:round; stroke-width:0.25;"/>
<line x1="243.700000" y1="118.000000" x2="251.700000" y2="118.000000"  style="stroke:black; stroke-linecap:round; stroke-width:0.25;"/>
<line x1="251.700000" y1="36.000000" x2="251.700000" y2="110.000000"  style="stroke:black; stroke-linecap:round; stroke-width:0.25;"/>
<line x1="251.700000" y1="110.000000" x2="251.700000" y2="110.000000"  style="stroke:black; stroke-linecap:round; stroke-width:0.25;"/>
<line x1="251.700000" y1="110.000000" x2="255.700000" y2="110.000000"  style="stroke:black; stroke-linecap:round; stroke-width:0.25;"/>
<line x1="251.700000" y1="118.000000" x2="255.700000" y2="118.000000"  style="stroke:black; stroke-linecap:round; stroke-width:0.25;"/>
<line x1="251.700000" y1="126.000000" x2="255.700000" y2="126.000000"  style="stroke:black; stroke-linecap:round; stroke-width:0.25;"/>
<line x1="251.700000" y1="134.000000" x2="255.700000" y2="134.000000"  style="stroke:black; stroke-linecap:round; stroke-width:0.25;"/>
<line x1="251.700000" y1="142.000000" x2="255.700000" y2="142.000000"  style="stroke:black; stroke-linecap:round; stroke-width:0.25;"/>
<line x1="294.400000" y1="126.000000" x2="298.400000" y2="126.000000"  style="stroke:black; stroke-linecap:round; stroke-width:0.25;"/>
<line x1="298.400000" y1="126.000000" x2="298.400000" y2="126.000000"  style="stroke:black; stroke-linecap:round; stroke-width:0.25;"/>
<line x1="298.400000" y1="126.000000" x2="302.400000" y2="126.000000"  style="stroke:black; stroke-linecap:round; stroke-width:0.25;"/>
<line x1="302.400000" y1="126.000000" x2="306.400000" y2="126.000000"  style="stroke:black; stroke-linecap:round; stroke-width:0.25;"/>
<line x1="306.400000" y1="126.000000" x2="316.400000" y2="126.000000"  style="stroke:black; stroke-linecap:round; stroke-width:0.25;"/>
</svg>
