<?xml version="1.0"?>
<svg xmlns="http://www.w3.org/2000/svg" xmlns:xlink="http://www.w3.org/1999/xlink" viewBox="0 0 244.100000 104.000000" width="122.050000mm" height="52.000000mm" version="1.1">
<a xlink:href="signal-0x7fb5b4b34a30.svg">
<rect x="1.000000" y="1.000000" width="243.100000" height="103.000000" rx="0" ry="0" style="stroke:none;fill:#cccccc;"/>
<rect x="0.000000" y="0.000000" width="243.100000" height="103.000000" rx="0" ry="0" style="stroke:none;fill:#ffffff;"/>
</a>
<text x="10.000000" y="7.000000" font-family="Arial" font-size="7"></text>
<rect x="87.050000" y="25.000000" width="24.000000" height="24.000000" rx="0" ry="0" style="stroke:none;fill:#cccccc;"/>
<rect x="86.050000" y="24.000000" width="24.000000" height="24.000000" rx="0" ry="0" style="stroke:none;fill:#f44800;"/>
<text x="98.050000" y="38.000000" font-family="Arial" font-size="7" text-anchor="middle" fill="#FFFFFF">1</text>
<circle cx="88.050000" cy="26.000000" r="1"/>
<a xlink:href="saw1-0x7fb5b49a5710.svg">
<rect x="25.000000" y="57.000000" width="116.100000" height="24.000000" rx="0" ry="0" style="stroke:none;fill:#cccccc;"/>
<rect x="24.000000" y="56.000000" width="116.100000" height="24.000000" rx="0" ry="0" style="stroke:none;fill:#003366;"/>
</a>
<a xlink:href="saw1-0x7fb5b49a5710.svg">
<text x="82.050000" y="70.000000" font-family="Arial" font-size="7" text-anchor="middle" fill="#FFFFFF">saw1(0.012500000000000001f)</text>
</a>
<circle cx="26.000000" cy="58.000000" r="1"/>
<rect x="149.100000" y="57.000000" width="24.000000" height="24.000000" rx="0" ry="0" style="stroke:none;fill:#cccccc;"/>
<rect x="148.100000" y="56.000000" width="24.000000" height="24.000000" rx="0" ry="0" style="stroke:none;fill:#4B71A1;"/>
<text x="160.100000" y="70.000000" font-family="Arial" font-size="7" text-anchor="middle" fill="#FFFFFF">abs</text>
<circle cx="150.100000" cy="58.000000" r="1"/>
<line x1="145.100000" y1="67.000000" x2="148.100000" y2="68.000000"  transform="rotate(0.000000,148.100000,68.000000)" style="stroke: black; stroke-width:0.25;"/>
<line x1="145.100000" y1="69.000000" x2="148.100000" y2="68.000000"  transform="rotate(0.000000,148.100000,68.000000)" style="stroke: black; stroke-width:0.25;"/>
<rect x="189.100000" y="41.000000" width="24.000000" height="24.000000" rx="0" ry="0" style="stroke:none;fill:#cccccc;"/>
<rect x="188.100000" y="40.000000" width="24.000000" height="24.000000" rx="0" ry="0" style="stroke:none;fill:#4B71A1;"/>
<text x="200.100000" y="54.000000" font-family="Arial" font-size="7" text-anchor="middle" fill="#FFFFFF">-</text>
<circle cx="190.100000" cy="42.000000" r="1"/>
<line x1="185.100000" y1="47.000000" x2="188.100000" y2="48.000000"  transform="rotate(0.000000,188.100000,48.000000)" style="stroke: black; stroke-width:0.25;"/>
<line x1="185.100000" y1="49.000000" x2="188.100000" y2="48.000000"  transform="rotate(0.000000,188.100000,48.000000)" style="stroke: black; stroke-width:0.25;"/>
<line x1="185.100000" y1="55.000000" x2="188.100000" y2="56.000000"  transform="rotate(0.000000,188.100000,56.000000)" style="stroke: black; stroke-width:0.25;"/>
<line x1="185.100000" y1="57.000000" x2="188.100000" y2="56.000000"  transform="rotate(0.000000,188.100000,56.000000)" style="stroke: black; stroke-width:0.25;"/>
<line x1="15.000000" y1="15.000000" x2="15.000000" y2="89.000000"  style="stroke: black; stroke-linecap:round; stroke-width:0.25; stroke-dasharray:3,3;"/>
<line x1="15.000000" y1="89.000000" x2="229.100000" y2="89.000000"  style="stroke: black; stroke-linecap:round; stroke-width:0.25; stroke-dasharray:3,3;"/>
<line x1="229.100000" y1="89.000000" x2="229.100000" y2="15.000000"  style="stroke: black; stroke-linecap:round; stroke-width:0.25; stroke-dasharray:3,3;"/>
<line x1="15.000000" y1="15.000000" x2="20.000000" y2="15.000000"  style="stroke: black; stroke-linecap:round; stroke-width:0.25; stroke-dasharray:3,3;"/>
<line x1="68.375000" y1="15.000000" x2="229.100000" y2="15.000000"  style="stroke: black; stroke-linecap:round; stroke-width:0.25; stroke-dasharray:3,3;"/>
<text x="20.000000" y="17.000000" font-family="Arial" font-size="7">timeIndex(40)</text>
<line x1="231.100000" y1="51.000000" x2="234.100000" y2="52.000000"  transform="rotate(0.000000,234.100000,52.000000)" style="stroke: black; stroke-width:0.25;"/>
<line x1="231.100000" y1="53.000000" x2="234.100000" y2="52.000000"  transform="rotate(0.000000,234.100000,52.000000)" style="stroke: black; stroke-width:0.25;"/>
<line x1="110.050000" y1="36.000000" x2="114.050000" y2="36.000000"  style="stroke:black; stroke-linecap:round; stroke-width:0.25;"/>
<line x1="114.050000" y1="36.000000" x2="176.100000" y2="36.000000"  style="stroke:black; stroke-linecap:round; stroke-width:0.25;"/>
<line x1="140.100000" y1="68.000000" x2="144.100000" y2="68.000000"  style="stroke:black; stroke-linecap:round; stroke-width:0.25;"/>
<line x1="144.100000" y1="68.000000" x2="144.100000" y2="68.000000"  style="stroke:black; stroke-linecap:round; stroke-width:0.25;"/>
<line x1="144.100000" y1="68.000000" x2="148.100000" y2="68.000000"  style="stroke:black; stroke-linecap:round; stroke-width:0.25;"/>
<line x1="172.100000" y1="68.000000" x2="176.100000" y2="68.000000"  style="stroke:black; stroke-linecap:round; stroke-width:0.25;"/>
<line x1="176.100000" y1="36.000000" x2="184.100000" y2="36.000000"  style="stroke:black; stroke-linecap:round; stroke-width:0.25;"/>
<line x1="176.100000" y1="56.000000" x2="184.100000" y2="56.000000"  style="stroke:black; stroke-linecap:round; stroke-width:0.25;"/>
<line x1="176.100000" y1="68.000000" x2="176.100000" y2="56.000000"  style="stroke:black; stroke-linecap:round; stroke-width:0.25;"/>
<line x1="176.100000" y1="68.000000" x2="176.100000" y2="68.000000"  style="stroke:black; stroke-linecap:round; stroke-width:0.25;"/>
<line x1="184.100000" y1="36.000000" x2="184.100000" y2="48.000000"  style="stroke:black; stroke-linecap:round; stroke-width:0.25;"/>
<line x1="184.100000" y1="48.000000" x2="184.100000" y2="48.000000"  style="stroke:black; stroke-linecap:round; stroke-width:0.25;"/>
<line x1="184.100000" y1="48.000000" x2="188.100000" y2="48.000000"  style="stroke:black; stroke-linecap:round; stroke-width:0.25;"/>
<line x1="184.100000" y1="56.000000" x2="188.100000" y2="56.000000"  style="stroke:black; stroke-linecap:round; stroke-width:0.25;"/>
<line x1="212.100000" y1="52.000000" x2="216.100000" y2="52.000000"  style="stroke:black; stroke-linecap:round; stroke-width:0.25;"/>
<line x1="216.100000" y1="52.000000" x2="216.100000" y2="52.000000"  style="stroke:black; stroke-linecap:round; stroke-width:0.25;"/>
<line x1="216.100000" y1="52.000000" x2="220.100000" y2="52.000000"  style="stroke:black; stroke-linecap:round; stroke-width:0.25;"/>
<line x1="220.100000" y1="52.000000" x2="224.100000" y2="52.000000"  style="stroke:black; stroke-linecap:round; stroke-width:0.25;"/>
<line x1="224.100000" y1="52.000000" x2="234.100000" y2="52.000000"  style="stroke:black; stroke-linecap:round; stroke-width:0.25;"/>
</svg>
